<?xml version="1.0" encoding="utf-8" standalone="no"?>
<!DOCTYPE svg PUBLIC "-//W3C//DTD SVG 1.1//EN"
  "http://www.w3.org/Graphics/SVG/1.1/DTD/svg11.dtd">
<svg xmlns:xlink="http://www.w3.org/1999/xlink" width="460.8pt" height="345.6pt" viewBox="0 0 460.8 345.6" xmlns="http://www.w3.org/2000/svg" version="1.1">
 <metadata>
  <rdf:RDF xmlns:dc="http://purl.org/dc/elements/1.1/" xmlns:cc="http://creativecommons.org/ns#" xmlns:rdf="http://www.w3.org/1999/02/22-rdf-syntax-ns#">
   <cc:Work>
    <dc:type rdf:resource="http://purl.org/dc/dcmitype/StillImage"/>
    <dc:date>2024-06-19T20:44:13.714740</dc:date>
    <dc:format>image/svg+xml</dc:format>
    <dc:creator>
     <cc:Agent>
      <dc:title>Matplotlib v3.8.0, https://matplotlib.org/</dc:title>
     </cc:Agent>
    </dc:creator>
   </cc:Work>
  </rdf:RDF>
 </metadata>
 <defs>
  <style type="text/css">*{stroke-linejoin: round; stroke-linecap: butt}</style>
 </defs>
 <g id="figure_1">
  <g id="patch_1">
   <path d="M 0 345.6 
L 460.8 345.6 
L 460.8 0 
L 0 0 
z
" style="fill: #ffffff"/>
  </g>
  <g id="axes_1">
   <g id="patch_2">
    <path d="M 57.6 307.584 
L 414.72 307.584 
L 414.72 41.472 
L 57.6 41.472 
z
" style="fill: #ffffff"/>
   </g>
   <g id="patch_3">
    <path d="M 73.832727 307.584 
L 79.335347 307.584 
L 79.335347 307.584 
L 73.832727 307.584 
z
" clip-path="url(#pf9b22ee1de)" style="fill: #1f77b4; opacity: 0.4"/>
   </g>
   <g id="patch_4">
    <path d="M 79.335347 307.584 
L 84.837966 307.584 
L 84.837966 307.584 
L 79.335347 307.584 
z
" clip-path="url(#pf9b22ee1de)" style="fill: #1f77b4; opacity: 0.4"/>
   </g>
   <g id="patch_5">
    <path d="M 84.837966 307.584 
L 90.340586 307.584 
L 90.340586 307.584 
L 84.837966 307.584 
z
" clip-path="url(#pf9b22ee1de)" style="fill: #1f77b4; opacity: 0.4"/>
   </g>
   <g id="patch_6">
    <path d="M 90.340586 307.584 
L 95.843205 307.584 
L 95.843205 307.584 
L 90.340586 307.584 
z
" clip-path="url(#pf9b22ee1de)" style="fill: #1f77b4; opacity: 0.4"/>
   </g>
   <g id="patch_7">
    <path d="M 95.843205 307.584 
L 101.345824 307.584 
L 101.345824 307.584 
L 95.843205 307.584 
z
" clip-path="url(#pf9b22ee1de)" style="fill: #1f77b4; opacity: 0.4"/>
   </g>
   <g id="patch_8">
    <path d="M 101.345824 307.584 
L 106.848444 307.584 
L 106.848444 307.584 
L 101.345824 307.584 
z
" clip-path="url(#pf9b22ee1de)" style="fill: #1f77b4; opacity: 0.4"/>
   </g>
   <g id="patch_9">
    <path d="M 106.848444 307.584 
L 112.351063 307.584 
L 112.351063 307.584 
L 106.848444 307.584 
z
" clip-path="url(#pf9b22ee1de)" style="fill: #1f77b4; opacity: 0.4"/>
   </g>
   <g id="patch_10">
    <path d="M 112.351063 307.584 
L 117.853683 307.584 
L 117.853683 307.584 
L 112.351063 307.584 
z
" clip-path="url(#pf9b22ee1de)" style="fill: #1f77b4; opacity: 0.4"/>
   </g>
   <g id="patch_11">
    <path d="M 117.853683 307.584 
L 123.356302 307.584 
L 123.356302 307.584 
L 117.853683 307.584 
z
" clip-path="url(#pf9b22ee1de)" style="fill: #1f77b4; opacity: 0.4"/>
   </g>
   <g id="patch_12">
    <path d="M 123.356302 307.584 
L 128.858921 307.584 
L 128.858921 307.584 
L 123.356302 307.584 
z
" clip-path="url(#pf9b22ee1de)" style="fill: #1f77b4; opacity: 0.4"/>
   </g>
   <g id="patch_13">
    <path d="M 128.858921 307.584 
L 134.361541 307.584 
L 134.361541 307.584 
L 128.858921 307.584 
z
" clip-path="url(#pf9b22ee1de)" style="fill: #1f77b4; opacity: 0.4"/>
   </g>
   <g id="patch_14">
    <path d="M 134.361541 307.584 
L 139.86416 307.584 
L 139.86416 307.584 
L 134.361541 307.584 
z
" clip-path="url(#pf9b22ee1de)" style="fill: #1f77b4; opacity: 0.4"/>
   </g>
   <g id="patch_15">
    <path d="M 139.86416 307.584 
L 145.36678 307.584 
L 145.36678 307.584 
L 139.86416 307.584 
z
" clip-path="url(#pf9b22ee1de)" style="fill: #1f77b4; opacity: 0.4"/>
   </g>
   <g id="patch_16">
    <path d="M 145.36678 307.584 
L 150.869399 307.584 
L 150.869399 286.464 
L 145.36678 286.464 
z
" clip-path="url(#pf9b22ee1de)" style="fill: #1f77b4; opacity: 0.4"/>
   </g>
   <g id="patch_17">
    <path d="M 150.869399 307.584 
L 156.372018 307.584 
L 156.372018 307.584 
L 150.869399 307.584 
z
" clip-path="url(#pf9b22ee1de)" style="fill: #1f77b4; opacity: 0.4"/>
   </g>
   <g id="patch_18">
    <path d="M 156.372018 307.584 
L 161.874638 307.584 
L 161.874638 265.344 
L 156.372018 265.344 
z
" clip-path="url(#pf9b22ee1de)" style="fill: #1f77b4; opacity: 0.4"/>
   </g>
   <g id="patch_19">
    <path d="M 161.874638 307.584 
L 167.377257 307.584 
L 167.377257 244.224 
L 161.874638 244.224 
z
" clip-path="url(#pf9b22ee1de)" style="fill: #1f77b4; opacity: 0.4"/>
   </g>
   <g id="patch_20">
    <path d="M 167.377257 307.584 
L 172.879877 307.584 
L 172.879877 265.344 
L 167.377257 265.344 
z
" clip-path="url(#pf9b22ee1de)" style="fill: #1f77b4; opacity: 0.4"/>
   </g>
   <g id="patch_21">
    <path d="M 172.879877 307.584 
L 178.382496 307.584 
L 178.382496 244.224 
L 172.879877 244.224 
z
" clip-path="url(#pf9b22ee1de)" style="fill: #1f77b4; opacity: 0.4"/>
   </g>
   <g id="patch_22">
    <path d="M 178.382496 307.584 
L 183.885116 307.584 
L 183.885116 201.984 
L 178.382496 201.984 
z
" clip-path="url(#pf9b22ee1de)" style="fill: #1f77b4; opacity: 0.4"/>
   </g>
   <g id="patch_23">
    <path d="M 183.885116 307.584 
L 189.387735 307.584 
L 189.387735 138.624 
L 183.885116 138.624 
z
" clip-path="url(#pf9b22ee1de)" style="fill: #1f77b4; opacity: 0.4"/>
   </g>
   <g id="patch_24">
    <path d="M 189.387735 307.584 
L 194.890354 307.584 
L 194.890354 180.864 
L 189.387735 180.864 
z
" clip-path="url(#pf9b22ee1de)" style="fill: #1f77b4; opacity: 0.4"/>
   </g>
   <g id="patch_25">
    <path d="M 194.890354 307.584 
L 200.392974 307.584 
L 200.392974 201.984 
L 194.890354 201.984 
z
" clip-path="url(#pf9b22ee1de)" style="fill: #1f77b4; opacity: 0.4"/>
   </g>
   <g id="patch_26">
    <path d="M 200.392974 307.584 
L 205.895593 307.584 
L 205.895593 138.624 
L 200.392974 138.624 
z
" clip-path="url(#pf9b22ee1de)" style="fill: #1f77b4; opacity: 0.4"/>
   </g>
   <g id="patch_27">
    <path d="M 205.895593 307.584 
L 211.398213 307.584 
L 211.398213 54.144 
L 205.895593 54.144 
z
" clip-path="url(#pf9b22ee1de)" style="fill: #1f77b4; opacity: 0.4"/>
   </g>
   <g id="patch_28">
    <path d="M 211.398213 307.584 
L 216.900832 307.584 
L 216.900832 201.984 
L 211.398213 201.984 
z
" clip-path="url(#pf9b22ee1de)" style="fill: #1f77b4; opacity: 0.4"/>
   </g>
   <g id="patch_29">
    <path d="M 216.900832 307.584 
L 222.403451 307.584 
L 222.403451 180.864 
L 216.900832 180.864 
z
" clip-path="url(#pf9b22ee1de)" style="fill: #1f77b4; opacity: 0.4"/>
   </g>
   <g id="patch_30">
    <path d="M 222.403451 307.584 
L 227.906071 307.584 
L 227.906071 138.624 
L 222.403451 138.624 
z
" clip-path="url(#pf9b22ee1de)" style="fill: #1f77b4; opacity: 0.4"/>
   </g>
   <g id="patch_31">
    <path d="M 227.906071 307.584 
L 233.40869 307.584 
L 233.40869 96.384 
L 227.906071 96.384 
z
" clip-path="url(#pf9b22ee1de)" style="fill: #1f77b4; opacity: 0.4"/>
   </g>
   <g id="patch_32">
    <path d="M 233.40869 307.584 
L 238.91131 307.584 
L 238.91131 223.104 
L 233.40869 223.104 
z
" clip-path="url(#pf9b22ee1de)" style="fill: #1f77b4; opacity: 0.4"/>
   </g>
   <g id="patch_33">
    <path d="M 238.91131 307.584 
L 244.413929 307.584 
L 244.413929 180.864 
L 238.91131 180.864 
z
" clip-path="url(#pf9b22ee1de)" style="fill: #1f77b4; opacity: 0.4"/>
   </g>
   <g id="patch_34">
    <path d="M 244.413929 307.584 
L 249.916549 307.584 
L 249.916549 138.624 
L 244.413929 138.624 
z
" clip-path="url(#pf9b22ee1de)" style="fill: #1f77b4; opacity: 0.4"/>
   </g>
   <g id="patch_35">
    <path d="M 249.916549 307.584 
L 255.419168 307.584 
L 255.419168 223.104 
L 249.916549 223.104 
z
" clip-path="url(#pf9b22ee1de)" style="fill: #1f77b4; opacity: 0.4"/>
   </g>
   <g id="patch_36">
    <path d="M 255.419168 307.584 
L 260.921787 307.584 
L 260.921787 180.864 
L 255.419168 180.864 
z
" clip-path="url(#pf9b22ee1de)" style="fill: #1f77b4; opacity: 0.4"/>
   </g>
   <g id="patch_37">
    <path d="M 260.921787 307.584 
L 266.424407 307.584 
L 266.424407 244.224 
L 260.921787 244.224 
z
" clip-path="url(#pf9b22ee1de)" style="fill: #1f77b4; opacity: 0.4"/>
   </g>
   <g id="patch_38">
    <path d="M 266.424407 307.584 
L 271.927026 307.584 
L 271.927026 244.224 
L 266.424407 244.224 
z
" clip-path="url(#pf9b22ee1de)" style="fill: #1f77b4; opacity: 0.4"/>
   </g>
   <g id="patch_39">
    <path d="M 271.927026 307.584 
L 277.429646 307.584 
L 277.429646 265.344 
L 271.927026 265.344 
z
" clip-path="url(#pf9b22ee1de)" style="fill: #1f77b4; opacity: 0.4"/>
   </g>
   <g id="patch_40">
    <path d="M 277.429646 307.584 
L 282.932265 307.584 
L 282.932265 223.104 
L 277.429646 223.104 
z
" clip-path="url(#pf9b22ee1de)" style="fill: #1f77b4; opacity: 0.4"/>
   </g>
   <g id="patch_41">
    <path d="M 282.932265 307.584 
L 288.434884 307.584 
L 288.434884 286.464 
L 282.932265 286.464 
z
" clip-path="url(#pf9b22ee1de)" style="fill: #1f77b4; opacity: 0.4"/>
   </g>
   <g id="patch_42">
    <path d="M 288.434884 307.584 
L 293.937504 307.584 
L 293.937504 265.344 
L 288.434884 265.344 
z
" clip-path="url(#pf9b22ee1de)" style="fill: #1f77b4; opacity: 0.4"/>
   </g>
   <g id="patch_43">
    <path d="M 293.937504 307.584 
L 299.440123 307.584 
L 299.440123 286.464 
L 293.937504 286.464 
z
" clip-path="url(#pf9b22ee1de)" style="fill: #1f77b4; opacity: 0.4"/>
   </g>
   <g id="patch_44">
    <path d="M 299.440123 307.584 
L 304.942743 307.584 
L 304.942743 265.344 
L 299.440123 265.344 
z
" clip-path="url(#pf9b22ee1de)" style="fill: #1f77b4; opacity: 0.4"/>
   </g>
   <g id="patch_45">
    <path d="M 304.942743 307.584 
L 310.445362 307.584 
L 310.445362 265.344 
L 304.942743 265.344 
z
" clip-path="url(#pf9b22ee1de)" style="fill: #1f77b4; opacity: 0.4"/>
   </g>
   <g id="patch_46">
    <path d="M 310.445362 307.584 
L 315.947982 307.584 
L 315.947982 265.344 
L 310.445362 265.344 
z
" clip-path="url(#pf9b22ee1de)" style="fill: #1f77b4; opacity: 0.4"/>
   </g>
   <g id="patch_47">
    <path d="M 315.947982 307.584 
L 321.450601 307.584 
L 321.450601 307.584 
L 315.947982 307.584 
z
" clip-path="url(#pf9b22ee1de)" style="fill: #1f77b4; opacity: 0.4"/>
   </g>
   <g id="patch_48">
    <path d="M 321.450601 307.584 
L 326.95322 307.584 
L 326.95322 244.224 
L 321.450601 244.224 
z
" clip-path="url(#pf9b22ee1de)" style="fill: #1f77b4; opacity: 0.4"/>
   </g>
   <g id="patch_49">
    <path d="M 326.95322 307.584 
L 332.45584 307.584 
L 332.45584 201.984 
L 326.95322 201.984 
z
" clip-path="url(#pf9b22ee1de)" style="fill: #1f77b4; opacity: 0.4"/>
   </g>
   <g id="patch_50">
    <path d="M 332.45584 307.584 
L 337.958459 307.584 
L 337.958459 286.464 
L 332.45584 286.464 
z
" clip-path="url(#pf9b22ee1de)" style="fill: #1f77b4; opacity: 0.4"/>
   </g>
   <g id="patch_51">
    <path d="M 337.958459 307.584 
L 343.461079 307.584 
L 343.461079 265.344 
L 337.958459 265.344 
z
" clip-path="url(#pf9b22ee1de)" style="fill: #1f77b4; opacity: 0.4"/>
   </g>
   <g id="patch_52">
    <path d="M 343.461079 307.584 
L 348.963698 307.584 
L 348.963698 265.344 
L 343.461079 265.344 
z
" clip-path="url(#pf9b22ee1de)" style="fill: #1f77b4; opacity: 0.4"/>
   </g>
   <g id="patch_53">
    <path d="M 348.963698 307.584 
L 354.466317 307.584 
L 354.466317 286.464 
L 348.963698 286.464 
z
" clip-path="url(#pf9b22ee1de)" style="fill: #1f77b4; opacity: 0.4"/>
   </g>
   <g id="patch_54">
    <path d="M 354.466317 307.584 
L 359.968937 307.584 
L 359.968937 244.224 
L 354.466317 244.224 
z
" clip-path="url(#pf9b22ee1de)" style="fill: #1f77b4; opacity: 0.4"/>
   </g>
   <g id="patch_55">
    <path d="M 359.968937 307.584 
L 365.471556 307.584 
L 365.471556 201.984 
L 359.968937 201.984 
z
" clip-path="url(#pf9b22ee1de)" style="fill: #1f77b4; opacity: 0.4"/>
   </g>
   <g id="patch_56">
    <path d="M 365.471556 307.584 
L 370.974176 307.584 
L 370.974176 286.464 
L 365.471556 286.464 
z
" clip-path="url(#pf9b22ee1de)" style="fill: #1f77b4; opacity: 0.4"/>
   </g>
   <g id="patch_57">
    <path d="M 370.974176 307.584 
L 376.476795 307.584 
L 376.476795 265.344 
L 370.974176 265.344 
z
" clip-path="url(#pf9b22ee1de)" style="fill: #1f77b4; opacity: 0.4"/>
   </g>
   <g id="patch_58">
    <path d="M 376.476795 307.584 
L 381.979414 307.584 
L 381.979414 286.464 
L 376.476795 286.464 
z
" clip-path="url(#pf9b22ee1de)" style="fill: #1f77b4; opacity: 0.4"/>
   </g>
   <g id="patch_59">
    <path d="M 381.979414 307.584 
L 387.482034 307.584 
L 387.482034 286.464 
L 381.979414 286.464 
z
" clip-path="url(#pf9b22ee1de)" style="fill: #1f77b4; opacity: 0.4"/>
   </g>
   <g id="patch_60">
    <path d="M 387.482034 307.584 
L 392.984653 307.584 
L 392.984653 223.104 
L 387.482034 223.104 
z
" clip-path="url(#pf9b22ee1de)" style="fill: #1f77b4; opacity: 0.4"/>
   </g>
   <g id="patch_61">
    <path d="M 392.984653 307.584 
L 398.487273 307.584 
L 398.487273 244.224 
L 392.984653 244.224 
z
" clip-path="url(#pf9b22ee1de)" style="fill: #1f77b4; opacity: 0.4"/>
   </g>
   <g id="patch_62">
    <path d="M 73.832727 307.584 
L 79.335347 307.584 
L 79.335347 307.584 
L 73.832727 307.584 
z
" clip-path="url(#pf9b22ee1de)" style="fill: #ff7f0e; opacity: 0.4"/>
   </g>
   <g id="patch_63">
    <path d="M 79.335347 307.584 
L 84.837966 307.584 
L 84.837966 307.584 
L 79.335347 307.584 
z
" clip-path="url(#pf9b22ee1de)" style="fill: #ff7f0e; opacity: 0.4"/>
   </g>
   <g id="patch_64">
    <path d="M 84.837966 307.584 
L 90.340586 307.584 
L 90.340586 307.584 
L 84.837966 307.584 
z
" clip-path="url(#pf9b22ee1de)" style="fill: #ff7f0e; opacity: 0.4"/>
   </g>
   <g id="patch_65">
    <path d="M 90.340586 307.584 
L 95.843205 307.584 
L 95.843205 307.584 
L 90.340586 307.584 
z
" clip-path="url(#pf9b22ee1de)" style="fill: #ff7f0e; opacity: 0.4"/>
   </g>
   <g id="patch_66">
    <path d="M 95.843205 307.584 
L 101.345824 307.584 
L 101.345824 307.584 
L 95.843205 307.584 
z
" clip-path="url(#pf9b22ee1de)" style="fill: #ff7f0e; opacity: 0.4"/>
   </g>
   <g id="patch_67">
    <path d="M 101.345824 307.584 
L 106.848444 307.584 
L 106.848444 307.584 
L 101.345824 307.584 
z
" clip-path="url(#pf9b22ee1de)" style="fill: #ff7f0e; opacity: 0.4"/>
   </g>
   <g id="patch_68">
    <path d="M 106.848444 307.584 
L 112.351063 307.584 
L 112.351063 307.584 
L 106.848444 307.584 
z
" clip-path="url(#pf9b22ee1de)" style="fill: #ff7f0e; opacity: 0.4"/>
   </g>
   <g id="patch_69">
    <path d="M 112.351063 307.584 
L 117.853683 307.584 
L 117.853683 307.584 
L 112.351063 307.584 
z
" clip-path="url(#pf9b22ee1de)" style="fill: #ff7f0e; opacity: 0.4"/>
   </g>
   <g id="patch_70">
    <path d="M 117.853683 307.584 
L 123.356302 307.584 
L 123.356302 299.389635 
L 117.853683 299.389635 
z
" clip-path="url(#pf9b22ee1de)" style="fill: #ff7f0e; opacity: 0.4"/>
   </g>
   <g id="patch_71">
    <path d="M 123.356302 307.584 
L 128.858921 307.584 
L 128.858921 301.438226 
L 123.356302 301.438226 
z
" clip-path="url(#pf9b22ee1de)" style="fill: #ff7f0e; opacity: 0.4"/>
   </g>
   <g id="patch_72">
    <path d="M 128.858921 307.584 
L 134.361541 307.584 
L 134.361541 303.486818 
L 128.858921 303.486818 
z
" clip-path="url(#pf9b22ee1de)" style="fill: #ff7f0e; opacity: 0.4"/>
   </g>
   <g id="patch_73">
    <path d="M 134.361541 307.584 
L 139.86416 307.584 
L 139.86416 299.389635 
L 134.361541 299.389635 
z
" clip-path="url(#pf9b22ee1de)" style="fill: #ff7f0e; opacity: 0.4"/>
   </g>
   <g id="patch_74">
    <path d="M 139.86416 307.584 
L 145.36678 307.584 
L 145.36678 289.146679 
L 139.86416 289.146679 
z
" clip-path="url(#pf9b22ee1de)" style="fill: #ff7f0e; opacity: 0.4"/>
   </g>
   <g id="patch_75">
    <path d="M 145.36678 307.584 
L 150.869399 307.584 
L 150.869399 285.049497 
L 145.36678 285.049497 
z
" clip-path="url(#pf9b22ee1de)" style="fill: #ff7f0e; opacity: 0.4"/>
   </g>
   <g id="patch_76">
    <path d="M 150.869399 307.584 
L 156.372018 307.584 
L 156.372018 274.80654 
L 150.869399 274.80654 
z
" clip-path="url(#pf9b22ee1de)" style="fill: #ff7f0e; opacity: 0.4"/>
   </g>
   <g id="patch_77">
    <path d="M 156.372018 307.584 
L 161.874638 307.584 
L 161.874638 254.320628 
L 156.372018 254.320628 
z
" clip-path="url(#pf9b22ee1de)" style="fill: #ff7f0e; opacity: 0.4"/>
   </g>
   <g id="patch_78">
    <path d="M 161.874638 307.584 
L 167.377257 307.584 
L 167.377257 239.98049 
L 161.874638 239.98049 
z
" clip-path="url(#pf9b22ee1de)" style="fill: #ff7f0e; opacity: 0.4"/>
   </g>
   <g id="patch_79">
    <path d="M 167.377257 307.584 
L 172.879877 307.584 
L 172.879877 246.126263 
L 167.377257 246.126263 
z
" clip-path="url(#pf9b22ee1de)" style="fill: #ff7f0e; opacity: 0.4"/>
   </g>
   <g id="patch_80">
    <path d="M 172.879877 307.584 
L 178.382496 307.584 
L 178.382496 223.59176 
L 172.879877 223.59176 
z
" clip-path="url(#pf9b22ee1de)" style="fill: #ff7f0e; opacity: 0.4"/>
   </g>
   <g id="patch_81">
    <path d="M 178.382496 307.584 
L 183.885116 307.584 
L 183.885116 217.445986 
L 178.382496 217.445986 
z
" clip-path="url(#pf9b22ee1de)" style="fill: #ff7f0e; opacity: 0.4"/>
   </g>
   <g id="patch_82">
    <path d="M 183.885116 307.584 
L 189.387735 307.584 
L 189.387735 203.105848 
L 183.885116 203.105848 
z
" clip-path="url(#pf9b22ee1de)" style="fill: #ff7f0e; opacity: 0.4"/>
   </g>
   <g id="patch_83">
    <path d="M 189.387735 307.584 
L 194.890354 307.584 
L 194.890354 184.668527 
L 189.387735 184.668527 
z
" clip-path="url(#pf9b22ee1de)" style="fill: #ff7f0e; opacity: 0.4"/>
   </g>
   <g id="patch_84">
    <path d="M 194.890354 307.584 
L 200.392974 307.584 
L 200.392974 194.911483 
L 194.890354 194.911483 
z
" clip-path="url(#pf9b22ee1de)" style="fill: #ff7f0e; opacity: 0.4"/>
   </g>
   <g id="patch_85">
    <path d="M 200.392974 307.584 
L 205.895593 307.584 
L 205.895593 172.376979 
L 200.392974 172.376979 
z
" clip-path="url(#pf9b22ee1de)" style="fill: #ff7f0e; opacity: 0.4"/>
   </g>
   <g id="patch_86">
    <path d="M 205.895593 307.584 
L 211.398213 307.584 
L 211.398213 176.474162 
L 205.895593 176.474162 
z
" clip-path="url(#pf9b22ee1de)" style="fill: #ff7f0e; opacity: 0.4"/>
   </g>
   <g id="patch_87">
    <path d="M 211.398213 307.584 
L 216.900832 307.584 
L 216.900832 141.648111 
L 211.398213 141.648111 
z
" clip-path="url(#pf9b22ee1de)" style="fill: #ff7f0e; opacity: 0.4"/>
   </g>
   <g id="patch_88">
    <path d="M 216.900832 307.584 
L 222.403451 307.584 
L 222.403451 168.279797 
L 216.900832 168.279797 
z
" clip-path="url(#pf9b22ee1de)" style="fill: #ff7f0e; opacity: 0.4"/>
   </g>
   <g id="patch_89">
    <path d="M 222.403451 307.584 
L 227.906071 307.584 
L 227.906071 176.474162 
L 222.403451 176.474162 
z
" clip-path="url(#pf9b22ee1de)" style="fill: #ff7f0e; opacity: 0.4"/>
   </g>
   <g id="patch_90">
    <path d="M 227.906071 307.584 
L 233.40869 307.584 
L 233.40869 180.571344 
L 227.906071 180.571344 
z
" clip-path="url(#pf9b22ee1de)" style="fill: #ff7f0e; opacity: 0.4"/>
   </g>
   <g id="patch_91">
    <path d="M 233.40869 307.584 
L 238.91131 307.584 
L 238.91131 174.42557 
L 233.40869 174.42557 
z
" clip-path="url(#pf9b22ee1de)" style="fill: #ff7f0e; opacity: 0.4"/>
   </g>
   <g id="patch_92">
    <path d="M 238.91131 307.584 
L 244.413929 307.584 
L 244.413929 184.668527 
L 238.91131 184.668527 
z
" clip-path="url(#pf9b22ee1de)" style="fill: #ff7f0e; opacity: 0.4"/>
   </g>
   <g id="patch_93">
    <path d="M 244.413929 307.584 
L 249.916549 307.584 
L 249.916549 160.085432 
L 244.413929 160.085432 
z
" clip-path="url(#pf9b22ee1de)" style="fill: #ff7f0e; opacity: 0.4"/>
   </g>
   <g id="patch_94">
    <path d="M 249.916549 307.584 
L 255.419168 307.584 
L 255.419168 196.960074 
L 249.916549 196.960074 
z
" clip-path="url(#pf9b22ee1de)" style="fill: #ff7f0e; opacity: 0.4"/>
   </g>
   <g id="patch_95">
    <path d="M 255.419168 307.584 
L 260.921787 307.584 
L 260.921787 192.862891 
L 255.419168 192.862891 
z
" clip-path="url(#pf9b22ee1de)" style="fill: #ff7f0e; opacity: 0.4"/>
   </g>
   <g id="patch_96">
    <path d="M 260.921787 307.584 
L 266.424407 307.584 
L 266.424407 205.154439 
L 260.921787 205.154439 
z
" clip-path="url(#pf9b22ee1de)" style="fill: #ff7f0e; opacity: 0.4"/>
   </g>
   <g id="patch_97">
    <path d="M 266.424407 307.584 
L 271.927026 307.584 
L 271.927026 184.668527 
L 266.424407 184.668527 
z
" clip-path="url(#pf9b22ee1de)" style="fill: #ff7f0e; opacity: 0.4"/>
   </g>
   <g id="patch_98">
    <path d="M 271.927026 307.584 
L 277.429646 307.584 
L 277.429646 199.008665 
L 271.927026 199.008665 
z
" clip-path="url(#pf9b22ee1de)" style="fill: #ff7f0e; opacity: 0.4"/>
   </g>
   <g id="patch_99">
    <path d="M 277.429646 307.584 
L 282.932265 307.584 
L 282.932265 211.300212 
L 277.429646 211.300212 
z
" clip-path="url(#pf9b22ee1de)" style="fill: #ff7f0e; opacity: 0.4"/>
   </g>
   <g id="patch_100">
    <path d="M 282.932265 307.584 
L 288.434884 307.584 
L 288.434884 215.397395 
L 282.932265 215.397395 
z
" clip-path="url(#pf9b22ee1de)" style="fill: #ff7f0e; opacity: 0.4"/>
   </g>
   <g id="patch_101">
    <path d="M 288.434884 307.584 
L 293.937504 307.584 
L 293.937504 237.931898 
L 288.434884 237.931898 
z
" clip-path="url(#pf9b22ee1de)" style="fill: #ff7f0e; opacity: 0.4"/>
   </g>
   <g id="patch_102">
    <path d="M 293.937504 307.584 
L 299.440123 307.584 
L 299.440123 250.223446 
L 293.937504 250.223446 
z
" clip-path="url(#pf9b22ee1de)" style="fill: #ff7f0e; opacity: 0.4"/>
   </g>
   <g id="patch_103">
    <path d="M 299.440123 307.584 
L 304.942743 307.584 
L 304.942743 254.320628 
L 299.440123 254.320628 
z
" clip-path="url(#pf9b22ee1de)" style="fill: #ff7f0e; opacity: 0.4"/>
   </g>
   <g id="patch_104">
    <path d="M 304.942743 307.584 
L 310.445362 307.584 
L 310.445362 252.272037 
L 304.942743 252.272037 
z
" clip-path="url(#pf9b22ee1de)" style="fill: #ff7f0e; opacity: 0.4"/>
   </g>
   <g id="patch_105">
    <path d="M 310.445362 307.584 
L 315.947982 307.584 
L 315.947982 242.029081 
L 310.445362 242.029081 
z
" clip-path="url(#pf9b22ee1de)" style="fill: #ff7f0e; opacity: 0.4"/>
   </g>
   <g id="patch_106">
    <path d="M 315.947982 307.584 
L 321.450601 307.584 
L 321.450601 258.417811 
L 315.947982 258.417811 
z
" clip-path="url(#pf9b22ee1de)" style="fill: #ff7f0e; opacity: 0.4"/>
   </g>
   <g id="patch_107">
    <path d="M 321.450601 307.584 
L 326.95322 307.584 
L 326.95322 272.757949 
L 321.450601 272.757949 
z
" clip-path="url(#pf9b22ee1de)" style="fill: #ff7f0e; opacity: 0.4"/>
   </g>
   <g id="patch_108">
    <path d="M 326.95322 307.584 
L 332.45584 307.584 
L 332.45584 258.417811 
L 326.95322 258.417811 
z
" clip-path="url(#pf9b22ee1de)" style="fill: #ff7f0e; opacity: 0.4"/>
   </g>
   <g id="patch_109">
    <path d="M 332.45584 307.584 
L 337.958459 307.584 
L 337.958459 266.612176 
L 332.45584 266.612176 
z
" clip-path="url(#pf9b22ee1de)" style="fill: #ff7f0e; opacity: 0.4"/>
   </g>
   <g id="patch_110">
    <path d="M 337.958459 307.584 
L 343.461079 307.584 
L 343.461079 264.563584 
L 337.958459 264.563584 
z
" clip-path="url(#pf9b22ee1de)" style="fill: #ff7f0e; opacity: 0.4"/>
   </g>
   <g id="patch_111">
    <path d="M 343.461079 307.584 
L 348.963698 307.584 
L 348.963698 278.903723 
L 343.461079 278.903723 
z
" clip-path="url(#pf9b22ee1de)" style="fill: #ff7f0e; opacity: 0.4"/>
   </g>
   <g id="patch_112">
    <path d="M 348.963698 307.584 
L 354.466317 307.584 
L 354.466317 280.952314 
L 348.963698 280.952314 
z
" clip-path="url(#pf9b22ee1de)" style="fill: #ff7f0e; opacity: 0.4"/>
   </g>
   <g id="patch_113">
    <path d="M 354.466317 307.584 
L 359.968937 307.584 
L 359.968937 283.000905 
L 354.466317 283.000905 
z
" clip-path="url(#pf9b22ee1de)" style="fill: #ff7f0e; opacity: 0.4"/>
   </g>
   <g id="patch_114">
    <path d="M 359.968937 307.584 
L 365.471556 307.584 
L 365.471556 270.709358 
L 359.968937 270.709358 
z
" clip-path="url(#pf9b22ee1de)" style="fill: #ff7f0e; opacity: 0.4"/>
   </g>
   <g id="patch_115">
    <path d="M 365.471556 307.584 
L 370.974176 307.584 
L 370.974176 291.19527 
L 365.471556 291.19527 
z
" clip-path="url(#pf9b22ee1de)" style="fill: #ff7f0e; opacity: 0.4"/>
   </g>
   <g id="patch_116">
    <path d="M 370.974176 307.584 
L 376.476795 307.584 
L 376.476795 278.903723 
L 370.974176 278.903723 
z
" clip-path="url(#pf9b22ee1de)" style="fill: #ff7f0e; opacity: 0.4"/>
   </g>
   <g id="patch_117">
    <path d="M 376.476795 307.584 
L 381.979414 307.584 
L 381.979414 278.903723 
L 376.476795 278.903723 
z
" clip-path="url(#pf9b22ee1de)" style="fill: #ff7f0e; opacity: 0.4"/>
   </g>
   <g id="patch_118">
    <path d="M 381.979414 307.584 
L 387.482034 307.584 
L 387.482034 283.000905 
L 381.979414 283.000905 
z
" clip-path="url(#pf9b22ee1de)" style="fill: #ff7f0e; opacity: 0.4"/>
   </g>
   <g id="patch_119">
    <path d="M 387.482034 307.584 
L 392.984653 307.584 
L 392.984653 293.243861 
L 387.482034 293.243861 
z
" clip-path="url(#pf9b22ee1de)" style="fill: #ff7f0e; opacity: 0.4"/>
   </g>
   <g id="patch_120">
    <path d="M 392.984653 307.584 
L 398.487273 307.584 
L 398.487273 285.049497 
L 392.984653 285.049497 
z
" clip-path="url(#pf9b22ee1de)" style="fill: #ff7f0e; opacity: 0.4"/>
   </g>
   <g id="patch_121">
    <path d="M 73.832727 307.584 
L 79.335347 307.584 
L 79.335347 307.584 
L 73.832727 307.584 
z
" clip-path="url(#pf9b22ee1de)" style="fill: #2ca02c; opacity: 0.4"/>
   </g>
   <g id="patch_122">
    <path d="M 79.335347 307.584 
L 84.837966 307.584 
L 84.837966 307.584 
L 79.335347 307.584 
z
" clip-path="url(#pf9b22ee1de)" style="fill: #2ca02c; opacity: 0.4"/>
   </g>
   <g id="patch_123">
    <path d="M 84.837966 307.584 
L 90.340586 307.584 
L 90.340586 307.584 
L 84.837966 307.584 
z
" clip-path="url(#pf9b22ee1de)" style="fill: #2ca02c; opacity: 0.4"/>
   </g>
   <g id="patch_124">
    <path d="M 90.340586 307.584 
L 95.843205 307.584 
L 95.843205 307.584 
L 90.340586 307.584 
z
" clip-path="url(#pf9b22ee1de)" style="fill: #2ca02c; opacity: 0.4"/>
   </g>
   <g id="patch_125">
    <path d="M 95.843205 307.584 
L 101.345824 307.584 
L 101.345824 306.750512 
L 95.843205 306.750512 
z
" clip-path="url(#pf9b22ee1de)" style="fill: #2ca02c; opacity: 0.4"/>
   </g>
   <g id="patch_126">
    <path d="M 101.345824 307.584 
L 106.848444 307.584 
L 106.848444 307.584 
L 101.345824 307.584 
z
" clip-path="url(#pf9b22ee1de)" style="fill: #2ca02c; opacity: 0.4"/>
   </g>
   <g id="patch_127">
    <path d="M 106.848444 307.584 
L 112.351063 307.584 
L 112.351063 305.083535 
L 106.848444 305.083535 
z
" clip-path="url(#pf9b22ee1de)" style="fill: #2ca02c; opacity: 0.4"/>
   </g>
   <g id="patch_128">
    <path d="M 112.351063 307.584 
L 117.853683 307.584 
L 117.853683 305.083535 
L 112.351063 305.083535 
z
" clip-path="url(#pf9b22ee1de)" style="fill: #2ca02c; opacity: 0.4"/>
   </g>
   <g id="patch_129">
    <path d="M 117.853683 307.584 
L 123.356302 307.584 
L 123.356302 306.750512 
L 117.853683 306.750512 
z
" clip-path="url(#pf9b22ee1de)" style="fill: #2ca02c; opacity: 0.4"/>
   </g>
   <g id="patch_130">
    <path d="M 123.356302 307.584 
L 128.858921 307.584 
L 128.858921 299.249116 
L 123.356302 299.249116 
z
" clip-path="url(#pf9b22ee1de)" style="fill: #2ca02c; opacity: 0.4"/>
   </g>
   <g id="patch_131">
    <path d="M 128.858921 307.584 
L 134.361541 307.584 
L 134.361541 295.081674 
L 128.858921 295.081674 
z
" clip-path="url(#pf9b22ee1de)" style="fill: #2ca02c; opacity: 0.4"/>
   </g>
   <g id="patch_132">
    <path d="M 134.361541 307.584 
L 139.86416 307.584 
L 139.86416 292.581209 
L 134.361541 292.581209 
z
" clip-path="url(#pf9b22ee1de)" style="fill: #2ca02c; opacity: 0.4"/>
   </g>
   <g id="patch_133">
    <path d="M 139.86416 307.584 
L 145.36678 307.584 
L 145.36678 285.913302 
L 139.86416 285.913302 
z
" clip-path="url(#pf9b22ee1de)" style="fill: #2ca02c; opacity: 0.4"/>
   </g>
   <g id="patch_134">
    <path d="M 145.36678 307.584 
L 150.869399 307.584 
L 150.869399 276.74493 
L 145.36678 276.74493 
z
" clip-path="url(#pf9b22ee1de)" style="fill: #2ca02c; opacity: 0.4"/>
   </g>
   <g id="patch_135">
    <path d="M 150.869399 307.584 
L 156.372018 307.584 
L 156.372018 284.246326 
L 150.869399 284.246326 
z
" clip-path="url(#pf9b22ee1de)" style="fill: #2ca02c; opacity: 0.4"/>
   </g>
   <g id="patch_136">
    <path d="M 156.372018 307.584 
L 161.874638 307.584 
L 161.874638 256.741209 
L 156.372018 256.741209 
z
" clip-path="url(#pf9b22ee1de)" style="fill: #2ca02c; opacity: 0.4"/>
   </g>
   <g id="patch_137">
    <path d="M 161.874638 307.584 
L 167.377257 307.584 
L 167.377257 245.90586 
L 161.874638 245.90586 
z
" clip-path="url(#pf9b22ee1de)" style="fill: #2ca02c; opacity: 0.4"/>
   </g>
   <g id="patch_138">
    <path d="M 167.377257 307.584 
L 172.879877 307.584 
L 172.879877 235.070512 
L 167.377257 235.070512 
z
" clip-path="url(#pf9b22ee1de)" style="fill: #2ca02c; opacity: 0.4"/>
   </g>
   <g id="patch_139">
    <path d="M 172.879877 307.584 
L 178.382496 307.584 
L 178.382496 231.736558 
L 172.879877 231.736558 
z
" clip-path="url(#pf9b22ee1de)" style="fill: #2ca02c; opacity: 0.4"/>
   </g>
   <g id="patch_140">
    <path d="M 178.382496 307.584 
L 183.885116 307.584 
L 183.885116 207.565395 
L 178.382496 207.565395 
z
" clip-path="url(#pf9b22ee1de)" style="fill: #2ca02c; opacity: 0.4"/>
   </g>
   <g id="patch_141">
    <path d="M 183.885116 307.584 
L 189.387735 307.584 
L 189.387735 215.066791 
L 183.885116 215.066791 
z
" clip-path="url(#pf9b22ee1de)" style="fill: #2ca02c; opacity: 0.4"/>
   </g>
   <g id="patch_142">
    <path d="M 189.387735 307.584 
L 194.890354 307.584 
L 194.890354 224.235163 
L 189.387735 224.235163 
z
" clip-path="url(#pf9b22ee1de)" style="fill: #2ca02c; opacity: 0.4"/>
   </g>
   <g id="patch_143">
    <path d="M 194.890354 307.584 
L 200.392974 307.584 
L 200.392974 188.395163 
L 194.890354 188.395163 
z
" clip-path="url(#pf9b22ee1de)" style="fill: #2ca02c; opacity: 0.4"/>
   </g>
   <g id="patch_144">
    <path d="M 200.392974 307.584 
L 205.895593 307.584 
L 205.895593 200.064 
L 200.392974 200.064 
z
" clip-path="url(#pf9b22ee1de)" style="fill: #2ca02c; opacity: 0.4"/>
   </g>
   <g id="patch_145">
    <path d="M 205.895593 307.584 
L 211.398213 307.584 
L 211.398213 196.730047 
L 205.895593 196.730047 
z
" clip-path="url(#pf9b22ee1de)" style="fill: #2ca02c; opacity: 0.4"/>
   </g>
   <g id="patch_146">
    <path d="M 211.398213 307.584 
L 216.900832 307.584 
L 216.900832 213.399814 
L 211.398213 213.399814 
z
" clip-path="url(#pf9b22ee1de)" style="fill: #2ca02c; opacity: 0.4"/>
   </g>
   <g id="patch_147">
    <path d="M 216.900832 307.584 
L 222.403451 307.584 
L 222.403451 206.731907 
L 216.900832 206.731907 
z
" clip-path="url(#pf9b22ee1de)" style="fill: #2ca02c; opacity: 0.4"/>
   </g>
   <g id="patch_148">
    <path d="M 222.403451 307.584 
L 227.906071 307.584 
L 227.906071 189.228651 
L 222.403451 189.228651 
z
" clip-path="url(#pf9b22ee1de)" style="fill: #2ca02c; opacity: 0.4"/>
   </g>
   <g id="patch_149">
    <path d="M 227.906071 307.584 
L 233.40869 307.584 
L 233.40869 210.06586 
L 227.906071 210.06586 
z
" clip-path="url(#pf9b22ee1de)" style="fill: #2ca02c; opacity: 0.4"/>
   </g>
   <g id="patch_150">
    <path d="M 233.40869 307.584 
L 238.91131 307.584 
L 238.91131 215.066791 
L 233.40869 215.066791 
z
" clip-path="url(#pf9b22ee1de)" style="fill: #2ca02c; opacity: 0.4"/>
   </g>
   <g id="patch_151">
    <path d="M 238.91131 307.584 
L 244.413929 307.584 
L 244.413929 202.564465 
L 238.91131 202.564465 
z
" clip-path="url(#pf9b22ee1de)" style="fill: #2ca02c; opacity: 0.4"/>
   </g>
   <g id="patch_152">
    <path d="M 244.413929 307.584 
L 249.916549 307.584 
L 249.916549 212.566326 
L 244.413929 212.566326 
z
" clip-path="url(#pf9b22ee1de)" style="fill: #2ca02c; opacity: 0.4"/>
   </g>
   <g id="patch_153">
    <path d="M 249.916549 307.584 
L 255.419168 307.584 
L 255.419168 208.398884 
L 249.916549 208.398884 
z
" clip-path="url(#pf9b22ee1de)" style="fill: #2ca02c; opacity: 0.4"/>
   </g>
   <g id="patch_154">
    <path d="M 255.419168 307.584 
L 260.921787 307.584 
L 260.921787 222.568186 
L 255.419168 222.568186 
z
" clip-path="url(#pf9b22ee1de)" style="fill: #2ca02c; opacity: 0.4"/>
   </g>
   <g id="patch_155">
    <path d="M 260.921787 307.584 
L 266.424407 307.584 
L 266.424407 213.399814 
L 260.921787 213.399814 
z
" clip-path="url(#pf9b22ee1de)" style="fill: #2ca02c; opacity: 0.4"/>
   </g>
   <g id="patch_156">
    <path d="M 266.424407 307.584 
L 271.927026 307.584 
L 271.927026 226.735628 
L 266.424407 226.735628 
z
" clip-path="url(#pf9b22ee1de)" style="fill: #2ca02c; opacity: 0.4"/>
   </g>
   <g id="patch_157">
    <path d="M 271.927026 307.584 
L 277.429646 307.584 
L 277.429646 210.06586 
L 271.927026 210.06586 
z
" clip-path="url(#pf9b22ee1de)" style="fill: #2ca02c; opacity: 0.4"/>
   </g>
   <g id="patch_158">
    <path d="M 277.429646 307.584 
L 282.932265 307.584 
L 282.932265 222.568186 
L 277.429646 222.568186 
z
" clip-path="url(#pf9b22ee1de)" style="fill: #2ca02c; opacity: 0.4"/>
   </g>
   <g id="patch_159">
    <path d="M 282.932265 307.584 
L 288.434884 307.584 
L 288.434884 237.570977 
L 282.932265 237.570977 
z
" clip-path="url(#pf9b22ee1de)" style="fill: #2ca02c; opacity: 0.4"/>
   </g>
   <g id="patch_160">
    <path d="M 288.434884 307.584 
L 293.937504 307.584 
L 293.937504 211.732837 
L 288.434884 211.732837 
z
" clip-path="url(#pf9b22ee1de)" style="fill: #2ca02c; opacity: 0.4"/>
   </g>
   <g id="patch_161">
    <path d="M 293.937504 307.584 
L 299.440123 307.584 
L 299.440123 225.90214 
L 293.937504 225.90214 
z
" clip-path="url(#pf9b22ee1de)" style="fill: #2ca02c; opacity: 0.4"/>
   </g>
   <g id="patch_162">
    <path d="M 299.440123 307.584 
L 304.942743 307.584 
L 304.942743 231.736558 
L 299.440123 231.736558 
z
" clip-path="url(#pf9b22ee1de)" style="fill: #2ca02c; opacity: 0.4"/>
   </g>
   <g id="patch_163">
    <path d="M 304.942743 307.584 
L 310.445362 307.584 
L 310.445362 235.070512 
L 304.942743 235.070512 
z
" clip-path="url(#pf9b22ee1de)" style="fill: #2ca02c; opacity: 0.4"/>
   </g>
   <g id="patch_164">
    <path d="M 310.445362 307.584 
L 315.947982 307.584 
L 315.947982 225.90214 
L 310.445362 225.90214 
z
" clip-path="url(#pf9b22ee1de)" style="fill: #2ca02c; opacity: 0.4"/>
   </g>
   <g id="patch_165">
    <path d="M 315.947982 307.584 
L 321.450601 307.584 
L 321.450601 239.237953 
L 315.947982 239.237953 
z
" clip-path="url(#pf9b22ee1de)" style="fill: #2ca02c; opacity: 0.4"/>
   </g>
   <g id="patch_166">
    <path d="M 321.450601 307.584 
L 326.95322 307.584 
L 326.95322 246.739349 
L 321.450601 246.739349 
z
" clip-path="url(#pf9b22ee1de)" style="fill: #2ca02c; opacity: 0.4"/>
   </g>
   <g id="patch_167">
    <path d="M 326.95322 307.584 
L 332.45584 307.584 
L 332.45584 230.90307 
L 326.95322 230.90307 
z
" clip-path="url(#pf9b22ee1de)" style="fill: #2ca02c; opacity: 0.4"/>
   </g>
   <g id="patch_168">
    <path d="M 332.45584 307.584 
L 337.958459 307.584 
L 337.958459 259.241674 
L 332.45584 259.241674 
z
" clip-path="url(#pf9b22ee1de)" style="fill: #2ca02c; opacity: 0.4"/>
   </g>
   <g id="patch_169">
    <path d="M 337.958459 307.584 
L 343.461079 307.584 
L 343.461079 245.90586 
L 337.958459 245.90586 
z
" clip-path="url(#pf9b22ee1de)" style="fill: #2ca02c; opacity: 0.4"/>
   </g>
   <g id="patch_170">
    <path d="M 343.461079 307.584 
L 348.963698 307.584 
L 348.963698 245.072372 
L 343.461079 245.072372 
z
" clip-path="url(#pf9b22ee1de)" style="fill: #2ca02c; opacity: 0.4"/>
   </g>
   <g id="patch_171">
    <path d="M 348.963698 307.584 
L 354.466317 307.584 
L 354.466317 243.405395 
L 348.963698 243.405395 
z
" clip-path="url(#pf9b22ee1de)" style="fill: #2ca02c; opacity: 0.4"/>
   </g>
   <g id="patch_172">
    <path d="M 354.466317 307.584 
L 359.968937 307.584 
L 359.968937 250.906791 
L 354.466317 250.906791 
z
" clip-path="url(#pf9b22ee1de)" style="fill: #2ca02c; opacity: 0.4"/>
   </g>
   <g id="patch_173">
    <path d="M 359.968937 307.584 
L 365.471556 307.584 
L 365.471556 252.573767 
L 359.968937 252.573767 
z
" clip-path="url(#pf9b22ee1de)" style="fill: #2ca02c; opacity: 0.4"/>
   </g>
   <g id="patch_174">
    <path d="M 365.471556 307.584 
L 370.974176 307.584 
L 370.974176 257.574698 
L 365.471556 257.574698 
z
" clip-path="url(#pf9b22ee1de)" style="fill: #2ca02c; opacity: 0.4"/>
   </g>
   <g id="patch_175">
    <path d="M 370.974176 307.584 
L 376.476795 307.584 
L 376.476795 246.739349 
L 370.974176 246.739349 
z
" clip-path="url(#pf9b22ee1de)" style="fill: #2ca02c; opacity: 0.4"/>
   </g>
   <g id="patch_176">
    <path d="M 376.476795 307.584 
L 381.979414 307.584 
L 381.979414 260.075163 
L 376.476795 260.075163 
z
" clip-path="url(#pf9b22ee1de)" style="fill: #2ca02c; opacity: 0.4"/>
   </g>
   <g id="patch_177">
    <path d="M 381.979414 307.584 
L 387.482034 307.584 
L 387.482034 272.577488 
L 381.979414 272.577488 
z
" clip-path="url(#pf9b22ee1de)" style="fill: #2ca02c; opacity: 0.4"/>
   </g>
   <g id="patch_178">
    <path d="M 387.482034 307.584 
L 392.984653 307.584 
L 392.984653 257.574698 
L 387.482034 257.574698 
z
" clip-path="url(#pf9b22ee1de)" style="fill: #2ca02c; opacity: 0.4"/>
   </g>
   <g id="patch_179">
    <path d="M 392.984653 307.584 
L 398.487273 307.584 
L 398.487273 272.577488 
L 392.984653 272.577488 
z
" clip-path="url(#pf9b22ee1de)" style="fill: #2ca02c; opacity: 0.4"/>
   </g>
   <g id="patch_180">
    <path d="M 73.832727 307.584 
L 79.335347 307.584 
L 79.335347 307.584 
L 73.832727 307.584 
z
" clip-path="url(#pf9b22ee1de)" style="fill: #d62728; opacity: 0.4"/>
   </g>
   <g id="patch_181">
    <path d="M 79.335347 307.584 
L 84.837966 307.584 
L 84.837966 307.584 
L 79.335347 307.584 
z
" clip-path="url(#pf9b22ee1de)" style="fill: #d62728; opacity: 0.4"/>
   </g>
   <g id="patch_182">
    <path d="M 84.837966 307.584 
L 90.340586 307.584 
L 90.340586 307.584 
L 84.837966 307.584 
z
" clip-path="url(#pf9b22ee1de)" style="fill: #d62728; opacity: 0.4"/>
   </g>
   <g id="patch_183">
    <path d="M 90.340586 307.584 
L 95.843205 307.584 
L 95.843205 307.584 
L 90.340586 307.584 
z
" clip-path="url(#pf9b22ee1de)" style="fill: #d62728; opacity: 0.4"/>
   </g>
   <g id="patch_184">
    <path d="M 95.843205 307.584 
L 101.345824 307.584 
L 101.345824 307.584 
L 95.843205 307.584 
z
" clip-path="url(#pf9b22ee1de)" style="fill: #d62728; opacity: 0.4"/>
   </g>
   <g id="patch_185">
    <path d="M 101.345824 307.584 
L 106.848444 307.584 
L 106.848444 307.584 
L 101.345824 307.584 
z
" clip-path="url(#pf9b22ee1de)" style="fill: #d62728; opacity: 0.4"/>
   </g>
   <g id="patch_186">
    <path d="M 106.848444 307.584 
L 112.351063 307.584 
L 112.351063 307.584 
L 106.848444 307.584 
z
" clip-path="url(#pf9b22ee1de)" style="fill: #d62728; opacity: 0.4"/>
   </g>
   <g id="patch_187">
    <path d="M 112.351063 307.584 
L 117.853683 307.584 
L 117.853683 306.302845 
L 112.351063 306.302845 
z
" clip-path="url(#pf9b22ee1de)" style="fill: #d62728; opacity: 0.4"/>
   </g>
   <g id="patch_188">
    <path d="M 117.853683 307.584 
L 123.356302 307.584 
L 123.356302 305.021689 
L 117.853683 305.021689 
z
" clip-path="url(#pf9b22ee1de)" style="fill: #d62728; opacity: 0.4"/>
   </g>
   <g id="patch_189">
    <path d="M 123.356302 307.584 
L 128.858921 307.584 
L 128.858921 305.662267 
L 123.356302 305.662267 
z
" clip-path="url(#pf9b22ee1de)" style="fill: #d62728; opacity: 0.4"/>
   </g>
   <g id="patch_190">
    <path d="M 128.858921 307.584 
L 134.361541 307.584 
L 134.361541 303.099956 
L 128.858921 303.099956 
z
" clip-path="url(#pf9b22ee1de)" style="fill: #d62728; opacity: 0.4"/>
   </g>
   <g id="patch_191">
    <path d="M 134.361541 307.584 
L 139.86416 307.584 
L 139.86416 299.25649 
L 134.361541 299.25649 
z
" clip-path="url(#pf9b22ee1de)" style="fill: #d62728; opacity: 0.4"/>
   </g>
   <g id="patch_192">
    <path d="M 139.86416 307.584 
L 145.36678 307.584 
L 145.36678 293.49129 
L 139.86416 293.49129 
z
" clip-path="url(#pf9b22ee1de)" style="fill: #d62728; opacity: 0.4"/>
   </g>
   <g id="patch_193">
    <path d="M 145.36678 307.584 
L 150.869399 307.584 
L 150.869399 289.647824 
L 145.36678 289.647824 
z
" clip-path="url(#pf9b22ee1de)" style="fill: #d62728; opacity: 0.4"/>
   </g>
   <g id="patch_194">
    <path d="M 150.869399 307.584 
L 156.372018 307.584 
L 156.372018 281.960891 
L 150.869399 281.960891 
z
" clip-path="url(#pf9b22ee1de)" style="fill: #d62728; opacity: 0.4"/>
   </g>
   <g id="patch_195">
    <path d="M 156.372018 307.584 
L 161.874638 307.584 
L 161.874638 281.960891 
L 156.372018 281.960891 
z
" clip-path="url(#pf9b22ee1de)" style="fill: #d62728; opacity: 0.4"/>
   </g>
   <g id="patch_196">
    <path d="M 161.874638 307.584 
L 167.377257 307.584 
L 167.377257 275.555114 
L 161.874638 275.555114 
z
" clip-path="url(#pf9b22ee1de)" style="fill: #d62728; opacity: 0.4"/>
   </g>
   <g id="patch_197">
    <path d="M 167.377257 307.584 
L 172.879877 307.584 
L 172.879877 274.273958 
L 167.377257 274.273958 
z
" clip-path="url(#pf9b22ee1de)" style="fill: #d62728; opacity: 0.4"/>
   </g>
   <g id="patch_198">
    <path d="M 172.879877 307.584 
L 178.382496 307.584 
L 178.382496 274.273958 
L 172.879877 274.273958 
z
" clip-path="url(#pf9b22ee1de)" style="fill: #d62728; opacity: 0.4"/>
   </g>
   <g id="patch_199">
    <path d="M 178.382496 307.584 
L 183.885116 307.584 
L 183.885116 258.259515 
L 178.382496 258.259515 
z
" clip-path="url(#pf9b22ee1de)" style="fill: #d62728; opacity: 0.4"/>
   </g>
   <g id="patch_200">
    <path d="M 183.885116 307.584 
L 189.387735 307.584 
L 189.387735 265.946448 
L 183.885116 265.946448 
z
" clip-path="url(#pf9b22ee1de)" style="fill: #d62728; opacity: 0.4"/>
   </g>
   <g id="patch_201">
    <path d="M 189.387735 307.584 
L 194.890354 307.584 
L 194.890354 251.853738 
L 189.387735 251.853738 
z
" clip-path="url(#pf9b22ee1de)" style="fill: #d62728; opacity: 0.4"/>
   </g>
   <g id="patch_202">
    <path d="M 194.890354 307.584 
L 200.392974 307.584 
L 200.392974 246.088539 
L 194.890354 246.088539 
z
" clip-path="url(#pf9b22ee1de)" style="fill: #d62728; opacity: 0.4"/>
   </g>
   <g id="patch_203">
    <path d="M 200.392974 307.584 
L 205.895593 307.584 
L 205.895593 249.291427 
L 200.392974 249.291427 
z
" clip-path="url(#pf9b22ee1de)" style="fill: #d62728; opacity: 0.4"/>
   </g>
   <g id="patch_204">
    <path d="M 205.895593 307.584 
L 211.398213 307.584 
L 211.398213 242.88565 
L 205.895593 242.88565 
z
" clip-path="url(#pf9b22ee1de)" style="fill: #d62728; opacity: 0.4"/>
   </g>
   <g id="patch_205">
    <path d="M 211.398213 307.584 
L 216.900832 307.584 
L 216.900832 237.120451 
L 211.398213 237.120451 
z
" clip-path="url(#pf9b22ee1de)" style="fill: #d62728; opacity: 0.4"/>
   </g>
   <g id="patch_206">
    <path d="M 216.900832 307.584 
L 222.403451 307.584 
L 222.403451 243.526228 
L 216.900832 243.526228 
z
" clip-path="url(#pf9b22ee1de)" style="fill: #d62728; opacity: 0.4"/>
   </g>
   <g id="patch_207">
    <path d="M 222.403451 307.584 
L 227.906071 307.584 
L 227.906071 238.401606 
L 222.403451 238.401606 
z
" clip-path="url(#pf9b22ee1de)" style="fill: #d62728; opacity: 0.4"/>
   </g>
   <g id="patch_208">
    <path d="M 227.906071 307.584 
L 233.40869 307.584 
L 233.40869 220.46543 
L 227.906071 220.46543 
z
" clip-path="url(#pf9b22ee1de)" style="fill: #d62728; opacity: 0.4"/>
   </g>
   <g id="patch_209">
    <path d="M 233.40869 307.584 
L 238.91131 307.584 
L 238.91131 238.401606 
L 233.40869 238.401606 
z
" clip-path="url(#pf9b22ee1de)" style="fill: #d62728; opacity: 0.4"/>
   </g>
   <g id="patch_210">
    <path d="M 238.91131 307.584 
L 244.413929 307.584 
L 244.413929 235.198717 
L 238.91131 235.198717 
z
" clip-path="url(#pf9b22ee1de)" style="fill: #d62728; opacity: 0.4"/>
   </g>
   <g id="patch_211">
    <path d="M 244.413929 307.584 
L 249.916549 307.584 
L 249.916549 221.106008 
L 244.413929 221.106008 
z
" clip-path="url(#pf9b22ee1de)" style="fill: #d62728; opacity: 0.4"/>
   </g>
   <g id="patch_212">
    <path d="M 249.916549 307.584 
L 255.419168 307.584 
L 255.419168 210.856764 
L 249.916549 210.856764 
z
" clip-path="url(#pf9b22ee1de)" style="fill: #d62728; opacity: 0.4"/>
   </g>
   <g id="patch_213">
    <path d="M 255.419168 307.584 
L 260.921787 307.584 
L 260.921787 227.511785 
L 255.419168 227.511785 
z
" clip-path="url(#pf9b22ee1de)" style="fill: #d62728; opacity: 0.4"/>
   </g>
   <g id="patch_214">
    <path d="M 260.921787 307.584 
L 266.424407 307.584 
L 266.424407 201.888676 
L 260.921787 201.888676 
z
" clip-path="url(#pf9b22ee1de)" style="fill: #d62728; opacity: 0.4"/>
   </g>
   <g id="patch_215">
    <path d="M 266.424407 307.584 
L 271.927026 307.584 
L 271.927026 211.497342 
L 266.424407 211.497342 
z
" clip-path="url(#pf9b22ee1de)" style="fill: #d62728; opacity: 0.4"/>
   </g>
   <g id="patch_216">
    <path d="M 271.927026 307.584 
L 277.429646 307.584 
L 277.429646 205.091565 
L 271.927026 205.091565 
z
" clip-path="url(#pf9b22ee1de)" style="fill: #d62728; opacity: 0.4"/>
   </g>
   <g id="patch_217">
    <path d="M 277.429646 307.584 
L 282.932265 307.584 
L 282.932265 212.778497 
L 277.429646 212.778497 
z
" clip-path="url(#pf9b22ee1de)" style="fill: #d62728; opacity: 0.4"/>
   </g>
   <g id="patch_218">
    <path d="M 282.932265 307.584 
L 288.434884 307.584 
L 288.434884 208.935031 
L 282.932265 208.935031 
z
" clip-path="url(#pf9b22ee1de)" style="fill: #d62728; opacity: 0.4"/>
   </g>
   <g id="patch_219">
    <path d="M 288.434884 307.584 
L 293.937504 307.584 
L 293.937504 185.233655 
L 288.434884 185.233655 
z
" clip-path="url(#pf9b22ee1de)" style="fill: #d62728; opacity: 0.4"/>
   </g>
   <g id="patch_220">
    <path d="M 293.937504 307.584 
L 299.440123 307.584 
L 299.440123 216.621964 
L 293.937504 216.621964 
z
" clip-path="url(#pf9b22ee1de)" style="fill: #d62728; opacity: 0.4"/>
   </g>
   <g id="patch_221">
    <path d="M 299.440123 307.584 
L 304.942743 307.584 
L 304.942743 195.482899 
L 299.440123 195.482899 
z
" clip-path="url(#pf9b22ee1de)" style="fill: #d62728; opacity: 0.4"/>
   </g>
   <g id="patch_222">
    <path d="M 304.942743 307.584 
L 310.445362 307.584 
L 310.445362 215.981386 
L 304.942743 215.981386 
z
" clip-path="url(#pf9b22ee1de)" style="fill: #d62728; opacity: 0.4"/>
   </g>
   <g id="patch_223">
    <path d="M 310.445362 307.584 
L 315.947982 307.584 
L 315.947982 211.497342 
L 310.445362 211.497342 
z
" clip-path="url(#pf9b22ee1de)" style="fill: #d62728; opacity: 0.4"/>
   </g>
   <g id="patch_224">
    <path d="M 315.947982 307.584 
L 321.450601 307.584 
L 321.450601 208.294453 
L 315.947982 208.294453 
z
" clip-path="url(#pf9b22ee1de)" style="fill: #d62728; opacity: 0.4"/>
   </g>
   <g id="patch_225">
    <path d="M 321.450601 307.584 
L 326.95322 307.584 
L 326.95322 198.685787 
L 321.450601 198.685787 
z
" clip-path="url(#pf9b22ee1de)" style="fill: #d62728; opacity: 0.4"/>
   </g>
   <g id="patch_226">
    <path d="M 326.95322 307.584 
L 332.45584 307.584 
L 332.45584 218.543697 
L 326.95322 218.543697 
z
" clip-path="url(#pf9b22ee1de)" style="fill: #d62728; opacity: 0.4"/>
   </g>
   <g id="patch_227">
    <path d="M 332.45584 307.584 
L 337.958459 307.584 
L 337.958459 210.856764 
L 332.45584 210.856764 
z
" clip-path="url(#pf9b22ee1de)" style="fill: #d62728; opacity: 0.4"/>
   </g>
   <g id="patch_228">
    <path d="M 337.958459 307.584 
L 343.461079 307.584 
L 343.461079 217.262541 
L 337.958459 217.262541 
z
" clip-path="url(#pf9b22ee1de)" style="fill: #d62728; opacity: 0.4"/>
   </g>
   <g id="patch_229">
    <path d="M 343.461079 307.584 
L 348.963698 307.584 
L 348.963698 211.497342 
L 343.461079 211.497342 
z
" clip-path="url(#pf9b22ee1de)" style="fill: #d62728; opacity: 0.4"/>
   </g>
   <g id="patch_230">
    <path d="M 348.963698 307.584 
L 354.466317 307.584 
L 354.466317 214.70023 
L 348.963698 214.70023 
z
" clip-path="url(#pf9b22ee1de)" style="fill: #d62728; opacity: 0.4"/>
   </g>
   <g id="patch_231">
    <path d="M 354.466317 307.584 
L 359.968937 307.584 
L 359.968937 223.027741 
L 354.466317 223.027741 
z
" clip-path="url(#pf9b22ee1de)" style="fill: #d62728; opacity: 0.4"/>
   </g>
   <g id="patch_232">
    <path d="M 359.968937 307.584 
L 365.471556 307.584 
L 365.471556 224.308896 
L 359.968937 224.308896 
z
" clip-path="url(#pf9b22ee1de)" style="fill: #d62728; opacity: 0.4"/>
   </g>
   <g id="patch_233">
    <path d="M 365.471556 307.584 
L 370.974176 307.584 
L 370.974176 221.746585 
L 365.471556 221.746585 
z
" clip-path="url(#pf9b22ee1de)" style="fill: #d62728; opacity: 0.4"/>
   </g>
   <g id="patch_234">
    <path d="M 370.974176 307.584 
L 376.476795 307.584 
L 376.476795 229.433518 
L 370.974176 229.433518 
z
" clip-path="url(#pf9b22ee1de)" style="fill: #d62728; opacity: 0.4"/>
   </g>
   <g id="patch_235">
    <path d="M 376.476795 307.584 
L 381.979414 307.584 
L 381.979414 228.79294 
L 376.476795 228.79294 
z
" clip-path="url(#pf9b22ee1de)" style="fill: #d62728; opacity: 0.4"/>
   </g>
   <g id="patch_236">
    <path d="M 381.979414 307.584 
L 387.482034 307.584 
L 387.482034 224.308896 
L 381.979414 224.308896 
z
" clip-path="url(#pf9b22ee1de)" style="fill: #d62728; opacity: 0.4"/>
   </g>
   <g id="patch_237">
    <path d="M 387.482034 307.584 
L 392.984653 307.584 
L 392.984653 227.511785 
L 387.482034 227.511785 
z
" clip-path="url(#pf9b22ee1de)" style="fill: #d62728; opacity: 0.4"/>
   </g>
   <g id="patch_238">
    <path d="M 392.984653 307.584 
L 398.487273 307.584 
L 398.487273 244.807383 
L 392.984653 244.807383 
z
" clip-path="url(#pf9b22ee1de)" style="fill: #d62728; opacity: 0.4"/>
   </g>
   <g id="patch_239">
    <path d="M 73.832727 307.584 
L 79.335347 307.584 
L 79.335347 307.584 
L 73.832727 307.584 
z
" clip-path="url(#pf9b22ee1de)" style="fill: #9467bd; opacity: 0.4"/>
   </g>
   <g id="patch_240">
    <path d="M 79.335347 307.584 
L 84.837966 307.584 
L 84.837966 307.584 
L 79.335347 307.584 
z
" clip-path="url(#pf9b22ee1de)" style="fill: #9467bd; opacity: 0.4"/>
   </g>
   <g id="patch_241">
    <path d="M 84.837966 307.584 
L 90.340586 307.584 
L 90.340586 306.713072 
L 84.837966 306.713072 
z
" clip-path="url(#pf9b22ee1de)" style="fill: #9467bd; opacity: 0.4"/>
   </g>
   <g id="patch_242">
    <path d="M 90.340586 307.584 
L 95.843205 307.584 
L 95.843205 304.100289 
L 90.340586 304.100289 
z
" clip-path="url(#pf9b22ee1de)" style="fill: #9467bd; opacity: 0.4"/>
   </g>
   <g id="patch_243">
    <path d="M 95.843205 307.584 
L 101.345824 307.584 
L 101.345824 304.100289 
L 95.843205 304.100289 
z
" clip-path="url(#pf9b22ee1de)" style="fill: #9467bd; opacity: 0.4"/>
   </g>
   <g id="patch_244">
    <path d="M 101.345824 307.584 
L 106.848444 307.584 
L 106.848444 300.616577 
L 101.345824 300.616577 
z
" clip-path="url(#pf9b22ee1de)" style="fill: #9467bd; opacity: 0.4"/>
   </g>
   <g id="patch_245">
    <path d="M 106.848444 307.584 
L 112.351063 307.584 
L 112.351063 291.907299 
L 106.848444 291.907299 
z
" clip-path="url(#pf9b22ee1de)" style="fill: #9467bd; opacity: 0.4"/>
   </g>
   <g id="patch_246">
    <path d="M 112.351063 307.584 
L 117.853683 307.584 
L 117.853683 285.810804 
L 112.351063 285.810804 
z
" clip-path="url(#pf9b22ee1de)" style="fill: #9467bd; opacity: 0.4"/>
   </g>
   <g id="patch_247">
    <path d="M 117.853683 307.584 
L 123.356302 307.584 
L 123.356302 284.068948 
L 117.853683 284.068948 
z
" clip-path="url(#pf9b22ee1de)" style="fill: #9467bd; opacity: 0.4"/>
   </g>
   <g id="patch_248">
    <path d="M 123.356302 307.584 
L 128.858921 307.584 
L 128.858921 284.939876 
L 123.356302 284.939876 
z
" clip-path="url(#pf9b22ee1de)" style="fill: #9467bd; opacity: 0.4"/>
   </g>
   <g id="patch_249">
    <path d="M 128.858921 307.584 
L 134.361541 307.584 
L 134.361541 277.972454 
L 128.858921 277.972454 
z
" clip-path="url(#pf9b22ee1de)" style="fill: #9467bd; opacity: 0.4"/>
   </g>
   <g id="patch_250">
    <path d="M 134.361541 307.584 
L 139.86416 307.584 
L 139.86416 263.16668 
L 134.361541 263.16668 
z
" clip-path="url(#pf9b22ee1de)" style="fill: #9467bd; opacity: 0.4"/>
   </g>
   <g id="patch_251">
    <path d="M 139.86416 307.584 
L 145.36678 307.584 
L 145.36678 252.715546 
L 139.86416 252.715546 
z
" clip-path="url(#pf9b22ee1de)" style="fill: #9467bd; opacity: 0.4"/>
   </g>
   <g id="patch_252">
    <path d="M 145.36678 307.584 
L 150.869399 307.584 
L 150.869399 244.006268 
L 145.36678 244.006268 
z
" clip-path="url(#pf9b22ee1de)" style="fill: #9467bd; opacity: 0.4"/>
   </g>
   <g id="patch_253">
    <path d="M 150.869399 307.584 
L 156.372018 307.584 
L 156.372018 239.651629 
L 150.869399 239.651629 
z
" clip-path="url(#pf9b22ee1de)" style="fill: #9467bd; opacity: 0.4"/>
   </g>
   <g id="patch_254">
    <path d="M 156.372018 307.584 
L 161.874638 307.584 
L 161.874638 237.038845 
L 156.372018 237.038845 
z
" clip-path="url(#pf9b22ee1de)" style="fill: #9467bd; opacity: 0.4"/>
   </g>
   <g id="patch_255">
    <path d="M 161.874638 307.584 
L 167.377257 307.584 
L 167.377257 215.265649 
L 161.874638 215.265649 
z
" clip-path="url(#pf9b22ee1de)" style="fill: #9467bd; opacity: 0.4"/>
   </g>
   <g id="patch_256">
    <path d="M 167.377257 307.584 
L 172.879877 307.584 
L 172.879877 216.136577 
L 167.377257 216.136577 
z
" clip-path="url(#pf9b22ee1de)" style="fill: #9467bd; opacity: 0.4"/>
   </g>
   <g id="patch_257">
    <path d="M 172.879877 307.584 
L 178.382496 307.584 
L 178.382496 196.976165 
L 172.879877 196.976165 
z
" clip-path="url(#pf9b22ee1de)" style="fill: #9467bd; opacity: 0.4"/>
   </g>
   <g id="patch_258">
    <path d="M 178.382496 307.584 
L 183.885116 307.584 
L 183.885116 199.588948 
L 178.382496 199.588948 
z
" clip-path="url(#pf9b22ee1de)" style="fill: #9467bd; opacity: 0.4"/>
   </g>
   <g id="patch_259">
    <path d="M 183.885116 307.584 
L 189.387735 307.584 
L 189.387735 188.266887 
L 183.885116 188.266887 
z
" clip-path="url(#pf9b22ee1de)" style="fill: #9467bd; opacity: 0.4"/>
   </g>
   <g id="patch_260">
    <path d="M 189.387735 307.584 
L 194.890354 307.584 
L 194.890354 180.428536 
L 189.387735 180.428536 
z
" clip-path="url(#pf9b22ee1de)" style="fill: #9467bd; opacity: 0.4"/>
   </g>
   <g id="patch_261">
    <path d="M 194.890354 307.584 
L 200.392974 307.584 
L 200.392974 176.944825 
L 194.890354 176.944825 
z
" clip-path="url(#pf9b22ee1de)" style="fill: #9467bd; opacity: 0.4"/>
   </g>
   <g id="patch_262">
    <path d="M 200.392974 307.584 
L 205.895593 307.584 
L 205.895593 172.590186 
L 200.392974 172.590186 
z
" clip-path="url(#pf9b22ee1de)" style="fill: #9467bd; opacity: 0.4"/>
   </g>
   <g id="patch_263">
    <path d="M 205.895593 307.584 
L 211.398213 307.584 
L 211.398213 179.557608 
L 205.895593 179.557608 
z
" clip-path="url(#pf9b22ee1de)" style="fill: #9467bd; opacity: 0.4"/>
   </g>
   <g id="patch_264">
    <path d="M 211.398213 307.584 
L 216.900832 307.584 
L 216.900832 165.622763 
L 211.398213 165.622763 
z
" clip-path="url(#pf9b22ee1de)" style="fill: #9467bd; opacity: 0.4"/>
   </g>
   <g id="patch_265">
    <path d="M 216.900832 307.584 
L 222.403451 307.584 
L 222.403451 201.330804 
L 216.900832 201.330804 
z
" clip-path="url(#pf9b22ee1de)" style="fill: #9467bd; opacity: 0.4"/>
   </g>
   <g id="patch_266">
    <path d="M 222.403451 307.584 
L 227.906071 307.584 
L 227.906071 190.87967 
L 222.403451 190.87967 
z
" clip-path="url(#pf9b22ee1de)" style="fill: #9467bd; opacity: 0.4"/>
   </g>
   <g id="patch_267">
    <path d="M 227.906071 307.584 
L 233.40869 307.584 
L 233.40869 203.07266 
L 227.906071 203.07266 
z
" clip-path="url(#pf9b22ee1de)" style="fill: #9467bd; opacity: 0.4"/>
   </g>
   <g id="patch_268">
    <path d="M 233.40869 307.584 
L 238.91131 307.584 
L 238.91131 190.87967 
L 233.40869 190.87967 
z
" clip-path="url(#pf9b22ee1de)" style="fill: #9467bd; opacity: 0.4"/>
   </g>
   <g id="patch_269">
    <path d="M 238.91131 307.584 
L 244.413929 307.584 
L 244.413929 196.105237 
L 238.91131 196.105237 
z
" clip-path="url(#pf9b22ee1de)" style="fill: #9467bd; opacity: 0.4"/>
   </g>
   <g id="patch_270">
    <path d="M 244.413929 307.584 
L 249.916549 307.584 
L 249.916549 227.458639 
L 244.413929 227.458639 
z
" clip-path="url(#pf9b22ee1de)" style="fill: #9467bd; opacity: 0.4"/>
   </g>
   <g id="patch_271">
    <path d="M 249.916549 307.584 
L 255.419168 307.584 
L 255.419168 214.394722 
L 249.916549 214.394722 
z
" clip-path="url(#pf9b22ee1de)" style="fill: #9467bd; opacity: 0.4"/>
   </g>
   <g id="patch_272">
    <path d="M 255.419168 307.584 
L 260.921787 307.584 
L 260.921787 223.974928 
L 255.419168 223.974928 
z
" clip-path="url(#pf9b22ee1de)" style="fill: #9467bd; opacity: 0.4"/>
   </g>
   <g id="patch_273">
    <path d="M 260.921787 307.584 
L 266.424407 307.584 
L 266.424407 230.071423 
L 260.921787 230.071423 
z
" clip-path="url(#pf9b22ee1de)" style="fill: #9467bd; opacity: 0.4"/>
   </g>
   <g id="patch_274">
    <path d="M 266.424407 307.584 
L 271.927026 307.584 
L 271.927026 234.426062 
L 266.424407 234.426062 
z
" clip-path="url(#pf9b22ee1de)" style="fill: #9467bd; opacity: 0.4"/>
   </g>
   <g id="patch_275">
    <path d="M 271.927026 307.584 
L 277.429646 307.584 
L 277.429646 242.264412 
L 271.927026 242.264412 
z
" clip-path="url(#pf9b22ee1de)" style="fill: #9467bd; opacity: 0.4"/>
   </g>
   <g id="patch_276">
    <path d="M 277.429646 307.584 
L 282.932265 307.584 
L 282.932265 238.780701 
L 277.429646 238.780701 
z
" clip-path="url(#pf9b22ee1de)" style="fill: #9467bd; opacity: 0.4"/>
   </g>
   <g id="patch_277">
    <path d="M 282.932265 307.584 
L 288.434884 307.584 
L 288.434884 248.360907 
L 282.932265 248.360907 
z
" clip-path="url(#pf9b22ee1de)" style="fill: #9467bd; opacity: 0.4"/>
   </g>
   <g id="patch_278">
    <path d="M 288.434884 307.584 
L 293.937504 307.584 
L 293.937504 253.586474 
L 288.434884 253.586474 
z
" clip-path="url(#pf9b22ee1de)" style="fill: #9467bd; opacity: 0.4"/>
   </g>
   <g id="patch_279">
    <path d="M 293.937504 307.584 
L 299.440123 307.584 
L 299.440123 243.13534 
L 293.937504 243.13534 
z
" clip-path="url(#pf9b22ee1de)" style="fill: #9467bd; opacity: 0.4"/>
   </g>
   <g id="patch_280">
    <path d="M 299.440123 307.584 
L 304.942743 307.584 
L 304.942743 256.199258 
L 299.440123 256.199258 
z
" clip-path="url(#pf9b22ee1de)" style="fill: #9467bd; opacity: 0.4"/>
   </g>
   <g id="patch_281">
    <path d="M 304.942743 307.584 
L 310.445362 307.584 
L 310.445362 257.941113 
L 304.942743 257.941113 
z
" clip-path="url(#pf9b22ee1de)" style="fill: #9467bd; opacity: 0.4"/>
   </g>
   <g id="patch_282">
    <path d="M 310.445362 307.584 
L 315.947982 307.584 
L 315.947982 260.553897 
L 310.445362 260.553897 
z
" clip-path="url(#pf9b22ee1de)" style="fill: #9467bd; opacity: 0.4"/>
   </g>
   <g id="patch_283">
    <path d="M 315.947982 307.584 
L 321.450601 307.584 
L 321.450601 271.875959 
L 315.947982 271.875959 
z
" clip-path="url(#pf9b22ee1de)" style="fill: #9467bd; opacity: 0.4"/>
   </g>
   <g id="patch_284">
    <path d="M 321.450601 307.584 
L 326.95322 307.584 
L 326.95322 276.230598 
L 321.450601 276.230598 
z
" clip-path="url(#pf9b22ee1de)" style="fill: #9467bd; opacity: 0.4"/>
   </g>
   <g id="patch_285">
    <path d="M 326.95322 307.584 
L 332.45584 307.584 
L 332.45584 263.16668 
L 326.95322 263.16668 
z
" clip-path="url(#pf9b22ee1de)" style="fill: #9467bd; opacity: 0.4"/>
   </g>
   <g id="patch_286">
    <path d="M 332.45584 307.584 
L 337.958459 307.584 
L 337.958459 256.199258 
L 332.45584 256.199258 
z
" clip-path="url(#pf9b22ee1de)" style="fill: #9467bd; opacity: 0.4"/>
   </g>
   <g id="patch_287">
    <path d="M 337.958459 307.584 
L 343.461079 307.584 
L 343.461079 263.16668 
L 337.958459 263.16668 
z
" clip-path="url(#pf9b22ee1de)" style="fill: #9467bd; opacity: 0.4"/>
   </g>
   <g id="patch_288">
    <path d="M 343.461079 307.584 
L 348.963698 307.584 
L 348.963698 266.650392 
L 343.461079 266.650392 
z
" clip-path="url(#pf9b22ee1de)" style="fill: #9467bd; opacity: 0.4"/>
   </g>
   <g id="patch_289">
    <path d="M 348.963698 307.584 
L 354.466317 307.584 
L 354.466317 271.875959 
L 348.963698 271.875959 
z
" clip-path="url(#pf9b22ee1de)" style="fill: #9467bd; opacity: 0.4"/>
   </g>
   <g id="patch_290">
    <path d="M 354.466317 307.584 
L 359.968937 307.584 
L 359.968937 272.746887 
L 354.466317 272.746887 
z
" clip-path="url(#pf9b22ee1de)" style="fill: #9467bd; opacity: 0.4"/>
   </g>
   <g id="patch_291">
    <path d="M 359.968937 307.584 
L 365.471556 307.584 
L 365.471556 275.35967 
L 359.968937 275.35967 
z
" clip-path="url(#pf9b22ee1de)" style="fill: #9467bd; opacity: 0.4"/>
   </g>
   <g id="patch_292">
    <path d="M 365.471556 307.584 
L 370.974176 307.584 
L 370.974176 281.456165 
L 365.471556 281.456165 
z
" clip-path="url(#pf9b22ee1de)" style="fill: #9467bd; opacity: 0.4"/>
   </g>
   <g id="patch_293">
    <path d="M 370.974176 307.584 
L 376.476795 307.584 
L 376.476795 277.101526 
L 370.974176 277.101526 
z
" clip-path="url(#pf9b22ee1de)" style="fill: #9467bd; opacity: 0.4"/>
   </g>
   <g id="patch_294">
    <path d="M 376.476795 307.584 
L 381.979414 307.584 
L 381.979414 279.714309 
L 376.476795 279.714309 
z
" clip-path="url(#pf9b22ee1de)" style="fill: #9467bd; opacity: 0.4"/>
   </g>
   <g id="patch_295">
    <path d="M 381.979414 307.584 
L 387.482034 307.584 
L 387.482034 284.068948 
L 381.979414 284.068948 
z
" clip-path="url(#pf9b22ee1de)" style="fill: #9467bd; opacity: 0.4"/>
   </g>
   <g id="patch_296">
    <path d="M 387.482034 307.584 
L 392.984653 307.584 
L 392.984653 283.198021 
L 387.482034 283.198021 
z
" clip-path="url(#pf9b22ee1de)" style="fill: #9467bd; opacity: 0.4"/>
   </g>
   <g id="patch_297">
    <path d="M 392.984653 307.584 
L 398.487273 307.584 
L 398.487273 279.714309 
L 392.984653 279.714309 
z
" clip-path="url(#pf9b22ee1de)" style="fill: #9467bd; opacity: 0.4"/>
   </g>
   <g id="matplotlib.axis_1">
    <g id="xtick_1">
     <g id="line2d_1">
      <defs>
       <path id="mb27f687659" d="M 0 0 
L 0 3.5 
" style="stroke: #000000; stroke-width: 0.8"/>
      </defs>
      <g>
       <use xlink:href="#mb27f687659" x="73.832727" y="307.584" style="stroke: #000000; stroke-width: 0.8"/>
      </g>
     </g>
     <g id="text_1">
      <!-- 30 -->
      <g transform="translate(67.470227 322.182437) scale(0.1 -0.1)">
       <defs>
        <path id="DejaVuSans-33" d="M 2597 2516 
Q 3050 2419 3304 2112 
Q 3559 1806 3559 1356 
Q 3559 666 3084 287 
Q 2609 -91 1734 -91 
Q 1441 -91 1130 -33 
Q 819 25 488 141 
L 488 750 
Q 750 597 1062 519 
Q 1375 441 1716 441 
Q 2309 441 2620 675 
Q 2931 909 2931 1356 
Q 2931 1769 2642 2001 
Q 2353 2234 1838 2234 
L 1294 2234 
L 1294 2753 
L 1863 2753 
Q 2328 2753 2575 2939 
Q 2822 3125 2822 3475 
Q 2822 3834 2567 4026 
Q 2313 4219 1838 4219 
Q 1578 4219 1281 4162 
Q 984 4106 628 3988 
L 628 4550 
Q 988 4650 1302 4700 
Q 1616 4750 1894 4750 
Q 2613 4750 3031 4423 
Q 3450 4097 3450 3541 
Q 3450 3153 3228 2886 
Q 3006 2619 2597 2516 
z
" transform="scale(0.015625)"/>
        <path id="DejaVuSans-30" d="M 2034 4250 
Q 1547 4250 1301 3770 
Q 1056 3291 1056 2328 
Q 1056 1369 1301 889 
Q 1547 409 2034 409 
Q 2525 409 2770 889 
Q 3016 1369 3016 2328 
Q 3016 3291 2770 3770 
Q 2525 4250 2034 4250 
z
M 2034 4750 
Q 2819 4750 3233 4129 
Q 3647 3509 3647 2328 
Q 3647 1150 3233 529 
Q 2819 -91 2034 -91 
Q 1250 -91 836 529 
Q 422 1150 422 2328 
Q 422 3509 836 4129 
Q 1250 4750 2034 4750 
z
" transform="scale(0.015625)"/>
       </defs>
       <use xlink:href="#DejaVuSans-33"/>
       <use xlink:href="#DejaVuSans-30" x="63.623047"/>
      </g>
     </g>
    </g>
    <g id="xtick_2">
     <g id="line2d_2">
      <g>
       <use xlink:href="#mb27f687659" x="128.858921" y="307.584" style="stroke: #000000; stroke-width: 0.8"/>
      </g>
     </g>
     <g id="text_2">
      <!-- 35 -->
      <g transform="translate(122.496421 322.182437) scale(0.1 -0.1)">
       <defs>
        <path id="DejaVuSans-35" d="M 691 4666 
L 3169 4666 
L 3169 4134 
L 1269 4134 
L 1269 2991 
Q 1406 3038 1543 3061 
Q 1681 3084 1819 3084 
Q 2600 3084 3056 2656 
Q 3513 2228 3513 1497 
Q 3513 744 3044 326 
Q 2575 -91 1722 -91 
Q 1428 -91 1123 -41 
Q 819 9 494 109 
L 494 744 
Q 775 591 1075 516 
Q 1375 441 1709 441 
Q 2250 441 2565 725 
Q 2881 1009 2881 1497 
Q 2881 1984 2565 2268 
Q 2250 2553 1709 2553 
Q 1456 2553 1204 2497 
Q 953 2441 691 2322 
L 691 4666 
z
" transform="scale(0.015625)"/>
       </defs>
       <use xlink:href="#DejaVuSans-33"/>
       <use xlink:href="#DejaVuSans-35" x="63.623047"/>
      </g>
     </g>
    </g>
    <g id="xtick_3">
     <g id="line2d_3">
      <g>
       <use xlink:href="#mb27f687659" x="183.885116" y="307.584" style="stroke: #000000; stroke-width: 0.8"/>
      </g>
     </g>
     <g id="text_3">
      <!-- 40 -->
      <g transform="translate(177.522616 322.182437) scale(0.1 -0.1)">
       <defs>
        <path id="DejaVuSans-34" d="M 2419 4116 
L 825 1625 
L 2419 1625 
L 2419 4116 
z
M 2253 4666 
L 3047 4666 
L 3047 1625 
L 3713 1625 
L 3713 1100 
L 3047 1100 
L 3047 0 
L 2419 0 
L 2419 1100 
L 313 1100 
L 313 1709 
L 2253 4666 
z
" transform="scale(0.015625)"/>
       </defs>
       <use xlink:href="#DejaVuSans-34"/>
       <use xlink:href="#DejaVuSans-30" x="63.623047"/>
      </g>
     </g>
    </g>
    <g id="xtick_4">
     <g id="line2d_4">
      <g>
       <use xlink:href="#mb27f687659" x="238.91131" y="307.584" style="stroke: #000000; stroke-width: 0.8"/>
      </g>
     </g>
     <g id="text_4">
      <!-- 45 -->
      <g transform="translate(232.54881 322.182437) scale(0.1 -0.1)">
       <use xlink:href="#DejaVuSans-34"/>
       <use xlink:href="#DejaVuSans-35" x="63.623047"/>
      </g>
     </g>
    </g>
    <g id="xtick_5">
     <g id="line2d_5">
      <g>
       <use xlink:href="#mb27f687659" x="293.937504" y="307.584" style="stroke: #000000; stroke-width: 0.8"/>
      </g>
     </g>
     <g id="text_5">
      <!-- 50 -->
      <g transform="translate(287.575004 322.182437) scale(0.1 -0.1)">
       <use xlink:href="#DejaVuSans-35"/>
       <use xlink:href="#DejaVuSans-30" x="63.623047"/>
      </g>
     </g>
    </g>
    <g id="xtick_6">
     <g id="line2d_6">
      <g>
       <use xlink:href="#mb27f687659" x="348.963698" y="307.584" style="stroke: #000000; stroke-width: 0.8"/>
      </g>
     </g>
     <g id="text_6">
      <!-- 55 -->
      <g transform="translate(342.601198 322.182437) scale(0.1 -0.1)">
       <use xlink:href="#DejaVuSans-35"/>
       <use xlink:href="#DejaVuSans-35" x="63.623047"/>
      </g>
     </g>
    </g>
    <g id="xtick_7">
     <g id="line2d_7">
      <g>
       <use xlink:href="#mb27f687659" x="403.989892" y="307.584" style="stroke: #000000; stroke-width: 0.8"/>
      </g>
     </g>
     <g id="text_7">
      <!-- 60 -->
      <g transform="translate(397.627392 322.182437) scale(0.1 -0.1)">
       <defs>
        <path id="DejaVuSans-36" d="M 2113 2584 
Q 1688 2584 1439 2293 
Q 1191 2003 1191 1497 
Q 1191 994 1439 701 
Q 1688 409 2113 409 
Q 2538 409 2786 701 
Q 3034 994 3034 1497 
Q 3034 2003 2786 2293 
Q 2538 2584 2113 2584 
z
M 3366 4563 
L 3366 3988 
Q 3128 4100 2886 4159 
Q 2644 4219 2406 4219 
Q 1781 4219 1451 3797 
Q 1122 3375 1075 2522 
Q 1259 2794 1537 2939 
Q 1816 3084 2150 3084 
Q 2853 3084 3261 2657 
Q 3669 2231 3669 1497 
Q 3669 778 3244 343 
Q 2819 -91 2113 -91 
Q 1303 -91 875 529 
Q 447 1150 447 2328 
Q 447 3434 972 4092 
Q 1497 4750 2381 4750 
Q 2619 4750 2861 4703 
Q 3103 4656 3366 4563 
z
" transform="scale(0.015625)"/>
       </defs>
       <use xlink:href="#DejaVuSans-36"/>
       <use xlink:href="#DejaVuSans-30" x="63.623047"/>
      </g>
     </g>
    </g>
    <g id="text_8">
     <!-- value -->
     <g transform="translate(222.502187 335.860562) scale(0.1 -0.1)">
      <defs>
       <path id="DejaVuSans-76" d="M 191 3500 
L 800 3500 
L 1894 563 
L 2988 3500 
L 3597 3500 
L 2284 0 
L 1503 0 
L 191 3500 
z
" transform="scale(0.015625)"/>
       <path id="DejaVuSans-61" d="M 2194 1759 
Q 1497 1759 1228 1600 
Q 959 1441 959 1056 
Q 959 750 1161 570 
Q 1363 391 1709 391 
Q 2188 391 2477 730 
Q 2766 1069 2766 1631 
L 2766 1759 
L 2194 1759 
z
M 3341 1997 
L 3341 0 
L 2766 0 
L 2766 531 
Q 2569 213 2275 61 
Q 1981 -91 1556 -91 
Q 1019 -91 701 211 
Q 384 513 384 1019 
Q 384 1609 779 1909 
Q 1175 2209 1959 2209 
L 2766 2209 
L 2766 2266 
Q 2766 2663 2505 2880 
Q 2244 3097 1772 3097 
Q 1472 3097 1187 3025 
Q 903 2953 641 2809 
L 641 3341 
Q 956 3463 1253 3523 
Q 1550 3584 1831 3584 
Q 2591 3584 2966 3190 
Q 3341 2797 3341 1997 
z
" transform="scale(0.015625)"/>
       <path id="DejaVuSans-6c" d="M 603 4863 
L 1178 4863 
L 1178 0 
L 603 0 
L 603 4863 
z
" transform="scale(0.015625)"/>
       <path id="DejaVuSans-75" d="M 544 1381 
L 544 3500 
L 1119 3500 
L 1119 1403 
Q 1119 906 1312 657 
Q 1506 409 1894 409 
Q 2359 409 2629 706 
Q 2900 1003 2900 1516 
L 2900 3500 
L 3475 3500 
L 3475 0 
L 2900 0 
L 2900 538 
Q 2691 219 2414 64 
Q 2138 -91 1772 -91 
Q 1169 -91 856 284 
Q 544 659 544 1381 
z
M 1991 3584 
L 1991 3584 
z
" transform="scale(0.015625)"/>
       <path id="DejaVuSans-65" d="M 3597 1894 
L 3597 1613 
L 953 1613 
Q 991 1019 1311 708 
Q 1631 397 2203 397 
Q 2534 397 2845 478 
Q 3156 559 3463 722 
L 3463 178 
Q 3153 47 2828 -22 
Q 2503 -91 2169 -91 
Q 1331 -91 842 396 
Q 353 884 353 1716 
Q 353 2575 817 3079 
Q 1281 3584 2069 3584 
Q 2775 3584 3186 3129 
Q 3597 2675 3597 1894 
z
M 3022 2063 
Q 3016 2534 2758 2815 
Q 2500 3097 2075 3097 
Q 1594 3097 1305 2825 
Q 1016 2553 972 2059 
L 3022 2063 
z
" transform="scale(0.015625)"/>
      </defs>
      <use xlink:href="#DejaVuSans-76"/>
      <use xlink:href="#DejaVuSans-61" x="59.179688"/>
      <use xlink:href="#DejaVuSans-6c" x="120.458984"/>
      <use xlink:href="#DejaVuSans-75" x="148.242188"/>
      <use xlink:href="#DejaVuSans-65" x="211.621094"/>
     </g>
    </g>
   </g>
   <g id="matplotlib.axis_2">
    <g id="ytick_1">
     <g id="line2d_8">
      <defs>
       <path id="m6a11d6b421" d="M 0 0 
L -3.5 0 
" style="stroke: #000000; stroke-width: 0.8"/>
      </defs>
      <g>
       <use xlink:href="#m6a11d6b421" x="57.6" y="307.584" style="stroke: #000000; stroke-width: 0.8"/>
      </g>
     </g>
     <g id="text_9">
      <!-- 0.00 -->
      <g transform="translate(28.334375 311.383219) scale(0.1 -0.1)">
       <defs>
        <path id="DejaVuSans-2e" d="M 684 794 
L 1344 794 
L 1344 0 
L 684 0 
L 684 794 
z
" transform="scale(0.015625)"/>
       </defs>
       <use xlink:href="#DejaVuSans-30"/>
       <use xlink:href="#DejaVuSans-2e" x="63.623047"/>
       <use xlink:href="#DejaVuSans-30" x="95.410156"/>
       <use xlink:href="#DejaVuSans-30" x="159.033203"/>
      </g>
     </g>
    </g>
    <g id="ytick_2">
     <g id="line2d_9">
      <g>
       <use xlink:href="#m6a11d6b421" x="57.6" y="272.1024" style="stroke: #000000; stroke-width: 0.8"/>
      </g>
     </g>
     <g id="text_10">
      <!-- 0.02 -->
      <g transform="translate(28.334375 275.901619) scale(0.1 -0.1)">
       <defs>
        <path id="DejaVuSans-32" d="M 1228 531 
L 3431 531 
L 3431 0 
L 469 0 
L 469 531 
Q 828 903 1448 1529 
Q 2069 2156 2228 2338 
Q 2531 2678 2651 2914 
Q 2772 3150 2772 3378 
Q 2772 3750 2511 3984 
Q 2250 4219 1831 4219 
Q 1534 4219 1204 4116 
Q 875 4013 500 3803 
L 500 4441 
Q 881 4594 1212 4672 
Q 1544 4750 1819 4750 
Q 2544 4750 2975 4387 
Q 3406 4025 3406 3419 
Q 3406 3131 3298 2873 
Q 3191 2616 2906 2266 
Q 2828 2175 2409 1742 
Q 1991 1309 1228 531 
z
" transform="scale(0.015625)"/>
       </defs>
       <use xlink:href="#DejaVuSans-30"/>
       <use xlink:href="#DejaVuSans-2e" x="63.623047"/>
       <use xlink:href="#DejaVuSans-30" x="95.410156"/>
       <use xlink:href="#DejaVuSans-32" x="159.033203"/>
      </g>
     </g>
    </g>
    <g id="ytick_3">
     <g id="line2d_10">
      <g>
       <use xlink:href="#m6a11d6b421" x="57.6" y="236.6208" style="stroke: #000000; stroke-width: 0.8"/>
      </g>
     </g>
     <g id="text_11">
      <!-- 0.04 -->
      <g transform="translate(28.334375 240.420019) scale(0.1 -0.1)">
       <use xlink:href="#DejaVuSans-30"/>
       <use xlink:href="#DejaVuSans-2e" x="63.623047"/>
       <use xlink:href="#DejaVuSans-30" x="95.410156"/>
       <use xlink:href="#DejaVuSans-34" x="159.033203"/>
      </g>
     </g>
    </g>
    <g id="ytick_4">
     <g id="line2d_11">
      <g>
       <use xlink:href="#m6a11d6b421" x="57.6" y="201.1392" style="stroke: #000000; stroke-width: 0.8"/>
      </g>
     </g>
     <g id="text_12">
      <!-- 0.06 -->
      <g transform="translate(28.334375 204.938419) scale(0.1 -0.1)">
       <use xlink:href="#DejaVuSans-30"/>
       <use xlink:href="#DejaVuSans-2e" x="63.623047"/>
       <use xlink:href="#DejaVuSans-30" x="95.410156"/>
       <use xlink:href="#DejaVuSans-36" x="159.033203"/>
      </g>
     </g>
    </g>
    <g id="ytick_5">
     <g id="line2d_12">
      <g>
       <use xlink:href="#m6a11d6b421" x="57.6" y="165.6576" style="stroke: #000000; stroke-width: 0.8"/>
      </g>
     </g>
     <g id="text_13">
      <!-- 0.08 -->
      <g transform="translate(28.334375 169.456819) scale(0.1 -0.1)">
       <defs>
        <path id="DejaVuSans-38" d="M 2034 2216 
Q 1584 2216 1326 1975 
Q 1069 1734 1069 1313 
Q 1069 891 1326 650 
Q 1584 409 2034 409 
Q 2484 409 2743 651 
Q 3003 894 3003 1313 
Q 3003 1734 2745 1975 
Q 2488 2216 2034 2216 
z
M 1403 2484 
Q 997 2584 770 2862 
Q 544 3141 544 3541 
Q 544 4100 942 4425 
Q 1341 4750 2034 4750 
Q 2731 4750 3128 4425 
Q 3525 4100 3525 3541 
Q 3525 3141 3298 2862 
Q 3072 2584 2669 2484 
Q 3125 2378 3379 2068 
Q 3634 1759 3634 1313 
Q 3634 634 3220 271 
Q 2806 -91 2034 -91 
Q 1263 -91 848 271 
Q 434 634 434 1313 
Q 434 1759 690 2068 
Q 947 2378 1403 2484 
z
M 1172 3481 
Q 1172 3119 1398 2916 
Q 1625 2713 2034 2713 
Q 2441 2713 2670 2916 
Q 2900 3119 2900 3481 
Q 2900 3844 2670 4047 
Q 2441 4250 2034 4250 
Q 1625 4250 1398 4047 
Q 1172 3844 1172 3481 
z
" transform="scale(0.015625)"/>
       </defs>
       <use xlink:href="#DejaVuSans-30"/>
       <use xlink:href="#DejaVuSans-2e" x="63.623047"/>
       <use xlink:href="#DejaVuSans-30" x="95.410156"/>
       <use xlink:href="#DejaVuSans-38" x="159.033203"/>
      </g>
     </g>
    </g>
    <g id="ytick_6">
     <g id="line2d_13">
      <g>
       <use xlink:href="#m6a11d6b421" x="57.6" y="130.176" style="stroke: #000000; stroke-width: 0.8"/>
      </g>
     </g>
     <g id="text_14">
      <!-- 0.10 -->
      <g transform="translate(28.334375 133.975219) scale(0.1 -0.1)">
       <defs>
        <path id="DejaVuSans-31" d="M 794 531 
L 1825 531 
L 1825 4091 
L 703 3866 
L 703 4441 
L 1819 4666 
L 2450 4666 
L 2450 531 
L 3481 531 
L 3481 0 
L 794 0 
L 794 531 
z
" transform="scale(0.015625)"/>
       </defs>
       <use xlink:href="#DejaVuSans-30"/>
       <use xlink:href="#DejaVuSans-2e" x="63.623047"/>
       <use xlink:href="#DejaVuSans-31" x="95.410156"/>
       <use xlink:href="#DejaVuSans-30" x="159.033203"/>
      </g>
     </g>
    </g>
    <g id="ytick_7">
     <g id="line2d_14">
      <g>
       <use xlink:href="#m6a11d6b421" x="57.6" y="94.6944" style="stroke: #000000; stroke-width: 0.8"/>
      </g>
     </g>
     <g id="text_15">
      <!-- 0.12 -->
      <g transform="translate(28.334375 98.493619) scale(0.1 -0.1)">
       <use xlink:href="#DejaVuSans-30"/>
       <use xlink:href="#DejaVuSans-2e" x="63.623047"/>
       <use xlink:href="#DejaVuSans-31" x="95.410156"/>
       <use xlink:href="#DejaVuSans-32" x="159.033203"/>
      </g>
     </g>
    </g>
    <g id="ytick_8">
     <g id="line2d_15">
      <g>
       <use xlink:href="#m6a11d6b421" x="57.6" y="59.2128" style="stroke: #000000; stroke-width: 0.8"/>
      </g>
     </g>
     <g id="text_16">
      <!-- 0.14 -->
      <g transform="translate(28.334375 63.012019) scale(0.1 -0.1)">
       <use xlink:href="#DejaVuSans-30"/>
       <use xlink:href="#DejaVuSans-2e" x="63.623047"/>
       <use xlink:href="#DejaVuSans-31" x="95.410156"/>
       <use xlink:href="#DejaVuSans-34" x="159.033203"/>
      </g>
     </g>
    </g>
    <g id="text_17">
     <!-- density -->
     <g transform="translate(22.254687 192.860812) rotate(-90) scale(0.1 -0.1)">
      <defs>
       <path id="DejaVuSans-64" d="M 2906 2969 
L 2906 4863 
L 3481 4863 
L 3481 0 
L 2906 0 
L 2906 525 
Q 2725 213 2448 61 
Q 2172 -91 1784 -91 
Q 1150 -91 751 415 
Q 353 922 353 1747 
Q 353 2572 751 3078 
Q 1150 3584 1784 3584 
Q 2172 3584 2448 3432 
Q 2725 3281 2906 2969 
z
M 947 1747 
Q 947 1113 1208 752 
Q 1469 391 1925 391 
Q 2381 391 2643 752 
Q 2906 1113 2906 1747 
Q 2906 2381 2643 2742 
Q 2381 3103 1925 3103 
Q 1469 3103 1208 2742 
Q 947 2381 947 1747 
z
" transform="scale(0.015625)"/>
       <path id="DejaVuSans-6e" d="M 3513 2113 
L 3513 0 
L 2938 0 
L 2938 2094 
Q 2938 2591 2744 2837 
Q 2550 3084 2163 3084 
Q 1697 3084 1428 2787 
Q 1159 2491 1159 1978 
L 1159 0 
L 581 0 
L 581 3500 
L 1159 3500 
L 1159 2956 
Q 1366 3272 1645 3428 
Q 1925 3584 2291 3584 
Q 2894 3584 3203 3211 
Q 3513 2838 3513 2113 
z
" transform="scale(0.015625)"/>
       <path id="DejaVuSans-73" d="M 2834 3397 
L 2834 2853 
Q 2591 2978 2328 3040 
Q 2066 3103 1784 3103 
Q 1356 3103 1142 2972 
Q 928 2841 928 2578 
Q 928 2378 1081 2264 
Q 1234 2150 1697 2047 
L 1894 2003 
Q 2506 1872 2764 1633 
Q 3022 1394 3022 966 
Q 3022 478 2636 193 
Q 2250 -91 1575 -91 
Q 1294 -91 989 -36 
Q 684 19 347 128 
L 347 722 
Q 666 556 975 473 
Q 1284 391 1588 391 
Q 1994 391 2212 530 
Q 2431 669 2431 922 
Q 2431 1156 2273 1281 
Q 2116 1406 1581 1522 
L 1381 1569 
Q 847 1681 609 1914 
Q 372 2147 372 2553 
Q 372 3047 722 3315 
Q 1072 3584 1716 3584 
Q 2034 3584 2315 3537 
Q 2597 3491 2834 3397 
z
" transform="scale(0.015625)"/>
       <path id="DejaVuSans-69" d="M 603 3500 
L 1178 3500 
L 1178 0 
L 603 0 
L 603 3500 
z
M 603 4863 
L 1178 4863 
L 1178 4134 
L 603 4134 
L 603 4863 
z
" transform="scale(0.015625)"/>
       <path id="DejaVuSans-74" d="M 1172 4494 
L 1172 3500 
L 2356 3500 
L 2356 3053 
L 1172 3053 
L 1172 1153 
Q 1172 725 1289 603 
Q 1406 481 1766 481 
L 2356 481 
L 2356 0 
L 1766 0 
Q 1100 0 847 248 
Q 594 497 594 1153 
L 594 3053 
L 172 3053 
L 172 3500 
L 594 3500 
L 594 4494 
L 1172 4494 
z
" transform="scale(0.015625)"/>
       <path id="DejaVuSans-79" d="M 2059 -325 
Q 1816 -950 1584 -1140 
Q 1353 -1331 966 -1331 
L 506 -1331 
L 506 -850 
L 844 -850 
Q 1081 -850 1212 -737 
Q 1344 -625 1503 -206 
L 1606 56 
L 191 3500 
L 800 3500 
L 1894 763 
L 2988 3500 
L 3597 3500 
L 2059 -325 
z
" transform="scale(0.015625)"/>
      </defs>
      <use xlink:href="#DejaVuSans-64"/>
      <use xlink:href="#DejaVuSans-65" x="63.476562"/>
      <use xlink:href="#DejaVuSans-6e" x="125"/>
      <use xlink:href="#DejaVuSans-73" x="188.378906"/>
      <use xlink:href="#DejaVuSans-69" x="240.478516"/>
      <use xlink:href="#DejaVuSans-74" x="268.261719"/>
      <use xlink:href="#DejaVuSans-79" x="307.470703"/>
     </g>
    </g>
   </g>
   <g id="patch_298">
    <path d="M 57.6 307.584 
L 57.6 41.472 
" style="fill: none; stroke: #000000; stroke-width: 0.8; stroke-linejoin: miter; stroke-linecap: square"/>
   </g>
   <g id="patch_299">
    <path d="M 414.72 307.584 
L 414.72 41.472 
" style="fill: none; stroke: #000000; stroke-width: 0.8; stroke-linejoin: miter; stroke-linecap: square"/>
   </g>
   <g id="patch_300">
    <path d="M 57.6 307.584 
L 414.72 307.584 
" style="fill: none; stroke: #000000; stroke-width: 0.8; stroke-linejoin: miter; stroke-linecap: square"/>
   </g>
   <g id="patch_301">
    <path d="M 57.6 41.472 
L 414.72 41.472 
" style="fill: none; stroke: #000000; stroke-width: 0.8; stroke-linejoin: miter; stroke-linecap: square"/>
   </g>
   <g id="text_18">
    <!-- TmIG -->
    <g transform="translate(220.231875 35.472) scale(0.12 -0.12)">
     <defs>
      <path id="DejaVuSans-54" d="M -19 4666 
L 3928 4666 
L 3928 4134 
L 2272 4134 
L 2272 0 
L 1638 0 
L 1638 4134 
L -19 4134 
L -19 4666 
z
" transform="scale(0.015625)"/>
      <path id="DejaVuSans-6d" d="M 3328 2828 
Q 3544 3216 3844 3400 
Q 4144 3584 4550 3584 
Q 5097 3584 5394 3201 
Q 5691 2819 5691 2113 
L 5691 0 
L 5113 0 
L 5113 2094 
Q 5113 2597 4934 2840 
Q 4756 3084 4391 3084 
Q 3944 3084 3684 2787 
Q 3425 2491 3425 1978 
L 3425 0 
L 2847 0 
L 2847 2094 
Q 2847 2600 2669 2842 
Q 2491 3084 2119 3084 
Q 1678 3084 1418 2786 
Q 1159 2488 1159 1978 
L 1159 0 
L 581 0 
L 581 3500 
L 1159 3500 
L 1159 2956 
Q 1356 3278 1631 3431 
Q 1906 3584 2284 3584 
Q 2666 3584 2933 3390 
Q 3200 3197 3328 2828 
z
" transform="scale(0.015625)"/>
      <path id="DejaVuSans-49" d="M 628 4666 
L 1259 4666 
L 1259 0 
L 628 0 
L 628 4666 
z
" transform="scale(0.015625)"/>
      <path id="DejaVuSans-47" d="M 3809 666 
L 3809 1919 
L 2778 1919 
L 2778 2438 
L 4434 2438 
L 4434 434 
Q 4069 175 3628 42 
Q 3188 -91 2688 -91 
Q 1594 -91 976 548 
Q 359 1188 359 2328 
Q 359 3472 976 4111 
Q 1594 4750 2688 4750 
Q 3144 4750 3555 4637 
Q 3966 4525 4313 4306 
L 4313 3634 
Q 3963 3931 3569 4081 
Q 3175 4231 2741 4231 
Q 1884 4231 1454 3753 
Q 1025 3275 1025 2328 
Q 1025 1384 1454 906 
Q 1884 428 2741 428 
Q 3075 428 3337 486 
Q 3600 544 3809 666 
z
" transform="scale(0.015625)"/>
     </defs>
     <use xlink:href="#DejaVuSans-54"/>
     <use xlink:href="#DejaVuSans-6d" x="61.083984"/>
     <use xlink:href="#DejaVuSans-49" x="158.496094"/>
     <use xlink:href="#DejaVuSans-47" x="187.988281"/>
    </g>
   </g>
   <g id="legend_1">
    <g id="patch_302">
     <path d="M 292.868438 122.862625 
L 407.72 122.862625 
Q 409.72 122.862625 409.72 120.862625 
L 409.72 48.472 
Q 409.72 46.472 407.72 46.472 
L 292.868438 46.472 
Q 290.868438 46.472 290.868438 48.472 
L 290.868438 120.862625 
Q 290.868438 122.862625 292.868438 122.862625 
z
" style="fill: #ffffff; opacity: 0.8; stroke: #cccccc; stroke-linejoin: miter"/>
    </g>
    <g id="patch_303">
     <path d="M 294.868438 58.070438 
L 314.868438 58.070438 
L 314.868438 51.070438 
L 294.868438 51.070438 
z
" style="fill: #1f77b4; opacity: 0.4"/>
    </g>
    <g id="text_19">
     <!-- 80m, N = 383 -->
     <g transform="translate(322.868438 58.070438) scale(0.1 -0.1)">
      <defs>
       <path id="DejaVuSans-2c" d="M 750 794 
L 1409 794 
L 1409 256 
L 897 -744 
L 494 -744 
L 750 256 
L 750 794 
z
" transform="scale(0.015625)"/>
       <path id="DejaVuSans-20" transform="scale(0.015625)"/>
       <path id="DejaVuSans-4e" d="M 628 4666 
L 1478 4666 
L 3547 763 
L 3547 4666 
L 4159 4666 
L 4159 0 
L 3309 0 
L 1241 3903 
L 1241 0 
L 628 0 
L 628 4666 
z
" transform="scale(0.015625)"/>
       <path id="DejaVuSans-3d" d="M 678 2906 
L 4684 2906 
L 4684 2381 
L 678 2381 
L 678 2906 
z
M 678 1631 
L 4684 1631 
L 4684 1100 
L 678 1100 
L 678 1631 
z
" transform="scale(0.015625)"/>
      </defs>
      <use xlink:href="#DejaVuSans-38"/>
      <use xlink:href="#DejaVuSans-30" x="63.623047"/>
      <use xlink:href="#DejaVuSans-6d" x="127.246094"/>
      <use xlink:href="#DejaVuSans-2c" x="224.658203"/>
      <use xlink:href="#DejaVuSans-20" x="256.445312"/>
      <use xlink:href="#DejaVuSans-4e" x="288.232422"/>
      <use xlink:href="#DejaVuSans-20" x="363.037109"/>
      <use xlink:href="#DejaVuSans-3d" x="394.824219"/>
      <use xlink:href="#DejaVuSans-20" x="478.613281"/>
      <use xlink:href="#DejaVuSans-33" x="510.400391"/>
      <use xlink:href="#DejaVuSans-38" x="574.023438"/>
      <use xlink:href="#DejaVuSans-33" x="637.646484"/>
     </g>
    </g>
    <g id="patch_304">
     <path d="M 294.868438 72.748563 
L 314.868438 72.748563 
L 314.868438 65.748563 
L 294.868438 65.748563 
z
" style="fill: #ff7f0e; opacity: 0.4"/>
    </g>
    <g id="text_20">
     <!-- 90m, N = 1917 -->
     <g transform="translate(322.868438 72.748563) scale(0.1 -0.1)">
      <defs>
       <path id="DejaVuSans-39" d="M 703 97 
L 703 672 
Q 941 559 1184 500 
Q 1428 441 1663 441 
Q 2288 441 2617 861 
Q 2947 1281 2994 2138 
Q 2813 1869 2534 1725 
Q 2256 1581 1919 1581 
Q 1219 1581 811 2004 
Q 403 2428 403 3163 
Q 403 3881 828 4315 
Q 1253 4750 1959 4750 
Q 2769 4750 3195 4129 
Q 3622 3509 3622 2328 
Q 3622 1225 3098 567 
Q 2575 -91 1691 -91 
Q 1453 -91 1209 -44 
Q 966 3 703 97 
z
M 1959 2075 
Q 2384 2075 2632 2365 
Q 2881 2656 2881 3163 
Q 2881 3666 2632 3958 
Q 2384 4250 1959 4250 
Q 1534 4250 1286 3958 
Q 1038 3666 1038 3163 
Q 1038 2656 1286 2365 
Q 1534 2075 1959 2075 
z
" transform="scale(0.015625)"/>
       <path id="DejaVuSans-37" d="M 525 4666 
L 3525 4666 
L 3525 4397 
L 1831 0 
L 1172 0 
L 2766 4134 
L 525 4134 
L 525 4666 
z
" transform="scale(0.015625)"/>
      </defs>
      <use xlink:href="#DejaVuSans-39"/>
      <use xlink:href="#DejaVuSans-30" x="63.623047"/>
      <use xlink:href="#DejaVuSans-6d" x="127.246094"/>
      <use xlink:href="#DejaVuSans-2c" x="224.658203"/>
      <use xlink:href="#DejaVuSans-20" x="256.445312"/>
      <use xlink:href="#DejaVuSans-4e" x="288.232422"/>
      <use xlink:href="#DejaVuSans-20" x="363.037109"/>
      <use xlink:href="#DejaVuSans-3d" x="394.824219"/>
      <use xlink:href="#DejaVuSans-20" x="478.613281"/>
      <use xlink:href="#DejaVuSans-31" x="510.400391"/>
      <use xlink:href="#DejaVuSans-39" x="574.023438"/>
      <use xlink:href="#DejaVuSans-31" x="637.646484"/>
      <use xlink:href="#DejaVuSans-37" x="701.269531"/>
     </g>
    </g>
    <g id="patch_305">
     <path d="M 294.868438 87.426688 
L 314.868438 87.426688 
L 314.868438 80.426688 
L 294.868438 80.426688 
z
" style="fill: #2ca02c; opacity: 0.4"/>
    </g>
    <g id="text_21">
     <!-- 100m, N = 4882 -->
     <g transform="translate(322.868438 87.426688) scale(0.1 -0.1)">
      <use xlink:href="#DejaVuSans-31"/>
      <use xlink:href="#DejaVuSans-30" x="63.623047"/>
      <use xlink:href="#DejaVuSans-30" x="127.246094"/>
      <use xlink:href="#DejaVuSans-6d" x="190.869141"/>
      <use xlink:href="#DejaVuSans-2c" x="288.28125"/>
      <use xlink:href="#DejaVuSans-20" x="320.068359"/>
      <use xlink:href="#DejaVuSans-4e" x="351.855469"/>
      <use xlink:href="#DejaVuSans-20" x="426.660156"/>
      <use xlink:href="#DejaVuSans-3d" x="458.447266"/>
      <use xlink:href="#DejaVuSans-20" x="542.236328"/>
      <use xlink:href="#DejaVuSans-34" x="574.023438"/>
      <use xlink:href="#DejaVuSans-38" x="637.646484"/>
      <use xlink:href="#DejaVuSans-38" x="701.269531"/>
      <use xlink:href="#DejaVuSans-32" x="764.892578"/>
     </g>
    </g>
    <g id="patch_306">
     <path d="M 294.868438 102.104813 
L 314.868438 102.104813 
L 314.868438 95.104813 
L 294.868438 95.104813 
z
" style="fill: #d62728; opacity: 0.4"/>
    </g>
    <g id="text_22">
     <!-- 110m, N = 6879 -->
     <g transform="translate(322.868438 102.104813) scale(0.1 -0.1)">
      <use xlink:href="#DejaVuSans-31"/>
      <use xlink:href="#DejaVuSans-31" x="63.623047"/>
      <use xlink:href="#DejaVuSans-30" x="127.246094"/>
      <use xlink:href="#DejaVuSans-6d" x="190.869141"/>
      <use xlink:href="#DejaVuSans-2c" x="288.28125"/>
      <use xlink:href="#DejaVuSans-20" x="320.068359"/>
      <use xlink:href="#DejaVuSans-4e" x="351.855469"/>
      <use xlink:href="#DejaVuSans-20" x="426.660156"/>
      <use xlink:href="#DejaVuSans-3d" x="458.447266"/>
      <use xlink:href="#DejaVuSans-20" x="542.236328"/>
      <use xlink:href="#DejaVuSans-36" x="574.023438"/>
      <use xlink:href="#DejaVuSans-38" x="637.646484"/>
      <use xlink:href="#DejaVuSans-37" x="701.269531"/>
      <use xlink:href="#DejaVuSans-39" x="764.892578"/>
     </g>
    </g>
    <g id="patch_307">
     <path d="M 294.868438 116.782938 
L 314.868438 116.782938 
L 314.868438 109.782938 
L 294.868438 109.782938 
z
" style="fill: #9467bd; opacity: 0.4"/>
    </g>
    <g id="text_23">
     <!-- 140m, N = 4369 -->
     <g transform="translate(322.868438 116.782938) scale(0.1 -0.1)">
      <use xlink:href="#DejaVuSans-31"/>
      <use xlink:href="#DejaVuSans-34" x="63.623047"/>
      <use xlink:href="#DejaVuSans-30" x="127.246094"/>
      <use xlink:href="#DejaVuSans-6d" x="190.869141"/>
      <use xlink:href="#DejaVuSans-2c" x="288.28125"/>
      <use xlink:href="#DejaVuSans-20" x="320.068359"/>
      <use xlink:href="#DejaVuSans-4e" x="351.855469"/>
      <use xlink:href="#DejaVuSans-20" x="426.660156"/>
      <use xlink:href="#DejaVuSans-3d" x="458.447266"/>
      <use xlink:href="#DejaVuSans-20" x="542.236328"/>
      <use xlink:href="#DejaVuSans-34" x="574.023438"/>
      <use xlink:href="#DejaVuSans-33" x="637.646484"/>
      <use xlink:href="#DejaVuSans-36" x="701.269531"/>
      <use xlink:href="#DejaVuSans-39" x="764.892578"/>
     </g>
    </g>
   </g>
  </g>
 </g>
 <defs>
  <clipPath id="pf9b22ee1de">
   <rect x="57.6" y="41.472" width="357.12" height="266.112"/>
  </clipPath>
 </defs>
</svg>
