<?xml version="1.0" encoding="utf-8" standalone="no"?>
<!DOCTYPE svg PUBLIC "-//W3C//DTD SVG 1.1//EN"
  "http://www.w3.org/Graphics/SVG/1.1/DTD/svg11.dtd">
<svg xmlns:xlink="http://www.w3.org/1999/xlink" width="460.8pt" height="345.6pt" viewBox="0 0 460.8 345.6" xmlns="http://www.w3.org/2000/svg" version="1.1">
 <metadata>
  <rdf:RDF xmlns:dc="http://purl.org/dc/elements/1.1/" xmlns:cc="http://creativecommons.org/ns#" xmlns:rdf="http://www.w3.org/1999/02/22-rdf-syntax-ns#">
   <cc:Work>
    <dc:type rdf:resource="http://purl.org/dc/dcmitype/StillImage"/>
    <dc:date>2024-06-19T20:44:09.143287</dc:date>
    <dc:format>image/svg+xml</dc:format>
    <dc:creator>
     <cc:Agent>
      <dc:title>Matplotlib v3.8.0, https://matplotlib.org/</dc:title>
     </cc:Agent>
    </dc:creator>
   </cc:Work>
  </rdf:RDF>
 </metadata>
 <defs>
  <style type="text/css">*{stroke-linejoin: round; stroke-linecap: butt}</style>
 </defs>
 <g id="figure_1">
  <g id="patch_1">
   <path d="M 0 345.6 
L 460.8 345.6 
L 460.8 0 
L 0 0 
z
" style="fill: #ffffff"/>
  </g>
  <g id="axes_1">
   <g id="patch_2">
    <path d="M 57.6 307.584 
L 414.72 307.584 
L 414.72 41.472 
L 57.6 41.472 
z
" style="fill: #ffffff"/>
   </g>
   <g id="patch_3">
    <path d="M 73.832727 307.584 
L 77.480531 307.584 
L 77.480531 307.348242 
L 73.832727 307.348242 
z
" clip-path="url(#p439f028345)" style="fill: #1f77b4"/>
   </g>
   <g id="patch_4">
    <path d="M 77.480531 307.584 
L 81.128335 307.584 
L 81.128335 305.462177 
L 77.480531 305.462177 
z
" clip-path="url(#p439f028345)" style="fill: #1f77b4"/>
   </g>
   <g id="patch_5">
    <path d="M 81.128335 307.584 
L 84.776139 307.584 
L 84.776139 300.982772 
L 81.128335 300.982772 
z
" clip-path="url(#p439f028345)" style="fill: #1f77b4"/>
   </g>
   <g id="patch_6">
    <path d="M 84.776139 307.584 
L 88.423943 307.584 
L 88.423943 290.373656 
L 84.776139 290.373656 
z
" clip-path="url(#p439f028345)" style="fill: #1f77b4"/>
   </g>
   <g id="patch_7">
    <path d="M 88.423943 307.584 
L 92.071747 307.584 
L 92.071747 277.053321 
L 88.423943 277.053321 
z
" clip-path="url(#p439f028345)" style="fill: #1f77b4"/>
   </g>
   <g id="patch_8">
    <path d="M 92.071747 307.584 
L 95.719551 307.584 
L 95.719551 251.8272 
L 92.071747 251.8272 
z
" clip-path="url(#p439f028345)" style="fill: #1f77b4"/>
   </g>
   <g id="patch_9">
    <path d="M 95.719551 307.584 
L 99.367354 307.584 
L 99.367354 232.377153 
L 95.719551 232.377153 
z
" clip-path="url(#p439f028345)" style="fill: #1f77b4"/>
   </g>
   <g id="patch_10">
    <path d="M 99.367354 307.584 
L 103.015158 307.584 
L 103.015158 203.61466 
L 99.367354 203.61466 
z
" clip-path="url(#p439f028345)" style="fill: #1f77b4"/>
   </g>
   <g id="patch_11">
    <path d="M 103.015158 307.584 
L 106.662962 307.584 
L 106.662962 188.879777 
L 103.015158 188.879777 
z
" clip-path="url(#p439f028345)" style="fill: #1f77b4"/>
   </g>
   <g id="patch_12">
    <path d="M 106.662962 307.584 
L 110.310766 307.584 
L 110.310766 154.459088 
L 106.662962 154.459088 
z
" clip-path="url(#p439f028345)" style="fill: #1f77b4"/>
   </g>
   <g id="patch_13">
    <path d="M 110.310766 307.584 
L 113.95857 307.584 
L 113.95857 138.545414 
L 110.310766 138.545414 
z
" clip-path="url(#p439f028345)" style="fill: #1f77b4"/>
   </g>
   <g id="patch_14">
    <path d="M 113.95857 307.584 
L 117.606374 307.584 
L 117.606374 117.798698 
L 113.95857 117.798698 
z
" clip-path="url(#p439f028345)" style="fill: #1f77b4"/>
   </g>
   <g id="patch_15">
    <path d="M 117.606374 307.584 
L 121.254178 307.584 
L 121.254178 106.010791 
L 117.606374 106.010791 
z
" clip-path="url(#p439f028345)" style="fill: #1f77b4"/>
   </g>
   <g id="patch_16">
    <path d="M 121.254178 307.584 
L 124.901982 307.584 
L 124.901982 93.751367 
L 121.254178 93.751367 
z
" clip-path="url(#p439f028345)" style="fill: #1f77b4"/>
   </g>
   <g id="patch_17">
    <path d="M 124.901982 307.584 
L 128.549785 307.584 
L 128.549785 71.000707 
L 124.901982 71.000707 
z
" clip-path="url(#p439f028345)" style="fill: #1f77b4"/>
   </g>
   <g id="patch_18">
    <path d="M 128.549785 307.584 
L 132.197589 307.584 
L 132.197589 65.106753 
L 128.549785 65.106753 
z
" clip-path="url(#p439f028345)" style="fill: #1f77b4"/>
   </g>
   <g id="patch_19">
    <path d="M 132.197589 307.584 
L 135.845393 307.584 
L 135.845393 72.179498 
L 132.197589 72.179498 
z
" clip-path="url(#p439f028345)" style="fill: #1f77b4"/>
   </g>
   <g id="patch_20">
    <path d="M 135.845393 307.584 
L 139.493197 307.584 
L 139.493197 56.147944 
L 135.845393 56.147944 
z
" clip-path="url(#p439f028345)" style="fill: #1f77b4"/>
   </g>
   <g id="patch_21">
    <path d="M 139.493197 307.584 
L 143.141001 307.584 
L 143.141001 56.501581 
L 139.493197 56.501581 
z
" clip-path="url(#p439f028345)" style="fill: #1f77b4"/>
   </g>
   <g id="patch_22">
    <path d="M 143.141001 307.584 
L 146.788805 307.584 
L 146.788805 54.144 
L 143.141001 54.144 
z
" clip-path="url(#p439f028345)" style="fill: #1f77b4"/>
   </g>
   <g id="patch_23">
    <path d="M 146.788805 307.584 
L 150.436609 307.584 
L 150.436609 59.448558 
L 146.788805 59.448558 
z
" clip-path="url(#p439f028345)" style="fill: #1f77b4"/>
   </g>
   <g id="patch_24">
    <path d="M 150.436609 307.584 
L 154.084413 307.584 
L 154.084413 62.041898 
L 150.436609 62.041898 
z
" clip-path="url(#p439f028345)" style="fill: #1f77b4"/>
   </g>
   <g id="patch_25">
    <path d="M 154.084413 307.584 
L 157.732217 307.584 
L 157.732217 85.028316 
L 154.084413 85.028316 
z
" clip-path="url(#p439f028345)" style="fill: #1f77b4"/>
   </g>
   <g id="patch_26">
    <path d="M 157.732217 307.584 
L 161.38002 307.584 
L 161.38002 118.859609 
L 157.732217 118.859609 
z
" clip-path="url(#p439f028345)" style="fill: #1f77b4"/>
   </g>
   <g id="patch_27">
    <path d="M 161.38002 307.584 
L 165.027824 307.584 
L 165.027824 149.390288 
L 161.38002 149.390288 
z
" clip-path="url(#p439f028345)" style="fill: #1f77b4"/>
   </g>
   <g id="patch_28">
    <path d="M 165.027824 307.584 
L 168.675628 307.584 
L 168.675628 172.140949 
L 165.027824 172.140949 
z
" clip-path="url(#p439f028345)" style="fill: #1f77b4"/>
   </g>
   <g id="patch_29">
    <path d="M 168.675628 307.584 
L 172.323432 307.584 
L 172.323432 196.895553 
L 168.675628 196.895553 
z
" clip-path="url(#p439f028345)" style="fill: #1f77b4"/>
   </g>
   <g id="patch_30">
    <path d="M 172.323432 307.584 
L 175.971236 307.584 
L 175.971236 223.064707 
L 172.323432 223.064707 
z
" clip-path="url(#p439f028345)" style="fill: #1f77b4"/>
   </g>
   <g id="patch_31">
    <path d="M 175.971236 307.584 
L 179.61904 307.584 
L 179.61904 235.442009 
L 175.971236 235.442009 
z
" clip-path="url(#p439f028345)" style="fill: #1f77b4"/>
   </g>
   <g id="patch_32">
    <path d="M 179.61904 307.584 
L 183.266844 307.584 
L 183.266844 249.587498 
L 179.61904 249.587498 
z
" clip-path="url(#p439f028345)" style="fill: #1f77b4"/>
   </g>
   <g id="patch_33">
    <path d="M 183.266844 307.584 
L 186.914648 307.584 
L 186.914648 261.021767 
L 183.266844 261.021767 
z
" clip-path="url(#p439f028345)" style="fill: #1f77b4"/>
   </g>
   <g id="patch_34">
    <path d="M 186.914648 307.584 
L 190.562451 307.584 
L 190.562451 267.976633 
L 186.914648 267.976633 
z
" clip-path="url(#p439f028345)" style="fill: #1f77b4"/>
   </g>
   <g id="patch_35">
    <path d="M 190.562451 307.584 
L 194.210255 307.584 
L 194.210255 275.87453 
L 190.562451 275.87453 
z
" clip-path="url(#p439f028345)" style="fill: #1f77b4"/>
   </g>
   <g id="patch_36">
    <path d="M 194.210255 307.584 
L 197.858059 307.584 
L 197.858059 283.890307 
L 194.210255 283.890307 
z
" clip-path="url(#p439f028345)" style="fill: #1f77b4"/>
   </g>
   <g id="patch_37">
    <path d="M 197.858059 307.584 
L 201.505863 307.584 
L 201.505863 288.369712 
L 197.858059 288.369712 
z
" clip-path="url(#p439f028345)" style="fill: #1f77b4"/>
   </g>
   <g id="patch_38">
    <path d="M 201.505863 307.584 
L 205.153667 307.584 
L 205.153667 290.727293 
L 201.505863 290.727293 
z
" clip-path="url(#p439f028345)" style="fill: #1f77b4"/>
   </g>
   <g id="patch_39">
    <path d="M 205.153667 307.584 
L 208.801471 307.584 
L 208.801471 292.966995 
L 205.153667 292.966995 
z
" clip-path="url(#p439f028345)" style="fill: #1f77b4"/>
   </g>
   <g id="patch_40">
    <path d="M 208.801471 307.584 
L 212.449275 307.584 
L 212.449275 293.67427 
L 208.801471 293.67427 
z
" clip-path="url(#p439f028345)" style="fill: #1f77b4"/>
   </g>
   <g id="patch_41">
    <path d="M 212.449275 307.584 
L 216.097079 307.584 
L 216.097079 297.917916 
L 212.449275 297.917916 
z
" clip-path="url(#p439f028345)" style="fill: #1f77b4"/>
   </g>
   <g id="patch_42">
    <path d="M 216.097079 307.584 
L 219.744883 307.584 
L 219.744883 301.336409 
L 216.097079 301.336409 
z
" clip-path="url(#p439f028345)" style="fill: #1f77b4"/>
   </g>
   <g id="patch_43">
    <path d="M 219.744883 307.584 
L 223.392686 307.584 
L 223.392686 302.750958 
L 219.744883 302.750958 
z
" clip-path="url(#p439f028345)" style="fill: #1f77b4"/>
   </g>
   <g id="patch_44">
    <path d="M 223.392686 307.584 
L 227.04049 307.584 
L 227.04049 302.750958 
L 223.392686 302.750958 
z
" clip-path="url(#p439f028345)" style="fill: #1f77b4"/>
   </g>
   <g id="patch_45">
    <path d="M 227.04049 307.584 
L 230.688294 307.584 
L 230.688294 302.868837 
L 227.04049 302.868837 
z
" clip-path="url(#p439f028345)" style="fill: #1f77b4"/>
   </g>
   <g id="patch_46">
    <path d="M 230.688294 307.584 
L 234.336098 307.584 
L 234.336098 303.222474 
L 230.688294 303.222474 
z
" clip-path="url(#p439f028345)" style="fill: #1f77b4"/>
   </g>
   <g id="patch_47">
    <path d="M 234.336098 307.584 
L 237.983902 307.584 
L 237.983902 302.750958 
L 234.336098 302.750958 
z
" clip-path="url(#p439f028345)" style="fill: #1f77b4"/>
   </g>
   <g id="patch_48">
    <path d="M 237.983902 307.584 
L 241.631706 307.584 
L 241.631706 305.462177 
L 237.983902 305.462177 
z
" clip-path="url(#p439f028345)" style="fill: #1f77b4"/>
   </g>
   <g id="patch_49">
    <path d="M 241.631706 307.584 
L 245.27951 307.584 
L 245.27951 304.637023 
L 241.631706 304.637023 
z
" clip-path="url(#p439f028345)" style="fill: #1f77b4"/>
   </g>
   <g id="patch_50">
    <path d="M 245.27951 307.584 
L 248.927314 307.584 
L 248.927314 306.051572 
L 245.27951 306.051572 
z
" clip-path="url(#p439f028345)" style="fill: #1f77b4"/>
   </g>
   <g id="patch_51">
    <path d="M 248.927314 307.584 
L 252.575117 307.584 
L 252.575117 304.283386 
L 248.927314 304.283386 
z
" clip-path="url(#p439f028345)" style="fill: #1f77b4"/>
   </g>
   <g id="patch_52">
    <path d="M 252.575117 307.584 
L 256.222921 307.584 
L 256.222921 305.462177 
L 252.575117 305.462177 
z
" clip-path="url(#p439f028345)" style="fill: #1f77b4"/>
   </g>
   <g id="patch_53">
    <path d="M 256.222921 307.584 
L 259.870725 307.584 
L 259.870725 305.344298 
L 256.222921 305.344298 
z
" clip-path="url(#p439f028345)" style="fill: #1f77b4"/>
   </g>
   <g id="patch_54">
    <path d="M 259.870725 307.584 
L 263.518529 307.584 
L 263.518529 306.640967 
L 259.870725 306.640967 
z
" clip-path="url(#p439f028345)" style="fill: #1f77b4"/>
   </g>
   <g id="patch_55">
    <path d="M 263.518529 307.584 
L 267.166333 307.584 
L 267.166333 306.405209 
L 263.518529 306.405209 
z
" clip-path="url(#p439f028345)" style="fill: #1f77b4"/>
   </g>
   <g id="patch_56">
    <path d="M 267.166333 307.584 
L 270.814137 307.584 
L 270.814137 306.28733 
L 267.166333 306.28733 
z
" clip-path="url(#p439f028345)" style="fill: #1f77b4"/>
   </g>
   <g id="patch_57">
    <path d="M 270.814137 307.584 
L 274.461941 307.584 
L 274.461941 305.815814 
L 270.814137 305.815814 
z
" clip-path="url(#p439f028345)" style="fill: #1f77b4"/>
   </g>
   <g id="patch_58">
    <path d="M 274.461941 307.584 
L 278.109745 307.584 
L 278.109745 306.758847 
L 274.461941 306.758847 
z
" clip-path="url(#p439f028345)" style="fill: #1f77b4"/>
   </g>
   <g id="patch_59">
    <path d="M 278.109745 307.584 
L 281.757549 307.584 
L 281.757549 306.405209 
L 278.109745 306.405209 
z
" clip-path="url(#p439f028345)" style="fill: #1f77b4"/>
   </g>
   <g id="patch_60">
    <path d="M 281.757549 307.584 
L 285.405352 307.584 
L 285.405352 306.28733 
L 281.757549 306.28733 
z
" clip-path="url(#p439f028345)" style="fill: #1f77b4"/>
   </g>
   <g id="patch_61">
    <path d="M 285.405352 307.584 
L 289.053156 307.584 
L 289.053156 304.637023 
L 285.405352 304.637023 
z
" clip-path="url(#p439f028345)" style="fill: #1f77b4"/>
   </g>
   <g id="patch_62">
    <path d="M 289.053156 307.584 
L 292.70096 307.584 
L 292.70096 304.519144 
L 289.053156 304.519144 
z
" clip-path="url(#p439f028345)" style="fill: #1f77b4"/>
   </g>
   <g id="patch_63">
    <path d="M 292.70096 307.584 
L 296.348764 307.584 
L 296.348764 305.697935 
L 292.70096 305.697935 
z
" clip-path="url(#p439f028345)" style="fill: #1f77b4"/>
   </g>
   <g id="patch_64">
    <path d="M 296.348764 307.584 
L 299.996568 307.584 
L 299.996568 306.640967 
L 296.348764 306.640967 
z
" clip-path="url(#p439f028345)" style="fill: #1f77b4"/>
   </g>
   <g id="patch_65">
    <path d="M 299.996568 307.584 
L 303.644372 307.584 
L 303.644372 307.348242 
L 299.996568 307.348242 
z
" clip-path="url(#p439f028345)" style="fill: #1f77b4"/>
   </g>
   <g id="patch_66">
    <path d="M 303.644372 307.584 
L 307.292176 307.584 
L 307.292176 306.876726 
L 303.644372 306.876726 
z
" clip-path="url(#p439f028345)" style="fill: #1f77b4"/>
   </g>
   <g id="patch_67">
    <path d="M 307.292176 307.584 
L 310.93998 307.584 
L 310.93998 306.876726 
L 307.292176 306.876726 
z
" clip-path="url(#p439f028345)" style="fill: #1f77b4"/>
   </g>
   <g id="patch_68">
    <path d="M 310.93998 307.584 
L 314.587783 307.584 
L 314.587783 306.758847 
L 310.93998 306.758847 
z
" clip-path="url(#p439f028345)" style="fill: #1f77b4"/>
   </g>
   <g id="patch_69">
    <path d="M 314.587783 307.584 
L 318.235587 307.584 
L 318.235587 306.758847 
L 314.587783 306.758847 
z
" clip-path="url(#p439f028345)" style="fill: #1f77b4"/>
   </g>
   <g id="patch_70">
    <path d="M 318.235587 307.584 
L 321.883391 307.584 
L 321.883391 306.994605 
L 318.235587 306.994605 
z
" clip-path="url(#p439f028345)" style="fill: #1f77b4"/>
   </g>
   <g id="patch_71">
    <path d="M 321.883391 307.584 
L 325.531195 307.584 
L 325.531195 307.348242 
L 321.883391 307.348242 
z
" clip-path="url(#p439f028345)" style="fill: #1f77b4"/>
   </g>
   <g id="patch_72">
    <path d="M 325.531195 307.584 
L 329.178999 307.584 
L 329.178999 307.466121 
L 325.531195 307.466121 
z
" clip-path="url(#p439f028345)" style="fill: #1f77b4"/>
   </g>
   <g id="patch_73">
    <path d="M 329.178999 307.584 
L 332.826803 307.584 
L 332.826803 307.230363 
L 329.178999 307.230363 
z
" clip-path="url(#p439f028345)" style="fill: #1f77b4"/>
   </g>
   <g id="patch_74">
    <path d="M 332.826803 307.584 
L 336.474607 307.584 
L 336.474607 306.758847 
L 332.826803 306.758847 
z
" clip-path="url(#p439f028345)" style="fill: #1f77b4"/>
   </g>
   <g id="patch_75">
    <path d="M 336.474607 307.584 
L 340.122411 307.584 
L 340.122411 306.523088 
L 336.474607 306.523088 
z
" clip-path="url(#p439f028345)" style="fill: #1f77b4"/>
   </g>
   <g id="patch_76">
    <path d="M 340.122411 307.584 
L 343.770215 307.584 
L 343.770215 306.051572 
L 340.122411 306.051572 
z
" clip-path="url(#p439f028345)" style="fill: #1f77b4"/>
   </g>
   <g id="patch_77">
    <path d="M 343.770215 307.584 
L 347.418018 307.584 
L 347.418018 305.344298 
L 343.770215 305.344298 
z
" clip-path="url(#p439f028345)" style="fill: #1f77b4"/>
   </g>
   <g id="patch_78">
    <path d="M 347.418018 307.584 
L 351.065822 307.584 
L 351.065822 306.169451 
L 347.418018 306.169451 
z
" clip-path="url(#p439f028345)" style="fill: #1f77b4"/>
   </g>
   <g id="patch_79">
    <path d="M 351.065822 307.584 
L 354.713626 307.584 
L 354.713626 305.344298 
L 351.065822 305.344298 
z
" clip-path="url(#p439f028345)" style="fill: #1f77b4"/>
   </g>
   <g id="patch_80">
    <path d="M 354.713626 307.584 
L 358.36143 307.584 
L 358.36143 304.519144 
L 354.713626 304.519144 
z
" clip-path="url(#p439f028345)" style="fill: #1f77b4"/>
   </g>
   <g id="patch_81">
    <path d="M 358.36143 307.584 
L 362.009234 307.584 
L 362.009234 304.637023 
L 358.36143 304.637023 
z
" clip-path="url(#p439f028345)" style="fill: #1f77b4"/>
   </g>
   <g id="patch_82">
    <path d="M 362.009234 307.584 
L 365.657038 307.584 
L 365.657038 303.222474 
L 362.009234 303.222474 
z
" clip-path="url(#p439f028345)" style="fill: #1f77b4"/>
   </g>
   <g id="patch_83">
    <path d="M 365.657038 307.584 
L 369.304842 307.584 
L 369.304842 302.279442 
L 365.657038 302.279442 
z
" clip-path="url(#p439f028345)" style="fill: #1f77b4"/>
   </g>
   <g id="patch_84">
    <path d="M 369.304842 307.584 
L 372.952646 307.584 
L 372.952646 304.872781 
L 369.304842 304.872781 
z
" clip-path="url(#p439f028345)" style="fill: #1f77b4"/>
   </g>
   <g id="patch_85">
    <path d="M 372.952646 307.584 
L 376.600449 307.584 
L 376.600449 305.697935 
L 372.952646 305.697935 
z
" clip-path="url(#p439f028345)" style="fill: #1f77b4"/>
   </g>
   <g id="patch_86">
    <path d="M 376.600449 307.584 
L 380.248253 307.584 
L 380.248253 304.283386 
L 376.600449 304.283386 
z
" clip-path="url(#p439f028345)" style="fill: #1f77b4"/>
   </g>
   <g id="patch_87">
    <path d="M 380.248253 307.584 
L 383.896057 307.584 
L 383.896057 302.043684 
L 380.248253 302.043684 
z
" clip-path="url(#p439f028345)" style="fill: #1f77b4"/>
   </g>
   <g id="patch_88">
    <path d="M 383.896057 307.584 
L 387.543861 307.584 
L 387.543861 299.92186 
L 383.896057 299.92186 
z
" clip-path="url(#p439f028345)" style="fill: #1f77b4"/>
   </g>
   <g id="patch_89">
    <path d="M 387.543861 307.584 
L 391.191665 307.584 
L 391.191665 299.096707 
L 387.543861 299.096707 
z
" clip-path="url(#p439f028345)" style="fill: #1f77b4"/>
   </g>
   <g id="patch_90">
    <path d="M 391.191665 307.584 
L 394.839469 307.584 
L 394.839469 302.5152 
L 391.191665 302.5152 
z
" clip-path="url(#p439f028345)" style="fill: #1f77b4"/>
   </g>
   <g id="patch_91">
    <path d="M 394.839469 307.584 
L 398.487273 307.584 
L 398.487273 306.876726 
L 394.839469 306.876726 
z
" clip-path="url(#p439f028345)" style="fill: #1f77b4"/>
   </g>
   <g id="matplotlib.axis_1">
    <g id="xtick_1">
     <g id="line2d_1">
      <defs>
       <path id="m2fcd37a73d" d="M 0 0 
L 0 3.5 
" style="stroke: #000000; stroke-width: 0.8"/>
      </defs>
      <g>
       <use xlink:href="#m2fcd37a73d" x="102.79592" y="307.584" style="stroke: #000000; stroke-width: 0.8"/>
      </g>
     </g>
     <g id="text_1">
      <!-- 0 -->
      <g transform="translate(99.61467 322.182437) scale(0.1 -0.1)">
       <defs>
        <path id="DejaVuSans-30" d="M 2034 4250 
Q 1547 4250 1301 3770 
Q 1056 3291 1056 2328 
Q 1056 1369 1301 889 
Q 1547 409 2034 409 
Q 2525 409 2770 889 
Q 3016 1369 3016 2328 
Q 3016 3291 2770 3770 
Q 2525 4250 2034 4250 
z
M 2034 4750 
Q 2819 4750 3233 4129 
Q 3647 3509 3647 2328 
Q 3647 1150 3233 529 
Q 2819 -91 2034 -91 
Q 1250 -91 836 529 
Q 422 1150 422 2328 
Q 422 3509 836 4129 
Q 1250 4750 2034 4750 
z
" transform="scale(0.015625)"/>
       </defs>
       <use xlink:href="#DejaVuSans-30"/>
      </g>
     </g>
    </g>
    <g id="xtick_2">
     <g id="line2d_2">
      <g>
       <use xlink:href="#m2fcd37a73d" x="175.751997" y="307.584" style="stroke: #000000; stroke-width: 0.8"/>
      </g>
     </g>
     <g id="text_2">
      <!-- 2 -->
      <g transform="translate(172.570747 322.182437) scale(0.1 -0.1)">
       <defs>
        <path id="DejaVuSans-32" d="M 1228 531 
L 3431 531 
L 3431 0 
L 469 0 
L 469 531 
Q 828 903 1448 1529 
Q 2069 2156 2228 2338 
Q 2531 2678 2651 2914 
Q 2772 3150 2772 3378 
Q 2772 3750 2511 3984 
Q 2250 4219 1831 4219 
Q 1534 4219 1204 4116 
Q 875 4013 500 3803 
L 500 4441 
Q 881 4594 1212 4672 
Q 1544 4750 1819 4750 
Q 2544 4750 2975 4387 
Q 3406 4025 3406 3419 
Q 3406 3131 3298 2873 
Q 3191 2616 2906 2266 
Q 2828 2175 2409 1742 
Q 1991 1309 1228 531 
z
" transform="scale(0.015625)"/>
       </defs>
       <use xlink:href="#DejaVuSans-32"/>
      </g>
     </g>
    </g>
    <g id="xtick_3">
     <g id="line2d_3">
      <g>
       <use xlink:href="#m2fcd37a73d" x="248.708075" y="307.584" style="stroke: #000000; stroke-width: 0.8"/>
      </g>
     </g>
     <g id="text_3">
      <!-- 4 -->
      <g transform="translate(245.526825 322.182437) scale(0.1 -0.1)">
       <defs>
        <path id="DejaVuSans-34" d="M 2419 4116 
L 825 1625 
L 2419 1625 
L 2419 4116 
z
M 2253 4666 
L 3047 4666 
L 3047 1625 
L 3713 1625 
L 3713 1100 
L 3047 1100 
L 3047 0 
L 2419 0 
L 2419 1100 
L 313 1100 
L 313 1709 
L 2253 4666 
z
" transform="scale(0.015625)"/>
       </defs>
       <use xlink:href="#DejaVuSans-34"/>
      </g>
     </g>
    </g>
    <g id="xtick_4">
     <g id="line2d_4">
      <g>
       <use xlink:href="#m2fcd37a73d" x="321.664153" y="307.584" style="stroke: #000000; stroke-width: 0.8"/>
      </g>
     </g>
     <g id="text_4">
      <!-- 6 -->
      <g transform="translate(318.482903 322.182437) scale(0.1 -0.1)">
       <defs>
        <path id="DejaVuSans-36" d="M 2113 2584 
Q 1688 2584 1439 2293 
Q 1191 2003 1191 1497 
Q 1191 994 1439 701 
Q 1688 409 2113 409 
Q 2538 409 2786 701 
Q 3034 994 3034 1497 
Q 3034 2003 2786 2293 
Q 2538 2584 2113 2584 
z
M 3366 4563 
L 3366 3988 
Q 3128 4100 2886 4159 
Q 2644 4219 2406 4219 
Q 1781 4219 1451 3797 
Q 1122 3375 1075 2522 
Q 1259 2794 1537 2939 
Q 1816 3084 2150 3084 
Q 2853 3084 3261 2657 
Q 3669 2231 3669 1497 
Q 3669 778 3244 343 
Q 2819 -91 2113 -91 
Q 1303 -91 875 529 
Q 447 1150 447 2328 
Q 447 3434 972 4092 
Q 1497 4750 2381 4750 
Q 2619 4750 2861 4703 
Q 3103 4656 3366 4563 
z
" transform="scale(0.015625)"/>
       </defs>
       <use xlink:href="#DejaVuSans-36"/>
      </g>
     </g>
    </g>
    <g id="xtick_5">
     <g id="line2d_5">
      <g>
       <use xlink:href="#m2fcd37a73d" x="394.62023" y="307.584" style="stroke: #000000; stroke-width: 0.8"/>
      </g>
     </g>
     <g id="text_5">
      <!-- 8 -->
      <g transform="translate(391.43898 322.182437) scale(0.1 -0.1)">
       <defs>
        <path id="DejaVuSans-38" d="M 2034 2216 
Q 1584 2216 1326 1975 
Q 1069 1734 1069 1313 
Q 1069 891 1326 650 
Q 1584 409 2034 409 
Q 2484 409 2743 651 
Q 3003 894 3003 1313 
Q 3003 1734 2745 1975 
Q 2488 2216 2034 2216 
z
M 1403 2484 
Q 997 2584 770 2862 
Q 544 3141 544 3541 
Q 544 4100 942 4425 
Q 1341 4750 2034 4750 
Q 2731 4750 3128 4425 
Q 3525 4100 3525 3541 
Q 3525 3141 3298 2862 
Q 3072 2584 2669 2484 
Q 3125 2378 3379 2068 
Q 3634 1759 3634 1313 
Q 3634 634 3220 271 
Q 2806 -91 2034 -91 
Q 1263 -91 848 271 
Q 434 634 434 1313 
Q 434 1759 690 2068 
Q 947 2378 1403 2484 
z
M 1172 3481 
Q 1172 3119 1398 2916 
Q 1625 2713 2034 2713 
Q 2441 2713 2670 2916 
Q 2900 3119 2900 3481 
Q 2900 3844 2670 4047 
Q 2441 4250 2034 4250 
Q 1625 4250 1398 4047 
Q 1172 3844 1172 3481 
z
" transform="scale(0.015625)"/>
       </defs>
       <use xlink:href="#DejaVuSans-38"/>
      </g>
     </g>
    </g>
    <g id="text_6">
     <!-- value -->
     <g transform="translate(222.502187 335.860562) scale(0.1 -0.1)">
      <defs>
       <path id="DejaVuSans-76" d="M 191 3500 
L 800 3500 
L 1894 563 
L 2988 3500 
L 3597 3500 
L 2284 0 
L 1503 0 
L 191 3500 
z
" transform="scale(0.015625)"/>
       <path id="DejaVuSans-61" d="M 2194 1759 
Q 1497 1759 1228 1600 
Q 959 1441 959 1056 
Q 959 750 1161 570 
Q 1363 391 1709 391 
Q 2188 391 2477 730 
Q 2766 1069 2766 1631 
L 2766 1759 
L 2194 1759 
z
M 3341 1997 
L 3341 0 
L 2766 0 
L 2766 531 
Q 2569 213 2275 61 
Q 1981 -91 1556 -91 
Q 1019 -91 701 211 
Q 384 513 384 1019 
Q 384 1609 779 1909 
Q 1175 2209 1959 2209 
L 2766 2209 
L 2766 2266 
Q 2766 2663 2505 2880 
Q 2244 3097 1772 3097 
Q 1472 3097 1187 3025 
Q 903 2953 641 2809 
L 641 3341 
Q 956 3463 1253 3523 
Q 1550 3584 1831 3584 
Q 2591 3584 2966 3190 
Q 3341 2797 3341 1997 
z
" transform="scale(0.015625)"/>
       <path id="DejaVuSans-6c" d="M 603 4863 
L 1178 4863 
L 1178 0 
L 603 0 
L 603 4863 
z
" transform="scale(0.015625)"/>
       <path id="DejaVuSans-75" d="M 544 1381 
L 544 3500 
L 1119 3500 
L 1119 1403 
Q 1119 906 1312 657 
Q 1506 409 1894 409 
Q 2359 409 2629 706 
Q 2900 1003 2900 1516 
L 2900 3500 
L 3475 3500 
L 3475 0 
L 2900 0 
L 2900 538 
Q 2691 219 2414 64 
Q 2138 -91 1772 -91 
Q 1169 -91 856 284 
Q 544 659 544 1381 
z
M 1991 3584 
L 1991 3584 
z
" transform="scale(0.015625)"/>
       <path id="DejaVuSans-65" d="M 3597 1894 
L 3597 1613 
L 953 1613 
Q 991 1019 1311 708 
Q 1631 397 2203 397 
Q 2534 397 2845 478 
Q 3156 559 3463 722 
L 3463 178 
Q 3153 47 2828 -22 
Q 2503 -91 2169 -91 
Q 1331 -91 842 396 
Q 353 884 353 1716 
Q 353 2575 817 3079 
Q 1281 3584 2069 3584 
Q 2775 3584 3186 3129 
Q 3597 2675 3597 1894 
z
M 3022 2063 
Q 3016 2534 2758 2815 
Q 2500 3097 2075 3097 
Q 1594 3097 1305 2825 
Q 1016 2553 972 2059 
L 3022 2063 
z
" transform="scale(0.015625)"/>
      </defs>
      <use xlink:href="#DejaVuSans-76"/>
      <use xlink:href="#DejaVuSans-61" x="59.179688"/>
      <use xlink:href="#DejaVuSans-6c" x="120.458984"/>
      <use xlink:href="#DejaVuSans-75" x="148.242188"/>
      <use xlink:href="#DejaVuSans-65" x="211.621094"/>
     </g>
    </g>
   </g>
   <g id="matplotlib.axis_2">
    <g id="ytick_1">
     <g id="line2d_6">
      <defs>
       <path id="m48a7b229be" d="M 0 0 
L -3.5 0 
" style="stroke: #000000; stroke-width: 0.8"/>
      </defs>
      <g>
       <use xlink:href="#m48a7b229be" x="57.6" y="307.584" style="stroke: #000000; stroke-width: 0.8"/>
      </g>
     </g>
     <g id="text_7">
      <!-- 0.0 -->
      <g transform="translate(34.696875 311.383219) scale(0.1 -0.1)">
       <defs>
        <path id="DejaVuSans-2e" d="M 684 794 
L 1344 794 
L 1344 0 
L 684 0 
L 684 794 
z
" transform="scale(0.015625)"/>
       </defs>
       <use xlink:href="#DejaVuSans-30"/>
       <use xlink:href="#DejaVuSans-2e" x="63.623047"/>
       <use xlink:href="#DejaVuSans-30" x="95.410156"/>
      </g>
     </g>
    </g>
    <g id="ytick_2">
     <g id="line2d_7">
      <g>
       <use xlink:href="#m48a7b229be" x="57.6" y="260.841412" style="stroke: #000000; stroke-width: 0.8"/>
      </g>
     </g>
     <g id="text_8">
      <!-- 0.1 -->
      <g transform="translate(34.696875 264.640631) scale(0.1 -0.1)">
       <defs>
        <path id="DejaVuSans-31" d="M 794 531 
L 1825 531 
L 1825 4091 
L 703 3866 
L 703 4441 
L 1819 4666 
L 2450 4666 
L 2450 531 
L 3481 531 
L 3481 0 
L 794 0 
L 794 531 
z
" transform="scale(0.015625)"/>
       </defs>
       <use xlink:href="#DejaVuSans-30"/>
       <use xlink:href="#DejaVuSans-2e" x="63.623047"/>
       <use xlink:href="#DejaVuSans-31" x="95.410156"/>
      </g>
     </g>
    </g>
    <g id="ytick_3">
     <g id="line2d_8">
      <g>
       <use xlink:href="#m48a7b229be" x="57.6" y="214.098825" style="stroke: #000000; stroke-width: 0.8"/>
      </g>
     </g>
     <g id="text_9">
      <!-- 0.2 -->
      <g transform="translate(34.696875 217.898044) scale(0.1 -0.1)">
       <use xlink:href="#DejaVuSans-30"/>
       <use xlink:href="#DejaVuSans-2e" x="63.623047"/>
       <use xlink:href="#DejaVuSans-32" x="95.410156"/>
      </g>
     </g>
    </g>
    <g id="ytick_4">
     <g id="line2d_9">
      <g>
       <use xlink:href="#m48a7b229be" x="57.6" y="167.356237" style="stroke: #000000; stroke-width: 0.8"/>
      </g>
     </g>
     <g id="text_10">
      <!-- 0.3 -->
      <g transform="translate(34.696875 171.155456) scale(0.1 -0.1)">
       <defs>
        <path id="DejaVuSans-33" d="M 2597 2516 
Q 3050 2419 3304 2112 
Q 3559 1806 3559 1356 
Q 3559 666 3084 287 
Q 2609 -91 1734 -91 
Q 1441 -91 1130 -33 
Q 819 25 488 141 
L 488 750 
Q 750 597 1062 519 
Q 1375 441 1716 441 
Q 2309 441 2620 675 
Q 2931 909 2931 1356 
Q 2931 1769 2642 2001 
Q 2353 2234 1838 2234 
L 1294 2234 
L 1294 2753 
L 1863 2753 
Q 2328 2753 2575 2939 
Q 2822 3125 2822 3475 
Q 2822 3834 2567 4026 
Q 2313 4219 1838 4219 
Q 1578 4219 1281 4162 
Q 984 4106 628 3988 
L 628 4550 
Q 988 4650 1302 4700 
Q 1616 4750 1894 4750 
Q 2613 4750 3031 4423 
Q 3450 4097 3450 3541 
Q 3450 3153 3228 2886 
Q 3006 2619 2597 2516 
z
" transform="scale(0.015625)"/>
       </defs>
       <use xlink:href="#DejaVuSans-30"/>
       <use xlink:href="#DejaVuSans-2e" x="63.623047"/>
       <use xlink:href="#DejaVuSans-33" x="95.410156"/>
      </g>
     </g>
    </g>
    <g id="ytick_5">
     <g id="line2d_10">
      <g>
       <use xlink:href="#m48a7b229be" x="57.6" y="120.61365" style="stroke: #000000; stroke-width: 0.8"/>
      </g>
     </g>
     <g id="text_11">
      <!-- 0.4 -->
      <g transform="translate(34.696875 124.412869) scale(0.1 -0.1)">
       <use xlink:href="#DejaVuSans-30"/>
       <use xlink:href="#DejaVuSans-2e" x="63.623047"/>
       <use xlink:href="#DejaVuSans-34" x="95.410156"/>
      </g>
     </g>
    </g>
    <g id="ytick_6">
     <g id="line2d_11">
      <g>
       <use xlink:href="#m48a7b229be" x="57.6" y="73.871062" style="stroke: #000000; stroke-width: 0.8"/>
      </g>
     </g>
     <g id="text_12">
      <!-- 0.5 -->
      <g transform="translate(34.696875 77.670281) scale(0.1 -0.1)">
       <defs>
        <path id="DejaVuSans-35" d="M 691 4666 
L 3169 4666 
L 3169 4134 
L 1269 4134 
L 1269 2991 
Q 1406 3038 1543 3061 
Q 1681 3084 1819 3084 
Q 2600 3084 3056 2656 
Q 3513 2228 3513 1497 
Q 3513 744 3044 326 
Q 2575 -91 1722 -91 
Q 1428 -91 1123 -41 
Q 819 9 494 109 
L 494 744 
Q 775 591 1075 516 
Q 1375 441 1709 441 
Q 2250 441 2565 725 
Q 2881 1009 2881 1497 
Q 2881 1984 2565 2268 
Q 2250 2553 1709 2553 
Q 1456 2553 1204 2497 
Q 953 2441 691 2322 
L 691 4666 
z
" transform="scale(0.015625)"/>
       </defs>
       <use xlink:href="#DejaVuSans-30"/>
       <use xlink:href="#DejaVuSans-2e" x="63.623047"/>
       <use xlink:href="#DejaVuSans-35" x="95.410156"/>
      </g>
     </g>
    </g>
    <g id="text_13">
     <!-- density -->
     <g transform="translate(28.617187 192.860812) rotate(-90) scale(0.1 -0.1)">
      <defs>
       <path id="DejaVuSans-64" d="M 2906 2969 
L 2906 4863 
L 3481 4863 
L 3481 0 
L 2906 0 
L 2906 525 
Q 2725 213 2448 61 
Q 2172 -91 1784 -91 
Q 1150 -91 751 415 
Q 353 922 353 1747 
Q 353 2572 751 3078 
Q 1150 3584 1784 3584 
Q 2172 3584 2448 3432 
Q 2725 3281 2906 2969 
z
M 947 1747 
Q 947 1113 1208 752 
Q 1469 391 1925 391 
Q 2381 391 2643 752 
Q 2906 1113 2906 1747 
Q 2906 2381 2643 2742 
Q 2381 3103 1925 3103 
Q 1469 3103 1208 2742 
Q 947 2381 947 1747 
z
" transform="scale(0.015625)"/>
       <path id="DejaVuSans-6e" d="M 3513 2113 
L 3513 0 
L 2938 0 
L 2938 2094 
Q 2938 2591 2744 2837 
Q 2550 3084 2163 3084 
Q 1697 3084 1428 2787 
Q 1159 2491 1159 1978 
L 1159 0 
L 581 0 
L 581 3500 
L 1159 3500 
L 1159 2956 
Q 1366 3272 1645 3428 
Q 1925 3584 2291 3584 
Q 2894 3584 3203 3211 
Q 3513 2838 3513 2113 
z
" transform="scale(0.015625)"/>
       <path id="DejaVuSans-73" d="M 2834 3397 
L 2834 2853 
Q 2591 2978 2328 3040 
Q 2066 3103 1784 3103 
Q 1356 3103 1142 2972 
Q 928 2841 928 2578 
Q 928 2378 1081 2264 
Q 1234 2150 1697 2047 
L 1894 2003 
Q 2506 1872 2764 1633 
Q 3022 1394 3022 966 
Q 3022 478 2636 193 
Q 2250 -91 1575 -91 
Q 1294 -91 989 -36 
Q 684 19 347 128 
L 347 722 
Q 666 556 975 473 
Q 1284 391 1588 391 
Q 1994 391 2212 530 
Q 2431 669 2431 922 
Q 2431 1156 2273 1281 
Q 2116 1406 1581 1522 
L 1381 1569 
Q 847 1681 609 1914 
Q 372 2147 372 2553 
Q 372 3047 722 3315 
Q 1072 3584 1716 3584 
Q 2034 3584 2315 3537 
Q 2597 3491 2834 3397 
z
" transform="scale(0.015625)"/>
       <path id="DejaVuSans-69" d="M 603 3500 
L 1178 3500 
L 1178 0 
L 603 0 
L 603 3500 
z
M 603 4863 
L 1178 4863 
L 1178 4134 
L 603 4134 
L 603 4863 
z
" transform="scale(0.015625)"/>
       <path id="DejaVuSans-74" d="M 1172 4494 
L 1172 3500 
L 2356 3500 
L 2356 3053 
L 1172 3053 
L 1172 1153 
Q 1172 725 1289 603 
Q 1406 481 1766 481 
L 2356 481 
L 2356 0 
L 1766 0 
Q 1100 0 847 248 
Q 594 497 594 1153 
L 594 3053 
L 172 3053 
L 172 3500 
L 594 3500 
L 594 4494 
L 1172 4494 
z
" transform="scale(0.015625)"/>
       <path id="DejaVuSans-79" d="M 2059 -325 
Q 1816 -950 1584 -1140 
Q 1353 -1331 966 -1331 
L 506 -1331 
L 506 -850 
L 844 -850 
Q 1081 -850 1212 -737 
Q 1344 -625 1503 -206 
L 1606 56 
L 191 3500 
L 800 3500 
L 1894 763 
L 2988 3500 
L 3597 3500 
L 2059 -325 
z
" transform="scale(0.015625)"/>
      </defs>
      <use xlink:href="#DejaVuSans-64"/>
      <use xlink:href="#DejaVuSans-65" x="63.476562"/>
      <use xlink:href="#DejaVuSans-6e" x="125"/>
      <use xlink:href="#DejaVuSans-73" x="188.378906"/>
      <use xlink:href="#DejaVuSans-69" x="240.478516"/>
      <use xlink:href="#DejaVuSans-74" x="268.261719"/>
      <use xlink:href="#DejaVuSans-79" x="307.470703"/>
     </g>
    </g>
   </g>
   <g id="patch_92">
    <path d="M 57.6 307.584 
L 57.6 41.472 
" style="fill: none; stroke: #000000; stroke-width: 0.8; stroke-linejoin: miter; stroke-linecap: square"/>
   </g>
   <g id="patch_93">
    <path d="M 414.72 307.584 
L 414.72 41.472 
" style="fill: none; stroke: #000000; stroke-width: 0.8; stroke-linejoin: miter; stroke-linecap: square"/>
   </g>
   <g id="patch_94">
    <path d="M 57.6 307.584 
L 414.72 307.584 
" style="fill: none; stroke: #000000; stroke-width: 0.8; stroke-linejoin: miter; stroke-linecap: square"/>
   </g>
   <g id="patch_95">
    <path d="M 57.6 41.472 
L 414.72 41.472 
" style="fill: none; stroke: #000000; stroke-width: 0.8; stroke-linejoin: miter; stroke-linecap: square"/>
   </g>
   <g id="text_14">
    <!-- lidarrunup_elev2p, N = 39654 -->
    <g transform="translate(145.835625 35.472) scale(0.12 -0.12)">
     <defs>
      <path id="DejaVuSans-72" d="M 2631 2963 
Q 2534 3019 2420 3045 
Q 2306 3072 2169 3072 
Q 1681 3072 1420 2755 
Q 1159 2438 1159 1844 
L 1159 0 
L 581 0 
L 581 3500 
L 1159 3500 
L 1159 2956 
Q 1341 3275 1631 3429 
Q 1922 3584 2338 3584 
Q 2397 3584 2469 3576 
Q 2541 3569 2628 3553 
L 2631 2963 
z
" transform="scale(0.015625)"/>
      <path id="DejaVuSans-70" d="M 1159 525 
L 1159 -1331 
L 581 -1331 
L 581 3500 
L 1159 3500 
L 1159 2969 
Q 1341 3281 1617 3432 
Q 1894 3584 2278 3584 
Q 2916 3584 3314 3078 
Q 3713 2572 3713 1747 
Q 3713 922 3314 415 
Q 2916 -91 2278 -91 
Q 1894 -91 1617 61 
Q 1341 213 1159 525 
z
M 3116 1747 
Q 3116 2381 2855 2742 
Q 2594 3103 2138 3103 
Q 1681 3103 1420 2742 
Q 1159 2381 1159 1747 
Q 1159 1113 1420 752 
Q 1681 391 2138 391 
Q 2594 391 2855 752 
Q 3116 1113 3116 1747 
z
" transform="scale(0.015625)"/>
      <path id="DejaVuSans-5f" d="M 3263 -1063 
L 3263 -1509 
L -63 -1509 
L -63 -1063 
L 3263 -1063 
z
" transform="scale(0.015625)"/>
      <path id="DejaVuSans-2c" d="M 750 794 
L 1409 794 
L 1409 256 
L 897 -744 
L 494 -744 
L 750 256 
L 750 794 
z
" transform="scale(0.015625)"/>
      <path id="DejaVuSans-20" transform="scale(0.015625)"/>
      <path id="DejaVuSans-4e" d="M 628 4666 
L 1478 4666 
L 3547 763 
L 3547 4666 
L 4159 4666 
L 4159 0 
L 3309 0 
L 1241 3903 
L 1241 0 
L 628 0 
L 628 4666 
z
" transform="scale(0.015625)"/>
      <path id="DejaVuSans-3d" d="M 678 2906 
L 4684 2906 
L 4684 2381 
L 678 2381 
L 678 2906 
z
M 678 1631 
L 4684 1631 
L 4684 1100 
L 678 1100 
L 678 1631 
z
" transform="scale(0.015625)"/>
      <path id="DejaVuSans-39" d="M 703 97 
L 703 672 
Q 941 559 1184 500 
Q 1428 441 1663 441 
Q 2288 441 2617 861 
Q 2947 1281 2994 2138 
Q 2813 1869 2534 1725 
Q 2256 1581 1919 1581 
Q 1219 1581 811 2004 
Q 403 2428 403 3163 
Q 403 3881 828 4315 
Q 1253 4750 1959 4750 
Q 2769 4750 3195 4129 
Q 3622 3509 3622 2328 
Q 3622 1225 3098 567 
Q 2575 -91 1691 -91 
Q 1453 -91 1209 -44 
Q 966 3 703 97 
z
M 1959 2075 
Q 2384 2075 2632 2365 
Q 2881 2656 2881 3163 
Q 2881 3666 2632 3958 
Q 2384 4250 1959 4250 
Q 1534 4250 1286 3958 
Q 1038 3666 1038 3163 
Q 1038 2656 1286 2365 
Q 1534 2075 1959 2075 
z
" transform="scale(0.015625)"/>
     </defs>
     <use xlink:href="#DejaVuSans-6c"/>
     <use xlink:href="#DejaVuSans-69" x="27.783203"/>
     <use xlink:href="#DejaVuSans-64" x="55.566406"/>
     <use xlink:href="#DejaVuSans-61" x="119.042969"/>
     <use xlink:href="#DejaVuSans-72" x="180.322266"/>
     <use xlink:href="#DejaVuSans-72" x="219.685547"/>
     <use xlink:href="#DejaVuSans-75" x="260.798828"/>
     <use xlink:href="#DejaVuSans-6e" x="324.177734"/>
     <use xlink:href="#DejaVuSans-75" x="387.556641"/>
     <use xlink:href="#DejaVuSans-70" x="450.935547"/>
     <use xlink:href="#DejaVuSans-5f" x="514.412109"/>
     <use xlink:href="#DejaVuSans-65" x="564.412109"/>
     <use xlink:href="#DejaVuSans-6c" x="625.935547"/>
     <use xlink:href="#DejaVuSans-65" x="653.71875"/>
     <use xlink:href="#DejaVuSans-76" x="715.242188"/>
     <use xlink:href="#DejaVuSans-32" x="774.421875"/>
     <use xlink:href="#DejaVuSans-70" x="838.044922"/>
     <use xlink:href="#DejaVuSans-2c" x="901.521484"/>
     <use xlink:href="#DejaVuSans-20" x="933.308594"/>
     <use xlink:href="#DejaVuSans-4e" x="965.095703"/>
     <use xlink:href="#DejaVuSans-20" x="1039.900391"/>
     <use xlink:href="#DejaVuSans-3d" x="1071.6875"/>
     <use xlink:href="#DejaVuSans-20" x="1155.476562"/>
     <use xlink:href="#DejaVuSans-33" x="1187.263672"/>
     <use xlink:href="#DejaVuSans-39" x="1250.886719"/>
     <use xlink:href="#DejaVuSans-36" x="1314.509766"/>
     <use xlink:href="#DejaVuSans-35" x="1378.132812"/>
     <use xlink:href="#DejaVuSans-34" x="1441.755859"/>
    </g>
   </g>
  </g>
 </g>
 <defs>
  <clipPath id="p439f028345">
   <rect x="57.6" y="41.472" width="357.12" height="266.112"/>
  </clipPath>
 </defs>
</svg>
