<?xml version="1.0" encoding="utf-8" standalone="no"?>
<!DOCTYPE svg PUBLIC "-//W3C//DTD SVG 1.1//EN"
  "http://www.w3.org/Graphics/SVG/1.1/DTD/svg11.dtd">
<svg xmlns:xlink="http://www.w3.org/1999/xlink" width="460.8pt" height="345.6pt" viewBox="0 0 460.8 345.6" xmlns="http://www.w3.org/2000/svg" version="1.1">
 <metadata>
  <rdf:RDF xmlns:dc="http://purl.org/dc/elements/1.1/" xmlns:cc="http://creativecommons.org/ns#" xmlns:rdf="http://www.w3.org/1999/02/22-rdf-syntax-ns#">
   <cc:Work>
    <dc:type rdf:resource="http://purl.org/dc/dcmitype/StillImage"/>
    <dc:date>2024-06-19T20:44:13.931879</dc:date>
    <dc:format>image/svg+xml</dc:format>
    <dc:creator>
     <cc:Agent>
      <dc:title>Matplotlib v3.8.0, https://matplotlib.org/</dc:title>
     </cc:Agent>
    </dc:creator>
   </cc:Work>
  </rdf:RDF>
 </metadata>
 <defs>
  <style type="text/css">*{stroke-linejoin: round; stroke-linecap: butt}</style>
 </defs>
 <g id="figure_1">
  <g id="patch_1">
   <path d="M 0 345.6 
L 460.8 345.6 
L 460.8 0 
L 0 0 
z
" style="fill: #ffffff"/>
  </g>
  <g id="axes_1">
   <g id="patch_2">
    <path d="M 57.6 307.584 
L 414.72 307.584 
L 414.72 41.472 
L 57.6 41.472 
z
" style="fill: #ffffff"/>
   </g>
   <g id="patch_3">
    <path d="M 73.832727 307.584 
L 80.45833 307.584 
L 80.45833 74.211097 
L 73.832727 74.211097 
z
" clip-path="url(#pf280f735b4)" style="fill: #1f77b4; opacity: 0.4"/>
   </g>
   <g id="patch_4">
    <path d="M 80.45833 307.584 
L 87.083933 307.584 
L 87.083933 54.144 
L 80.45833 54.144 
z
" clip-path="url(#pf280f735b4)" style="fill: #1f77b4; opacity: 0.4"/>
   </g>
   <g id="patch_5">
    <path d="M 87.083933 307.584 
L 93.709536 307.584 
L 93.709536 113.230452 
L 87.083933 113.230452 
z
" clip-path="url(#pf280f735b4)" style="fill: #1f77b4; opacity: 0.4"/>
   </g>
   <g id="patch_6">
    <path d="M 93.709536 307.584 
L 100.335139 307.584 
L 100.335139 186.438194 
L 93.709536 186.438194 
z
" clip-path="url(#pf280f735b4)" style="fill: #1f77b4; opacity: 0.4"/>
   </g>
   <g id="patch_7">
    <path d="M 100.335139 307.584 
L 106.960742 307.584 
L 106.960742 223.78529 
L 100.335139 223.78529 
z
" clip-path="url(#pf280f735b4)" style="fill: #1f77b4; opacity: 0.4"/>
   </g>
   <g id="patch_8">
    <path d="M 106.960742 307.584 
L 113.586345 307.584 
L 113.586345 252.492387 
L 106.960742 252.492387 
z
" clip-path="url(#pf280f735b4)" style="fill: #1f77b4; opacity: 0.4"/>
   </g>
   <g id="patch_9">
    <path d="M 113.586345 307.584 
L 120.211948 307.584 
L 120.211948 268.843355 
L 113.586345 268.843355 
z
" clip-path="url(#pf280f735b4)" style="fill: #1f77b4; opacity: 0.4"/>
   </g>
   <g id="patch_10">
    <path d="M 120.211948 307.584 
L 126.837551 307.584 
L 126.837551 278.319484 
L 120.211948 278.319484 
z
" clip-path="url(#pf280f735b4)" style="fill: #1f77b4; opacity: 0.4"/>
   </g>
   <g id="patch_11">
    <path d="M 126.837551 307.584 
L 133.463154 307.584 
L 133.463154 284.544 
L 126.837551 284.544 
z
" clip-path="url(#pf280f735b4)" style="fill: #1f77b4; opacity: 0.4"/>
   </g>
   <g id="patch_12">
    <path d="M 133.463154 307.584 
L 140.088757 307.584 
L 140.088757 288.074323 
L 133.463154 288.074323 
z
" clip-path="url(#pf280f735b4)" style="fill: #1f77b4; opacity: 0.4"/>
   </g>
   <g id="patch_13">
    <path d="M 140.088757 307.584 
L 146.71436 307.584 
L 146.71436 292.998194 
L 140.088757 292.998194 
z
" clip-path="url(#pf280f735b4)" style="fill: #1f77b4; opacity: 0.4"/>
   </g>
   <g id="patch_14">
    <path d="M 146.71436 307.584 
L 153.339963 307.584 
L 153.339963 296.064 
L 146.71436 296.064 
z
" clip-path="url(#pf280f735b4)" style="fill: #1f77b4; opacity: 0.4"/>
   </g>
   <g id="patch_15">
    <path d="M 153.339963 307.584 
L 159.965566 307.584 
L 159.965566 298.200774 
L 153.339963 298.200774 
z
" clip-path="url(#pf280f735b4)" style="fill: #1f77b4; opacity: 0.4"/>
   </g>
   <g id="patch_16">
    <path d="M 159.965566 307.584 
L 166.591169 307.584 
L 166.591169 300.430452 
L 159.965566 300.430452 
z
" clip-path="url(#pf280f735b4)" style="fill: #1f77b4; opacity: 0.4"/>
   </g>
   <g id="patch_17">
    <path d="M 166.591169 307.584 
L 173.216772 307.584 
L 173.216772 300.616258 
L 166.591169 300.616258 
z
" clip-path="url(#pf280f735b4)" style="fill: #1f77b4; opacity: 0.4"/>
   </g>
   <g id="patch_18">
    <path d="M 173.216772 307.584 
L 179.842375 307.584 
L 179.842375 302.567226 
L 173.216772 302.567226 
z
" clip-path="url(#pf280f735b4)" style="fill: #1f77b4; opacity: 0.4"/>
   </g>
   <g id="patch_19">
    <path d="M 179.842375 307.584 
L 186.467978 307.584 
L 186.467978 303.774968 
L 179.842375 303.774968 
z
" clip-path="url(#pf280f735b4)" style="fill: #1f77b4; opacity: 0.4"/>
   </g>
   <g id="patch_20">
    <path d="M 186.467978 307.584 
L 193.093581 307.584 
L 193.093581 304.239484 
L 186.467978 304.239484 
z
" clip-path="url(#pf280f735b4)" style="fill: #1f77b4; opacity: 0.4"/>
   </g>
   <g id="patch_21">
    <path d="M 193.093581 307.584 
L 199.719184 307.584 
L 199.719184 304.704 
L 193.093581 304.704 
z
" clip-path="url(#pf280f735b4)" style="fill: #1f77b4; opacity: 0.4"/>
   </g>
   <g id="patch_22">
    <path d="M 199.719184 307.584 
L 206.344787 307.584 
L 206.344787 305.354323 
L 199.719184 305.354323 
z
" clip-path="url(#pf280f735b4)" style="fill: #1f77b4; opacity: 0.4"/>
   </g>
   <g id="patch_23">
    <path d="M 206.344787 307.584 
L 212.97039 307.584 
L 212.97039 306.654968 
L 206.344787 306.654968 
z
" clip-path="url(#pf280f735b4)" style="fill: #1f77b4; opacity: 0.4"/>
   </g>
   <g id="patch_24">
    <path d="M 212.97039 307.584 
L 219.595993 307.584 
L 219.595993 306.840774 
L 212.97039 306.840774 
z
" clip-path="url(#pf280f735b4)" style="fill: #1f77b4; opacity: 0.4"/>
   </g>
   <g id="patch_25">
    <path d="M 219.595993 307.584 
L 226.221596 307.584 
L 226.221596 306.654968 
L 219.595993 306.654968 
z
" clip-path="url(#pf280f735b4)" style="fill: #1f77b4; opacity: 0.4"/>
   </g>
   <g id="patch_26">
    <path d="M 226.221596 307.584 
L 232.847199 307.584 
L 232.847199 306.840774 
L 226.221596 306.840774 
z
" clip-path="url(#pf280f735b4)" style="fill: #1f77b4; opacity: 0.4"/>
   </g>
   <g id="patch_27">
    <path d="M 232.847199 307.584 
L 239.472801 307.584 
L 239.472801 306.654968 
L 232.847199 306.654968 
z
" clip-path="url(#pf280f735b4)" style="fill: #1f77b4; opacity: 0.4"/>
   </g>
   <g id="patch_28">
    <path d="M 239.472801 307.584 
L 246.098404 307.584 
L 246.098404 307.398194 
L 239.472801 307.398194 
z
" clip-path="url(#pf280f735b4)" style="fill: #1f77b4; opacity: 0.4"/>
   </g>
   <g id="patch_29">
    <path d="M 246.098404 307.584 
L 252.724007 307.584 
L 252.724007 307.212387 
L 246.098404 307.212387 
z
" clip-path="url(#pf280f735b4)" style="fill: #1f77b4; opacity: 0.4"/>
   </g>
   <g id="patch_30">
    <path d="M 252.724007 307.584 
L 259.34961 307.584 
L 259.34961 307.30529 
L 252.724007 307.30529 
z
" clip-path="url(#pf280f735b4)" style="fill: #1f77b4; opacity: 0.4"/>
   </g>
   <g id="patch_31">
    <path d="M 259.34961 307.584 
L 265.975213 307.584 
L 265.975213 306.654968 
L 259.34961 306.654968 
z
" clip-path="url(#pf280f735b4)" style="fill: #1f77b4; opacity: 0.4"/>
   </g>
   <g id="patch_32">
    <path d="M 265.975213 307.584 
L 272.600816 307.584 
L 272.600816 307.30529 
L 265.975213 307.30529 
z
" clip-path="url(#pf280f735b4)" style="fill: #1f77b4; opacity: 0.4"/>
   </g>
   <g id="patch_33">
    <path d="M 272.600816 307.584 
L 279.226419 307.584 
L 279.226419 307.491097 
L 272.600816 307.491097 
z
" clip-path="url(#pf280f735b4)" style="fill: #1f77b4; opacity: 0.4"/>
   </g>
   <g id="patch_34">
    <path d="M 279.226419 307.584 
L 285.852022 307.584 
L 285.852022 307.398194 
L 279.226419 307.398194 
z
" clip-path="url(#pf280f735b4)" style="fill: #1f77b4; opacity: 0.4"/>
   </g>
   <g id="patch_35">
    <path d="M 285.852022 307.584 
L 292.477625 307.584 
L 292.477625 307.584 
L 285.852022 307.584 
z
" clip-path="url(#pf280f735b4)" style="fill: #1f77b4; opacity: 0.4"/>
   </g>
   <g id="patch_36">
    <path d="M 292.477625 307.584 
L 299.103228 307.584 
L 299.103228 307.30529 
L 292.477625 307.30529 
z
" clip-path="url(#pf280f735b4)" style="fill: #1f77b4; opacity: 0.4"/>
   </g>
   <g id="patch_37">
    <path d="M 299.103228 307.584 
L 305.728831 307.584 
L 305.728831 307.398194 
L 299.103228 307.398194 
z
" clip-path="url(#pf280f735b4)" style="fill: #1f77b4; opacity: 0.4"/>
   </g>
   <g id="patch_38">
    <path d="M 305.728831 307.584 
L 312.354434 307.584 
L 312.354434 307.491097 
L 305.728831 307.491097 
z
" clip-path="url(#pf280f735b4)" style="fill: #1f77b4; opacity: 0.4"/>
   </g>
   <g id="patch_39">
    <path d="M 312.354434 307.584 
L 318.980037 307.584 
L 318.980037 307.398194 
L 312.354434 307.398194 
z
" clip-path="url(#pf280f735b4)" style="fill: #1f77b4; opacity: 0.4"/>
   </g>
   <g id="patch_40">
    <path d="M 318.980037 307.584 
L 325.60564 307.584 
L 325.60564 307.584 
L 318.980037 307.584 
z
" clip-path="url(#pf280f735b4)" style="fill: #1f77b4; opacity: 0.4"/>
   </g>
   <g id="patch_41">
    <path d="M 325.60564 307.584 
L 332.231243 307.584 
L 332.231243 307.584 
L 325.60564 307.584 
z
" clip-path="url(#pf280f735b4)" style="fill: #1f77b4; opacity: 0.4"/>
   </g>
   <g id="patch_42">
    <path d="M 332.231243 307.584 
L 338.856846 307.584 
L 338.856846 307.584 
L 332.231243 307.584 
z
" clip-path="url(#pf280f735b4)" style="fill: #1f77b4; opacity: 0.4"/>
   </g>
   <g id="patch_43">
    <path d="M 338.856846 307.584 
L 345.482449 307.584 
L 345.482449 307.584 
L 338.856846 307.584 
z
" clip-path="url(#pf280f735b4)" style="fill: #1f77b4; opacity: 0.4"/>
   </g>
   <g id="patch_44">
    <path d="M 345.482449 307.584 
L 352.108052 307.584 
L 352.108052 307.584 
L 345.482449 307.584 
z
" clip-path="url(#pf280f735b4)" style="fill: #1f77b4; opacity: 0.4"/>
   </g>
   <g id="patch_45">
    <path d="M 352.108052 307.584 
L 358.733655 307.584 
L 358.733655 307.584 
L 352.108052 307.584 
z
" clip-path="url(#pf280f735b4)" style="fill: #1f77b4; opacity: 0.4"/>
   </g>
   <g id="patch_46">
    <path d="M 358.733655 307.584 
L 365.359258 307.584 
L 365.359258 307.584 
L 358.733655 307.584 
z
" clip-path="url(#pf280f735b4)" style="fill: #1f77b4; opacity: 0.4"/>
   </g>
   <g id="patch_47">
    <path d="M 365.359258 307.584 
L 371.984861 307.584 
L 371.984861 307.584 
L 365.359258 307.584 
z
" clip-path="url(#pf280f735b4)" style="fill: #1f77b4; opacity: 0.4"/>
   </g>
   <g id="patch_48">
    <path d="M 371.984861 307.584 
L 378.610464 307.584 
L 378.610464 307.584 
L 371.984861 307.584 
z
" clip-path="url(#pf280f735b4)" style="fill: #1f77b4; opacity: 0.4"/>
   </g>
   <g id="patch_49">
    <path d="M 378.610464 307.584 
L 385.236067 307.584 
L 385.236067 307.584 
L 378.610464 307.584 
z
" clip-path="url(#pf280f735b4)" style="fill: #1f77b4; opacity: 0.4"/>
   </g>
   <g id="patch_50">
    <path d="M 385.236067 307.584 
L 391.86167 307.584 
L 391.86167 307.584 
L 385.236067 307.584 
z
" clip-path="url(#pf280f735b4)" style="fill: #1f77b4; opacity: 0.4"/>
   </g>
   <g id="patch_51">
    <path d="M 391.86167 307.584 
L 398.487273 307.584 
L 398.487273 307.584 
L 391.86167 307.584 
z
" clip-path="url(#pf280f735b4)" style="fill: #1f77b4; opacity: 0.4"/>
   </g>
   <g id="patch_52">
    <path d="M 73.832727 307.584 
L 80.45833 307.584 
L 80.45833 163.468609 
L 73.832727 163.468609 
z
" clip-path="url(#pf280f735b4)" style="fill: #ff7f0e; opacity: 0.4"/>
   </g>
   <g id="patch_53">
    <path d="M 80.45833 307.584 
L 87.083933 307.584 
L 87.083933 124.611731 
L 80.45833 124.611731 
z
" clip-path="url(#pf280f735b4)" style="fill: #ff7f0e; opacity: 0.4"/>
   </g>
   <g id="patch_54">
    <path d="M 87.083933 307.584 
L 93.709536 307.584 
L 93.709536 144.243078 
L 87.083933 144.243078 
z
" clip-path="url(#pf280f735b4)" style="fill: #ff7f0e; opacity: 0.4"/>
   </g>
   <g id="patch_55">
    <path d="M 93.709536 307.584 
L 100.335139 307.584 
L 100.335139 189.542284 
L 93.709536 189.542284 
z
" clip-path="url(#pf280f735b4)" style="fill: #ff7f0e; opacity: 0.4"/>
   </g>
   <g id="patch_56">
    <path d="M 100.335139 307.584 
L 106.960742 307.584 
L 106.960742 219.420484 
L 100.335139 219.420484 
z
" clip-path="url(#pf280f735b4)" style="fill: #ff7f0e; opacity: 0.4"/>
   </g>
   <g id="patch_57">
    <path d="M 106.960742 307.584 
L 113.586345 307.584 
L 113.586345 241.892542 
L 106.960742 241.892542 
z
" clip-path="url(#pf280f735b4)" style="fill: #ff7f0e; opacity: 0.4"/>
   </g>
   <g id="patch_58">
    <path d="M 113.586345 307.584 
L 120.211948 307.584 
L 120.211948 256.299009 
L 113.586345 256.299009 
z
" clip-path="url(#pf280f735b4)" style="fill: #ff7f0e; opacity: 0.4"/>
   </g>
   <g id="patch_59">
    <path d="M 120.211948 307.584 
L 126.837551 307.584 
L 126.837551 264.922598 
L 120.211948 264.922598 
z
" clip-path="url(#pf280f735b4)" style="fill: #ff7f0e; opacity: 0.4"/>
   </g>
   <g id="patch_60">
    <path d="M 126.837551 307.584 
L 133.463154 307.584 
L 133.463154 272.328739 
L 126.837551 272.328739 
z
" clip-path="url(#pf280f735b4)" style="fill: #ff7f0e; opacity: 0.4"/>
   </g>
   <g id="patch_61">
    <path d="M 133.463154 307.584 
L 140.088757 307.584 
L 140.088757 275.828901 
L 133.463154 275.828901 
z
" clip-path="url(#pf280f735b4)" style="fill: #ff7f0e; opacity: 0.4"/>
   </g>
   <g id="patch_62">
    <path d="M 140.088757 307.584 
L 146.71436 307.584 
L 146.71436 280.394331 
L 140.088757 280.394331 
z
" clip-path="url(#pf280f735b4)" style="fill: #ff7f0e; opacity: 0.4"/>
   </g>
   <g id="patch_63">
    <path d="M 146.71436 307.584 
L 153.339963 307.584 
L 153.339963 283.235043 
L 146.71436 283.235043 
z
" clip-path="url(#pf280f735b4)" style="fill: #ff7f0e; opacity: 0.4"/>
   </g>
   <g id="patch_64">
    <path d="M 153.339963 307.584 
L 159.965566 307.584 
L 159.965566 287.343929 
L 153.339963 287.343929 
z
" clip-path="url(#pf280f735b4)" style="fill: #ff7f0e; opacity: 0.4"/>
   </g>
   <g id="patch_65">
    <path d="M 159.965566 307.584 
L 166.591169 307.584 
L 166.591169 289.220828 
L 159.965566 289.220828 
z
" clip-path="url(#pf280f735b4)" style="fill: #ff7f0e; opacity: 0.4"/>
   </g>
   <g id="patch_66">
    <path d="M 166.591169 307.584 
L 173.216772 307.584 
L 173.216772 290.235368 
L 166.591169 290.235368 
z
" clip-path="url(#pf280f735b4)" style="fill: #ff7f0e; opacity: 0.4"/>
   </g>
   <g id="patch_67">
    <path d="M 173.216772 307.584 
L 179.842375 307.584 
L 179.842375 292.923899 
L 173.216772 292.923899 
z
" clip-path="url(#pf280f735b4)" style="fill: #ff7f0e; opacity: 0.4"/>
   </g>
   <g id="patch_68">
    <path d="M 179.842375 307.584 
L 186.467978 307.584 
L 186.467978 296.221153 
L 179.842375 296.221153 
z
" clip-path="url(#pf280f735b4)" style="fill: #ff7f0e; opacity: 0.4"/>
   </g>
   <g id="patch_69">
    <path d="M 186.467978 307.584 
L 193.093581 307.584 
L 193.093581 296.77915 
L 186.467978 296.77915 
z
" clip-path="url(#pf280f735b4)" style="fill: #ff7f0e; opacity: 0.4"/>
   </g>
   <g id="patch_70">
    <path d="M 193.093581 307.584 
L 199.719184 307.584 
L 199.719184 299.112592 
L 193.093581 299.112592 
z
" clip-path="url(#pf280f735b4)" style="fill: #ff7f0e; opacity: 0.4"/>
   </g>
   <g id="patch_71">
    <path d="M 199.719184 307.584 
L 206.344787 307.584 
L 206.344787 299.670589 
L 199.719184 299.670589 
z
" clip-path="url(#pf280f735b4)" style="fill: #ff7f0e; opacity: 0.4"/>
   </g>
   <g id="patch_72">
    <path d="M 206.344787 307.584 
L 212.97039 307.584 
L 212.97039 300.228586 
L 206.344787 300.228586 
z
" clip-path="url(#pf280f735b4)" style="fill: #ff7f0e; opacity: 0.4"/>
   </g>
   <g id="patch_73">
    <path d="M 212.97039 307.584 
L 219.595993 307.584 
L 219.595993 301.750396 
L 212.97039 301.750396 
z
" clip-path="url(#pf280f735b4)" style="fill: #ff7f0e; opacity: 0.4"/>
   </g>
   <g id="patch_74">
    <path d="M 219.595993 307.584 
L 226.221596 307.584 
L 226.221596 302.86639 
L 219.595993 302.86639 
z
" clip-path="url(#pf280f735b4)" style="fill: #ff7f0e; opacity: 0.4"/>
   </g>
   <g id="patch_75">
    <path d="M 226.221596 307.584 
L 232.847199 307.584 
L 232.847199 303.01857 
L 226.221596 303.01857 
z
" clip-path="url(#pf280f735b4)" style="fill: #ff7f0e; opacity: 0.4"/>
   </g>
   <g id="patch_76">
    <path d="M 232.847199 307.584 
L 239.472801 307.584 
L 239.472801 304.438926 
L 232.847199 304.438926 
z
" clip-path="url(#pf280f735b4)" style="fill: #ff7f0e; opacity: 0.4"/>
   </g>
   <g id="patch_77">
    <path d="M 239.472801 307.584 
L 246.098404 307.584 
L 246.098404 304.844742 
L 239.472801 304.844742 
z
" clip-path="url(#pf280f735b4)" style="fill: #ff7f0e; opacity: 0.4"/>
   </g>
   <g id="patch_78">
    <path d="M 246.098404 307.584 
L 252.724007 307.584 
L 252.724007 304.337472 
L 246.098404 304.337472 
z
" clip-path="url(#pf280f735b4)" style="fill: #ff7f0e; opacity: 0.4"/>
   </g>
   <g id="patch_79">
    <path d="M 252.724007 307.584 
L 259.34961 307.584 
L 259.34961 305.808555 
L 252.724007 305.808555 
z
" clip-path="url(#pf280f735b4)" style="fill: #ff7f0e; opacity: 0.4"/>
   </g>
   <g id="patch_80">
    <path d="M 259.34961 307.584 
L 265.975213 307.584 
L 265.975213 306.06219 
L 259.34961 306.06219 
z
" clip-path="url(#pf280f735b4)" style="fill: #ff7f0e; opacity: 0.4"/>
   </g>
   <g id="patch_81">
    <path d="M 265.975213 307.584 
L 272.600816 307.584 
L 272.600816 306.366552 
L 265.975213 306.366552 
z
" clip-path="url(#pf280f735b4)" style="fill: #ff7f0e; opacity: 0.4"/>
   </g>
   <g id="patch_82">
    <path d="M 272.600816 307.584 
L 279.226419 307.584 
L 279.226419 306.670914 
L 272.600816 306.670914 
z
" clip-path="url(#pf280f735b4)" style="fill: #ff7f0e; opacity: 0.4"/>
   </g>
   <g id="patch_83">
    <path d="M 279.226419 307.584 
L 285.852022 307.584 
L 285.852022 306.315825 
L 279.226419 306.315825 
z
" clip-path="url(#pf280f735b4)" style="fill: #ff7f0e; opacity: 0.4"/>
   </g>
   <g id="patch_84">
    <path d="M 285.852022 307.584 
L 292.477625 307.584 
L 292.477625 306.670914 
L 285.852022 306.670914 
z
" clip-path="url(#pf280f735b4)" style="fill: #ff7f0e; opacity: 0.4"/>
   </g>
   <g id="patch_85">
    <path d="M 292.477625 307.584 
L 299.103228 307.584 
L 299.103228 306.924549 
L 292.477625 306.924549 
z
" clip-path="url(#pf280f735b4)" style="fill: #ff7f0e; opacity: 0.4"/>
   </g>
   <g id="patch_86">
    <path d="M 299.103228 307.584 
L 305.728831 307.584 
L 305.728831 307.07673 
L 299.103228 307.07673 
z
" clip-path="url(#pf280f735b4)" style="fill: #ff7f0e; opacity: 0.4"/>
   </g>
   <g id="patch_87">
    <path d="M 305.728831 307.584 
L 312.354434 307.584 
L 312.354434 307.026003 
L 305.728831 307.026003 
z
" clip-path="url(#pf280f735b4)" style="fill: #ff7f0e; opacity: 0.4"/>
   </g>
   <g id="patch_88">
    <path d="M 312.354434 307.584 
L 318.980037 307.584 
L 318.980037 307.178184 
L 312.354434 307.178184 
z
" clip-path="url(#pf280f735b4)" style="fill: #ff7f0e; opacity: 0.4"/>
   </g>
   <g id="patch_89">
    <path d="M 318.980037 307.584 
L 325.60564 307.584 
L 325.60564 307.127457 
L 318.980037 307.127457 
z
" clip-path="url(#pf280f735b4)" style="fill: #ff7f0e; opacity: 0.4"/>
   </g>
   <g id="patch_90">
    <path d="M 325.60564 307.584 
L 332.231243 307.584 
L 332.231243 307.431819 
L 325.60564 307.431819 
z
" clip-path="url(#pf280f735b4)" style="fill: #ff7f0e; opacity: 0.4"/>
   </g>
   <g id="patch_91">
    <path d="M 332.231243 307.584 
L 338.856846 307.584 
L 338.856846 307.584 
L 332.231243 307.584 
z
" clip-path="url(#pf280f735b4)" style="fill: #ff7f0e; opacity: 0.4"/>
   </g>
   <g id="patch_92">
    <path d="M 338.856846 307.584 
L 345.482449 307.584 
L 345.482449 307.584 
L 338.856846 307.584 
z
" clip-path="url(#pf280f735b4)" style="fill: #ff7f0e; opacity: 0.4"/>
   </g>
   <g id="patch_93">
    <path d="M 345.482449 307.584 
L 352.108052 307.584 
L 352.108052 307.584 
L 345.482449 307.584 
z
" clip-path="url(#pf280f735b4)" style="fill: #ff7f0e; opacity: 0.4"/>
   </g>
   <g id="patch_94">
    <path d="M 352.108052 307.584 
L 358.733655 307.584 
L 358.733655 307.584 
L 352.108052 307.584 
z
" clip-path="url(#pf280f735b4)" style="fill: #ff7f0e; opacity: 0.4"/>
   </g>
   <g id="patch_95">
    <path d="M 358.733655 307.584 
L 365.359258 307.584 
L 365.359258 307.533273 
L 358.733655 307.533273 
z
" clip-path="url(#pf280f735b4)" style="fill: #ff7f0e; opacity: 0.4"/>
   </g>
   <g id="patch_96">
    <path d="M 365.359258 307.584 
L 371.984861 307.584 
L 371.984861 307.584 
L 365.359258 307.584 
z
" clip-path="url(#pf280f735b4)" style="fill: #ff7f0e; opacity: 0.4"/>
   </g>
   <g id="patch_97">
    <path d="M 371.984861 307.584 
L 378.610464 307.584 
L 378.610464 307.584 
L 371.984861 307.584 
z
" clip-path="url(#pf280f735b4)" style="fill: #ff7f0e; opacity: 0.4"/>
   </g>
   <g id="patch_98">
    <path d="M 378.610464 307.584 
L 385.236067 307.584 
L 385.236067 307.584 
L 378.610464 307.584 
z
" clip-path="url(#pf280f735b4)" style="fill: #ff7f0e; opacity: 0.4"/>
   </g>
   <g id="patch_99">
    <path d="M 385.236067 307.584 
L 391.86167 307.584 
L 391.86167 307.584 
L 385.236067 307.584 
z
" clip-path="url(#pf280f735b4)" style="fill: #ff7f0e; opacity: 0.4"/>
   </g>
   <g id="patch_100">
    <path d="M 391.86167 307.584 
L 398.487273 307.584 
L 398.487273 307.584 
L 391.86167 307.584 
z
" clip-path="url(#pf280f735b4)" style="fill: #ff7f0e; opacity: 0.4"/>
   </g>
   <g id="patch_101">
    <path d="M 73.832727 307.584 
L 80.45833 307.584 
L 80.45833 227.473369 
L 73.832727 227.473369 
z
" clip-path="url(#pf280f735b4)" style="fill: #2ca02c; opacity: 0.4"/>
   </g>
   <g id="patch_102">
    <path d="M 80.45833 307.584 
L 87.083933 307.584 
L 87.083933 197.5151 
L 80.45833 197.5151 
z
" clip-path="url(#pf280f735b4)" style="fill: #2ca02c; opacity: 0.4"/>
   </g>
   <g id="patch_103">
    <path d="M 87.083933 307.584 
L 93.709536 307.584 
L 93.709536 204.875218 
L 87.083933 204.875218 
z
" clip-path="url(#pf280f735b4)" style="fill: #2ca02c; opacity: 0.4"/>
   </g>
   <g id="patch_104">
    <path d="M 93.709536 307.584 
L 100.335139 307.584 
L 100.335139 226.215861 
L 93.709536 226.215861 
z
" clip-path="url(#pf280f735b4)" style="fill: #2ca02c; opacity: 0.4"/>
   </g>
   <g id="patch_105">
    <path d="M 100.335139 307.584 
L 106.960742 307.584 
L 106.960742 242.489489 
L 100.335139 242.489489 
z
" clip-path="url(#pf280f735b4)" style="fill: #2ca02c; opacity: 0.4"/>
   </g>
   <g id="patch_106">
    <path d="M 106.960742 307.584 
L 113.586345 307.584 
L 113.586345 251.550941 
L 106.960742 251.550941 
z
" clip-path="url(#pf280f735b4)" style="fill: #2ca02c; opacity: 0.4"/>
   </g>
   <g id="patch_107">
    <path d="M 113.586345 307.584 
L 120.211948 307.584 
L 120.211948 255.619348 
L 113.586345 255.619348 
z
" clip-path="url(#pf280f735b4)" style="fill: #2ca02c; opacity: 0.4"/>
   </g>
   <g id="patch_108">
    <path d="M 120.211948 307.584 
L 126.837551 307.584 
L 126.837551 257.505609 
L 120.211948 257.505609 
z
" clip-path="url(#pf280f735b4)" style="fill: #2ca02c; opacity: 0.4"/>
   </g>
   <g id="patch_109">
    <path d="M 126.837551 307.584 
L 133.463154 307.584 
L 133.463154 257.024797 
L 126.837551 257.024797 
z
" clip-path="url(#pf280f735b4)" style="fill: #2ca02c; opacity: 0.4"/>
   </g>
   <g id="patch_110">
    <path d="M 133.463154 307.584 
L 140.088757 307.584 
L 140.088757 257.875464 
L 133.463154 257.875464 
z
" clip-path="url(#pf280f735b4)" style="fill: #2ca02c; opacity: 0.4"/>
   </g>
   <g id="patch_111">
    <path d="M 140.088757 307.584 
L 146.71436 307.584 
L 146.71436 262.609611 
L 140.088757 262.609611 
z
" clip-path="url(#pf280f735b4)" style="fill: #2ca02c; opacity: 0.4"/>
   </g>
   <g id="patch_112">
    <path d="M 146.71436 307.584 
L 153.339963 307.584 
L 153.339963 264.532858 
L 146.71436 264.532858 
z
" clip-path="url(#pf280f735b4)" style="fill: #2ca02c; opacity: 0.4"/>
   </g>
   <g id="patch_113">
    <path d="M 153.339963 307.584 
L 159.965566 307.584 
L 159.965566 265.75338 
L 153.339963 265.75338 
z
" clip-path="url(#pf280f735b4)" style="fill: #2ca02c; opacity: 0.4"/>
   </g>
   <g id="patch_114">
    <path d="M 159.965566 307.584 
L 166.591169 307.584 
L 166.591169 270.376569 
L 159.965566 270.376569 
z
" clip-path="url(#pf280f735b4)" style="fill: #2ca02c; opacity: 0.4"/>
   </g>
   <g id="patch_115">
    <path d="M 166.591169 307.584 
L 173.216772 307.584 
L 173.216772 271.52312 
L 166.591169 271.52312 
z
" clip-path="url(#pf280f735b4)" style="fill: #2ca02c; opacity: 0.4"/>
   </g>
   <g id="patch_116">
    <path d="M 173.216772 307.584 
L 179.842375 307.584 
L 179.842375 276.664107 
L 173.216772 276.664107 
z
" clip-path="url(#pf280f735b4)" style="fill: #2ca02c; opacity: 0.4"/>
   </g>
   <g id="patch_117">
    <path d="M 179.842375 307.584 
L 186.467978 307.584 
L 186.467978 278.809267 
L 179.842375 278.809267 
z
" clip-path="url(#pf280f735b4)" style="fill: #2ca02c; opacity: 0.4"/>
   </g>
   <g id="patch_118">
    <path d="M 186.467978 307.584 
L 193.093581 307.584 
L 193.093581 282.655761 
L 186.467978 282.655761 
z
" clip-path="url(#pf280f735b4)" style="fill: #2ca02c; opacity: 0.4"/>
   </g>
   <g id="patch_119">
    <path d="M 193.093581 307.584 
L 199.719184 307.584 
L 199.719184 285.392689 
L 193.093581 285.392689 
z
" clip-path="url(#pf280f735b4)" style="fill: #2ca02c; opacity: 0.4"/>
   </g>
   <g id="patch_120">
    <path d="M 199.719184 307.584 
L 206.344787 307.584 
L 206.344787 288.425502 
L 199.719184 288.425502 
z
" clip-path="url(#pf280f735b4)" style="fill: #2ca02c; opacity: 0.4"/>
   </g>
   <g id="patch_121">
    <path d="M 206.344787 307.584 
L 212.97039 307.584 
L 212.97039 292.530894 
L 206.344787 292.530894 
z
" clip-path="url(#pf280f735b4)" style="fill: #2ca02c; opacity: 0.4"/>
   </g>
   <g id="patch_122">
    <path d="M 212.97039 307.584 
L 219.595993 307.584 
L 219.595993 293.64046 
L 212.97039 293.64046 
z
" clip-path="url(#pf280f735b4)" style="fill: #2ca02c; opacity: 0.4"/>
   </g>
   <g id="patch_123">
    <path d="M 219.595993 307.584 
L 226.221596 307.584 
L 226.221596 295.04591 
L 219.595993 295.04591 
z
" clip-path="url(#pf280f735b4)" style="fill: #2ca02c; opacity: 0.4"/>
   </g>
   <g id="patch_124">
    <path d="M 226.221596 307.584 
L 232.847199 307.584 
L 232.847199 297.080113 
L 226.221596 297.080113 
z
" clip-path="url(#pf280f735b4)" style="fill: #2ca02c; opacity: 0.4"/>
   </g>
   <g id="patch_125">
    <path d="M 232.847199 307.584 
L 239.472801 307.584 
L 239.472801 298.929389 
L 232.847199 298.929389 
z
" clip-path="url(#pf280f735b4)" style="fill: #2ca02c; opacity: 0.4"/>
   </g>
   <g id="patch_126">
    <path d="M 239.472801 307.584 
L 246.098404 307.584 
L 246.098404 300.186896 
L 239.472801 300.186896 
z
" clip-path="url(#pf280f735b4)" style="fill: #2ca02c; opacity: 0.4"/>
   </g>
   <g id="patch_127">
    <path d="M 246.098404 307.584 
L 252.724007 307.584 
L 252.724007 300.889621 
L 246.098404 300.889621 
z
" clip-path="url(#pf280f735b4)" style="fill: #2ca02c; opacity: 0.4"/>
   </g>
   <g id="patch_128">
    <path d="M 252.724007 307.584 
L 259.34961 307.584 
L 259.34961 302.849854 
L 252.724007 302.849854 
z
" clip-path="url(#pf280f735b4)" style="fill: #2ca02c; opacity: 0.4"/>
   </g>
   <g id="patch_129">
    <path d="M 259.34961 307.584 
L 265.975213 307.584 
L 265.975213 303.663535 
L 259.34961 303.663535 
z
" clip-path="url(#pf280f735b4)" style="fill: #2ca02c; opacity: 0.4"/>
   </g>
   <g id="patch_130">
    <path d="M 265.975213 307.584 
L 272.600816 307.584 
L 272.600816 303.589564 
L 265.975213 303.589564 
z
" clip-path="url(#pf280f735b4)" style="fill: #2ca02c; opacity: 0.4"/>
   </g>
   <g id="patch_131">
    <path d="M 272.600816 307.584 
L 279.226419 307.584 
L 279.226419 304.736115 
L 272.600816 304.736115 
z
" clip-path="url(#pf280f735b4)" style="fill: #2ca02c; opacity: 0.4"/>
   </g>
   <g id="patch_132">
    <path d="M 279.226419 307.584 
L 285.852022 307.584 
L 285.852022 304.69913 
L 279.226419 304.69913 
z
" clip-path="url(#pf280f735b4)" style="fill: #2ca02c; opacity: 0.4"/>
   </g>
   <g id="patch_133">
    <path d="M 285.852022 307.584 
L 292.477625 307.584 
L 292.477625 305.808695 
L 285.852022 305.808695 
z
" clip-path="url(#pf280f735b4)" style="fill: #2ca02c; opacity: 0.4"/>
   </g>
   <g id="patch_134">
    <path d="M 292.477625 307.584 
L 299.103228 307.584 
L 299.103228 305.919652 
L 292.477625 305.919652 
z
" clip-path="url(#pf280f735b4)" style="fill: #2ca02c; opacity: 0.4"/>
   </g>
   <g id="patch_135">
    <path d="M 299.103228 307.584 
L 305.728831 307.584 
L 305.728831 306.807304 
L 299.103228 306.807304 
z
" clip-path="url(#pf280f735b4)" style="fill: #2ca02c; opacity: 0.4"/>
   </g>
   <g id="patch_136">
    <path d="M 305.728831 307.584 
L 312.354434 307.584 
L 312.354434 306.622377 
L 305.728831 306.622377 
z
" clip-path="url(#pf280f735b4)" style="fill: #2ca02c; opacity: 0.4"/>
   </g>
   <g id="patch_137">
    <path d="M 312.354434 307.584 
L 318.980037 307.584 
L 318.980037 307.177159 
L 312.354434 307.177159 
z
" clip-path="url(#pf280f735b4)" style="fill: #2ca02c; opacity: 0.4"/>
   </g>
   <g id="patch_138">
    <path d="M 318.980037 307.584 
L 325.60564 307.584 
L 325.60564 307.436058 
L 318.980037 307.436058 
z
" clip-path="url(#pf280f735b4)" style="fill: #2ca02c; opacity: 0.4"/>
   </g>
   <g id="patch_139">
    <path d="M 325.60564 307.584 
L 332.231243 307.584 
L 332.231243 307.436058 
L 325.60564 307.436058 
z
" clip-path="url(#pf280f735b4)" style="fill: #2ca02c; opacity: 0.4"/>
   </g>
   <g id="patch_140">
    <path d="M 332.231243 307.584 
L 338.856846 307.584 
L 338.856846 307.547014 
L 332.231243 307.547014 
z
" clip-path="url(#pf280f735b4)" style="fill: #2ca02c; opacity: 0.4"/>
   </g>
   <g id="patch_141">
    <path d="M 338.856846 307.584 
L 345.482449 307.584 
L 345.482449 307.547014 
L 338.856846 307.547014 
z
" clip-path="url(#pf280f735b4)" style="fill: #2ca02c; opacity: 0.4"/>
   </g>
   <g id="patch_142">
    <path d="M 345.482449 307.584 
L 352.108052 307.584 
L 352.108052 307.584 
L 345.482449 307.584 
z
" clip-path="url(#pf280f735b4)" style="fill: #2ca02c; opacity: 0.4"/>
   </g>
   <g id="patch_143">
    <path d="M 352.108052 307.584 
L 358.733655 307.584 
L 358.733655 307.584 
L 352.108052 307.584 
z
" clip-path="url(#pf280f735b4)" style="fill: #2ca02c; opacity: 0.4"/>
   </g>
   <g id="patch_144">
    <path d="M 358.733655 307.584 
L 365.359258 307.584 
L 365.359258 307.547014 
L 358.733655 307.547014 
z
" clip-path="url(#pf280f735b4)" style="fill: #2ca02c; opacity: 0.4"/>
   </g>
   <g id="patch_145">
    <path d="M 365.359258 307.584 
L 371.984861 307.584 
L 371.984861 307.547014 
L 365.359258 307.547014 
z
" clip-path="url(#pf280f735b4)" style="fill: #2ca02c; opacity: 0.4"/>
   </g>
   <g id="patch_146">
    <path d="M 371.984861 307.584 
L 378.610464 307.584 
L 378.610464 307.584 
L 371.984861 307.584 
z
" clip-path="url(#pf280f735b4)" style="fill: #2ca02c; opacity: 0.4"/>
   </g>
   <g id="patch_147">
    <path d="M 378.610464 307.584 
L 385.236067 307.584 
L 385.236067 307.584 
L 378.610464 307.584 
z
" clip-path="url(#pf280f735b4)" style="fill: #2ca02c; opacity: 0.4"/>
   </g>
   <g id="patch_148">
    <path d="M 385.236067 307.584 
L 391.86167 307.584 
L 391.86167 307.584 
L 385.236067 307.584 
z
" clip-path="url(#pf280f735b4)" style="fill: #2ca02c; opacity: 0.4"/>
   </g>
   <g id="patch_149">
    <path d="M 391.86167 307.584 
L 398.487273 307.584 
L 398.487273 307.584 
L 391.86167 307.584 
z
" clip-path="url(#pf280f735b4)" style="fill: #2ca02c; opacity: 0.4"/>
   </g>
   <g id="patch_150">
    <path d="M 73.832727 307.584 
L 80.45833 307.584 
L 80.45833 266.212295 
L 73.832727 266.212295 
z
" clip-path="url(#pf280f735b4)" style="fill: #d62728; opacity: 0.4"/>
   </g>
   <g id="patch_151">
    <path d="M 80.45833 307.584 
L 87.083933 307.584 
L 87.083933 245.141947 
L 80.45833 245.141947 
z
" clip-path="url(#pf280f735b4)" style="fill: #d62728; opacity: 0.4"/>
   </g>
   <g id="patch_152">
    <path d="M 87.083933 307.584 
L 93.709536 307.584 
L 93.709536 240.466483 
L 87.083933 240.466483 
z
" clip-path="url(#pf280f735b4)" style="fill: #d62728; opacity: 0.4"/>
   </g>
   <g id="patch_153">
    <path d="M 93.709536 307.584 
L 100.335139 307.584 
L 100.335139 249.571334 
L 93.709536 249.571334 
z
" clip-path="url(#pf280f735b4)" style="fill: #d62728; opacity: 0.4"/>
   </g>
   <g id="patch_154">
    <path d="M 100.335139 307.584 
L 106.960742 307.584 
L 106.960742 258.768464 
L 100.335139 258.768464 
z
" clip-path="url(#pf280f735b4)" style="fill: #d62728; opacity: 0.4"/>
   </g>
   <g id="patch_155">
    <path d="M 106.960742 307.584 
L 113.586345 307.584 
L 113.586345 260.706321 
L 106.960742 260.706321 
z
" clip-path="url(#pf280f735b4)" style="fill: #d62728; opacity: 0.4"/>
   </g>
   <g id="patch_156">
    <path d="M 113.586345 307.584 
L 120.211948 307.584 
L 120.211948 259.968089 
L 113.586345 259.968089 
z
" clip-path="url(#pf280f735b4)" style="fill: #d62728; opacity: 0.4"/>
   </g>
   <g id="patch_157">
    <path d="M 120.211948 307.584 
L 126.837551 307.584 
L 126.837551 257.937954 
L 120.211948 257.937954 
z
" clip-path="url(#pf280f735b4)" style="fill: #d62728; opacity: 0.4"/>
   </g>
   <g id="patch_158">
    <path d="M 126.837551 307.584 
L 133.463154 307.584 
L 133.463154 254.093 
L 126.837551 254.093 
z
" clip-path="url(#pf280f735b4)" style="fill: #d62728; opacity: 0.4"/>
   </g>
   <g id="patch_159">
    <path d="M 133.463154 307.584 
L 140.088757 307.584 
L 140.088757 249.04842 
L 133.463154 249.04842 
z
" clip-path="url(#pf280f735b4)" style="fill: #d62728; opacity: 0.4"/>
   </g>
   <g id="patch_160">
    <path d="M 140.088757 307.584 
L 146.71436 307.584 
L 146.71436 246.095495 
L 140.088757 246.095495 
z
" clip-path="url(#pf280f735b4)" style="fill: #d62728; opacity: 0.4"/>
   </g>
   <g id="patch_161">
    <path d="M 146.71436 307.584 
L 153.339963 307.584 
L 153.339963 247.571958 
L 146.71436 247.571958 
z
" clip-path="url(#pf280f735b4)" style="fill: #d62728; opacity: 0.4"/>
   </g>
   <g id="patch_162">
    <path d="M 153.339963 307.584 
L 159.965566 307.584 
L 159.965566 249.356016 
L 153.339963 249.356016 
z
" clip-path="url(#pf280f735b4)" style="fill: #d62728; opacity: 0.4"/>
   </g>
   <g id="patch_163">
    <path d="M 159.965566 307.584 
L 166.591169 307.584 
L 166.591169 250.401844 
L 159.965566 250.401844 
z
" clip-path="url(#pf280f735b4)" style="fill: #d62728; opacity: 0.4"/>
   </g>
   <g id="patch_164">
    <path d="M 166.591169 307.584 
L 173.216772 307.584 
L 173.216772 257.568838 
L 166.591169 257.568838 
z
" clip-path="url(#pf280f735b4)" style="fill: #d62728; opacity: 0.4"/>
   </g>
   <g id="patch_165">
    <path d="M 173.216772 307.584 
L 179.842375 307.584 
L 179.842375 262.305821 
L 173.216772 262.305821 
z
" clip-path="url(#pf280f735b4)" style="fill: #d62728; opacity: 0.4"/>
   </g>
   <g id="patch_166">
    <path d="M 179.842375 307.584 
L 186.467978 307.584 
L 186.467978 267.873315 
L 179.842375 267.873315 
z
" clip-path="url(#pf280f735b4)" style="fill: #d62728; opacity: 0.4"/>
   </g>
   <g id="patch_167">
    <path d="M 186.467978 307.584 
L 193.093581 307.584 
L 193.093581 274.363597 
L 186.467978 274.363597 
z
" clip-path="url(#pf280f735b4)" style="fill: #d62728; opacity: 0.4"/>
   </g>
   <g id="patch_168">
    <path d="M 193.093581 307.584 
L 199.719184 307.584 
L 199.719184 277.562599 
L 193.093581 277.562599 
z
" clip-path="url(#pf280f735b4)" style="fill: #d62728; opacity: 0.4"/>
   </g>
   <g id="patch_169">
    <path d="M 199.719184 307.584 
L 206.344787 307.584 
L 206.344787 281.315274 
L 199.719184 281.315274 
z
" clip-path="url(#pf280f735b4)" style="fill: #d62728; opacity: 0.4"/>
   </g>
   <g id="patch_170">
    <path d="M 206.344787 307.584 
L 212.97039 307.584 
L 212.97039 283.806804 
L 206.344787 283.806804 
z
" clip-path="url(#pf280f735b4)" style="fill: #d62728; opacity: 0.4"/>
   </g>
   <g id="patch_171">
    <path d="M 212.97039 307.584 
L 219.595993 307.584 
L 219.595993 286.975046 
L 212.97039 286.975046 
z
" clip-path="url(#pf280f735b4)" style="fill: #d62728; opacity: 0.4"/>
   </g>
   <g id="patch_172">
    <path d="M 219.595993 307.584 
L 226.221596 307.584 
L 226.221596 289.927971 
L 219.595993 289.927971 
z
" clip-path="url(#pf280f735b4)" style="fill: #d62728; opacity: 0.4"/>
   </g>
   <g id="patch_173">
    <path d="M 226.221596 307.584 
L 232.847199 307.584 
L 232.847199 293.065454 
L 226.221596 293.065454 
z
" clip-path="url(#pf280f735b4)" style="fill: #d62728; opacity: 0.4"/>
   </g>
   <g id="patch_174">
    <path d="M 232.847199 307.584 
L 239.472801 307.584 
L 239.472801 296.787369 
L 232.847199 296.787369 
z
" clip-path="url(#pf280f735b4)" style="fill: #d62728; opacity: 0.4"/>
   </g>
   <g id="patch_175">
    <path d="M 239.472801 307.584 
L 246.098404 307.584 
L 246.098404 297.58712 
L 239.472801 297.58712 
z
" clip-path="url(#pf280f735b4)" style="fill: #d62728; opacity: 0.4"/>
   </g>
   <g id="patch_176">
    <path d="M 246.098404 307.584 
L 252.724007 307.584 
L 252.724007 299.309659 
L 246.098404 299.309659 
z
" clip-path="url(#pf280f735b4)" style="fill: #d62728; opacity: 0.4"/>
   </g>
   <g id="patch_177">
    <path d="M 252.724007 307.584 
L 259.34961 307.584 
L 259.34961 301.70891 
L 252.724007 301.70891 
z
" clip-path="url(#pf280f735b4)" style="fill: #d62728; opacity: 0.4"/>
   </g>
   <g id="patch_178">
    <path d="M 259.34961 307.584 
L 265.975213 307.584 
L 265.975213 303.000815 
L 259.34961 303.000815 
z
" clip-path="url(#pf280f735b4)" style="fill: #d62728; opacity: 0.4"/>
   </g>
   <g id="patch_179">
    <path d="M 265.975213 307.584 
L 272.600816 307.584 
L 272.600816 303.492969 
L 265.975213 303.492969 
z
" clip-path="url(#pf280f735b4)" style="fill: #d62728; opacity: 0.4"/>
   </g>
   <g id="patch_180">
    <path d="M 272.600816 307.584 
L 279.226419 307.584 
L 279.226419 304.508037 
L 272.600816 304.508037 
z
" clip-path="url(#pf280f735b4)" style="fill: #d62728; opacity: 0.4"/>
   </g>
   <g id="patch_181">
    <path d="M 279.226419 307.584 
L 285.852022 307.584 
L 285.852022 305.799941 
L 279.226419 305.799941 
z
" clip-path="url(#pf280f735b4)" style="fill: #d62728; opacity: 0.4"/>
   </g>
   <g id="patch_182">
    <path d="M 285.852022 307.584 
L 292.477625 307.584 
L 292.477625 305.707662 
L 285.852022 305.707662 
z
" clip-path="url(#pf280f735b4)" style="fill: #d62728; opacity: 0.4"/>
   </g>
   <g id="patch_183">
    <path d="M 292.477625 307.584 
L 299.103228 307.584 
L 299.103228 306.292095 
L 292.477625 306.292095 
z
" clip-path="url(#pf280f735b4)" style="fill: #d62728; opacity: 0.4"/>
   </g>
   <g id="patch_184">
    <path d="M 299.103228 307.584 
L 305.728831 307.584 
L 305.728831 306.384374 
L 299.103228 306.384374 
z
" clip-path="url(#pf280f735b4)" style="fill: #d62728; opacity: 0.4"/>
   </g>
   <g id="patch_185">
    <path d="M 305.728831 307.584 
L 312.354434 307.584 
L 312.354434 307.091846 
L 305.728831 307.091846 
z
" clip-path="url(#pf280f735b4)" style="fill: #d62728; opacity: 0.4"/>
   </g>
   <g id="patch_186">
    <path d="M 312.354434 307.584 
L 318.980037 307.584 
L 318.980037 307.245644 
L 312.354434 307.245644 
z
" clip-path="url(#pf280f735b4)" style="fill: #d62728; opacity: 0.4"/>
   </g>
   <g id="patch_187">
    <path d="M 318.980037 307.584 
L 325.60564 307.584 
L 325.60564 307.399442 
L 318.980037 307.399442 
z
" clip-path="url(#pf280f735b4)" style="fill: #d62728; opacity: 0.4"/>
   </g>
   <g id="patch_188">
    <path d="M 325.60564 307.584 
L 332.231243 307.584 
L 332.231243 307.55324 
L 325.60564 307.55324 
z
" clip-path="url(#pf280f735b4)" style="fill: #d62728; opacity: 0.4"/>
   </g>
   <g id="patch_189">
    <path d="M 332.231243 307.584 
L 338.856846 307.584 
L 338.856846 307.55324 
L 332.231243 307.55324 
z
" clip-path="url(#pf280f735b4)" style="fill: #d62728; opacity: 0.4"/>
   </g>
   <g id="patch_190">
    <path d="M 338.856846 307.584 
L 345.482449 307.584 
L 345.482449 307.55324 
L 338.856846 307.55324 
z
" clip-path="url(#pf280f735b4)" style="fill: #d62728; opacity: 0.4"/>
   </g>
   <g id="patch_191">
    <path d="M 345.482449 307.584 
L 352.108052 307.584 
L 352.108052 307.55324 
L 345.482449 307.55324 
z
" clip-path="url(#pf280f735b4)" style="fill: #d62728; opacity: 0.4"/>
   </g>
   <g id="patch_192">
    <path d="M 352.108052 307.584 
L 358.733655 307.584 
L 358.733655 307.584 
L 352.108052 307.584 
z
" clip-path="url(#pf280f735b4)" style="fill: #d62728; opacity: 0.4"/>
   </g>
   <g id="patch_193">
    <path d="M 358.733655 307.584 
L 365.359258 307.584 
L 365.359258 307.584 
L 358.733655 307.584 
z
" clip-path="url(#pf280f735b4)" style="fill: #d62728; opacity: 0.4"/>
   </g>
   <g id="patch_194">
    <path d="M 365.359258 307.584 
L 371.984861 307.584 
L 371.984861 307.584 
L 365.359258 307.584 
z
" clip-path="url(#pf280f735b4)" style="fill: #d62728; opacity: 0.4"/>
   </g>
   <g id="patch_195">
    <path d="M 371.984861 307.584 
L 378.610464 307.584 
L 378.610464 307.522481 
L 371.984861 307.522481 
z
" clip-path="url(#pf280f735b4)" style="fill: #d62728; opacity: 0.4"/>
   </g>
   <g id="patch_196">
    <path d="M 378.610464 307.584 
L 385.236067 307.584 
L 385.236067 307.584 
L 378.610464 307.584 
z
" clip-path="url(#pf280f735b4)" style="fill: #d62728; opacity: 0.4"/>
   </g>
   <g id="patch_197">
    <path d="M 385.236067 307.584 
L 391.86167 307.584 
L 391.86167 307.584 
L 385.236067 307.584 
z
" clip-path="url(#pf280f735b4)" style="fill: #d62728; opacity: 0.4"/>
   </g>
   <g id="patch_198">
    <path d="M 391.86167 307.584 
L 398.487273 307.584 
L 398.487273 307.55324 
L 391.86167 307.55324 
z
" clip-path="url(#pf280f735b4)" style="fill: #d62728; opacity: 0.4"/>
   </g>
   <g id="patch_199">
    <path d="M 73.832727 307.584 
L 80.45833 307.584 
L 80.45833 303.568279 
L 73.832727 303.568279 
z
" clip-path="url(#pf280f735b4)" style="fill: #9467bd; opacity: 0.4"/>
   </g>
   <g id="patch_200">
    <path d="M 80.45833 307.584 
L 87.083933 307.584 
L 87.083933 303.814858 
L 80.45833 303.814858 
z
" clip-path="url(#pf280f735b4)" style="fill: #9467bd; opacity: 0.4"/>
   </g>
   <g id="patch_201">
    <path d="M 87.083933 307.584 
L 93.709536 307.584 
L 93.709536 300.327521 
L 87.083933 300.327521 
z
" clip-path="url(#pf280f735b4)" style="fill: #9467bd; opacity: 0.4"/>
   </g>
   <g id="patch_202">
    <path d="M 93.709536 307.584 
L 100.335139 307.584 
L 100.335139 295.360708 
L 93.709536 295.360708 
z
" clip-path="url(#pf280f735b4)" style="fill: #9467bd; opacity: 0.4"/>
   </g>
   <g id="patch_203">
    <path d="M 100.335139 307.584 
L 106.960742 307.584 
L 106.960742 292.718786 
L 100.335139 292.718786 
z
" clip-path="url(#pf280f735b4)" style="fill: #9467bd; opacity: 0.4"/>
   </g>
   <g id="patch_204">
    <path d="M 106.960742 307.584 
L 113.586345 307.584 
L 113.586345 286.589528 
L 106.960742 286.589528 
z
" clip-path="url(#pf280f735b4)" style="fill: #9467bd; opacity: 0.4"/>
   </g>
   <g id="patch_205">
    <path d="M 113.586345 307.584 
L 120.211948 307.584 
L 120.211948 278.769439 
L 113.586345 278.769439 
z
" clip-path="url(#pf280f735b4)" style="fill: #9467bd; opacity: 0.4"/>
   </g>
   <g id="patch_206">
    <path d="M 120.211948 307.584 
L 126.837551 307.584 
L 126.837551 270.94935 
L 120.211948 270.94935 
z
" clip-path="url(#pf280f735b4)" style="fill: #9467bd; opacity: 0.4"/>
   </g>
   <g id="patch_207">
    <path d="M 126.837551 307.584 
L 133.463154 307.584 
L 133.463154 260.346437 
L 126.837551 260.346437 
z
" clip-path="url(#pf280f735b4)" style="fill: #9467bd; opacity: 0.4"/>
   </g>
   <g id="patch_208">
    <path d="M 133.463154 307.584 
L 140.088757 307.584 
L 140.088757 248.792432 
L 133.463154 248.792432 
z
" clip-path="url(#pf280f735b4)" style="fill: #9467bd; opacity: 0.4"/>
   </g>
   <g id="patch_209">
    <path d="M 140.088757 307.584 
L 146.71436 307.584 
L 146.71436 239.281514 
L 140.088757 239.281514 
z
" clip-path="url(#pf280f735b4)" style="fill: #9467bd; opacity: 0.4"/>
   </g>
   <g id="patch_210">
    <path d="M 146.71436 307.584 
L 153.339963 307.584 
L 153.339963 233.75109 
L 146.71436 233.75109 
z
" clip-path="url(#pf280f735b4)" style="fill: #9467bd; opacity: 0.4"/>
   </g>
   <g id="patch_211">
    <path d="M 153.339963 307.584 
L 159.965566 307.584 
L 159.965566 232.799999 
L 153.339963 232.799999 
z
" clip-path="url(#pf280f735b4)" style="fill: #9467bd; opacity: 0.4"/>
   </g>
   <g id="patch_212">
    <path d="M 159.965566 307.584 
L 166.591169 307.584 
L 166.591169 232.799999 
L 159.965566 232.799999 
z
" clip-path="url(#pf280f735b4)" style="fill: #9467bd; opacity: 0.4"/>
   </g>
   <g id="patch_213">
    <path d="M 166.591169 307.584 
L 173.216772 307.584 
L 173.216772 235.12489 
L 166.591169 235.12489 
z
" clip-path="url(#pf280f735b4)" style="fill: #9467bd; opacity: 0.4"/>
   </g>
   <g id="patch_214">
    <path d="M 173.216772 307.584 
L 179.842375 307.584 
L 179.842375 234.349926 
L 173.216772 234.349926 
z
" clip-path="url(#pf280f735b4)" style="fill: #9467bd; opacity: 0.4"/>
   </g>
   <g id="patch_215">
    <path d="M 179.842375 307.584 
L 186.467978 307.584 
L 186.467978 240.549636 
L 179.842375 240.549636 
z
" clip-path="url(#pf280f735b4)" style="fill: #9467bd; opacity: 0.4"/>
   </g>
   <g id="patch_216">
    <path d="M 186.467978 307.584 
L 193.093581 307.584 
L 193.093581 244.635808 
L 186.467978 244.635808 
z
" clip-path="url(#pf280f735b4)" style="fill: #9467bd; opacity: 0.4"/>
   </g>
   <g id="patch_217">
    <path d="M 193.093581 307.584 
L 199.719184 307.584 
L 199.719184 250.412811 
L 193.093581 250.412811 
z
" clip-path="url(#pf280f735b4)" style="fill: #9467bd; opacity: 0.4"/>
   </g>
   <g id="patch_218">
    <path d="M 199.719184 307.584 
L 206.344787 307.584 
L 206.344787 255.837557 
L 199.719184 255.837557 
z
" clip-path="url(#pf280f735b4)" style="fill: #9467bd; opacity: 0.4"/>
   </g>
   <g id="patch_219">
    <path d="M 206.344787 307.584 
L 212.97039 307.584 
L 212.97039 264.820091 
L 206.344787 264.820091 
z
" clip-path="url(#pf280f735b4)" style="fill: #9467bd; opacity: 0.4"/>
   </g>
   <g id="patch_220">
    <path d="M 212.97039 307.584 
L 219.595993 307.584 
L 219.595993 269.857356 
L 212.97039 269.857356 
z
" clip-path="url(#pf280f735b4)" style="fill: #9467bd; opacity: 0.4"/>
   </g>
   <g id="patch_221">
    <path d="M 219.595993 307.584 
L 226.221596 307.584 
L 226.221596 276.338871 
L 219.595993 276.338871 
z
" clip-path="url(#pf280f735b4)" style="fill: #9467bd; opacity: 0.4"/>
   </g>
   <g id="patch_222">
    <path d="M 226.221596 307.584 
L 232.847199 307.584 
L 232.847199 282.46813 
L 226.221596 282.46813 
z
" clip-path="url(#pf280f735b4)" style="fill: #9467bd; opacity: 0.4"/>
   </g>
   <g id="patch_223">
    <path d="M 232.847199 307.584 
L 239.472801 307.584 
L 239.472801 289.724608 
L 232.847199 289.724608 
z
" clip-path="url(#pf280f735b4)" style="fill: #9467bd; opacity: 0.4"/>
   </g>
   <g id="patch_224">
    <path d="M 239.472801 307.584 
L 246.098404 307.584 
L 246.098404 293.282396 
L 239.472801 293.282396 
z
" clip-path="url(#pf280f735b4)" style="fill: #9467bd; opacity: 0.4"/>
   </g>
   <g id="patch_225">
    <path d="M 246.098404 307.584 
L 252.724007 307.584 
L 252.724007 295.712964 
L 246.098404 295.712964 
z
" clip-path="url(#pf280f735b4)" style="fill: #9467bd; opacity: 0.4"/>
   </g>
   <g id="patch_226">
    <path d="M 252.724007 307.584 
L 259.34961 307.584 
L 259.34961 299.12985 
L 252.724007 299.12985 
z
" clip-path="url(#pf280f735b4)" style="fill: #9467bd; opacity: 0.4"/>
   </g>
   <g id="patch_227">
    <path d="M 259.34961 307.584 
L 265.975213 307.584 
L 265.975213 300.045716 
L 259.34961 300.045716 
z
" clip-path="url(#pf280f735b4)" style="fill: #9467bd; opacity: 0.4"/>
   </g>
   <g id="patch_228">
    <path d="M 265.975213 307.584 
L 272.600816 307.584 
L 272.600816 301.771772 
L 265.975213 301.771772 
z
" clip-path="url(#pf280f735b4)" style="fill: #9467bd; opacity: 0.4"/>
   </g>
   <g id="patch_229">
    <path d="M 272.600816 307.584 
L 279.226419 307.584 
L 279.226419 302.828541 
L 272.600816 302.828541 
z
" clip-path="url(#pf280f735b4)" style="fill: #9467bd; opacity: 0.4"/>
   </g>
   <g id="patch_230">
    <path d="M 279.226419 307.584 
L 285.852022 307.584 
L 285.852022 304.977304 
L 279.226419 304.977304 
z
" clip-path="url(#pf280f735b4)" style="fill: #9467bd; opacity: 0.4"/>
   </g>
   <g id="patch_231">
    <path d="M 285.852022 307.584 
L 292.477625 307.584 
L 292.477625 305.082981 
L 285.852022 305.082981 
z
" clip-path="url(#pf280f735b4)" style="fill: #9467bd; opacity: 0.4"/>
   </g>
   <g id="patch_232">
    <path d="M 292.477625 307.584 
L 299.103228 307.584 
L 299.103228 306.492006 
L 292.477625 306.492006 
z
" clip-path="url(#pf280f735b4)" style="fill: #9467bd; opacity: 0.4"/>
   </g>
   <g id="patch_233">
    <path d="M 299.103228 307.584 
L 305.728831 307.584 
L 305.728831 307.231744 
L 299.103228 307.231744 
z
" clip-path="url(#pf280f735b4)" style="fill: #9467bd; opacity: 0.4"/>
   </g>
   <g id="patch_234">
    <path d="M 305.728831 307.584 
L 312.354434 307.584 
L 312.354434 307.231744 
L 305.728831 307.231744 
z
" clip-path="url(#pf280f735b4)" style="fill: #9467bd; opacity: 0.4"/>
   </g>
   <g id="patch_235">
    <path d="M 312.354434 307.584 
L 318.980037 307.584 
L 318.980037 307.231744 
L 312.354434 307.231744 
z
" clip-path="url(#pf280f735b4)" style="fill: #9467bd; opacity: 0.4"/>
   </g>
   <g id="patch_236">
    <path d="M 318.980037 307.584 
L 325.60564 307.584 
L 325.60564 307.584 
L 318.980037 307.584 
z
" clip-path="url(#pf280f735b4)" style="fill: #9467bd; opacity: 0.4"/>
   </g>
   <g id="patch_237">
    <path d="M 325.60564 307.584 
L 332.231243 307.584 
L 332.231243 307.478323 
L 325.60564 307.478323 
z
" clip-path="url(#pf280f735b4)" style="fill: #9467bd; opacity: 0.4"/>
   </g>
   <g id="patch_238">
    <path d="M 332.231243 307.584 
L 338.856846 307.584 
L 338.856846 307.513549 
L 332.231243 307.513549 
z
" clip-path="url(#pf280f735b4)" style="fill: #9467bd; opacity: 0.4"/>
   </g>
   <g id="patch_239">
    <path d="M 338.856846 307.584 
L 345.482449 307.584 
L 345.482449 307.548774 
L 338.856846 307.548774 
z
" clip-path="url(#pf280f735b4)" style="fill: #9467bd; opacity: 0.4"/>
   </g>
   <g id="patch_240">
    <path d="M 345.482449 307.584 
L 352.108052 307.584 
L 352.108052 307.584 
L 345.482449 307.584 
z
" clip-path="url(#pf280f735b4)" style="fill: #9467bd; opacity: 0.4"/>
   </g>
   <g id="patch_241">
    <path d="M 352.108052 307.584 
L 358.733655 307.584 
L 358.733655 307.478323 
L 352.108052 307.478323 
z
" clip-path="url(#pf280f735b4)" style="fill: #9467bd; opacity: 0.4"/>
   </g>
   <g id="patch_242">
    <path d="M 358.733655 307.584 
L 365.359258 307.584 
L 365.359258 307.584 
L 358.733655 307.584 
z
" clip-path="url(#pf280f735b4)" style="fill: #9467bd; opacity: 0.4"/>
   </g>
   <g id="patch_243">
    <path d="M 365.359258 307.584 
L 371.984861 307.584 
L 371.984861 307.584 
L 365.359258 307.584 
z
" clip-path="url(#pf280f735b4)" style="fill: #9467bd; opacity: 0.4"/>
   </g>
   <g id="patch_244">
    <path d="M 371.984861 307.584 
L 378.610464 307.584 
L 378.610464 307.548774 
L 371.984861 307.548774 
z
" clip-path="url(#pf280f735b4)" style="fill: #9467bd; opacity: 0.4"/>
   </g>
   <g id="patch_245">
    <path d="M 378.610464 307.584 
L 385.236067 307.584 
L 385.236067 307.584 
L 378.610464 307.584 
z
" clip-path="url(#pf280f735b4)" style="fill: #9467bd; opacity: 0.4"/>
   </g>
   <g id="patch_246">
    <path d="M 385.236067 307.584 
L 391.86167 307.584 
L 391.86167 307.584 
L 385.236067 307.584 
z
" clip-path="url(#pf280f735b4)" style="fill: #9467bd; opacity: 0.4"/>
   </g>
   <g id="patch_247">
    <path d="M 391.86167 307.584 
L 398.487273 307.584 
L 398.487273 307.548774 
L 391.86167 307.548774 
z
" clip-path="url(#pf280f735b4)" style="fill: #9467bd; opacity: 0.4"/>
   </g>
   <g id="matplotlib.axis_1">
    <g id="xtick_1">
     <g id="line2d_1">
      <defs>
       <path id="m84129b6083" d="M 0 0 
L 0 3.5 
" style="stroke: #000000; stroke-width: 0.8"/>
      </defs>
      <g>
       <use xlink:href="#m84129b6083" x="73.832727" y="307.584" style="stroke: #000000; stroke-width: 0.8"/>
      </g>
     </g>
     <g id="text_1">
      <!-- 0.0 -->
      <g transform="translate(65.881165 322.182437) scale(0.1 -0.1)">
       <defs>
        <path id="DejaVuSans-30" d="M 2034 4250 
Q 1547 4250 1301 3770 
Q 1056 3291 1056 2328 
Q 1056 1369 1301 889 
Q 1547 409 2034 409 
Q 2525 409 2770 889 
Q 3016 1369 3016 2328 
Q 3016 3291 2770 3770 
Q 2525 4250 2034 4250 
z
M 2034 4750 
Q 2819 4750 3233 4129 
Q 3647 3509 3647 2328 
Q 3647 1150 3233 529 
Q 2819 -91 2034 -91 
Q 1250 -91 836 529 
Q 422 1150 422 2328 
Q 422 3509 836 4129 
Q 1250 4750 2034 4750 
z
" transform="scale(0.015625)"/>
        <path id="DejaVuSans-2e" d="M 684 794 
L 1344 794 
L 1344 0 
L 684 0 
L 684 794 
z
" transform="scale(0.015625)"/>
       </defs>
       <use xlink:href="#DejaVuSans-30"/>
       <use xlink:href="#DejaVuSans-2e" x="63.623047"/>
       <use xlink:href="#DejaVuSans-30" x="95.410156"/>
      </g>
     </g>
    </g>
    <g id="xtick_2">
     <g id="line2d_2">
      <g>
       <use xlink:href="#m84129b6083" x="140.088757" y="307.584" style="stroke: #000000; stroke-width: 0.8"/>
      </g>
     </g>
     <g id="text_2">
      <!-- 0.5 -->
      <g transform="translate(132.137194 322.182437) scale(0.1 -0.1)">
       <defs>
        <path id="DejaVuSans-35" d="M 691 4666 
L 3169 4666 
L 3169 4134 
L 1269 4134 
L 1269 2991 
Q 1406 3038 1543 3061 
Q 1681 3084 1819 3084 
Q 2600 3084 3056 2656 
Q 3513 2228 3513 1497 
Q 3513 744 3044 326 
Q 2575 -91 1722 -91 
Q 1428 -91 1123 -41 
Q 819 9 494 109 
L 494 744 
Q 775 591 1075 516 
Q 1375 441 1709 441 
Q 2250 441 2565 725 
Q 2881 1009 2881 1497 
Q 2881 1984 2565 2268 
Q 2250 2553 1709 2553 
Q 1456 2553 1204 2497 
Q 953 2441 691 2322 
L 691 4666 
z
" transform="scale(0.015625)"/>
       </defs>
       <use xlink:href="#DejaVuSans-30"/>
       <use xlink:href="#DejaVuSans-2e" x="63.623047"/>
       <use xlink:href="#DejaVuSans-35" x="95.410156"/>
      </g>
     </g>
    </g>
    <g id="xtick_3">
     <g id="line2d_3">
      <g>
       <use xlink:href="#m84129b6083" x="206.344787" y="307.584" style="stroke: #000000; stroke-width: 0.8"/>
      </g>
     </g>
     <g id="text_3">
      <!-- 1.0 -->
      <g transform="translate(198.393224 322.182437) scale(0.1 -0.1)">
       <defs>
        <path id="DejaVuSans-31" d="M 794 531 
L 1825 531 
L 1825 4091 
L 703 3866 
L 703 4441 
L 1819 4666 
L 2450 4666 
L 2450 531 
L 3481 531 
L 3481 0 
L 794 0 
L 794 531 
z
" transform="scale(0.015625)"/>
       </defs>
       <use xlink:href="#DejaVuSans-31"/>
       <use xlink:href="#DejaVuSans-2e" x="63.623047"/>
       <use xlink:href="#DejaVuSans-30" x="95.410156"/>
      </g>
     </g>
    </g>
    <g id="xtick_4">
     <g id="line2d_4">
      <g>
       <use xlink:href="#m84129b6083" x="272.600816" y="307.584" style="stroke: #000000; stroke-width: 0.8"/>
      </g>
     </g>
     <g id="text_4">
      <!-- 1.5 -->
      <g transform="translate(264.649254 322.182437) scale(0.1 -0.1)">
       <use xlink:href="#DejaVuSans-31"/>
       <use xlink:href="#DejaVuSans-2e" x="63.623047"/>
       <use xlink:href="#DejaVuSans-35" x="95.410156"/>
      </g>
     </g>
    </g>
    <g id="xtick_5">
     <g id="line2d_5">
      <g>
       <use xlink:href="#m84129b6083" x="338.856846" y="307.584" style="stroke: #000000; stroke-width: 0.8"/>
      </g>
     </g>
     <g id="text_5">
      <!-- 2.0 -->
      <g transform="translate(330.905284 322.182437) scale(0.1 -0.1)">
       <defs>
        <path id="DejaVuSans-32" d="M 1228 531 
L 3431 531 
L 3431 0 
L 469 0 
L 469 531 
Q 828 903 1448 1529 
Q 2069 2156 2228 2338 
Q 2531 2678 2651 2914 
Q 2772 3150 2772 3378 
Q 2772 3750 2511 3984 
Q 2250 4219 1831 4219 
Q 1534 4219 1204 4116 
Q 875 4013 500 3803 
L 500 4441 
Q 881 4594 1212 4672 
Q 1544 4750 1819 4750 
Q 2544 4750 2975 4387 
Q 3406 4025 3406 3419 
Q 3406 3131 3298 2873 
Q 3191 2616 2906 2266 
Q 2828 2175 2409 1742 
Q 1991 1309 1228 531 
z
" transform="scale(0.015625)"/>
       </defs>
       <use xlink:href="#DejaVuSans-32"/>
       <use xlink:href="#DejaVuSans-2e" x="63.623047"/>
       <use xlink:href="#DejaVuSans-30" x="95.410156"/>
      </g>
     </g>
    </g>
    <g id="xtick_6">
     <g id="line2d_6">
      <g>
       <use xlink:href="#m84129b6083" x="405.112876" y="307.584" style="stroke: #000000; stroke-width: 0.8"/>
      </g>
     </g>
     <g id="text_6">
      <!-- 2.5 -->
      <g transform="translate(397.161313 322.182437) scale(0.1 -0.1)">
       <use xlink:href="#DejaVuSans-32"/>
       <use xlink:href="#DejaVuSans-2e" x="63.623047"/>
       <use xlink:href="#DejaVuSans-35" x="95.410156"/>
      </g>
     </g>
    </g>
    <g id="text_7">
     <!-- value -->
     <g transform="translate(222.502187 335.860562) scale(0.1 -0.1)">
      <defs>
       <path id="DejaVuSans-76" d="M 191 3500 
L 800 3500 
L 1894 563 
L 2988 3500 
L 3597 3500 
L 2284 0 
L 1503 0 
L 191 3500 
z
" transform="scale(0.015625)"/>
       <path id="DejaVuSans-61" d="M 2194 1759 
Q 1497 1759 1228 1600 
Q 959 1441 959 1056 
Q 959 750 1161 570 
Q 1363 391 1709 391 
Q 2188 391 2477 730 
Q 2766 1069 2766 1631 
L 2766 1759 
L 2194 1759 
z
M 3341 1997 
L 3341 0 
L 2766 0 
L 2766 531 
Q 2569 213 2275 61 
Q 1981 -91 1556 -91 
Q 1019 -91 701 211 
Q 384 513 384 1019 
Q 384 1609 779 1909 
Q 1175 2209 1959 2209 
L 2766 2209 
L 2766 2266 
Q 2766 2663 2505 2880 
Q 2244 3097 1772 3097 
Q 1472 3097 1187 3025 
Q 903 2953 641 2809 
L 641 3341 
Q 956 3463 1253 3523 
Q 1550 3584 1831 3584 
Q 2591 3584 2966 3190 
Q 3341 2797 3341 1997 
z
" transform="scale(0.015625)"/>
       <path id="DejaVuSans-6c" d="M 603 4863 
L 1178 4863 
L 1178 0 
L 603 0 
L 603 4863 
z
" transform="scale(0.015625)"/>
       <path id="DejaVuSans-75" d="M 544 1381 
L 544 3500 
L 1119 3500 
L 1119 1403 
Q 1119 906 1312 657 
Q 1506 409 1894 409 
Q 2359 409 2629 706 
Q 2900 1003 2900 1516 
L 2900 3500 
L 3475 3500 
L 3475 0 
L 2900 0 
L 2900 538 
Q 2691 219 2414 64 
Q 2138 -91 1772 -91 
Q 1169 -91 856 284 
Q 544 659 544 1381 
z
M 1991 3584 
L 1991 3584 
z
" transform="scale(0.015625)"/>
       <path id="DejaVuSans-65" d="M 3597 1894 
L 3597 1613 
L 953 1613 
Q 991 1019 1311 708 
Q 1631 397 2203 397 
Q 2534 397 2845 478 
Q 3156 559 3463 722 
L 3463 178 
Q 3153 47 2828 -22 
Q 2503 -91 2169 -91 
Q 1331 -91 842 396 
Q 353 884 353 1716 
Q 353 2575 817 3079 
Q 1281 3584 2069 3584 
Q 2775 3584 3186 3129 
Q 3597 2675 3597 1894 
z
M 3022 2063 
Q 3016 2534 2758 2815 
Q 2500 3097 2075 3097 
Q 1594 3097 1305 2825 
Q 1016 2553 972 2059 
L 3022 2063 
z
" transform="scale(0.015625)"/>
      </defs>
      <use xlink:href="#DejaVuSans-76"/>
      <use xlink:href="#DejaVuSans-61" x="59.179688"/>
      <use xlink:href="#DejaVuSans-6c" x="120.458984"/>
      <use xlink:href="#DejaVuSans-75" x="148.242188"/>
      <use xlink:href="#DejaVuSans-65" x="211.621094"/>
     </g>
    </g>
   </g>
   <g id="matplotlib.axis_2">
    <g id="ytick_1">
     <g id="line2d_7">
      <defs>
       <path id="ma2d7e8ea77" d="M 0 0 
L -3.5 0 
" style="stroke: #000000; stroke-width: 0.8"/>
      </defs>
      <g>
       <use xlink:href="#ma2d7e8ea77" x="57.6" y="307.584" style="stroke: #000000; stroke-width: 0.8"/>
      </g>
     </g>
     <g id="text_8">
      <!-- 0 -->
      <g transform="translate(44.2375 311.383219) scale(0.1 -0.1)">
       <use xlink:href="#DejaVuSans-30"/>
      </g>
     </g>
    </g>
    <g id="ytick_2">
     <g id="line2d_8">
      <g>
       <use xlink:href="#ma2d7e8ea77" x="57.6" y="251.284645" style="stroke: #000000; stroke-width: 0.8"/>
      </g>
     </g>
     <g id="text_9">
      <!-- 1 -->
      <g transform="translate(44.2375 255.083864) scale(0.1 -0.1)">
       <use xlink:href="#DejaVuSans-31"/>
      </g>
     </g>
    </g>
    <g id="ytick_3">
     <g id="line2d_9">
      <g>
       <use xlink:href="#ma2d7e8ea77" x="57.6" y="194.98529" style="stroke: #000000; stroke-width: 0.8"/>
      </g>
     </g>
     <g id="text_10">
      <!-- 2 -->
      <g transform="translate(44.2375 198.784509) scale(0.1 -0.1)">
       <use xlink:href="#DejaVuSans-32"/>
      </g>
     </g>
    </g>
    <g id="ytick_4">
     <g id="line2d_10">
      <g>
       <use xlink:href="#ma2d7e8ea77" x="57.6" y="138.685935" style="stroke: #000000; stroke-width: 0.8"/>
      </g>
     </g>
     <g id="text_11">
      <!-- 3 -->
      <g transform="translate(44.2375 142.485154) scale(0.1 -0.1)">
       <defs>
        <path id="DejaVuSans-33" d="M 2597 2516 
Q 3050 2419 3304 2112 
Q 3559 1806 3559 1356 
Q 3559 666 3084 287 
Q 2609 -91 1734 -91 
Q 1441 -91 1130 -33 
Q 819 25 488 141 
L 488 750 
Q 750 597 1062 519 
Q 1375 441 1716 441 
Q 2309 441 2620 675 
Q 2931 909 2931 1356 
Q 2931 1769 2642 2001 
Q 2353 2234 1838 2234 
L 1294 2234 
L 1294 2753 
L 1863 2753 
Q 2328 2753 2575 2939 
Q 2822 3125 2822 3475 
Q 2822 3834 2567 4026 
Q 2313 4219 1838 4219 
Q 1578 4219 1281 4162 
Q 984 4106 628 3988 
L 628 4550 
Q 988 4650 1302 4700 
Q 1616 4750 1894 4750 
Q 2613 4750 3031 4423 
Q 3450 4097 3450 3541 
Q 3450 3153 3228 2886 
Q 3006 2619 2597 2516 
z
" transform="scale(0.015625)"/>
       </defs>
       <use xlink:href="#DejaVuSans-33"/>
      </g>
     </g>
    </g>
    <g id="ytick_5">
     <g id="line2d_11">
      <g>
       <use xlink:href="#ma2d7e8ea77" x="57.6" y="82.386581" style="stroke: #000000; stroke-width: 0.8"/>
      </g>
     </g>
     <g id="text_12">
      <!-- 4 -->
      <g transform="translate(44.2375 86.185799) scale(0.1 -0.1)">
       <defs>
        <path id="DejaVuSans-34" d="M 2419 4116 
L 825 1625 
L 2419 1625 
L 2419 4116 
z
M 2253 4666 
L 3047 4666 
L 3047 1625 
L 3713 1625 
L 3713 1100 
L 3047 1100 
L 3047 0 
L 2419 0 
L 2419 1100 
L 313 1100 
L 313 1709 
L 2253 4666 
z
" transform="scale(0.015625)"/>
       </defs>
       <use xlink:href="#DejaVuSans-34"/>
      </g>
     </g>
    </g>
    <g id="text_13">
     <!-- density -->
     <g transform="translate(38.157812 192.860812) rotate(-90) scale(0.1 -0.1)">
      <defs>
       <path id="DejaVuSans-64" d="M 2906 2969 
L 2906 4863 
L 3481 4863 
L 3481 0 
L 2906 0 
L 2906 525 
Q 2725 213 2448 61 
Q 2172 -91 1784 -91 
Q 1150 -91 751 415 
Q 353 922 353 1747 
Q 353 2572 751 3078 
Q 1150 3584 1784 3584 
Q 2172 3584 2448 3432 
Q 2725 3281 2906 2969 
z
M 947 1747 
Q 947 1113 1208 752 
Q 1469 391 1925 391 
Q 2381 391 2643 752 
Q 2906 1113 2906 1747 
Q 2906 2381 2643 2742 
Q 2381 3103 1925 3103 
Q 1469 3103 1208 2742 
Q 947 2381 947 1747 
z
" transform="scale(0.015625)"/>
       <path id="DejaVuSans-6e" d="M 3513 2113 
L 3513 0 
L 2938 0 
L 2938 2094 
Q 2938 2591 2744 2837 
Q 2550 3084 2163 3084 
Q 1697 3084 1428 2787 
Q 1159 2491 1159 1978 
L 1159 0 
L 581 0 
L 581 3500 
L 1159 3500 
L 1159 2956 
Q 1366 3272 1645 3428 
Q 1925 3584 2291 3584 
Q 2894 3584 3203 3211 
Q 3513 2838 3513 2113 
z
" transform="scale(0.015625)"/>
       <path id="DejaVuSans-73" d="M 2834 3397 
L 2834 2853 
Q 2591 2978 2328 3040 
Q 2066 3103 1784 3103 
Q 1356 3103 1142 2972 
Q 928 2841 928 2578 
Q 928 2378 1081 2264 
Q 1234 2150 1697 2047 
L 1894 2003 
Q 2506 1872 2764 1633 
Q 3022 1394 3022 966 
Q 3022 478 2636 193 
Q 2250 -91 1575 -91 
Q 1294 -91 989 -36 
Q 684 19 347 128 
L 347 722 
Q 666 556 975 473 
Q 1284 391 1588 391 
Q 1994 391 2212 530 
Q 2431 669 2431 922 
Q 2431 1156 2273 1281 
Q 2116 1406 1581 1522 
L 1381 1569 
Q 847 1681 609 1914 
Q 372 2147 372 2553 
Q 372 3047 722 3315 
Q 1072 3584 1716 3584 
Q 2034 3584 2315 3537 
Q 2597 3491 2834 3397 
z
" transform="scale(0.015625)"/>
       <path id="DejaVuSans-69" d="M 603 3500 
L 1178 3500 
L 1178 0 
L 603 0 
L 603 3500 
z
M 603 4863 
L 1178 4863 
L 1178 4134 
L 603 4134 
L 603 4863 
z
" transform="scale(0.015625)"/>
       <path id="DejaVuSans-74" d="M 1172 4494 
L 1172 3500 
L 2356 3500 
L 2356 3053 
L 1172 3053 
L 1172 1153 
Q 1172 725 1289 603 
Q 1406 481 1766 481 
L 2356 481 
L 2356 0 
L 1766 0 
Q 1100 0 847 248 
Q 594 497 594 1153 
L 594 3053 
L 172 3053 
L 172 3500 
L 594 3500 
L 594 4494 
L 1172 4494 
z
" transform="scale(0.015625)"/>
       <path id="DejaVuSans-79" d="M 2059 -325 
Q 1816 -950 1584 -1140 
Q 1353 -1331 966 -1331 
L 506 -1331 
L 506 -850 
L 844 -850 
Q 1081 -850 1212 -737 
Q 1344 -625 1503 -206 
L 1606 56 
L 191 3500 
L 800 3500 
L 1894 763 
L 2988 3500 
L 3597 3500 
L 2059 -325 
z
" transform="scale(0.015625)"/>
      </defs>
      <use xlink:href="#DejaVuSans-64"/>
      <use xlink:href="#DejaVuSans-65" x="63.476562"/>
      <use xlink:href="#DejaVuSans-6e" x="125"/>
      <use xlink:href="#DejaVuSans-73" x="188.378906"/>
      <use xlink:href="#DejaVuSans-69" x="240.478516"/>
      <use xlink:href="#DejaVuSans-74" x="268.261719"/>
      <use xlink:href="#DejaVuSans-79" x="307.470703"/>
     </g>
    </g>
   </g>
   <g id="patch_248">
    <path d="M 57.6 307.584 
L 57.6 41.472 
" style="fill: none; stroke: #000000; stroke-width: 0.8; stroke-linejoin: miter; stroke-linecap: square"/>
   </g>
   <g id="patch_249">
    <path d="M 414.72 307.584 
L 414.72 41.472 
" style="fill: none; stroke: #000000; stroke-width: 0.8; stroke-linejoin: miter; stroke-linecap: square"/>
   </g>
   <g id="patch_250">
    <path d="M 57.6 307.584 
L 414.72 307.584 
" style="fill: none; stroke: #000000; stroke-width: 0.8; stroke-linejoin: miter; stroke-linecap: square"/>
   </g>
   <g id="patch_251">
    <path d="M 57.6 41.472 
L 414.72 41.472 
" style="fill: none; stroke: #000000; stroke-width: 0.8; stroke-linejoin: miter; stroke-linecap: square"/>
   </g>
   <g id="text_14">
    <!-- Hs -->
    <g transform="translate(228.522188 35.472) scale(0.12 -0.12)">
     <defs>
      <path id="DejaVuSans-48" d="M 628 4666 
L 1259 4666 
L 1259 2753 
L 3553 2753 
L 3553 4666 
L 4184 4666 
L 4184 0 
L 3553 0 
L 3553 2222 
L 1259 2222 
L 1259 0 
L 628 0 
L 628 4666 
z
" transform="scale(0.015625)"/>
     </defs>
     <use xlink:href="#DejaVuSans-48"/>
     <use xlink:href="#DejaVuSans-73" x="75.195312"/>
    </g>
   </g>
   <g id="legend_1">
    <g id="patch_252">
     <path d="M 286.505938 122.862625 
L 407.72 122.862625 
Q 409.72 122.862625 409.72 120.862625 
L 409.72 48.472 
Q 409.72 46.472 407.72 46.472 
L 286.505938 46.472 
Q 284.505938 46.472 284.505938 48.472 
L 284.505938 120.862625 
Q 284.505938 122.862625 286.505938 122.862625 
z
" style="fill: #ffffff; opacity: 0.8; stroke: #cccccc; stroke-linejoin: miter"/>
    </g>
    <g id="patch_253">
     <path d="M 288.505938 58.070438 
L 308.505938 58.070438 
L 308.505938 51.070438 
L 288.505938 51.070438 
z
" style="fill: #1f77b4; opacity: 0.4"/>
    </g>
    <g id="text_15">
     <!-- 80m, N = 12120 -->
     <g transform="translate(316.505938 58.070438) scale(0.1 -0.1)">
      <defs>
       <path id="DejaVuSans-38" d="M 2034 2216 
Q 1584 2216 1326 1975 
Q 1069 1734 1069 1313 
Q 1069 891 1326 650 
Q 1584 409 2034 409 
Q 2484 409 2743 651 
Q 3003 894 3003 1313 
Q 3003 1734 2745 1975 
Q 2488 2216 2034 2216 
z
M 1403 2484 
Q 997 2584 770 2862 
Q 544 3141 544 3541 
Q 544 4100 942 4425 
Q 1341 4750 2034 4750 
Q 2731 4750 3128 4425 
Q 3525 4100 3525 3541 
Q 3525 3141 3298 2862 
Q 3072 2584 2669 2484 
Q 3125 2378 3379 2068 
Q 3634 1759 3634 1313 
Q 3634 634 3220 271 
Q 2806 -91 2034 -91 
Q 1263 -91 848 271 
Q 434 634 434 1313 
Q 434 1759 690 2068 
Q 947 2378 1403 2484 
z
M 1172 3481 
Q 1172 3119 1398 2916 
Q 1625 2713 2034 2713 
Q 2441 2713 2670 2916 
Q 2900 3119 2900 3481 
Q 2900 3844 2670 4047 
Q 2441 4250 2034 4250 
Q 1625 4250 1398 4047 
Q 1172 3844 1172 3481 
z
" transform="scale(0.015625)"/>
       <path id="DejaVuSans-6d" d="M 3328 2828 
Q 3544 3216 3844 3400 
Q 4144 3584 4550 3584 
Q 5097 3584 5394 3201 
Q 5691 2819 5691 2113 
L 5691 0 
L 5113 0 
L 5113 2094 
Q 5113 2597 4934 2840 
Q 4756 3084 4391 3084 
Q 3944 3084 3684 2787 
Q 3425 2491 3425 1978 
L 3425 0 
L 2847 0 
L 2847 2094 
Q 2847 2600 2669 2842 
Q 2491 3084 2119 3084 
Q 1678 3084 1418 2786 
Q 1159 2488 1159 1978 
L 1159 0 
L 581 0 
L 581 3500 
L 1159 3500 
L 1159 2956 
Q 1356 3278 1631 3431 
Q 1906 3584 2284 3584 
Q 2666 3584 2933 3390 
Q 3200 3197 3328 2828 
z
" transform="scale(0.015625)"/>
       <path id="DejaVuSans-2c" d="M 750 794 
L 1409 794 
L 1409 256 
L 897 -744 
L 494 -744 
L 750 256 
L 750 794 
z
" transform="scale(0.015625)"/>
       <path id="DejaVuSans-20" transform="scale(0.015625)"/>
       <path id="DejaVuSans-4e" d="M 628 4666 
L 1478 4666 
L 3547 763 
L 3547 4666 
L 4159 4666 
L 4159 0 
L 3309 0 
L 1241 3903 
L 1241 0 
L 628 0 
L 628 4666 
z
" transform="scale(0.015625)"/>
       <path id="DejaVuSans-3d" d="M 678 2906 
L 4684 2906 
L 4684 2381 
L 678 2381 
L 678 2906 
z
M 678 1631 
L 4684 1631 
L 4684 1100 
L 678 1100 
L 678 1631 
z
" transform="scale(0.015625)"/>
      </defs>
      <use xlink:href="#DejaVuSans-38"/>
      <use xlink:href="#DejaVuSans-30" x="63.623047"/>
      <use xlink:href="#DejaVuSans-6d" x="127.246094"/>
      <use xlink:href="#DejaVuSans-2c" x="224.658203"/>
      <use xlink:href="#DejaVuSans-20" x="256.445312"/>
      <use xlink:href="#DejaVuSans-4e" x="288.232422"/>
      <use xlink:href="#DejaVuSans-20" x="363.037109"/>
      <use xlink:href="#DejaVuSans-3d" x="394.824219"/>
      <use xlink:href="#DejaVuSans-20" x="478.613281"/>
      <use xlink:href="#DejaVuSans-31" x="510.400391"/>
      <use xlink:href="#DejaVuSans-32" x="574.023438"/>
      <use xlink:href="#DejaVuSans-31" x="637.646484"/>
      <use xlink:href="#DejaVuSans-32" x="701.269531"/>
      <use xlink:href="#DejaVuSans-30" x="764.892578"/>
     </g>
    </g>
    <g id="patch_254">
     <path d="M 288.505938 72.748563 
L 308.505938 72.748563 
L 308.505938 65.748563 
L 288.505938 65.748563 
z
" style="fill: #ff7f0e; opacity: 0.4"/>
    </g>
    <g id="text_16">
     <!-- 90m, N = 22197 -->
     <g transform="translate(316.505938 72.748563) scale(0.1 -0.1)">
      <defs>
       <path id="DejaVuSans-39" d="M 703 97 
L 703 672 
Q 941 559 1184 500 
Q 1428 441 1663 441 
Q 2288 441 2617 861 
Q 2947 1281 2994 2138 
Q 2813 1869 2534 1725 
Q 2256 1581 1919 1581 
Q 1219 1581 811 2004 
Q 403 2428 403 3163 
Q 403 3881 828 4315 
Q 1253 4750 1959 4750 
Q 2769 4750 3195 4129 
Q 3622 3509 3622 2328 
Q 3622 1225 3098 567 
Q 2575 -91 1691 -91 
Q 1453 -91 1209 -44 
Q 966 3 703 97 
z
M 1959 2075 
Q 2384 2075 2632 2365 
Q 2881 2656 2881 3163 
Q 2881 3666 2632 3958 
Q 2384 4250 1959 4250 
Q 1534 4250 1286 3958 
Q 1038 3666 1038 3163 
Q 1038 2656 1286 2365 
Q 1534 2075 1959 2075 
z
" transform="scale(0.015625)"/>
       <path id="DejaVuSans-37" d="M 525 4666 
L 3525 4666 
L 3525 4397 
L 1831 0 
L 1172 0 
L 2766 4134 
L 525 4134 
L 525 4666 
z
" transform="scale(0.015625)"/>
      </defs>
      <use xlink:href="#DejaVuSans-39"/>
      <use xlink:href="#DejaVuSans-30" x="63.623047"/>
      <use xlink:href="#DejaVuSans-6d" x="127.246094"/>
      <use xlink:href="#DejaVuSans-2c" x="224.658203"/>
      <use xlink:href="#DejaVuSans-20" x="256.445312"/>
      <use xlink:href="#DejaVuSans-4e" x="288.232422"/>
      <use xlink:href="#DejaVuSans-20" x="363.037109"/>
      <use xlink:href="#DejaVuSans-3d" x="394.824219"/>
      <use xlink:href="#DejaVuSans-20" x="478.613281"/>
      <use xlink:href="#DejaVuSans-32" x="510.400391"/>
      <use xlink:href="#DejaVuSans-32" x="574.023438"/>
      <use xlink:href="#DejaVuSans-31" x="637.646484"/>
      <use xlink:href="#DejaVuSans-39" x="701.269531"/>
      <use xlink:href="#DejaVuSans-37" x="764.892578"/>
     </g>
    </g>
    <g id="patch_255">
     <path d="M 288.505938 87.426688 
L 308.505938 87.426688 
L 308.505938 80.426688 
L 288.505938 80.426688 
z
" style="fill: #2ca02c; opacity: 0.4"/>
    </g>
    <g id="text_17">
     <!-- 100m, N = 30444 -->
     <g transform="translate(316.505938 87.426688) scale(0.1 -0.1)">
      <use xlink:href="#DejaVuSans-31"/>
      <use xlink:href="#DejaVuSans-30" x="63.623047"/>
      <use xlink:href="#DejaVuSans-30" x="127.246094"/>
      <use xlink:href="#DejaVuSans-6d" x="190.869141"/>
      <use xlink:href="#DejaVuSans-2c" x="288.28125"/>
      <use xlink:href="#DejaVuSans-20" x="320.068359"/>
      <use xlink:href="#DejaVuSans-4e" x="351.855469"/>
      <use xlink:href="#DejaVuSans-20" x="426.660156"/>
      <use xlink:href="#DejaVuSans-3d" x="458.447266"/>
      <use xlink:href="#DejaVuSans-20" x="542.236328"/>
      <use xlink:href="#DejaVuSans-33" x="574.023438"/>
      <use xlink:href="#DejaVuSans-30" x="637.646484"/>
      <use xlink:href="#DejaVuSans-34" x="701.269531"/>
      <use xlink:href="#DejaVuSans-34" x="764.892578"/>
      <use xlink:href="#DejaVuSans-34" x="828.515625"/>
     </g>
    </g>
    <g id="patch_256">
     <path d="M 288.505938 102.104813 
L 308.505938 102.104813 
L 308.505938 95.104813 
L 288.505938 95.104813 
z
" style="fill: #d62728; opacity: 0.4"/>
    </g>
    <g id="text_18">
     <!-- 110m, N = 36610 -->
     <g transform="translate(316.505938 102.104813) scale(0.1 -0.1)">
      <defs>
       <path id="DejaVuSans-36" d="M 2113 2584 
Q 1688 2584 1439 2293 
Q 1191 2003 1191 1497 
Q 1191 994 1439 701 
Q 1688 409 2113 409 
Q 2538 409 2786 701 
Q 3034 994 3034 1497 
Q 3034 2003 2786 2293 
Q 2538 2584 2113 2584 
z
M 3366 4563 
L 3366 3988 
Q 3128 4100 2886 4159 
Q 2644 4219 2406 4219 
Q 1781 4219 1451 3797 
Q 1122 3375 1075 2522 
Q 1259 2794 1537 2939 
Q 1816 3084 2150 3084 
Q 2853 3084 3261 2657 
Q 3669 2231 3669 1497 
Q 3669 778 3244 343 
Q 2819 -91 2113 -91 
Q 1303 -91 875 529 
Q 447 1150 447 2328 
Q 447 3434 972 4092 
Q 1497 4750 2381 4750 
Q 2619 4750 2861 4703 
Q 3103 4656 3366 4563 
z
" transform="scale(0.015625)"/>
      </defs>
      <use xlink:href="#DejaVuSans-31"/>
      <use xlink:href="#DejaVuSans-31" x="63.623047"/>
      <use xlink:href="#DejaVuSans-30" x="127.246094"/>
      <use xlink:href="#DejaVuSans-6d" x="190.869141"/>
      <use xlink:href="#DejaVuSans-2c" x="288.28125"/>
      <use xlink:href="#DejaVuSans-20" x="320.068359"/>
      <use xlink:href="#DejaVuSans-4e" x="351.855469"/>
      <use xlink:href="#DejaVuSans-20" x="426.660156"/>
      <use xlink:href="#DejaVuSans-3d" x="458.447266"/>
      <use xlink:href="#DejaVuSans-20" x="542.236328"/>
      <use xlink:href="#DejaVuSans-33" x="574.023438"/>
      <use xlink:href="#DejaVuSans-36" x="637.646484"/>
      <use xlink:href="#DejaVuSans-36" x="701.269531"/>
      <use xlink:href="#DejaVuSans-31" x="764.892578"/>
      <use xlink:href="#DejaVuSans-30" x="828.515625"/>
     </g>
    </g>
    <g id="patch_257">
     <path d="M 288.505938 116.782938 
L 308.505938 116.782938 
L 308.505938 109.782938 
L 288.505938 109.782938 
z
" style="fill: #9467bd; opacity: 0.4"/>
    </g>
    <g id="text_19">
     <!-- 140m, N = 31975 -->
     <g transform="translate(316.505938 116.782938) scale(0.1 -0.1)">
      <use xlink:href="#DejaVuSans-31"/>
      <use xlink:href="#DejaVuSans-34" x="63.623047"/>
      <use xlink:href="#DejaVuSans-30" x="127.246094"/>
      <use xlink:href="#DejaVuSans-6d" x="190.869141"/>
      <use xlink:href="#DejaVuSans-2c" x="288.28125"/>
      <use xlink:href="#DejaVuSans-20" x="320.068359"/>
      <use xlink:href="#DejaVuSans-4e" x="351.855469"/>
      <use xlink:href="#DejaVuSans-20" x="426.660156"/>
      <use xlink:href="#DejaVuSans-3d" x="458.447266"/>
      <use xlink:href="#DejaVuSans-20" x="542.236328"/>
      <use xlink:href="#DejaVuSans-33" x="574.023438"/>
      <use xlink:href="#DejaVuSans-31" x="637.646484"/>
      <use xlink:href="#DejaVuSans-39" x="701.269531"/>
      <use xlink:href="#DejaVuSans-37" x="764.892578"/>
      <use xlink:href="#DejaVuSans-35" x="828.515625"/>
     </g>
    </g>
   </g>
  </g>
 </g>
 <defs>
  <clipPath id="pf280f735b4">
   <rect x="57.6" y="41.472" width="357.12" height="266.112"/>
  </clipPath>
 </defs>
</svg>
