<?xml version="1.0" encoding="utf-8" standalone="no"?>
<!DOCTYPE svg PUBLIC "-//W3C//DTD SVG 1.1//EN"
  "http://www.w3.org/Graphics/SVG/1.1/DTD/svg11.dtd">
<svg xmlns:xlink="http://www.w3.org/1999/xlink" width="460.8pt" height="345.6pt" viewBox="0 0 460.8 345.6" xmlns="http://www.w3.org/2000/svg" version="1.1">
 <metadata>
  <rdf:RDF xmlns:dc="http://purl.org/dc/elements/1.1/" xmlns:cc="http://creativecommons.org/ns#" xmlns:rdf="http://www.w3.org/1999/02/22-rdf-syntax-ns#">
   <cc:Work>
    <dc:type rdf:resource="http://purl.org/dc/dcmitype/StillImage"/>
    <dc:date>2024-06-19T20:44:07.251668</dc:date>
    <dc:format>image/svg+xml</dc:format>
    <dc:creator>
     <cc:Agent>
      <dc:title>Matplotlib v3.8.0, https://matplotlib.org/</dc:title>
     </cc:Agent>
    </dc:creator>
   </cc:Work>
  </rdf:RDF>
 </metadata>
 <defs>
  <style type="text/css">*{stroke-linejoin: round; stroke-linecap: butt}</style>
 </defs>
 <g id="figure_1">
  <g id="patch_1">
   <path d="M 0 345.6 
L 460.8 345.6 
L 460.8 0 
L 0 0 
z
" style="fill: #ffffff"/>
  </g>
  <g id="axes_1">
   <g id="patch_2">
    <path d="M 57.6 307.584 
L 414.72 307.584 
L 414.72 41.472 
L 57.6 41.472 
z
" style="fill: #ffffff"/>
   </g>
   <g id="patch_3">
    <path d="M 73.832727 307.584 
L 75.666934 307.584 
L 75.666934 307.235229 
L 73.832727 307.235229 
z
" clip-path="url(#pd03b9b5ecc)" style="fill: #1f77b4"/>
   </g>
   <g id="patch_4">
    <path d="M 75.666934 307.584 
L 77.50114 307.584 
L 77.50114 307.584 
L 75.666934 307.584 
z
" clip-path="url(#pd03b9b5ecc)" style="fill: #1f77b4"/>
   </g>
   <g id="patch_5">
    <path d="M 77.50114 307.584 
L 79.335347 307.584 
L 79.335347 307.293358 
L 77.50114 307.293358 
z
" clip-path="url(#pd03b9b5ecc)" style="fill: #1f77b4"/>
   </g>
   <g id="patch_6">
    <path d="M 79.335347 307.584 
L 81.169553 307.584 
L 81.169553 307.584 
L 79.335347 307.584 
z
" clip-path="url(#pd03b9b5ecc)" style="fill: #1f77b4"/>
   </g>
   <g id="patch_7">
    <path d="M 81.169553 307.584 
L 83.00376 307.584 
L 83.00376 307.584 
L 81.169553 307.584 
z
" clip-path="url(#pd03b9b5ecc)" style="fill: #1f77b4"/>
   </g>
   <g id="patch_8">
    <path d="M 83.00376 307.584 
L 84.837966 307.584 
L 84.837966 307.118972 
L 83.00376 307.118972 
z
" clip-path="url(#pd03b9b5ecc)" style="fill: #1f77b4"/>
   </g>
   <g id="patch_9">
    <path d="M 84.837966 307.584 
L 86.672173 307.584 
L 86.672173 307.584 
L 84.837966 307.584 
z
" clip-path="url(#pd03b9b5ecc)" style="fill: #1f77b4"/>
   </g>
   <g id="patch_10">
    <path d="M 86.672173 307.584 
L 88.506379 307.584 
L 88.506379 307.409615 
L 86.672173 307.409615 
z
" clip-path="url(#pd03b9b5ecc)" style="fill: #1f77b4"/>
   </g>
   <g id="patch_11">
    <path d="M 88.506379 307.584 
L 90.340586 307.584 
L 90.340586 307.584 
L 88.506379 307.584 
z
" clip-path="url(#pd03b9b5ecc)" style="fill: #1f77b4"/>
   </g>
   <g id="patch_12">
    <path d="M 90.340586 307.584 
L 92.174792 307.584 
L 92.174792 307.584 
L 90.340586 307.584 
z
" clip-path="url(#pd03b9b5ecc)" style="fill: #1f77b4"/>
   </g>
   <g id="patch_13">
    <path d="M 92.174792 307.584 
L 94.008998 307.584 
L 94.008998 307.206165 
L 92.174792 307.206165 
z
" clip-path="url(#pd03b9b5ecc)" style="fill: #1f77b4"/>
   </g>
   <g id="patch_14">
    <path d="M 94.008998 307.584 
L 95.843205 307.584 
L 95.843205 307.584 
L 94.008998 307.584 
z
" clip-path="url(#pd03b9b5ecc)" style="fill: #1f77b4"/>
   </g>
   <g id="patch_15">
    <path d="M 95.843205 307.584 
L 97.677411 307.584 
L 97.677411 307.206165 
L 95.843205 307.206165 
z
" clip-path="url(#pd03b9b5ecc)" style="fill: #1f77b4"/>
   </g>
   <g id="patch_16">
    <path d="M 97.677411 307.584 
L 99.511618 307.584 
L 99.511618 307.584 
L 97.677411 307.584 
z
" clip-path="url(#pd03b9b5ecc)" style="fill: #1f77b4"/>
   </g>
   <g id="patch_17">
    <path d="M 99.511618 307.584 
L 101.345824 307.584 
L 101.345824 307.584 
L 99.511618 307.584 
z
" clip-path="url(#pd03b9b5ecc)" style="fill: #1f77b4"/>
   </g>
   <g id="patch_18">
    <path d="M 101.345824 307.584 
L 103.180031 307.584 
L 103.180031 307.177101 
L 101.345824 307.177101 
z
" clip-path="url(#pd03b9b5ecc)" style="fill: #1f77b4"/>
   </g>
   <g id="patch_19">
    <path d="M 103.180031 307.584 
L 105.014237 307.584 
L 105.014237 307.584 
L 103.180031 307.584 
z
" clip-path="url(#pd03b9b5ecc)" style="fill: #1f77b4"/>
   </g>
   <g id="patch_20">
    <path d="M 105.014237 307.584 
L 106.848444 307.584 
L 106.848444 307.235229 
L 105.014237 307.235229 
z
" clip-path="url(#pd03b9b5ecc)" style="fill: #1f77b4"/>
   </g>
   <g id="patch_21">
    <path d="M 106.848444 307.584 
L 108.68265 307.584 
L 108.68265 307.584 
L 106.848444 307.584 
z
" clip-path="url(#pd03b9b5ecc)" style="fill: #1f77b4"/>
   </g>
   <g id="patch_22">
    <path d="M 108.68265 307.584 
L 110.516857 307.584 
L 110.516857 307.584 
L 108.68265 307.584 
z
" clip-path="url(#pd03b9b5ecc)" style="fill: #1f77b4"/>
   </g>
   <g id="patch_23">
    <path d="M 110.516857 307.584 
L 112.351063 307.584 
L 112.351063 307.438679 
L 110.516857 307.438679 
z
" clip-path="url(#pd03b9b5ecc)" style="fill: #1f77b4"/>
   </g>
   <g id="patch_24">
    <path d="M 112.351063 307.584 
L 114.18527 307.584 
L 114.18527 307.584 
L 112.351063 307.584 
z
" clip-path="url(#pd03b9b5ecc)" style="fill: #1f77b4"/>
   </g>
   <g id="patch_25">
    <path d="M 114.18527 307.584 
L 116.019476 307.584 
L 116.019476 307.438679 
L 114.18527 307.438679 
z
" clip-path="url(#pd03b9b5ecc)" style="fill: #1f77b4"/>
   </g>
   <g id="patch_26">
    <path d="M 116.019476 307.584 
L 117.853683 307.584 
L 117.853683 307.584 
L 116.019476 307.584 
z
" clip-path="url(#pd03b9b5ecc)" style="fill: #1f77b4"/>
   </g>
   <g id="patch_27">
    <path d="M 117.853683 307.584 
L 119.687889 307.584 
L 119.687889 307.584 
L 117.853683 307.584 
z
" clip-path="url(#pd03b9b5ecc)" style="fill: #1f77b4"/>
   </g>
   <g id="patch_28">
    <path d="M 119.687889 307.584 
L 121.522096 307.584 
L 121.522096 307.322422 
L 119.687889 307.322422 
z
" clip-path="url(#pd03b9b5ecc)" style="fill: #1f77b4"/>
   </g>
   <g id="patch_29">
    <path d="M 121.522096 307.584 
L 123.356302 307.584 
L 123.356302 307.584 
L 121.522096 307.584 
z
" clip-path="url(#pd03b9b5ecc)" style="fill: #1f77b4"/>
   </g>
   <g id="patch_30">
    <path d="M 123.356302 307.584 
L 125.190508 307.584 
L 125.190508 307.322422 
L 123.356302 307.322422 
z
" clip-path="url(#pd03b9b5ecc)" style="fill: #1f77b4"/>
   </g>
   <g id="patch_31">
    <path d="M 125.190508 307.584 
L 127.024715 307.584 
L 127.024715 307.584 
L 125.190508 307.584 
z
" clip-path="url(#pd03b9b5ecc)" style="fill: #1f77b4"/>
   </g>
   <g id="patch_32">
    <path d="M 127.024715 307.584 
L 128.858921 307.584 
L 128.858921 307.584 
L 127.024715 307.584 
z
" clip-path="url(#pd03b9b5ecc)" style="fill: #1f77b4"/>
   </g>
   <g id="patch_33">
    <path d="M 128.858921 307.584 
L 130.693128 307.584 
L 130.693128 307.322422 
L 128.858921 307.322422 
z
" clip-path="url(#pd03b9b5ecc)" style="fill: #1f77b4"/>
   </g>
   <g id="patch_34">
    <path d="M 130.693128 307.584 
L 132.527334 307.584 
L 132.527334 307.584 
L 130.693128 307.584 
z
" clip-path="url(#pd03b9b5ecc)" style="fill: #1f77b4"/>
   </g>
   <g id="patch_35">
    <path d="M 132.527334 307.584 
L 134.361541 307.584 
L 134.361541 307.496807 
L 132.527334 307.496807 
z
" clip-path="url(#pd03b9b5ecc)" style="fill: #1f77b4"/>
   </g>
   <g id="patch_36">
    <path d="M 134.361541 307.584 
L 136.195747 307.584 
L 136.195747 307.584 
L 134.361541 307.584 
z
" clip-path="url(#pd03b9b5ecc)" style="fill: #1f77b4"/>
   </g>
   <g id="patch_37">
    <path d="M 136.195747 307.584 
L 138.029954 307.584 
L 138.029954 307.584 
L 136.195747 307.584 
z
" clip-path="url(#pd03b9b5ecc)" style="fill: #1f77b4"/>
   </g>
   <g id="patch_38">
    <path d="M 138.029954 307.584 
L 139.86416 307.584 
L 139.86416 307.293358 
L 138.029954 307.293358 
z
" clip-path="url(#pd03b9b5ecc)" style="fill: #1f77b4"/>
   </g>
   <g id="patch_39">
    <path d="M 139.86416 307.584 
L 141.698367 307.584 
L 141.698367 307.584 
L 139.86416 307.584 
z
" clip-path="url(#pd03b9b5ecc)" style="fill: #1f77b4"/>
   </g>
   <g id="patch_40">
    <path d="M 141.698367 307.584 
L 143.532573 307.584 
L 143.532573 307.264294 
L 141.698367 307.264294 
z
" clip-path="url(#pd03b9b5ecc)" style="fill: #1f77b4"/>
   </g>
   <g id="patch_41">
    <path d="M 143.532573 307.584 
L 145.36678 307.584 
L 145.36678 307.584 
L 143.532573 307.584 
z
" clip-path="url(#pd03b9b5ecc)" style="fill: #1f77b4"/>
   </g>
   <g id="patch_42">
    <path d="M 145.36678 307.584 
L 147.200986 307.584 
L 147.200986 307.584 
L 145.36678 307.584 
z
" clip-path="url(#pd03b9b5ecc)" style="fill: #1f77b4"/>
   </g>
   <g id="patch_43">
    <path d="M 147.200986 307.584 
L 149.035193 307.584 
L 149.035193 307.060844 
L 147.200986 307.060844 
z
" clip-path="url(#pd03b9b5ecc)" style="fill: #1f77b4"/>
   </g>
   <g id="patch_44">
    <path d="M 149.035193 307.584 
L 150.869399 307.584 
L 150.869399 307.584 
L 149.035193 307.584 
z
" clip-path="url(#pd03b9b5ecc)" style="fill: #1f77b4"/>
   </g>
   <g id="patch_45">
    <path d="M 150.869399 307.584 
L 152.703606 307.584 
L 152.703606 306.101725 
L 150.869399 306.101725 
z
" clip-path="url(#pd03b9b5ecc)" style="fill: #1f77b4"/>
   </g>
   <g id="patch_46">
    <path d="M 152.703606 307.584 
L 154.537812 307.584 
L 154.537812 307.584 
L 152.703606 307.584 
z
" clip-path="url(#pd03b9b5ecc)" style="fill: #1f77b4"/>
   </g>
   <g id="patch_47">
    <path d="M 154.537812 307.584 
L 156.372018 307.584 
L 156.372018 307.584 
L 154.537812 307.584 
z
" clip-path="url(#pd03b9b5ecc)" style="fill: #1f77b4"/>
   </g>
   <g id="patch_48">
    <path d="M 156.372018 307.584 
L 158.206225 307.584 
L 158.206225 304.997284 
L 156.372018 304.997284 
z
" clip-path="url(#pd03b9b5ecc)" style="fill: #1f77b4"/>
   </g>
   <g id="patch_49">
    <path d="M 158.206225 307.584 
L 160.040431 307.584 
L 160.040431 307.584 
L 158.206225 307.584 
z
" clip-path="url(#pd03b9b5ecc)" style="fill: #1f77b4"/>
   </g>
   <g id="patch_50">
    <path d="M 160.040431 307.584 
L 161.874638 307.584 
L 161.874638 301.858349 
L 160.040431 301.858349 
z
" clip-path="url(#pd03b9b5ecc)" style="fill: #1f77b4"/>
   </g>
   <g id="patch_51">
    <path d="M 161.874638 307.584 
L 163.708844 307.584 
L 163.708844 307.584 
L 161.874638 307.584 
z
" clip-path="url(#pd03b9b5ecc)" style="fill: #1f77b4"/>
   </g>
   <g id="patch_52">
    <path d="M 163.708844 307.584 
L 165.543051 307.584 
L 165.543051 307.584 
L 163.708844 307.584 
z
" clip-path="url(#pd03b9b5ecc)" style="fill: #1f77b4"/>
   </g>
   <g id="patch_53">
    <path d="M 165.543051 307.584 
L 167.377257 307.584 
L 167.377257 297.295266 
L 165.543051 297.295266 
z
" clip-path="url(#pd03b9b5ecc)" style="fill: #1f77b4"/>
   </g>
   <g id="patch_54">
    <path d="M 167.377257 307.584 
L 169.211464 307.584 
L 169.211464 307.584 
L 167.377257 307.584 
z
" clip-path="url(#pd03b9b5ecc)" style="fill: #1f77b4"/>
   </g>
   <g id="patch_55">
    <path d="M 169.211464 307.584 
L 171.04567 307.584 
L 171.04567 286.250862 
L 169.211464 286.250862 
z
" clip-path="url(#pd03b9b5ecc)" style="fill: #1f77b4"/>
   </g>
   <g id="patch_56">
    <path d="M 171.04567 307.584 
L 172.879877 307.584 
L 172.879877 307.584 
L 171.04567 307.584 
z
" clip-path="url(#pd03b9b5ecc)" style="fill: #1f77b4"/>
   </g>
   <g id="patch_57">
    <path d="M 172.879877 307.584 
L 174.714083 307.584 
L 174.714083 307.584 
L 172.879877 307.584 
z
" clip-path="url(#pd03b9b5ecc)" style="fill: #1f77b4"/>
   </g>
   <g id="patch_58">
    <path d="M 174.714083 307.584 
L 176.54829 307.584 
L 176.54829 278.345394 
L 174.714083 278.345394 
z
" clip-path="url(#pd03b9b5ecc)" style="fill: #1f77b4"/>
   </g>
   <g id="patch_59">
    <path d="M 176.54829 307.584 
L 178.382496 307.584 
L 178.382496 307.584 
L 176.54829 307.584 
z
" clip-path="url(#pd03b9b5ecc)" style="fill: #1f77b4"/>
   </g>
   <g id="patch_60">
    <path d="M 178.382496 307.584 
L 180.216703 307.584 
L 180.216703 266.022165 
L 178.382496 266.022165 
z
" clip-path="url(#pd03b9b5ecc)" style="fill: #1f77b4"/>
   </g>
   <g id="patch_61">
    <path d="M 180.216703 307.584 
L 182.050909 307.584 
L 182.050909 307.584 
L 180.216703 307.584 
z
" clip-path="url(#pd03b9b5ecc)" style="fill: #1f77b4"/>
   </g>
   <g id="patch_62">
    <path d="M 182.050909 307.584 
L 183.885116 307.584 
L 183.885116 307.584 
L 182.050909 307.584 
z
" clip-path="url(#pd03b9b5ecc)" style="fill: #1f77b4"/>
   </g>
   <g id="patch_63">
    <path d="M 183.885116 307.584 
L 185.719322 307.584 
L 185.719322 257.826055 
L 183.885116 257.826055 
z
" clip-path="url(#pd03b9b5ecc)" style="fill: #1f77b4"/>
   </g>
   <g id="patch_64">
    <path d="M 185.719322 307.584 
L 187.553529 307.584 
L 187.553529 307.584 
L 185.719322 307.584 
z
" clip-path="url(#pd03b9b5ecc)" style="fill: #1f77b4"/>
   </g>
   <g id="patch_65">
    <path d="M 187.553529 307.584 
L 189.387735 307.584 
L 189.387735 243.061431 
L 187.553529 243.061431 
z
" clip-path="url(#pd03b9b5ecc)" style="fill: #1f77b4"/>
   </g>
   <g id="patch_66">
    <path d="M 189.387735 307.584 
L 191.221941 307.584 
L 191.221941 307.584 
L 189.387735 307.584 
z
" clip-path="url(#pd03b9b5ecc)" style="fill: #1f77b4"/>
   </g>
   <g id="patch_67">
    <path d="M 191.221941 307.584 
L 193.056148 307.584 
L 193.056148 307.584 
L 191.221941 307.584 
z
" clip-path="url(#pd03b9b5ecc)" style="fill: #1f77b4"/>
   </g>
   <g id="patch_68">
    <path d="M 193.056148 307.584 
L 194.890354 307.584 
L 194.890354 235.766312 
L 193.056148 235.766312 
z
" clip-path="url(#pd03b9b5ecc)" style="fill: #1f77b4"/>
   </g>
   <g id="patch_69">
    <path d="M 194.890354 307.584 
L 196.724561 307.584 
L 196.724561 307.584 
L 194.890354 307.584 
z
" clip-path="url(#pd03b9b5ecc)" style="fill: #1f77b4"/>
   </g>
   <g id="patch_70">
    <path d="M 196.724561 307.584 
L 198.558767 307.584 
L 198.558767 218.095266 
L 196.724561 218.095266 
z
" clip-path="url(#pd03b9b5ecc)" style="fill: #1f77b4"/>
   </g>
   <g id="patch_71">
    <path d="M 198.558767 307.584 
L 200.392974 307.584 
L 200.392974 307.584 
L 198.558767 307.584 
z
" clip-path="url(#pd03b9b5ecc)" style="fill: #1f77b4"/>
   </g>
   <g id="patch_72">
    <path d="M 200.392974 307.584 
L 202.22718 307.584 
L 202.22718 307.584 
L 200.392974 307.584 
z
" clip-path="url(#pd03b9b5ecc)" style="fill: #1f77b4"/>
   </g>
   <g id="patch_73">
    <path d="M 202.22718 307.584 
L 204.061387 307.584 
L 204.061387 217.891817 
L 202.22718 217.891817 
z
" clip-path="url(#pd03b9b5ecc)" style="fill: #1f77b4"/>
   </g>
   <g id="patch_74">
    <path d="M 204.061387 307.584 
L 205.895593 307.584 
L 205.895593 307.584 
L 204.061387 307.584 
z
" clip-path="url(#pd03b9b5ecc)" style="fill: #1f77b4"/>
   </g>
   <g id="patch_75">
    <path d="M 205.895593 307.584 
L 207.7298 307.584 
L 207.7298 209.143486 
L 205.895593 209.143486 
z
" clip-path="url(#pd03b9b5ecc)" style="fill: #1f77b4"/>
   </g>
   <g id="patch_76">
    <path d="M 207.7298 307.584 
L 209.564006 307.584 
L 209.564006 307.584 
L 207.7298 307.584 
z
" clip-path="url(#pd03b9b5ecc)" style="fill: #1f77b4"/>
   </g>
   <g id="patch_77">
    <path d="M 209.564006 307.584 
L 211.398213 307.584 
L 211.398213 307.584 
L 209.564006 307.584 
z
" clip-path="url(#pd03b9b5ecc)" style="fill: #1f77b4"/>
   </g>
   <g id="patch_78">
    <path d="M 211.398213 307.584 
L 213.232419 307.584 
L 213.232419 211.032661 
L 211.398213 211.032661 
z
" clip-path="url(#pd03b9b5ecc)" style="fill: #1f77b4"/>
   </g>
   <g id="patch_79">
    <path d="M 213.232419 307.584 
L 215.066626 307.584 
L 215.066626 307.584 
L 213.232419 307.584 
z
" clip-path="url(#pd03b9b5ecc)" style="fill: #1f77b4"/>
   </g>
   <g id="patch_80">
    <path d="M 215.066626 307.584 
L 216.900832 307.584 
L 216.900832 196.674936 
L 215.066626 196.674936 
z
" clip-path="url(#pd03b9b5ecc)" style="fill: #1f77b4"/>
   </g>
   <g id="patch_81">
    <path d="M 216.900832 307.584 
L 218.735039 307.584 
L 218.735039 307.584 
L 216.900832 307.584 
z
" clip-path="url(#pd03b9b5ecc)" style="fill: #1f77b4"/>
   </g>
   <g id="patch_82">
    <path d="M 218.735039 307.584 
L 220.569245 307.584 
L 220.569245 307.584 
L 218.735039 307.584 
z
" clip-path="url(#pd03b9b5ecc)" style="fill: #1f77b4"/>
   </g>
   <g id="patch_83">
    <path d="M 220.569245 307.584 
L 222.403451 307.584 
L 222.403451 193.942899 
L 220.569245 193.942899 
z
" clip-path="url(#pd03b9b5ecc)" style="fill: #1f77b4"/>
   </g>
   <g id="patch_84">
    <path d="M 222.403451 307.584 
L 224.237658 307.584 
L 224.237658 307.584 
L 222.403451 307.584 
z
" clip-path="url(#pd03b9b5ecc)" style="fill: #1f77b4"/>
   </g>
   <g id="patch_85">
    <path d="M 224.237658 307.584 
L 226.071864 307.584 
L 226.071864 166.680661 
L 224.237658 166.680661 
z
" clip-path="url(#pd03b9b5ecc)" style="fill: #1f77b4"/>
   </g>
   <g id="patch_86">
    <path d="M 226.071864 307.584 
L 227.906071 307.584 
L 227.906071 307.584 
L 226.071864 307.584 
z
" clip-path="url(#pd03b9b5ecc)" style="fill: #1f77b4"/>
   </g>
   <g id="patch_87">
    <path d="M 227.906071 307.584 
L 229.740277 307.584 
L 229.740277 307.584 
L 227.906071 307.584 
z
" clip-path="url(#pd03b9b5ecc)" style="fill: #1f77b4"/>
   </g>
   <g id="patch_88">
    <path d="M 229.740277 307.584 
L 231.574484 307.584 
L 231.574484 147.847046 
L 229.740277 147.847046 
z
" clip-path="url(#pd03b9b5ecc)" style="fill: #1f77b4"/>
   </g>
   <g id="patch_89">
    <path d="M 231.574484 307.584 
L 233.40869 307.584 
L 233.40869 307.584 
L 231.574484 307.584 
z
" clip-path="url(#pd03b9b5ecc)" style="fill: #1f77b4"/>
   </g>
   <g id="patch_90">
    <path d="M 233.40869 307.584 
L 235.242897 307.584 
L 235.242897 91.171817 
L 233.40869 91.171817 
z
" clip-path="url(#pd03b9b5ecc)" style="fill: #1f77b4"/>
   </g>
   <g id="patch_91">
    <path d="M 235.242897 307.584 
L 237.077103 307.584 
L 237.077103 307.584 
L 235.242897 307.584 
z
" clip-path="url(#pd03b9b5ecc)" style="fill: #1f77b4"/>
   </g>
   <g id="patch_92">
    <path d="M 237.077103 307.584 
L 238.91131 307.584 
L 238.91131 307.584 
L 237.077103 307.584 
z
" clip-path="url(#pd03b9b5ecc)" style="fill: #1f77b4"/>
   </g>
   <g id="patch_93">
    <path d="M 238.91131 307.584 
L 240.745516 307.584 
L 240.745516 92.334385 
L 238.91131 92.334385 
z
" clip-path="url(#pd03b9b5ecc)" style="fill: #1f77b4"/>
   </g>
   <g id="patch_94">
    <path d="M 240.745516 307.584 
L 242.579723 307.584 
L 242.579723 307.584 
L 240.745516 307.584 
z
" clip-path="url(#pd03b9b5ecc)" style="fill: #1f77b4"/>
   </g>
   <g id="patch_95">
    <path d="M 242.579723 307.584 
L 244.413929 307.584 
L 244.413929 80.214606 
L 242.579723 80.214606 
z
" clip-path="url(#pd03b9b5ecc)" style="fill: #1f77b4"/>
   </g>
   <g id="patch_96">
    <path d="M 244.413929 307.584 
L 246.248136 307.584 
L 246.248136 307.584 
L 244.413929 307.584 
z
" clip-path="url(#pd03b9b5ecc)" style="fill: #1f77b4"/>
   </g>
   <g id="patch_97">
    <path d="M 246.248136 307.584 
L 248.082342 307.584 
L 248.082342 307.584 
L 246.248136 307.584 
z
" clip-path="url(#pd03b9b5ecc)" style="fill: #1f77b4"/>
   </g>
   <g id="patch_98">
    <path d="M 248.082342 307.584 
L 249.916549 307.584 
L 249.916549 114.074422 
L 248.082342 114.074422 
z
" clip-path="url(#pd03b9b5ecc)" style="fill: #1f77b4"/>
   </g>
   <g id="patch_99">
    <path d="M 249.916549 307.584 
L 251.750755 307.584 
L 251.750755 307.584 
L 249.916549 307.584 
z
" clip-path="url(#pd03b9b5ecc)" style="fill: #1f77b4"/>
   </g>
   <g id="patch_100">
    <path d="M 251.750755 307.584 
L 253.584961 307.584 
L 253.584961 111.37145 
L 251.750755 111.37145 
z
" clip-path="url(#pd03b9b5ecc)" style="fill: #1f77b4"/>
   </g>
   <g id="patch_101">
    <path d="M 253.584961 307.584 
L 255.419168 307.584 
L 255.419168 307.584 
L 253.584961 307.584 
z
" clip-path="url(#pd03b9b5ecc)" style="fill: #1f77b4"/>
   </g>
   <g id="patch_102">
    <path d="M 255.419168 307.584 
L 257.253374 307.584 
L 257.253374 307.584 
L 255.419168 307.584 
z
" clip-path="url(#pd03b9b5ecc)" style="fill: #1f77b4"/>
   </g>
   <g id="patch_103">
    <path d="M 257.253374 307.584 
L 259.087581 307.584 
L 259.087581 111.313321 
L 257.253374 111.313321 
z
" clip-path="url(#pd03b9b5ecc)" style="fill: #1f77b4"/>
   </g>
   <g id="patch_104">
    <path d="M 259.087581 307.584 
L 260.921787 307.584 
L 260.921787 307.584 
L 259.087581 307.584 
z
" clip-path="url(#pd03b9b5ecc)" style="fill: #1f77b4"/>
   </g>
   <g id="patch_105">
    <path d="M 260.921787 307.584 
L 262.755994 307.584 
L 262.755994 74.750532 
L 260.921787 74.750532 
z
" clip-path="url(#pd03b9b5ecc)" style="fill: #1f77b4"/>
   </g>
   <g id="patch_106">
    <path d="M 262.755994 307.584 
L 264.5902 307.584 
L 264.5902 307.584 
L 262.755994 307.584 
z
" clip-path="url(#pd03b9b5ecc)" style="fill: #1f77b4"/>
   </g>
   <g id="patch_107">
    <path d="M 264.5902 307.584 
L 266.424407 307.584 
L 266.424407 307.584 
L 264.5902 307.584 
z
" clip-path="url(#pd03b9b5ecc)" style="fill: #1f77b4"/>
   </g>
   <g id="patch_108">
    <path d="M 266.424407 307.584 
L 268.258613 307.584 
L 268.258613 73.965798 
L 266.424407 73.965798 
z
" clip-path="url(#pd03b9b5ecc)" style="fill: #1f77b4"/>
   </g>
   <g id="patch_109">
    <path d="M 268.258613 307.584 
L 270.09282 307.584 
L 270.09282 307.584 
L 268.258613 307.584 
z
" clip-path="url(#pd03b9b5ecc)" style="fill: #1f77b4"/>
   </g>
   <g id="patch_110">
    <path d="M 270.09282 307.584 
L 271.927026 307.584 
L 271.927026 54.144 
L 270.09282 54.144 
z
" clip-path="url(#pd03b9b5ecc)" style="fill: #1f77b4"/>
   </g>
   <g id="patch_111">
    <path d="M 271.927026 307.584 
L 273.761233 307.584 
L 273.761233 307.584 
L 271.927026 307.584 
z
" clip-path="url(#pd03b9b5ecc)" style="fill: #1f77b4"/>
   </g>
   <g id="patch_112">
    <path d="M 273.761233 307.584 
L 275.595439 307.584 
L 275.595439 307.584 
L 273.761233 307.584 
z
" clip-path="url(#pd03b9b5ecc)" style="fill: #1f77b4"/>
   </g>
   <g id="patch_113">
    <path d="M 275.595439 307.584 
L 277.429646 307.584 
L 277.429646 107.360587 
L 275.595439 107.360587 
z
" clip-path="url(#pd03b9b5ecc)" style="fill: #1f77b4"/>
   </g>
   <g id="patch_114">
    <path d="M 277.429646 307.584 
L 279.263852 307.584 
L 279.263852 307.584 
L 277.429646 307.584 
z
" clip-path="url(#pd03b9b5ecc)" style="fill: #1f77b4"/>
   </g>
   <g id="patch_115">
    <path d="M 279.263852 307.584 
L 281.098059 307.584 
L 281.098059 151.073174 
L 279.263852 151.073174 
z
" clip-path="url(#pd03b9b5ecc)" style="fill: #1f77b4"/>
   </g>
   <g id="patch_116">
    <path d="M 281.098059 307.584 
L 282.932265 307.584 
L 282.932265 307.584 
L 281.098059 307.584 
z
" clip-path="url(#pd03b9b5ecc)" style="fill: #1f77b4"/>
   </g>
   <g id="patch_117">
    <path d="M 282.932265 307.584 
L 284.766471 307.584 
L 284.766471 307.584 
L 282.932265 307.584 
z
" clip-path="url(#pd03b9b5ecc)" style="fill: #1f77b4"/>
   </g>
   <g id="patch_118">
    <path d="M 284.766471 307.584 
L 286.600678 307.584 
L 286.600678 204.406018 
L 284.766471 204.406018 
z
" clip-path="url(#pd03b9b5ecc)" style="fill: #1f77b4"/>
   </g>
   <g id="patch_119">
    <path d="M 286.600678 307.584 
L 288.434884 307.584 
L 288.434884 307.584 
L 286.600678 307.584 
z
" clip-path="url(#pd03b9b5ecc)" style="fill: #1f77b4"/>
   </g>
   <g id="patch_120">
    <path d="M 288.434884 307.584 
L 290.269091 307.584 
L 290.269091 219.112514 
L 288.434884 219.112514 
z
" clip-path="url(#pd03b9b5ecc)" style="fill: #1f77b4"/>
   </g>
   <g id="patch_121">
    <path d="M 290.269091 307.584 
L 292.103297 307.584 
L 292.103297 307.584 
L 290.269091 307.584 
z
" clip-path="url(#pd03b9b5ecc)" style="fill: #1f77b4"/>
   </g>
   <g id="patch_122">
    <path d="M 292.103297 307.584 
L 293.937504 307.584 
L 293.937504 307.584 
L 292.103297 307.584 
z
" clip-path="url(#pd03b9b5ecc)" style="fill: #1f77b4"/>
   </g>
   <g id="patch_123">
    <path d="M 293.937504 307.584 
L 295.77171 307.584 
L 295.77171 237.219523 
L 293.937504 237.219523 
z
" clip-path="url(#pd03b9b5ecc)" style="fill: #1f77b4"/>
   </g>
   <g id="patch_124">
    <path d="M 295.77171 307.584 
L 297.605917 307.584 
L 297.605917 307.584 
L 295.77171 307.584 
z
" clip-path="url(#pd03b9b5ecc)" style="fill: #1f77b4"/>
   </g>
   <g id="patch_125">
    <path d="M 297.605917 307.584 
L 299.440123 307.584 
L 299.440123 264.685211 
L 297.605917 264.685211 
z
" clip-path="url(#pd03b9b5ecc)" style="fill: #1f77b4"/>
   </g>
   <g id="patch_126">
    <path d="M 299.440123 307.584 
L 301.27433 307.584 
L 301.27433 307.584 
L 299.440123 307.584 
z
" clip-path="url(#pd03b9b5ecc)" style="fill: #1f77b4"/>
   </g>
   <g id="patch_127">
    <path d="M 301.27433 307.584 
L 303.108536 307.584 
L 303.108536 307.584 
L 301.27433 307.584 
z
" clip-path="url(#pd03b9b5ecc)" style="fill: #1f77b4"/>
   </g>
   <g id="patch_128">
    <path d="M 303.108536 307.584 
L 304.942743 307.584 
L 304.942743 286.018349 
L 303.108536 286.018349 
z
" clip-path="url(#pd03b9b5ecc)" style="fill: #1f77b4"/>
   </g>
   <g id="patch_129">
    <path d="M 304.942743 307.584 
L 306.776949 307.584 
L 306.776949 307.584 
L 304.942743 307.584 
z
" clip-path="url(#pd03b9b5ecc)" style="fill: #1f77b4"/>
   </g>
   <g id="patch_130">
    <path d="M 306.776949 307.584 
L 308.611156 307.584 
L 308.611156 295.900183 
L 306.776949 295.900183 
z
" clip-path="url(#pd03b9b5ecc)" style="fill: #1f77b4"/>
   </g>
   <g id="patch_131">
    <path d="M 308.611156 307.584 
L 310.445362 307.584 
L 310.445362 307.584 
L 308.611156 307.584 
z
" clip-path="url(#pd03b9b5ecc)" style="fill: #1f77b4"/>
   </g>
   <g id="patch_132">
    <path d="M 310.445362 307.584 
L 312.279569 307.584 
L 312.279569 307.584 
L 310.445362 307.584 
z
" clip-path="url(#pd03b9b5ecc)" style="fill: #1f77b4"/>
   </g>
   <g id="patch_133">
    <path d="M 312.279569 307.584 
L 314.113775 307.584 
L 314.113775 303.834716 
L 312.279569 303.834716 
z
" clip-path="url(#pd03b9b5ecc)" style="fill: #1f77b4"/>
   </g>
   <g id="patch_134">
    <path d="M 314.113775 307.584 
L 315.947982 307.584 
L 315.947982 307.584 
L 314.113775 307.584 
z
" clip-path="url(#pd03b9b5ecc)" style="fill: #1f77b4"/>
   </g>
   <g id="patch_135">
    <path d="M 315.947982 307.584 
L 317.782188 307.584 
L 317.782188 306.334239 
L 315.947982 306.334239 
z
" clip-path="url(#pd03b9b5ecc)" style="fill: #1f77b4"/>
   </g>
   <g id="patch_136">
    <path d="M 317.782188 307.584 
L 319.616394 307.584 
L 319.616394 307.584 
L 317.782188 307.584 
z
" clip-path="url(#pd03b9b5ecc)" style="fill: #1f77b4"/>
   </g>
   <g id="patch_137">
    <path d="M 319.616394 307.584 
L 321.450601 307.584 
L 321.450601 307.584 
L 319.616394 307.584 
z
" clip-path="url(#pd03b9b5ecc)" style="fill: #1f77b4"/>
   </g>
   <g id="patch_138">
    <path d="M 321.450601 307.584 
L 323.284807 307.584 
L 323.284807 307.148037 
L 321.450601 307.148037 
z
" clip-path="url(#pd03b9b5ecc)" style="fill: #1f77b4"/>
   </g>
   <g id="patch_139">
    <path d="M 323.284807 307.584 
L 325.119014 307.584 
L 325.119014 307.584 
L 323.284807 307.584 
z
" clip-path="url(#pd03b9b5ecc)" style="fill: #1f77b4"/>
   </g>
   <g id="patch_140">
    <path d="M 325.119014 307.584 
L 326.95322 307.584 
L 326.95322 307.38055 
L 325.119014 307.38055 
z
" clip-path="url(#pd03b9b5ecc)" style="fill: #1f77b4"/>
   </g>
   <g id="patch_141">
    <path d="M 326.95322 307.584 
L 328.787427 307.584 
L 328.787427 307.584 
L 326.95322 307.584 
z
" clip-path="url(#pd03b9b5ecc)" style="fill: #1f77b4"/>
   </g>
   <g id="patch_142">
    <path d="M 328.787427 307.584 
L 330.621633 307.584 
L 330.621633 307.584 
L 328.787427 307.584 
z
" clip-path="url(#pd03b9b5ecc)" style="fill: #1f77b4"/>
   </g>
   <g id="patch_143">
    <path d="M 330.621633 307.584 
L 332.45584 307.584 
L 332.45584 307.496807 
L 330.621633 307.496807 
z
" clip-path="url(#pd03b9b5ecc)" style="fill: #1f77b4"/>
   </g>
   <g id="patch_144">
    <path d="M 332.45584 307.584 
L 334.290046 307.584 
L 334.290046 307.584 
L 332.45584 307.584 
z
" clip-path="url(#pd03b9b5ecc)" style="fill: #1f77b4"/>
   </g>
   <g id="patch_145">
    <path d="M 334.290046 307.584 
L 336.124253 307.584 
L 336.124253 307.351486 
L 334.290046 307.351486 
z
" clip-path="url(#pd03b9b5ecc)" style="fill: #1f77b4"/>
   </g>
   <g id="patch_146">
    <path d="M 336.124253 307.584 
L 337.958459 307.584 
L 337.958459 307.584 
L 336.124253 307.584 
z
" clip-path="url(#pd03b9b5ecc)" style="fill: #1f77b4"/>
   </g>
   <g id="patch_147">
    <path d="M 337.958459 307.584 
L 339.792666 307.584 
L 339.792666 307.584 
L 337.958459 307.584 
z
" clip-path="url(#pd03b9b5ecc)" style="fill: #1f77b4"/>
   </g>
   <g id="patch_148">
    <path d="M 339.792666 307.584 
L 341.626872 307.584 
L 341.626872 307.467743 
L 339.792666 307.467743 
z
" clip-path="url(#pd03b9b5ecc)" style="fill: #1f77b4"/>
   </g>
   <g id="patch_149">
    <path d="M 341.626872 307.584 
L 343.461079 307.584 
L 343.461079 307.584 
L 341.626872 307.584 
z
" clip-path="url(#pd03b9b5ecc)" style="fill: #1f77b4"/>
   </g>
   <g id="patch_150">
    <path d="M 343.461079 307.584 
L 345.295285 307.584 
L 345.295285 307.525872 
L 343.461079 307.525872 
z
" clip-path="url(#pd03b9b5ecc)" style="fill: #1f77b4"/>
   </g>
   <g id="patch_151">
    <path d="M 345.295285 307.584 
L 347.129492 307.584 
L 347.129492 307.584 
L 345.295285 307.584 
z
" clip-path="url(#pd03b9b5ecc)" style="fill: #1f77b4"/>
   </g>
   <g id="patch_152">
    <path d="M 347.129492 307.584 
L 348.963698 307.584 
L 348.963698 307.584 
L 347.129492 307.584 
z
" clip-path="url(#pd03b9b5ecc)" style="fill: #1f77b4"/>
   </g>
   <g id="patch_153">
    <path d="M 348.963698 307.584 
L 350.797904 307.584 
L 350.797904 307.467743 
L 348.963698 307.467743 
z
" clip-path="url(#pd03b9b5ecc)" style="fill: #1f77b4"/>
   </g>
   <g id="patch_154">
    <path d="M 350.797904 307.584 
L 352.632111 307.584 
L 352.632111 307.584 
L 350.797904 307.584 
z
" clip-path="url(#pd03b9b5ecc)" style="fill: #1f77b4"/>
   </g>
   <g id="patch_155">
    <path d="M 352.632111 307.584 
L 354.466317 307.584 
L 354.466317 307.554936 
L 352.632111 307.554936 
z
" clip-path="url(#pd03b9b5ecc)" style="fill: #1f77b4"/>
   </g>
   <g id="patch_156">
    <path d="M 354.466317 307.584 
L 356.300524 307.584 
L 356.300524 307.584 
L 354.466317 307.584 
z
" clip-path="url(#pd03b9b5ecc)" style="fill: #1f77b4"/>
   </g>
   <g id="patch_157">
    <path d="M 356.300524 307.584 
L 358.13473 307.584 
L 358.13473 307.584 
L 356.300524 307.584 
z
" clip-path="url(#pd03b9b5ecc)" style="fill: #1f77b4"/>
   </g>
   <g id="patch_158">
    <path d="M 358.13473 307.584 
L 359.968937 307.584 
L 359.968937 307.467743 
L 358.13473 307.467743 
z
" clip-path="url(#pd03b9b5ecc)" style="fill: #1f77b4"/>
   </g>
   <g id="patch_159">
    <path d="M 359.968937 307.584 
L 361.803143 307.584 
L 361.803143 307.584 
L 359.968937 307.584 
z
" clip-path="url(#pd03b9b5ecc)" style="fill: #1f77b4"/>
   </g>
   <g id="patch_160">
    <path d="M 361.803143 307.584 
L 363.63735 307.584 
L 363.63735 307.409615 
L 361.803143 307.409615 
z
" clip-path="url(#pd03b9b5ecc)" style="fill: #1f77b4"/>
   </g>
   <g id="patch_161">
    <path d="M 363.63735 307.584 
L 365.471556 307.584 
L 365.471556 307.584 
L 363.63735 307.584 
z
" clip-path="url(#pd03b9b5ecc)" style="fill: #1f77b4"/>
   </g>
   <g id="patch_162">
    <path d="M 365.471556 307.584 
L 367.305763 307.584 
L 367.305763 307.584 
L 365.471556 307.584 
z
" clip-path="url(#pd03b9b5ecc)" style="fill: #1f77b4"/>
   </g>
   <g id="patch_163">
    <path d="M 367.305763 307.584 
L 369.139969 307.584 
L 369.139969 307.322422 
L 367.305763 307.322422 
z
" clip-path="url(#pd03b9b5ecc)" style="fill: #1f77b4"/>
   </g>
   <g id="patch_164">
    <path d="M 369.139969 307.584 
L 370.974176 307.584 
L 370.974176 307.584 
L 369.139969 307.584 
z
" clip-path="url(#pd03b9b5ecc)" style="fill: #1f77b4"/>
   </g>
   <g id="patch_165">
    <path d="M 370.974176 307.584 
L 372.808382 307.584 
L 372.808382 307.206165 
L 370.974176 307.206165 
z
" clip-path="url(#pd03b9b5ecc)" style="fill: #1f77b4"/>
   </g>
   <g id="patch_166">
    <path d="M 372.808382 307.584 
L 374.642589 307.584 
L 374.642589 307.584 
L 372.808382 307.584 
z
" clip-path="url(#pd03b9b5ecc)" style="fill: #1f77b4"/>
   </g>
   <g id="patch_167">
    <path d="M 374.642589 307.584 
L 376.476795 307.584 
L 376.476795 307.584 
L 374.642589 307.584 
z
" clip-path="url(#pd03b9b5ecc)" style="fill: #1f77b4"/>
   </g>
   <g id="patch_168">
    <path d="M 376.476795 307.584 
L 378.311002 307.584 
L 378.311002 307.293358 
L 376.476795 307.293358 
z
" clip-path="url(#pd03b9b5ecc)" style="fill: #1f77b4"/>
   </g>
   <g id="patch_169">
    <path d="M 378.311002 307.584 
L 380.145208 307.584 
L 380.145208 307.584 
L 378.311002 307.584 
z
" clip-path="url(#pd03b9b5ecc)" style="fill: #1f77b4"/>
   </g>
   <g id="patch_170">
    <path d="M 380.145208 307.584 
L 381.979414 307.584 
L 381.979414 307.206165 
L 380.145208 307.206165 
z
" clip-path="url(#pd03b9b5ecc)" style="fill: #1f77b4"/>
   </g>
   <g id="patch_171">
    <path d="M 381.979414 307.584 
L 383.813621 307.584 
L 383.813621 307.584 
L 381.979414 307.584 
z
" clip-path="url(#pd03b9b5ecc)" style="fill: #1f77b4"/>
   </g>
   <g id="patch_172">
    <path d="M 383.813621 307.584 
L 385.647827 307.584 
L 385.647827 307.584 
L 383.813621 307.584 
z
" clip-path="url(#pd03b9b5ecc)" style="fill: #1f77b4"/>
   </g>
   <g id="patch_173">
    <path d="M 385.647827 307.584 
L 387.482034 307.584 
L 387.482034 307.177101 
L 385.647827 307.177101 
z
" clip-path="url(#pd03b9b5ecc)" style="fill: #1f77b4"/>
   </g>
   <g id="patch_174">
    <path d="M 387.482034 307.584 
L 389.31624 307.584 
L 389.31624 307.584 
L 387.482034 307.584 
z
" clip-path="url(#pd03b9b5ecc)" style="fill: #1f77b4"/>
   </g>
   <g id="patch_175">
    <path d="M 389.31624 307.584 
L 391.150447 307.584 
L 391.150447 306.886459 
L 389.31624 306.886459 
z
" clip-path="url(#pd03b9b5ecc)" style="fill: #1f77b4"/>
   </g>
   <g id="patch_176">
    <path d="M 391.150447 307.584 
L 392.984653 307.584 
L 392.984653 307.584 
L 391.150447 307.584 
z
" clip-path="url(#pd03b9b5ecc)" style="fill: #1f77b4"/>
   </g>
   <g id="patch_177">
    <path d="M 392.984653 307.584 
L 394.81886 307.584 
L 394.81886 307.584 
L 392.984653 307.584 
z
" clip-path="url(#pd03b9b5ecc)" style="fill: #1f77b4"/>
   </g>
   <g id="patch_178">
    <path d="M 394.81886 307.584 
L 396.653066 307.584 
L 396.653066 306.770202 
L 394.81886 306.770202 
z
" clip-path="url(#pd03b9b5ecc)" style="fill: #1f77b4"/>
   </g>
   <g id="patch_179">
    <path d="M 396.653066 307.584 
L 398.487273 307.584 
L 398.487273 307.584 
L 396.653066 307.584 
z
" clip-path="url(#pd03b9b5ecc)" style="fill: #1f77b4"/>
   </g>
   <g id="matplotlib.axis_1">
    <g id="xtick_1">
     <g id="line2d_1">
      <defs>
       <path id="mcbca03bf33" d="M 0 0 
L 0 3.5 
" style="stroke: #000000; stroke-width: 0.8"/>
      </defs>
      <g>
       <use xlink:href="#mcbca03bf33" x="98.594515" y="307.584" style="stroke: #000000; stroke-width: 0.8"/>
      </g>
     </g>
     <g id="text_1">
      <!-- −150 -->
      <g transform="translate(84.860921 322.182437) scale(0.1 -0.1)">
       <defs>
        <path id="DejaVuSans-2212" d="M 678 2272 
L 4684 2272 
L 4684 1741 
L 678 1741 
L 678 2272 
z
" transform="scale(0.015625)"/>
        <path id="DejaVuSans-31" d="M 794 531 
L 1825 531 
L 1825 4091 
L 703 3866 
L 703 4441 
L 1819 4666 
L 2450 4666 
L 2450 531 
L 3481 531 
L 3481 0 
L 794 0 
L 794 531 
z
" transform="scale(0.015625)"/>
        <path id="DejaVuSans-35" d="M 691 4666 
L 3169 4666 
L 3169 4134 
L 1269 4134 
L 1269 2991 
Q 1406 3038 1543 3061 
Q 1681 3084 1819 3084 
Q 2600 3084 3056 2656 
Q 3513 2228 3513 1497 
Q 3513 744 3044 326 
Q 2575 -91 1722 -91 
Q 1428 -91 1123 -41 
Q 819 9 494 109 
L 494 744 
Q 775 591 1075 516 
Q 1375 441 1709 441 
Q 2250 441 2565 725 
Q 2881 1009 2881 1497 
Q 2881 1984 2565 2268 
Q 2250 2553 1709 2553 
Q 1456 2553 1204 2497 
Q 953 2441 691 2322 
L 691 4666 
z
" transform="scale(0.015625)"/>
        <path id="DejaVuSans-30" d="M 2034 4250 
Q 1547 4250 1301 3770 
Q 1056 3291 1056 2328 
Q 1056 1369 1301 889 
Q 1547 409 2034 409 
Q 2525 409 2770 889 
Q 3016 1369 3016 2328 
Q 3016 3291 2770 3770 
Q 2525 4250 2034 4250 
z
M 2034 4750 
Q 2819 4750 3233 4129 
Q 3647 3509 3647 2328 
Q 3647 1150 3233 529 
Q 2819 -91 2034 -91 
Q 1250 -91 836 529 
Q 422 1150 422 2328 
Q 422 3509 836 4129 
Q 1250 4750 2034 4750 
z
" transform="scale(0.015625)"/>
       </defs>
       <use xlink:href="#DejaVuSans-2212"/>
       <use xlink:href="#DejaVuSans-31" x="83.789062"/>
       <use xlink:href="#DejaVuSans-35" x="147.412109"/>
       <use xlink:href="#DejaVuSans-30" x="211.035156"/>
      </g>
     </g>
    </g>
    <g id="xtick_2">
     <g id="line2d_2">
      <g>
       <use xlink:href="#mcbca03bf33" x="144.449676" y="307.584" style="stroke: #000000; stroke-width: 0.8"/>
      </g>
     </g>
     <g id="text_2">
      <!-- −100 -->
      <g transform="translate(130.716083 322.182437) scale(0.1 -0.1)">
       <use xlink:href="#DejaVuSans-2212"/>
       <use xlink:href="#DejaVuSans-31" x="83.789062"/>
       <use xlink:href="#DejaVuSans-30" x="147.412109"/>
       <use xlink:href="#DejaVuSans-30" x="211.035156"/>
      </g>
     </g>
    </g>
    <g id="xtick_3">
     <g id="line2d_3">
      <g>
       <use xlink:href="#mcbca03bf33" x="190.304838" y="307.584" style="stroke: #000000; stroke-width: 0.8"/>
      </g>
     </g>
     <g id="text_3">
      <!-- −50 -->
      <g transform="translate(179.752494 322.182437) scale(0.1 -0.1)">
       <use xlink:href="#DejaVuSans-2212"/>
       <use xlink:href="#DejaVuSans-35" x="83.789062"/>
       <use xlink:href="#DejaVuSans-30" x="147.412109"/>
      </g>
     </g>
    </g>
    <g id="xtick_4">
     <g id="line2d_4">
      <g>
       <use xlink:href="#mcbca03bf33" x="236.16" y="307.584" style="stroke: #000000; stroke-width: 0.8"/>
      </g>
     </g>
     <g id="text_4">
      <!-- 0 -->
      <g transform="translate(232.97875 322.182437) scale(0.1 -0.1)">
       <use xlink:href="#DejaVuSans-30"/>
      </g>
     </g>
    </g>
    <g id="xtick_5">
     <g id="line2d_5">
      <g>
       <use xlink:href="#mcbca03bf33" x="282.015162" y="307.584" style="stroke: #000000; stroke-width: 0.8"/>
      </g>
     </g>
     <g id="text_5">
      <!-- 50 -->
      <g transform="translate(275.652662 322.182437) scale(0.1 -0.1)">
       <use xlink:href="#DejaVuSans-35"/>
       <use xlink:href="#DejaVuSans-30" x="63.623047"/>
      </g>
     </g>
    </g>
    <g id="xtick_6">
     <g id="line2d_6">
      <g>
       <use xlink:href="#mcbca03bf33" x="327.870324" y="307.584" style="stroke: #000000; stroke-width: 0.8"/>
      </g>
     </g>
     <g id="text_6">
      <!-- 100 -->
      <g transform="translate(318.326574 322.182437) scale(0.1 -0.1)">
       <use xlink:href="#DejaVuSans-31"/>
       <use xlink:href="#DejaVuSans-30" x="63.623047"/>
       <use xlink:href="#DejaVuSans-30" x="127.246094"/>
      </g>
     </g>
    </g>
    <g id="xtick_7">
     <g id="line2d_7">
      <g>
       <use xlink:href="#mcbca03bf33" x="373.725485" y="307.584" style="stroke: #000000; stroke-width: 0.8"/>
      </g>
     </g>
     <g id="text_7">
      <!-- 150 -->
      <g transform="translate(364.181735 322.182437) scale(0.1 -0.1)">
       <use xlink:href="#DejaVuSans-31"/>
       <use xlink:href="#DejaVuSans-35" x="63.623047"/>
       <use xlink:href="#DejaVuSans-30" x="127.246094"/>
      </g>
     </g>
    </g>
    <g id="text_8">
     <!-- value -->
     <g transform="translate(222.502187 335.860562) scale(0.1 -0.1)">
      <defs>
       <path id="DejaVuSans-76" d="M 191 3500 
L 800 3500 
L 1894 563 
L 2988 3500 
L 3597 3500 
L 2284 0 
L 1503 0 
L 191 3500 
z
" transform="scale(0.015625)"/>
       <path id="DejaVuSans-61" d="M 2194 1759 
Q 1497 1759 1228 1600 
Q 959 1441 959 1056 
Q 959 750 1161 570 
Q 1363 391 1709 391 
Q 2188 391 2477 730 
Q 2766 1069 2766 1631 
L 2766 1759 
L 2194 1759 
z
M 3341 1997 
L 3341 0 
L 2766 0 
L 2766 531 
Q 2569 213 2275 61 
Q 1981 -91 1556 -91 
Q 1019 -91 701 211 
Q 384 513 384 1019 
Q 384 1609 779 1909 
Q 1175 2209 1959 2209 
L 2766 2209 
L 2766 2266 
Q 2766 2663 2505 2880 
Q 2244 3097 1772 3097 
Q 1472 3097 1187 3025 
Q 903 2953 641 2809 
L 641 3341 
Q 956 3463 1253 3523 
Q 1550 3584 1831 3584 
Q 2591 3584 2966 3190 
Q 3341 2797 3341 1997 
z
" transform="scale(0.015625)"/>
       <path id="DejaVuSans-6c" d="M 603 4863 
L 1178 4863 
L 1178 0 
L 603 0 
L 603 4863 
z
" transform="scale(0.015625)"/>
       <path id="DejaVuSans-75" d="M 544 1381 
L 544 3500 
L 1119 3500 
L 1119 1403 
Q 1119 906 1312 657 
Q 1506 409 1894 409 
Q 2359 409 2629 706 
Q 2900 1003 2900 1516 
L 2900 3500 
L 3475 3500 
L 3475 0 
L 2900 0 
L 2900 538 
Q 2691 219 2414 64 
Q 2138 -91 1772 -91 
Q 1169 -91 856 284 
Q 544 659 544 1381 
z
M 1991 3584 
L 1991 3584 
z
" transform="scale(0.015625)"/>
       <path id="DejaVuSans-65" d="M 3597 1894 
L 3597 1613 
L 953 1613 
Q 991 1019 1311 708 
Q 1631 397 2203 397 
Q 2534 397 2845 478 
Q 3156 559 3463 722 
L 3463 178 
Q 3153 47 2828 -22 
Q 2503 -91 2169 -91 
Q 1331 -91 842 396 
Q 353 884 353 1716 
Q 353 2575 817 3079 
Q 1281 3584 2069 3584 
Q 2775 3584 3186 3129 
Q 3597 2675 3597 1894 
z
M 3022 2063 
Q 3016 2534 2758 2815 
Q 2500 3097 2075 3097 
Q 1594 3097 1305 2825 
Q 1016 2553 972 2059 
L 3022 2063 
z
" transform="scale(0.015625)"/>
      </defs>
      <use xlink:href="#DejaVuSans-76"/>
      <use xlink:href="#DejaVuSans-61" x="59.179688"/>
      <use xlink:href="#DejaVuSans-6c" x="120.458984"/>
      <use xlink:href="#DejaVuSans-75" x="148.242188"/>
      <use xlink:href="#DejaVuSans-65" x="211.621094"/>
     </g>
    </g>
   </g>
   <g id="matplotlib.axis_2">
    <g id="ytick_1">
     <g id="line2d_8">
      <defs>
       <path id="m1eb77de809" d="M 0 0 
L -3.5 0 
" style="stroke: #000000; stroke-width: 0.8"/>
      </defs>
      <g>
       <use xlink:href="#m1eb77de809" x="57.6" y="307.584" style="stroke: #000000; stroke-width: 0.8"/>
      </g>
     </g>
     <g id="text_9">
      <!-- 0.000 -->
      <g transform="translate(21.971875 311.383219) scale(0.1 -0.1)">
       <defs>
        <path id="DejaVuSans-2e" d="M 684 794 
L 1344 794 
L 1344 0 
L 684 0 
L 684 794 
z
" transform="scale(0.015625)"/>
       </defs>
       <use xlink:href="#DejaVuSans-30"/>
       <use xlink:href="#DejaVuSans-2e" x="63.623047"/>
       <use xlink:href="#DejaVuSans-30" x="95.410156"/>
       <use xlink:href="#DejaVuSans-30" x="159.033203"/>
       <use xlink:href="#DejaVuSans-30" x="222.65625"/>
      </g>
     </g>
    </g>
    <g id="ytick_2">
     <g id="line2d_9">
      <g>
       <use xlink:href="#m1eb77de809" x="57.6" y="268.860286" style="stroke: #000000; stroke-width: 0.8"/>
      </g>
     </g>
     <g id="text_10">
      <!-- 0.005 -->
      <g transform="translate(21.971875 272.659505) scale(0.1 -0.1)">
       <use xlink:href="#DejaVuSans-30"/>
       <use xlink:href="#DejaVuSans-2e" x="63.623047"/>
       <use xlink:href="#DejaVuSans-30" x="95.410156"/>
       <use xlink:href="#DejaVuSans-30" x="159.033203"/>
       <use xlink:href="#DejaVuSans-35" x="222.65625"/>
      </g>
     </g>
    </g>
    <g id="ytick_3">
     <g id="line2d_10">
      <g>
       <use xlink:href="#m1eb77de809" x="57.6" y="230.136572" style="stroke: #000000; stroke-width: 0.8"/>
      </g>
     </g>
     <g id="text_11">
      <!-- 0.010 -->
      <g transform="translate(21.971875 233.935791) scale(0.1 -0.1)">
       <use xlink:href="#DejaVuSans-30"/>
       <use xlink:href="#DejaVuSans-2e" x="63.623047"/>
       <use xlink:href="#DejaVuSans-30" x="95.410156"/>
       <use xlink:href="#DejaVuSans-31" x="159.033203"/>
       <use xlink:href="#DejaVuSans-30" x="222.65625"/>
      </g>
     </g>
    </g>
    <g id="ytick_4">
     <g id="line2d_11">
      <g>
       <use xlink:href="#m1eb77de809" x="57.6" y="191.412859" style="stroke: #000000; stroke-width: 0.8"/>
      </g>
     </g>
     <g id="text_12">
      <!-- 0.015 -->
      <g transform="translate(21.971875 195.212077) scale(0.1 -0.1)">
       <use xlink:href="#DejaVuSans-30"/>
       <use xlink:href="#DejaVuSans-2e" x="63.623047"/>
       <use xlink:href="#DejaVuSans-30" x="95.410156"/>
       <use xlink:href="#DejaVuSans-31" x="159.033203"/>
       <use xlink:href="#DejaVuSans-35" x="222.65625"/>
      </g>
     </g>
    </g>
    <g id="ytick_5">
     <g id="line2d_12">
      <g>
       <use xlink:href="#m1eb77de809" x="57.6" y="152.689145" style="stroke: #000000; stroke-width: 0.8"/>
      </g>
     </g>
     <g id="text_13">
      <!-- 0.020 -->
      <g transform="translate(21.971875 156.488364) scale(0.1 -0.1)">
       <defs>
        <path id="DejaVuSans-32" d="M 1228 531 
L 3431 531 
L 3431 0 
L 469 0 
L 469 531 
Q 828 903 1448 1529 
Q 2069 2156 2228 2338 
Q 2531 2678 2651 2914 
Q 2772 3150 2772 3378 
Q 2772 3750 2511 3984 
Q 2250 4219 1831 4219 
Q 1534 4219 1204 4116 
Q 875 4013 500 3803 
L 500 4441 
Q 881 4594 1212 4672 
Q 1544 4750 1819 4750 
Q 2544 4750 2975 4387 
Q 3406 4025 3406 3419 
Q 3406 3131 3298 2873 
Q 3191 2616 2906 2266 
Q 2828 2175 2409 1742 
Q 1991 1309 1228 531 
z
" transform="scale(0.015625)"/>
       </defs>
       <use xlink:href="#DejaVuSans-30"/>
       <use xlink:href="#DejaVuSans-2e" x="63.623047"/>
       <use xlink:href="#DejaVuSans-30" x="95.410156"/>
       <use xlink:href="#DejaVuSans-32" x="159.033203"/>
       <use xlink:href="#DejaVuSans-30" x="222.65625"/>
      </g>
     </g>
    </g>
    <g id="ytick_6">
     <g id="line2d_13">
      <g>
       <use xlink:href="#m1eb77de809" x="57.6" y="113.965431" style="stroke: #000000; stroke-width: 0.8"/>
      </g>
     </g>
     <g id="text_14">
      <!-- 0.025 -->
      <g transform="translate(21.971875 117.76465) scale(0.1 -0.1)">
       <use xlink:href="#DejaVuSans-30"/>
       <use xlink:href="#DejaVuSans-2e" x="63.623047"/>
       <use xlink:href="#DejaVuSans-30" x="95.410156"/>
       <use xlink:href="#DejaVuSans-32" x="159.033203"/>
       <use xlink:href="#DejaVuSans-35" x="222.65625"/>
      </g>
     </g>
    </g>
    <g id="ytick_7">
     <g id="line2d_14">
      <g>
       <use xlink:href="#m1eb77de809" x="57.6" y="75.241717" style="stroke: #000000; stroke-width: 0.8"/>
      </g>
     </g>
     <g id="text_15">
      <!-- 0.030 -->
      <g transform="translate(21.971875 79.040936) scale(0.1 -0.1)">
       <defs>
        <path id="DejaVuSans-33" d="M 2597 2516 
Q 3050 2419 3304 2112 
Q 3559 1806 3559 1356 
Q 3559 666 3084 287 
Q 2609 -91 1734 -91 
Q 1441 -91 1130 -33 
Q 819 25 488 141 
L 488 750 
Q 750 597 1062 519 
Q 1375 441 1716 441 
Q 2309 441 2620 675 
Q 2931 909 2931 1356 
Q 2931 1769 2642 2001 
Q 2353 2234 1838 2234 
L 1294 2234 
L 1294 2753 
L 1863 2753 
Q 2328 2753 2575 2939 
Q 2822 3125 2822 3475 
Q 2822 3834 2567 4026 
Q 2313 4219 1838 4219 
Q 1578 4219 1281 4162 
Q 984 4106 628 3988 
L 628 4550 
Q 988 4650 1302 4700 
Q 1616 4750 1894 4750 
Q 2613 4750 3031 4423 
Q 3450 4097 3450 3541 
Q 3450 3153 3228 2886 
Q 3006 2619 2597 2516 
z
" transform="scale(0.015625)"/>
       </defs>
       <use xlink:href="#DejaVuSans-30"/>
       <use xlink:href="#DejaVuSans-2e" x="63.623047"/>
       <use xlink:href="#DejaVuSans-30" x="95.410156"/>
       <use xlink:href="#DejaVuSans-33" x="159.033203"/>
       <use xlink:href="#DejaVuSans-30" x="222.65625"/>
      </g>
     </g>
    </g>
    <g id="text_16">
     <!-- density -->
     <g transform="translate(15.892187 192.860812) rotate(-90) scale(0.1 -0.1)">
      <defs>
       <path id="DejaVuSans-64" d="M 2906 2969 
L 2906 4863 
L 3481 4863 
L 3481 0 
L 2906 0 
L 2906 525 
Q 2725 213 2448 61 
Q 2172 -91 1784 -91 
Q 1150 -91 751 415 
Q 353 922 353 1747 
Q 353 2572 751 3078 
Q 1150 3584 1784 3584 
Q 2172 3584 2448 3432 
Q 2725 3281 2906 2969 
z
M 947 1747 
Q 947 1113 1208 752 
Q 1469 391 1925 391 
Q 2381 391 2643 752 
Q 2906 1113 2906 1747 
Q 2906 2381 2643 2742 
Q 2381 3103 1925 3103 
Q 1469 3103 1208 2742 
Q 947 2381 947 1747 
z
" transform="scale(0.015625)"/>
       <path id="DejaVuSans-6e" d="M 3513 2113 
L 3513 0 
L 2938 0 
L 2938 2094 
Q 2938 2591 2744 2837 
Q 2550 3084 2163 3084 
Q 1697 3084 1428 2787 
Q 1159 2491 1159 1978 
L 1159 0 
L 581 0 
L 581 3500 
L 1159 3500 
L 1159 2956 
Q 1366 3272 1645 3428 
Q 1925 3584 2291 3584 
Q 2894 3584 3203 3211 
Q 3513 2838 3513 2113 
z
" transform="scale(0.015625)"/>
       <path id="DejaVuSans-73" d="M 2834 3397 
L 2834 2853 
Q 2591 2978 2328 3040 
Q 2066 3103 1784 3103 
Q 1356 3103 1142 2972 
Q 928 2841 928 2578 
Q 928 2378 1081 2264 
Q 1234 2150 1697 2047 
L 1894 2003 
Q 2506 1872 2764 1633 
Q 3022 1394 3022 966 
Q 3022 478 2636 193 
Q 2250 -91 1575 -91 
Q 1294 -91 989 -36 
Q 684 19 347 128 
L 347 722 
Q 666 556 975 473 
Q 1284 391 1588 391 
Q 1994 391 2212 530 
Q 2431 669 2431 922 
Q 2431 1156 2273 1281 
Q 2116 1406 1581 1522 
L 1381 1569 
Q 847 1681 609 1914 
Q 372 2147 372 2553 
Q 372 3047 722 3315 
Q 1072 3584 1716 3584 
Q 2034 3584 2315 3537 
Q 2597 3491 2834 3397 
z
" transform="scale(0.015625)"/>
       <path id="DejaVuSans-69" d="M 603 3500 
L 1178 3500 
L 1178 0 
L 603 0 
L 603 3500 
z
M 603 4863 
L 1178 4863 
L 1178 4134 
L 603 4134 
L 603 4863 
z
" transform="scale(0.015625)"/>
       <path id="DejaVuSans-74" d="M 1172 4494 
L 1172 3500 
L 2356 3500 
L 2356 3053 
L 1172 3053 
L 1172 1153 
Q 1172 725 1289 603 
Q 1406 481 1766 481 
L 2356 481 
L 2356 0 
L 1766 0 
Q 1100 0 847 248 
Q 594 497 594 1153 
L 594 3053 
L 172 3053 
L 172 3500 
L 594 3500 
L 594 4494 
L 1172 4494 
z
" transform="scale(0.015625)"/>
       <path id="DejaVuSans-79" d="M 2059 -325 
Q 1816 -950 1584 -1140 
Q 1353 -1331 966 -1331 
L 506 -1331 
L 506 -850 
L 844 -850 
Q 1081 -850 1212 -737 
Q 1344 -625 1503 -206 
L 1606 56 
L 191 3500 
L 800 3500 
L 1894 763 
L 2988 3500 
L 3597 3500 
L 2059 -325 
z
" transform="scale(0.015625)"/>
      </defs>
      <use xlink:href="#DejaVuSans-64"/>
      <use xlink:href="#DejaVuSans-65" x="63.476562"/>
      <use xlink:href="#DejaVuSans-6e" x="125"/>
      <use xlink:href="#DejaVuSans-73" x="188.378906"/>
      <use xlink:href="#DejaVuSans-69" x="240.478516"/>
      <use xlink:href="#DejaVuSans-74" x="268.261719"/>
      <use xlink:href="#DejaVuSans-79" x="307.470703"/>
     </g>
    </g>
   </g>
   <g id="patch_180">
    <path d="M 57.6 307.584 
L 57.6 41.472 
" style="fill: none; stroke: #000000; stroke-width: 0.8; stroke-linejoin: miter; stroke-linecap: square"/>
   </g>
   <g id="patch_181">
    <path d="M 414.72 307.584 
L 414.72 41.472 
" style="fill: none; stroke: #000000; stroke-width: 0.8; stroke-linejoin: miter; stroke-linecap: square"/>
   </g>
   <g id="patch_182">
    <path d="M 57.6 307.584 
L 414.72 307.584 
" style="fill: none; stroke: #000000; stroke-width: 0.8; stroke-linejoin: miter; stroke-linecap: square"/>
   </g>
   <g id="patch_183">
    <path d="M 57.6 41.472 
L 414.72 41.472 
" style="fill: none; stroke: #000000; stroke-width: 0.8; stroke-linejoin: miter; stroke-linecap: square"/>
   </g>
   <g id="text_17">
    <!-- wave17m_dir, N = 133250 -->
    <g transform="translate(155.862188 35.472) scale(0.12 -0.12)">
     <defs>
      <path id="DejaVuSans-77" d="M 269 3500 
L 844 3500 
L 1563 769 
L 2278 3500 
L 2956 3500 
L 3675 769 
L 4391 3500 
L 4966 3500 
L 4050 0 
L 3372 0 
L 2619 2869 
L 1863 0 
L 1184 0 
L 269 3500 
z
" transform="scale(0.015625)"/>
      <path id="DejaVuSans-37" d="M 525 4666 
L 3525 4666 
L 3525 4397 
L 1831 0 
L 1172 0 
L 2766 4134 
L 525 4134 
L 525 4666 
z
" transform="scale(0.015625)"/>
      <path id="DejaVuSans-6d" d="M 3328 2828 
Q 3544 3216 3844 3400 
Q 4144 3584 4550 3584 
Q 5097 3584 5394 3201 
Q 5691 2819 5691 2113 
L 5691 0 
L 5113 0 
L 5113 2094 
Q 5113 2597 4934 2840 
Q 4756 3084 4391 3084 
Q 3944 3084 3684 2787 
Q 3425 2491 3425 1978 
L 3425 0 
L 2847 0 
L 2847 2094 
Q 2847 2600 2669 2842 
Q 2491 3084 2119 3084 
Q 1678 3084 1418 2786 
Q 1159 2488 1159 1978 
L 1159 0 
L 581 0 
L 581 3500 
L 1159 3500 
L 1159 2956 
Q 1356 3278 1631 3431 
Q 1906 3584 2284 3584 
Q 2666 3584 2933 3390 
Q 3200 3197 3328 2828 
z
" transform="scale(0.015625)"/>
      <path id="DejaVuSans-5f" d="M 3263 -1063 
L 3263 -1509 
L -63 -1509 
L -63 -1063 
L 3263 -1063 
z
" transform="scale(0.015625)"/>
      <path id="DejaVuSans-72" d="M 2631 2963 
Q 2534 3019 2420 3045 
Q 2306 3072 2169 3072 
Q 1681 3072 1420 2755 
Q 1159 2438 1159 1844 
L 1159 0 
L 581 0 
L 581 3500 
L 1159 3500 
L 1159 2956 
Q 1341 3275 1631 3429 
Q 1922 3584 2338 3584 
Q 2397 3584 2469 3576 
Q 2541 3569 2628 3553 
L 2631 2963 
z
" transform="scale(0.015625)"/>
      <path id="DejaVuSans-2c" d="M 750 794 
L 1409 794 
L 1409 256 
L 897 -744 
L 494 -744 
L 750 256 
L 750 794 
z
" transform="scale(0.015625)"/>
      <path id="DejaVuSans-20" transform="scale(0.015625)"/>
      <path id="DejaVuSans-4e" d="M 628 4666 
L 1478 4666 
L 3547 763 
L 3547 4666 
L 4159 4666 
L 4159 0 
L 3309 0 
L 1241 3903 
L 1241 0 
L 628 0 
L 628 4666 
z
" transform="scale(0.015625)"/>
      <path id="DejaVuSans-3d" d="M 678 2906 
L 4684 2906 
L 4684 2381 
L 678 2381 
L 678 2906 
z
M 678 1631 
L 4684 1631 
L 4684 1100 
L 678 1100 
L 678 1631 
z
" transform="scale(0.015625)"/>
     </defs>
     <use xlink:href="#DejaVuSans-77"/>
     <use xlink:href="#DejaVuSans-61" x="81.787109"/>
     <use xlink:href="#DejaVuSans-76" x="143.066406"/>
     <use xlink:href="#DejaVuSans-65" x="202.246094"/>
     <use xlink:href="#DejaVuSans-31" x="263.769531"/>
     <use xlink:href="#DejaVuSans-37" x="327.392578"/>
     <use xlink:href="#DejaVuSans-6d" x="391.015625"/>
     <use xlink:href="#DejaVuSans-5f" x="488.427734"/>
     <use xlink:href="#DejaVuSans-64" x="538.427734"/>
     <use xlink:href="#DejaVuSans-69" x="601.904297"/>
     <use xlink:href="#DejaVuSans-72" x="629.6875"/>
     <use xlink:href="#DejaVuSans-2c" x="670.800781"/>
     <use xlink:href="#DejaVuSans-20" x="702.587891"/>
     <use xlink:href="#DejaVuSans-4e" x="734.375"/>
     <use xlink:href="#DejaVuSans-20" x="809.179688"/>
     <use xlink:href="#DejaVuSans-3d" x="840.966797"/>
     <use xlink:href="#DejaVuSans-20" x="924.755859"/>
     <use xlink:href="#DejaVuSans-31" x="956.542969"/>
     <use xlink:href="#DejaVuSans-33" x="1020.166016"/>
     <use xlink:href="#DejaVuSans-33" x="1083.789062"/>
     <use xlink:href="#DejaVuSans-32" x="1147.412109"/>
     <use xlink:href="#DejaVuSans-35" x="1211.035156"/>
     <use xlink:href="#DejaVuSans-30" x="1274.658203"/>
    </g>
   </g>
  </g>
 </g>
 <defs>
  <clipPath id="pd03b9b5ecc">
   <rect x="57.6" y="41.472" width="357.12" height="266.112"/>
  </clipPath>
 </defs>
</svg>
