<?xml version="1.0" encoding="utf-8" standalone="no"?>
<!DOCTYPE svg PUBLIC "-//W3C//DTD SVG 1.1//EN"
  "http://www.w3.org/Graphics/SVG/1.1/DTD/svg11.dtd">
<svg xmlns:xlink="http://www.w3.org/1999/xlink" width="460.8pt" height="345.6pt" viewBox="0 0 460.8 345.6" xmlns="http://www.w3.org/2000/svg" version="1.1">
 <metadata>
  <rdf:RDF xmlns:dc="http://purl.org/dc/elements/1.1/" xmlns:cc="http://creativecommons.org/ns#" xmlns:rdf="http://www.w3.org/1999/02/22-rdf-syntax-ns#">
   <cc:Work>
    <dc:type rdf:resource="http://purl.org/dc/dcmitype/StillImage"/>
    <dc:date>2024-06-19T20:44:06.658185</dc:date>
    <dc:format>image/svg+xml</dc:format>
    <dc:creator>
     <cc:Agent>
      <dc:title>Matplotlib v3.8.0, https://matplotlib.org/</dc:title>
     </cc:Agent>
    </dc:creator>
   </cc:Work>
  </rdf:RDF>
 </metadata>
 <defs>
  <style type="text/css">*{stroke-linejoin: round; stroke-linecap: butt}</style>
 </defs>
 <g id="figure_1">
  <g id="patch_1">
   <path d="M 0 345.6 
L 460.8 345.6 
L 460.8 0 
L 0 0 
z
" style="fill: #ffffff"/>
  </g>
  <g id="axes_1">
   <g id="patch_2">
    <path d="M 57.6 307.584 
L 414.72 307.584 
L 414.72 41.472 
L 57.6 41.472 
z
" style="fill: #ffffff"/>
   </g>
   <g id="patch_3">
    <path d="M 73.832727 307.584 
L 77.44 307.584 
L 77.44 307.487891 
L 73.832727 307.487891 
z
" clip-path="url(#p08fa14171b)" style="fill: #1f77b4"/>
   </g>
   <g id="patch_4">
    <path d="M 77.44 307.584 
L 81.047273 307.584 
L 81.047273 307.584 
L 77.44 307.584 
z
" clip-path="url(#p08fa14171b)" style="fill: #1f77b4"/>
   </g>
   <g id="patch_5">
    <path d="M 81.047273 307.584 
L 84.654545 307.584 
L 84.654545 307.487891 
L 81.047273 307.487891 
z
" clip-path="url(#p08fa14171b)" style="fill: #1f77b4"/>
   </g>
   <g id="patch_6">
    <path d="M 84.654545 307.584 
L 88.261818 307.584 
L 88.261818 307.487891 
L 84.654545 307.487891 
z
" clip-path="url(#p08fa14171b)" style="fill: #1f77b4"/>
   </g>
   <g id="patch_7">
    <path d="M 88.261818 307.584 
L 91.869091 307.584 
L 91.869091 307.487891 
L 88.261818 307.487891 
z
" clip-path="url(#p08fa14171b)" style="fill: #1f77b4"/>
   </g>
   <g id="patch_8">
    <path d="M 91.869091 307.584 
L 95.476364 307.584 
L 95.476364 307.295672 
L 91.869091 307.295672 
z
" clip-path="url(#p08fa14171b)" style="fill: #1f77b4"/>
   </g>
   <g id="patch_9">
    <path d="M 95.476364 307.584 
L 99.083636 307.584 
L 99.083636 307.391782 
L 95.476364 307.391782 
z
" clip-path="url(#p08fa14171b)" style="fill: #1f77b4"/>
   </g>
   <g id="patch_10">
    <path d="M 99.083636 307.584 
L 102.690909 307.584 
L 102.690909 307.584 
L 99.083636 307.584 
z
" clip-path="url(#p08fa14171b)" style="fill: #1f77b4"/>
   </g>
   <g id="patch_11">
    <path d="M 102.690909 307.584 
L 106.298182 307.584 
L 106.298182 307.199563 
L 102.690909 307.199563 
z
" clip-path="url(#p08fa14171b)" style="fill: #1f77b4"/>
   </g>
   <g id="patch_12">
    <path d="M 106.298182 307.584 
L 109.905455 307.584 
L 109.905455 307.391782 
L 106.298182 307.391782 
z
" clip-path="url(#p08fa14171b)" style="fill: #1f77b4"/>
   </g>
   <g id="patch_13">
    <path d="M 109.905455 307.584 
L 113.512727 307.584 
L 113.512727 307.295672 
L 109.905455 307.295672 
z
" clip-path="url(#p08fa14171b)" style="fill: #1f77b4"/>
   </g>
   <g id="patch_14">
    <path d="M 113.512727 307.584 
L 117.12 307.584 
L 117.12 307.295672 
L 113.512727 307.295672 
z
" clip-path="url(#p08fa14171b)" style="fill: #1f77b4"/>
   </g>
   <g id="patch_15">
    <path d="M 117.12 307.584 
L 120.727273 307.584 
L 120.727273 307.391782 
L 117.12 307.391782 
z
" clip-path="url(#p08fa14171b)" style="fill: #1f77b4"/>
   </g>
   <g id="patch_16">
    <path d="M 120.727273 307.584 
L 124.334545 307.584 
L 124.334545 307.199563 
L 120.727273 307.199563 
z
" clip-path="url(#p08fa14171b)" style="fill: #1f77b4"/>
   </g>
   <g id="patch_17">
    <path d="M 124.334545 307.584 
L 127.941818 307.584 
L 127.941818 306.815126 
L 124.334545 306.815126 
z
" clip-path="url(#p08fa14171b)" style="fill: #1f77b4"/>
   </g>
   <g id="patch_18">
    <path d="M 127.941818 307.584 
L 131.549091 307.584 
L 131.549091 306.815126 
L 127.941818 306.815126 
z
" clip-path="url(#p08fa14171b)" style="fill: #1f77b4"/>
   </g>
   <g id="patch_19">
    <path d="M 131.549091 307.584 
L 135.156364 307.584 
L 135.156364 306.815126 
L 131.549091 306.815126 
z
" clip-path="url(#p08fa14171b)" style="fill: #1f77b4"/>
   </g>
   <g id="patch_20">
    <path d="M 135.156364 307.584 
L 138.763636 307.584 
L 138.763636 306.238471 
L 135.156364 306.238471 
z
" clip-path="url(#p08fa14171b)" style="fill: #1f77b4"/>
   </g>
   <g id="patch_21">
    <path d="M 138.763636 307.584 
L 142.370909 307.584 
L 142.370909 306.238471 
L 138.763636 306.238471 
z
" clip-path="url(#p08fa14171b)" style="fill: #1f77b4"/>
   </g>
   <g id="patch_22">
    <path d="M 142.370909 307.584 
L 145.978182 307.584 
L 145.978182 305.757925 
L 142.370909 305.757925 
z
" clip-path="url(#p08fa14171b)" style="fill: #1f77b4"/>
   </g>
   <g id="patch_23">
    <path d="M 145.978182 307.584 
L 149.585455 307.584 
L 149.585455 304.796833 
L 145.978182 304.796833 
z
" clip-path="url(#p08fa14171b)" style="fill: #1f77b4"/>
   </g>
   <g id="patch_24">
    <path d="M 149.585455 307.584 
L 153.192727 307.584 
L 153.192727 303.066867 
L 149.585455 303.066867 
z
" clip-path="url(#p08fa14171b)" style="fill: #1f77b4"/>
   </g>
   <g id="patch_25">
    <path d="M 153.192727 307.584 
L 156.8 307.584 
L 156.8 302.970758 
L 153.192727 302.970758 
z
" clip-path="url(#p08fa14171b)" style="fill: #1f77b4"/>
   </g>
   <g id="patch_26">
    <path d="M 156.8 307.584 
L 160.407273 307.584 
L 160.407273 301.529119 
L 156.8 301.529119 
z
" clip-path="url(#p08fa14171b)" style="fill: #1f77b4"/>
   </g>
   <g id="patch_27">
    <path d="M 160.407273 307.584 
L 164.014545 307.584 
L 164.014545 300.952464 
L 160.407273 300.952464 
z
" clip-path="url(#p08fa14171b)" style="fill: #1f77b4"/>
   </g>
   <g id="patch_28">
    <path d="M 164.014545 307.584 
L 167.621818 307.584 
L 167.621818 298.645843 
L 164.014545 298.645843 
z
" clip-path="url(#p08fa14171b)" style="fill: #1f77b4"/>
   </g>
   <g id="patch_29">
    <path d="M 167.621818 307.584 
L 171.229091 307.584 
L 171.229091 296.435331 
L 167.621818 296.435331 
z
" clip-path="url(#p08fa14171b)" style="fill: #1f77b4"/>
   </g>
   <g id="patch_30">
    <path d="M 171.229091 307.584 
L 174.836364 307.584 
L 174.836364 294.705365 
L 171.229091 294.705365 
z
" clip-path="url(#p08fa14171b)" style="fill: #1f77b4"/>
   </g>
   <g id="patch_31">
    <path d="M 174.836364 307.584 
L 178.443636 307.584 
L 178.443636 294.032601 
L 174.836364 294.032601 
z
" clip-path="url(#p08fa14171b)" style="fill: #1f77b4"/>
   </g>
   <g id="patch_32">
    <path d="M 178.443636 307.584 
L 182.050909 307.584 
L 182.050909 288.362157 
L 178.443636 288.362157 
z
" clip-path="url(#p08fa14171b)" style="fill: #1f77b4"/>
   </g>
   <g id="patch_33">
    <path d="M 182.050909 307.584 
L 185.658182 307.584 
L 185.658182 284.133352 
L 182.050909 284.133352 
z
" clip-path="url(#p08fa14171b)" style="fill: #1f77b4"/>
   </g>
   <g id="patch_34">
    <path d="M 185.658182 307.584 
L 189.265455 307.584 
L 189.265455 275.964068 
L 185.658182 275.964068 
z
" clip-path="url(#p08fa14171b)" style="fill: #1f77b4"/>
   </g>
   <g id="patch_35">
    <path d="M 189.265455 307.584 
L 192.872727 307.584 
L 192.872727 272.888573 
L 189.265455 272.888573 
z
" clip-path="url(#p08fa14171b)" style="fill: #1f77b4"/>
   </g>
   <g id="patch_36">
    <path d="M 192.872727 307.584 
L 196.48 307.584 
L 196.48 262.220451 
L 192.872727 262.220451 
z
" clip-path="url(#p08fa14171b)" style="fill: #1f77b4"/>
   </g>
   <g id="patch_37">
    <path d="M 196.48 307.584 
L 200.087273 307.584 
L 200.087273 255.396696 
L 196.48 255.396696 
z
" clip-path="url(#p08fa14171b)" style="fill: #1f77b4"/>
   </g>
   <g id="patch_38">
    <path d="M 200.087273 307.584 
L 203.694545 307.584 
L 203.694545 252.897857 
L 200.087273 252.897857 
z
" clip-path="url(#p08fa14171b)" style="fill: #1f77b4"/>
   </g>
   <g id="patch_39">
    <path d="M 203.694545 307.584 
L 207.301818 307.584 
L 207.301818 248.957379 
L 203.694545 248.957379 
z
" clip-path="url(#p08fa14171b)" style="fill: #1f77b4"/>
   </g>
   <g id="patch_40">
    <path d="M 207.301818 307.584 
L 210.909091 307.584 
L 210.909091 237.712601 
L 207.301818 237.712601 
z
" clip-path="url(#p08fa14171b)" style="fill: #1f77b4"/>
   </g>
   <g id="patch_41">
    <path d="M 210.909091 307.584 
L 214.516364 307.584 
L 214.516364 232.330485 
L 210.909091 232.330485 
z
" clip-path="url(#p08fa14171b)" style="fill: #1f77b4"/>
   </g>
   <g id="patch_42">
    <path d="M 214.516364 307.584 
L 218.123636 307.584 
L 218.123636 217.241338 
L 214.516364 217.241338 
z
" clip-path="url(#p08fa14171b)" style="fill: #1f77b4"/>
   </g>
   <g id="patch_43">
    <path d="M 218.123636 307.584 
L 221.730909 307.584 
L 221.730909 210.994239 
L 218.123636 210.994239 
z
" clip-path="url(#p08fa14171b)" style="fill: #1f77b4"/>
   </g>
   <g id="patch_44">
    <path d="M 221.730909 307.584 
L 225.338182 307.584 
L 225.338182 197.731167 
L 221.730909 197.731167 
z
" clip-path="url(#p08fa14171b)" style="fill: #1f77b4"/>
   </g>
   <g id="patch_45">
    <path d="M 225.338182 307.584 
L 228.945455 307.584 
L 228.945455 191.580177 
L 225.338182 191.580177 
z
" clip-path="url(#p08fa14171b)" style="fill: #1f77b4"/>
   </g>
   <g id="patch_46">
    <path d="M 228.945455 307.584 
L 232.552727 307.584 
L 232.552727 171.493352 
L 228.945455 171.493352 
z
" clip-path="url(#p08fa14171b)" style="fill: #1f77b4"/>
   </g>
   <g id="patch_47">
    <path d="M 232.552727 307.584 
L 236.16 307.584 
L 236.16 163.324068 
L 232.552727 163.324068 
z
" clip-path="url(#p08fa14171b)" style="fill: #1f77b4"/>
   </g>
   <g id="patch_48">
    <path d="M 236.16 307.584 
L 239.767273 307.584 
L 239.767273 161.690212 
L 236.16 161.690212 
z
" clip-path="url(#p08fa14171b)" style="fill: #1f77b4"/>
   </g>
   <g id="patch_49">
    <path d="M 239.767273 307.584 
L 243.374545 307.584 
L 243.374545 150.445433 
L 239.767273 150.445433 
z
" clip-path="url(#p08fa14171b)" style="fill: #1f77b4"/>
   </g>
   <g id="patch_50">
    <path d="M 243.374545 307.584 
L 246.981818 307.584 
L 246.981818 143.910007 
L 243.374545 143.910007 
z
" clip-path="url(#p08fa14171b)" style="fill: #1f77b4"/>
   </g>
   <g id="patch_51">
    <path d="M 246.981818 307.584 
L 250.589091 307.584 
L 250.589091 148.42714 
L 246.981818 148.42714 
z
" clip-path="url(#p08fa14171b)" style="fill: #1f77b4"/>
   </g>
   <g id="patch_52">
    <path d="M 250.589091 307.584 
L 254.196364 307.584 
L 254.196364 134.010758 
L 250.589091 134.010758 
z
" clip-path="url(#p08fa14171b)" style="fill: #1f77b4"/>
   </g>
   <g id="patch_53">
    <path d="M 254.196364 307.584 
L 257.803636 307.584 
L 257.803636 129.013078 
L 254.196364 129.013078 
z
" clip-path="url(#p08fa14171b)" style="fill: #1f77b4"/>
   </g>
   <g id="patch_54">
    <path d="M 257.803636 307.584 
L 261.410909 307.584 
L 261.410909 111.71342 
L 257.803636 111.71342 
z
" clip-path="url(#p08fa14171b)" style="fill: #1f77b4"/>
   </g>
   <g id="patch_55">
    <path d="M 261.410909 307.584 
L 265.018182 307.584 
L 265.018182 101.621952 
L 261.410909 101.621952 
z
" clip-path="url(#p08fa14171b)" style="fill: #1f77b4"/>
   </g>
   <g id="patch_56">
    <path d="M 265.018182 307.584 
L 268.625455 307.584 
L 268.625455 91.338266 
L 265.018182 91.338266 
z
" clip-path="url(#p08fa14171b)" style="fill: #1f77b4"/>
   </g>
   <g id="patch_57">
    <path d="M 268.625455 307.584 
L 272.232727 307.584 
L 272.232727 90.85772 
L 268.625455 90.85772 
z
" clip-path="url(#p08fa14171b)" style="fill: #1f77b4"/>
   </g>
   <g id="patch_58">
    <path d="M 272.232727 307.584 
L 275.84 307.584 
L 275.84 91.722703 
L 272.232727 91.722703 
z
" clip-path="url(#p08fa14171b)" style="fill: #1f77b4"/>
   </g>
   <g id="patch_59">
    <path d="M 275.84 307.584 
L 279.447273 307.584 
L 279.447273 66.542089 
L 275.84 66.542089 
z
" clip-path="url(#p08fa14171b)" style="fill: #1f77b4"/>
   </g>
   <g id="patch_60">
    <path d="M 279.447273 307.584 
L 283.054545 307.584 
L 283.054545 65.388778 
L 279.447273 65.388778 
z
" clip-path="url(#p08fa14171b)" style="fill: #1f77b4"/>
   </g>
   <g id="patch_61">
    <path d="M 283.054545 307.584 
L 286.661818 307.584 
L 286.661818 59.910553 
L 283.054545 59.910553 
z
" clip-path="url(#p08fa14171b)" style="fill: #1f77b4"/>
   </g>
   <g id="patch_62">
    <path d="M 286.661818 307.584 
L 290.269091 307.584 
L 290.269091 60.967754 
L 286.661818 60.967754 
z
" clip-path="url(#p08fa14171b)" style="fill: #1f77b4"/>
   </g>
   <g id="patch_63">
    <path d="M 290.269091 307.584 
L 293.876364 307.584 
L 293.876364 57.027276 
L 290.269091 57.027276 
z
" clip-path="url(#p08fa14171b)" style="fill: #1f77b4"/>
   </g>
   <g id="patch_64">
    <path d="M 293.876364 307.584 
L 297.483636 307.584 
L 297.483636 54.144 
L 293.876364 54.144 
z
" clip-path="url(#p08fa14171b)" style="fill: #1f77b4"/>
   </g>
   <g id="patch_65">
    <path d="M 297.483636 307.584 
L 301.090909 307.584 
L 301.090909 55.873966 
L 297.483636 55.873966 
z
" clip-path="url(#p08fa14171b)" style="fill: #1f77b4"/>
   </g>
   <g id="patch_66">
    <path d="M 301.090909 307.584 
L 304.698182 307.584 
L 304.698182 68.84871 
L 301.090909 68.84871 
z
" clip-path="url(#p08fa14171b)" style="fill: #1f77b4"/>
   </g>
   <g id="patch_67">
    <path d="M 304.698182 307.584 
L 308.305455 307.584 
L 308.305455 81.342908 
L 304.698182 81.342908 
z
" clip-path="url(#p08fa14171b)" style="fill: #1f77b4"/>
   </g>
   <g id="patch_68">
    <path d="M 308.305455 307.584 
L 311.912727 307.584 
L 311.912727 96.528164 
L 308.305455 96.528164 
z
" clip-path="url(#p08fa14171b)" style="fill: #1f77b4"/>
   </g>
   <g id="patch_69">
    <path d="M 311.912727 307.584 
L 315.52 307.584 
L 315.52 115.942225 
L 311.912727 115.942225 
z
" clip-path="url(#p08fa14171b)" style="fill: #1f77b4"/>
   </g>
   <g id="patch_70">
    <path d="M 315.52 307.584 
L 319.127273 307.584 
L 319.127273 149.67656 
L 315.52 149.67656 
z
" clip-path="url(#p08fa14171b)" style="fill: #1f77b4"/>
   </g>
   <g id="patch_71">
    <path d="M 319.127273 307.584 
L 322.734545 307.584 
L 322.734545 190.234648 
L 319.127273 190.234648 
z
" clip-path="url(#p08fa14171b)" style="fill: #1f77b4"/>
   </g>
   <g id="patch_72">
    <path d="M 322.734545 307.584 
L 326.341818 307.584 
L 326.341818 210.705911 
L 322.734545 210.705911 
z
" clip-path="url(#p08fa14171b)" style="fill: #1f77b4"/>
   </g>
   <g id="patch_73">
    <path d="M 326.341818 307.584 
L 329.949091 307.584 
L 329.949091 247.227413 
L 326.341818 247.227413 
z
" clip-path="url(#p08fa14171b)" style="fill: #1f77b4"/>
   </g>
   <g id="patch_74">
    <path d="M 329.949091 307.584 
L 333.556364 307.584 
L 333.556364 261.163249 
L 329.949091 261.163249 
z
" clip-path="url(#p08fa14171b)" style="fill: #1f77b4"/>
   </g>
   <g id="patch_75">
    <path d="M 333.556364 307.584 
L 337.163636 307.584 
L 337.163636 275.099085 
L 333.556364 275.099085 
z
" clip-path="url(#p08fa14171b)" style="fill: #1f77b4"/>
   </g>
   <g id="patch_76">
    <path d="M 337.163636 307.584 
L 340.770909 307.584 
L 340.770909 288.554375 
L 337.163636 288.554375 
z
" clip-path="url(#p08fa14171b)" style="fill: #1f77b4"/>
   </g>
   <g id="patch_77">
    <path d="M 340.770909 307.584 
L 344.378182 307.584 
L 344.378182 297.204205 
L 340.770909 297.204205 
z
" clip-path="url(#p08fa14171b)" style="fill: #1f77b4"/>
   </g>
   <g id="patch_78">
    <path d="M 344.378182 307.584 
L 347.985455 307.584 
L 347.985455 301.721338 
L 344.378182 301.721338 
z
" clip-path="url(#p08fa14171b)" style="fill: #1f77b4"/>
   </g>
   <g id="patch_79">
    <path d="M 347.985455 307.584 
L 351.592727 307.584 
L 351.592727 305.277379 
L 347.985455 305.277379 
z
" clip-path="url(#p08fa14171b)" style="fill: #1f77b4"/>
   </g>
   <g id="patch_80">
    <path d="M 351.592727 307.584 
L 355.2 307.584 
L 355.2 306.430689 
L 351.592727 306.430689 
z
" clip-path="url(#p08fa14171b)" style="fill: #1f77b4"/>
   </g>
   <g id="patch_81">
    <path d="M 355.2 307.584 
L 358.807273 307.584 
L 358.807273 307.007345 
L 355.2 307.007345 
z
" clip-path="url(#p08fa14171b)" style="fill: #1f77b4"/>
   </g>
   <g id="patch_82">
    <path d="M 358.807273 307.584 
L 362.414545 307.584 
L 362.414545 307.391782 
L 358.807273 307.391782 
z
" clip-path="url(#p08fa14171b)" style="fill: #1f77b4"/>
   </g>
   <g id="patch_83">
    <path d="M 362.414545 307.584 
L 366.021818 307.584 
L 366.021818 307.391782 
L 362.414545 307.391782 
z
" clip-path="url(#p08fa14171b)" style="fill: #1f77b4"/>
   </g>
   <g id="patch_84">
    <path d="M 366.021818 307.584 
L 369.629091 307.584 
L 369.629091 307.487891 
L 366.021818 307.487891 
z
" clip-path="url(#p08fa14171b)" style="fill: #1f77b4"/>
   </g>
   <g id="patch_85">
    <path d="M 369.629091 307.584 
L 373.236364 307.584 
L 373.236364 307.391782 
L 369.629091 307.391782 
z
" clip-path="url(#p08fa14171b)" style="fill: #1f77b4"/>
   </g>
   <g id="patch_86">
    <path d="M 373.236364 307.584 
L 376.843636 307.584 
L 376.843636 307.295672 
L 373.236364 307.295672 
z
" clip-path="url(#p08fa14171b)" style="fill: #1f77b4"/>
   </g>
   <g id="patch_87">
    <path d="M 376.843636 307.584 
L 380.450909 307.584 
L 380.450909 307.391782 
L 376.843636 307.391782 
z
" clip-path="url(#p08fa14171b)" style="fill: #1f77b4"/>
   </g>
   <g id="patch_88">
    <path d="M 380.450909 307.584 
L 384.058182 307.584 
L 384.058182 307.391782 
L 380.450909 307.391782 
z
" clip-path="url(#p08fa14171b)" style="fill: #1f77b4"/>
   </g>
   <g id="patch_89">
    <path d="M 384.058182 307.584 
L 387.665455 307.584 
L 387.665455 307.584 
L 384.058182 307.584 
z
" clip-path="url(#p08fa14171b)" style="fill: #1f77b4"/>
   </g>
   <g id="patch_90">
    <path d="M 387.665455 307.584 
L 391.272727 307.584 
L 391.272727 307.584 
L 387.665455 307.584 
z
" clip-path="url(#p08fa14171b)" style="fill: #1f77b4"/>
   </g>
   <g id="patch_91">
    <path d="M 391.272727 307.584 
L 394.88 307.584 
L 394.88 307.584 
L 391.272727 307.584 
z
" clip-path="url(#p08fa14171b)" style="fill: #1f77b4"/>
   </g>
   <g id="patch_92">
    <path d="M 394.88 307.584 
L 398.487273 307.584 
L 398.487273 307.487891 
L 394.88 307.487891 
z
" clip-path="url(#p08fa14171b)" style="fill: #1f77b4"/>
   </g>
   <g id="matplotlib.axis_1">
    <g id="xtick_1">
     <g id="line2d_1">
      <defs>
       <path id="m2e25daa7e6" d="M 0 0 
L 0 3.5 
" style="stroke: #000000; stroke-width: 0.8"/>
      </defs>
      <g>
       <use xlink:href="#m2e25daa7e6" x="81.152789" y="307.584" style="stroke: #000000; stroke-width: 0.8"/>
      </g>
     </g>
     <g id="text_1">
      <!-- −100 -->
      <g transform="translate(67.419196 322.182437) scale(0.1 -0.1)">
       <defs>
        <path id="DejaVuSans-2212" d="M 678 2272 
L 4684 2272 
L 4684 1741 
L 678 1741 
L 678 2272 
z
" transform="scale(0.015625)"/>
        <path id="DejaVuSans-31" d="M 794 531 
L 1825 531 
L 1825 4091 
L 703 3866 
L 703 4441 
L 1819 4666 
L 2450 4666 
L 2450 531 
L 3481 531 
L 3481 0 
L 794 0 
L 794 531 
z
" transform="scale(0.015625)"/>
        <path id="DejaVuSans-30" d="M 2034 4250 
Q 1547 4250 1301 3770 
Q 1056 3291 1056 2328 
Q 1056 1369 1301 889 
Q 1547 409 2034 409 
Q 2525 409 2770 889 
Q 3016 1369 3016 2328 
Q 3016 3291 2770 3770 
Q 2525 4250 2034 4250 
z
M 2034 4750 
Q 2819 4750 3233 4129 
Q 3647 3509 3647 2328 
Q 3647 1150 3233 529 
Q 2819 -91 2034 -91 
Q 1250 -91 836 529 
Q 422 1150 422 2328 
Q 422 3509 836 4129 
Q 1250 4750 2034 4750 
z
" transform="scale(0.015625)"/>
       </defs>
       <use xlink:href="#DejaVuSans-2212"/>
       <use xlink:href="#DejaVuSans-31" x="83.789062"/>
       <use xlink:href="#DejaVuSans-30" x="147.412109"/>
       <use xlink:href="#DejaVuSans-30" x="211.035156"/>
      </g>
     </g>
    </g>
    <g id="xtick_2">
     <g id="line2d_2">
      <g>
       <use xlink:href="#m2e25daa7e6" x="126.243699" y="307.584" style="stroke: #000000; stroke-width: 0.8"/>
      </g>
     </g>
     <g id="text_2">
      <!-- −75 -->
      <g transform="translate(115.691355 322.182437) scale(0.1 -0.1)">
       <defs>
        <path id="DejaVuSans-37" d="M 525 4666 
L 3525 4666 
L 3525 4397 
L 1831 0 
L 1172 0 
L 2766 4134 
L 525 4134 
L 525 4666 
z
" transform="scale(0.015625)"/>
        <path id="DejaVuSans-35" d="M 691 4666 
L 3169 4666 
L 3169 4134 
L 1269 4134 
L 1269 2991 
Q 1406 3038 1543 3061 
Q 1681 3084 1819 3084 
Q 2600 3084 3056 2656 
Q 3513 2228 3513 1497 
Q 3513 744 3044 326 
Q 2575 -91 1722 -91 
Q 1428 -91 1123 -41 
Q 819 9 494 109 
L 494 744 
Q 775 591 1075 516 
Q 1375 441 1709 441 
Q 2250 441 2565 725 
Q 2881 1009 2881 1497 
Q 2881 1984 2565 2268 
Q 2250 2553 1709 2553 
Q 1456 2553 1204 2497 
Q 953 2441 691 2322 
L 691 4666 
z
" transform="scale(0.015625)"/>
       </defs>
       <use xlink:href="#DejaVuSans-2212"/>
       <use xlink:href="#DejaVuSans-37" x="83.789062"/>
       <use xlink:href="#DejaVuSans-35" x="147.412109"/>
      </g>
     </g>
    </g>
    <g id="xtick_3">
     <g id="line2d_3">
      <g>
       <use xlink:href="#m2e25daa7e6" x="171.334608" y="307.584" style="stroke: #000000; stroke-width: 0.8"/>
      </g>
     </g>
     <g id="text_3">
      <!-- −50 -->
      <g transform="translate(160.782264 322.182437) scale(0.1 -0.1)">
       <use xlink:href="#DejaVuSans-2212"/>
       <use xlink:href="#DejaVuSans-35" x="83.789062"/>
       <use xlink:href="#DejaVuSans-30" x="147.412109"/>
      </g>
     </g>
    </g>
    <g id="xtick_4">
     <g id="line2d_4">
      <g>
       <use xlink:href="#m2e25daa7e6" x="216.425517" y="307.584" style="stroke: #000000; stroke-width: 0.8"/>
      </g>
     </g>
     <g id="text_4">
      <!-- −25 -->
      <g transform="translate(205.873173 322.182437) scale(0.1 -0.1)">
       <defs>
        <path id="DejaVuSans-32" d="M 1228 531 
L 3431 531 
L 3431 0 
L 469 0 
L 469 531 
Q 828 903 1448 1529 
Q 2069 2156 2228 2338 
Q 2531 2678 2651 2914 
Q 2772 3150 2772 3378 
Q 2772 3750 2511 3984 
Q 2250 4219 1831 4219 
Q 1534 4219 1204 4116 
Q 875 4013 500 3803 
L 500 4441 
Q 881 4594 1212 4672 
Q 1544 4750 1819 4750 
Q 2544 4750 2975 4387 
Q 3406 4025 3406 3419 
Q 3406 3131 3298 2873 
Q 3191 2616 2906 2266 
Q 2828 2175 2409 1742 
Q 1991 1309 1228 531 
z
" transform="scale(0.015625)"/>
       </defs>
       <use xlink:href="#DejaVuSans-2212"/>
       <use xlink:href="#DejaVuSans-32" x="83.789062"/>
       <use xlink:href="#DejaVuSans-35" x="147.412109"/>
      </g>
     </g>
    </g>
    <g id="xtick_5">
     <g id="line2d_5">
      <g>
       <use xlink:href="#m2e25daa7e6" x="261.516426" y="307.584" style="stroke: #000000; stroke-width: 0.8"/>
      </g>
     </g>
     <g id="text_5">
      <!-- 0 -->
      <g transform="translate(258.335176 322.182437) scale(0.1 -0.1)">
       <use xlink:href="#DejaVuSans-30"/>
      </g>
     </g>
    </g>
    <g id="xtick_6">
     <g id="line2d_6">
      <g>
       <use xlink:href="#m2e25daa7e6" x="306.607335" y="307.584" style="stroke: #000000; stroke-width: 0.8"/>
      </g>
     </g>
     <g id="text_6">
      <!-- 25 -->
      <g transform="translate(300.244835 322.182437) scale(0.1 -0.1)">
       <use xlink:href="#DejaVuSans-32"/>
       <use xlink:href="#DejaVuSans-35" x="63.623047"/>
      </g>
     </g>
    </g>
    <g id="xtick_7">
     <g id="line2d_7">
      <g>
       <use xlink:href="#m2e25daa7e6" x="351.698244" y="307.584" style="stroke: #000000; stroke-width: 0.8"/>
      </g>
     </g>
     <g id="text_7">
      <!-- 50 -->
      <g transform="translate(345.335744 322.182437) scale(0.1 -0.1)">
       <use xlink:href="#DejaVuSans-35"/>
       <use xlink:href="#DejaVuSans-30" x="63.623047"/>
      </g>
     </g>
    </g>
    <g id="xtick_8">
     <g id="line2d_8">
      <g>
       <use xlink:href="#m2e25daa7e6" x="396.789153" y="307.584" style="stroke: #000000; stroke-width: 0.8"/>
      </g>
     </g>
     <g id="text_8">
      <!-- 75 -->
      <g transform="translate(390.426653 322.182437) scale(0.1 -0.1)">
       <use xlink:href="#DejaVuSans-37"/>
       <use xlink:href="#DejaVuSans-35" x="63.623047"/>
      </g>
     </g>
    </g>
    <g id="text_9">
     <!-- value -->
     <g transform="translate(222.502187 335.860562) scale(0.1 -0.1)">
      <defs>
       <path id="DejaVuSans-76" d="M 191 3500 
L 800 3500 
L 1894 563 
L 2988 3500 
L 3597 3500 
L 2284 0 
L 1503 0 
L 191 3500 
z
" transform="scale(0.015625)"/>
       <path id="DejaVuSans-61" d="M 2194 1759 
Q 1497 1759 1228 1600 
Q 959 1441 959 1056 
Q 959 750 1161 570 
Q 1363 391 1709 391 
Q 2188 391 2477 730 
Q 2766 1069 2766 1631 
L 2766 1759 
L 2194 1759 
z
M 3341 1997 
L 3341 0 
L 2766 0 
L 2766 531 
Q 2569 213 2275 61 
Q 1981 -91 1556 -91 
Q 1019 -91 701 211 
Q 384 513 384 1019 
Q 384 1609 779 1909 
Q 1175 2209 1959 2209 
L 2766 2209 
L 2766 2266 
Q 2766 2663 2505 2880 
Q 2244 3097 1772 3097 
Q 1472 3097 1187 3025 
Q 903 2953 641 2809 
L 641 3341 
Q 956 3463 1253 3523 
Q 1550 3584 1831 3584 
Q 2591 3584 2966 3190 
Q 3341 2797 3341 1997 
z
" transform="scale(0.015625)"/>
       <path id="DejaVuSans-6c" d="M 603 4863 
L 1178 4863 
L 1178 0 
L 603 0 
L 603 4863 
z
" transform="scale(0.015625)"/>
       <path id="DejaVuSans-75" d="M 544 1381 
L 544 3500 
L 1119 3500 
L 1119 1403 
Q 1119 906 1312 657 
Q 1506 409 1894 409 
Q 2359 409 2629 706 
Q 2900 1003 2900 1516 
L 2900 3500 
L 3475 3500 
L 3475 0 
L 2900 0 
L 2900 538 
Q 2691 219 2414 64 
Q 2138 -91 1772 -91 
Q 1169 -91 856 284 
Q 544 659 544 1381 
z
M 1991 3584 
L 1991 3584 
z
" transform="scale(0.015625)"/>
       <path id="DejaVuSans-65" d="M 3597 1894 
L 3597 1613 
L 953 1613 
Q 991 1019 1311 708 
Q 1631 397 2203 397 
Q 2534 397 2845 478 
Q 3156 559 3463 722 
L 3463 178 
Q 3153 47 2828 -22 
Q 2503 -91 2169 -91 
Q 1331 -91 842 396 
Q 353 884 353 1716 
Q 353 2575 817 3079 
Q 1281 3584 2069 3584 
Q 2775 3584 3186 3129 
Q 3597 2675 3597 1894 
z
M 3022 2063 
Q 3016 2534 2758 2815 
Q 2500 3097 2075 3097 
Q 1594 3097 1305 2825 
Q 1016 2553 972 2059 
L 3022 2063 
z
" transform="scale(0.015625)"/>
      </defs>
      <use xlink:href="#DejaVuSans-76"/>
      <use xlink:href="#DejaVuSans-61" x="59.179688"/>
      <use xlink:href="#DejaVuSans-6c" x="120.458984"/>
      <use xlink:href="#DejaVuSans-75" x="148.242188"/>
      <use xlink:href="#DejaVuSans-65" x="211.621094"/>
     </g>
    </g>
   </g>
   <g id="matplotlib.axis_2">
    <g id="ytick_1">
     <g id="line2d_9">
      <defs>
       <path id="m6265aa6533" d="M 0 0 
L -3.5 0 
" style="stroke: #000000; stroke-width: 0.8"/>
      </defs>
      <g>
       <use xlink:href="#m6265aa6533" x="57.6" y="307.584" style="stroke: #000000; stroke-width: 0.8"/>
      </g>
     </g>
     <g id="text_10">
      <!-- 0.0000 -->
      <g transform="translate(15.609375 311.383219) scale(0.1 -0.1)">
       <defs>
        <path id="DejaVuSans-2e" d="M 684 794 
L 1344 794 
L 1344 0 
L 684 0 
L 684 794 
z
" transform="scale(0.015625)"/>
       </defs>
       <use xlink:href="#DejaVuSans-30"/>
       <use xlink:href="#DejaVuSans-2e" x="63.623047"/>
       <use xlink:href="#DejaVuSans-30" x="95.410156"/>
       <use xlink:href="#DejaVuSans-30" x="159.033203"/>
       <use xlink:href="#DejaVuSans-30" x="222.65625"/>
       <use xlink:href="#DejaVuSans-30" x="286.279297"/>
      </g>
     </g>
    </g>
    <g id="ytick_2">
     <g id="line2d_10">
      <g>
       <use xlink:href="#m6265aa6533" x="57.6" y="275.482081" style="stroke: #000000; stroke-width: 0.8"/>
      </g>
     </g>
     <g id="text_11">
      <!-- 0.0025 -->
      <g transform="translate(15.609375 279.281299) scale(0.1 -0.1)">
       <use xlink:href="#DejaVuSans-30"/>
       <use xlink:href="#DejaVuSans-2e" x="63.623047"/>
       <use xlink:href="#DejaVuSans-30" x="95.410156"/>
       <use xlink:href="#DejaVuSans-30" x="159.033203"/>
       <use xlink:href="#DejaVuSans-32" x="222.65625"/>
       <use xlink:href="#DejaVuSans-35" x="286.279297"/>
      </g>
     </g>
    </g>
    <g id="ytick_3">
     <g id="line2d_11">
      <g>
       <use xlink:href="#m6265aa6533" x="57.6" y="243.380161" style="stroke: #000000; stroke-width: 0.8"/>
      </g>
     </g>
     <g id="text_12">
      <!-- 0.0050 -->
      <g transform="translate(15.609375 247.17938) scale(0.1 -0.1)">
       <use xlink:href="#DejaVuSans-30"/>
       <use xlink:href="#DejaVuSans-2e" x="63.623047"/>
       <use xlink:href="#DejaVuSans-30" x="95.410156"/>
       <use xlink:href="#DejaVuSans-30" x="159.033203"/>
       <use xlink:href="#DejaVuSans-35" x="222.65625"/>
       <use xlink:href="#DejaVuSans-30" x="286.279297"/>
      </g>
     </g>
    </g>
    <g id="ytick_4">
     <g id="line2d_12">
      <g>
       <use xlink:href="#m6265aa6533" x="57.6" y="211.278242" style="stroke: #000000; stroke-width: 0.8"/>
      </g>
     </g>
     <g id="text_13">
      <!-- 0.0075 -->
      <g transform="translate(15.609375 215.07746) scale(0.1 -0.1)">
       <use xlink:href="#DejaVuSans-30"/>
       <use xlink:href="#DejaVuSans-2e" x="63.623047"/>
       <use xlink:href="#DejaVuSans-30" x="95.410156"/>
       <use xlink:href="#DejaVuSans-30" x="159.033203"/>
       <use xlink:href="#DejaVuSans-37" x="222.65625"/>
       <use xlink:href="#DejaVuSans-35" x="286.279297"/>
      </g>
     </g>
    </g>
    <g id="ytick_5">
     <g id="line2d_13">
      <g>
       <use xlink:href="#m6265aa6533" x="57.6" y="179.176322" style="stroke: #000000; stroke-width: 0.8"/>
      </g>
     </g>
     <g id="text_14">
      <!-- 0.0100 -->
      <g transform="translate(15.609375 182.975541) scale(0.1 -0.1)">
       <use xlink:href="#DejaVuSans-30"/>
       <use xlink:href="#DejaVuSans-2e" x="63.623047"/>
       <use xlink:href="#DejaVuSans-30" x="95.410156"/>
       <use xlink:href="#DejaVuSans-31" x="159.033203"/>
       <use xlink:href="#DejaVuSans-30" x="222.65625"/>
       <use xlink:href="#DejaVuSans-30" x="286.279297"/>
      </g>
     </g>
    </g>
    <g id="ytick_6">
     <g id="line2d_14">
      <g>
       <use xlink:href="#m6265aa6533" x="57.6" y="147.074403" style="stroke: #000000; stroke-width: 0.8"/>
      </g>
     </g>
     <g id="text_15">
      <!-- 0.0125 -->
      <g transform="translate(15.609375 150.873621) scale(0.1 -0.1)">
       <use xlink:href="#DejaVuSans-30"/>
       <use xlink:href="#DejaVuSans-2e" x="63.623047"/>
       <use xlink:href="#DejaVuSans-30" x="95.410156"/>
       <use xlink:href="#DejaVuSans-31" x="159.033203"/>
       <use xlink:href="#DejaVuSans-32" x="222.65625"/>
       <use xlink:href="#DejaVuSans-35" x="286.279297"/>
      </g>
     </g>
    </g>
    <g id="ytick_7">
     <g id="line2d_15">
      <g>
       <use xlink:href="#m6265aa6533" x="57.6" y="114.972483" style="stroke: #000000; stroke-width: 0.8"/>
      </g>
     </g>
     <g id="text_16">
      <!-- 0.0150 -->
      <g transform="translate(15.609375 118.771702) scale(0.1 -0.1)">
       <use xlink:href="#DejaVuSans-30"/>
       <use xlink:href="#DejaVuSans-2e" x="63.623047"/>
       <use xlink:href="#DejaVuSans-30" x="95.410156"/>
       <use xlink:href="#DejaVuSans-31" x="159.033203"/>
       <use xlink:href="#DejaVuSans-35" x="222.65625"/>
       <use xlink:href="#DejaVuSans-30" x="286.279297"/>
      </g>
     </g>
    </g>
    <g id="ytick_8">
     <g id="line2d_16">
      <g>
       <use xlink:href="#m6265aa6533" x="57.6" y="82.870564" style="stroke: #000000; stroke-width: 0.8"/>
      </g>
     </g>
     <g id="text_17">
      <!-- 0.0175 -->
      <g transform="translate(15.609375 86.669783) scale(0.1 -0.1)">
       <use xlink:href="#DejaVuSans-30"/>
       <use xlink:href="#DejaVuSans-2e" x="63.623047"/>
       <use xlink:href="#DejaVuSans-30" x="95.410156"/>
       <use xlink:href="#DejaVuSans-31" x="159.033203"/>
       <use xlink:href="#DejaVuSans-37" x="222.65625"/>
       <use xlink:href="#DejaVuSans-35" x="286.279297"/>
      </g>
     </g>
    </g>
    <g id="ytick_9">
     <g id="line2d_17">
      <g>
       <use xlink:href="#m6265aa6533" x="57.6" y="50.768644" style="stroke: #000000; stroke-width: 0.8"/>
      </g>
     </g>
     <g id="text_18">
      <!-- 0.0200 -->
      <g transform="translate(15.609375 54.567863) scale(0.1 -0.1)">
       <use xlink:href="#DejaVuSans-30"/>
       <use xlink:href="#DejaVuSans-2e" x="63.623047"/>
       <use xlink:href="#DejaVuSans-30" x="95.410156"/>
       <use xlink:href="#DejaVuSans-32" x="159.033203"/>
       <use xlink:href="#DejaVuSans-30" x="222.65625"/>
       <use xlink:href="#DejaVuSans-30" x="286.279297"/>
      </g>
     </g>
    </g>
    <g id="text_19">
     <!-- density -->
     <g transform="translate(9.529687 192.860812) rotate(-90) scale(0.1 -0.1)">
      <defs>
       <path id="DejaVuSans-64" d="M 2906 2969 
L 2906 4863 
L 3481 4863 
L 3481 0 
L 2906 0 
L 2906 525 
Q 2725 213 2448 61 
Q 2172 -91 1784 -91 
Q 1150 -91 751 415 
Q 353 922 353 1747 
Q 353 2572 751 3078 
Q 1150 3584 1784 3584 
Q 2172 3584 2448 3432 
Q 2725 3281 2906 2969 
z
M 947 1747 
Q 947 1113 1208 752 
Q 1469 391 1925 391 
Q 2381 391 2643 752 
Q 2906 1113 2906 1747 
Q 2906 2381 2643 2742 
Q 2381 3103 1925 3103 
Q 1469 3103 1208 2742 
Q 947 2381 947 1747 
z
" transform="scale(0.015625)"/>
       <path id="DejaVuSans-6e" d="M 3513 2113 
L 3513 0 
L 2938 0 
L 2938 2094 
Q 2938 2591 2744 2837 
Q 2550 3084 2163 3084 
Q 1697 3084 1428 2787 
Q 1159 2491 1159 1978 
L 1159 0 
L 581 0 
L 581 3500 
L 1159 3500 
L 1159 2956 
Q 1366 3272 1645 3428 
Q 1925 3584 2291 3584 
Q 2894 3584 3203 3211 
Q 3513 2838 3513 2113 
z
" transform="scale(0.015625)"/>
       <path id="DejaVuSans-73" d="M 2834 3397 
L 2834 2853 
Q 2591 2978 2328 3040 
Q 2066 3103 1784 3103 
Q 1356 3103 1142 2972 
Q 928 2841 928 2578 
Q 928 2378 1081 2264 
Q 1234 2150 1697 2047 
L 1894 2003 
Q 2506 1872 2764 1633 
Q 3022 1394 3022 966 
Q 3022 478 2636 193 
Q 2250 -91 1575 -91 
Q 1294 -91 989 -36 
Q 684 19 347 128 
L 347 722 
Q 666 556 975 473 
Q 1284 391 1588 391 
Q 1994 391 2212 530 
Q 2431 669 2431 922 
Q 2431 1156 2273 1281 
Q 2116 1406 1581 1522 
L 1381 1569 
Q 847 1681 609 1914 
Q 372 2147 372 2553 
Q 372 3047 722 3315 
Q 1072 3584 1716 3584 
Q 2034 3584 2315 3537 
Q 2597 3491 2834 3397 
z
" transform="scale(0.015625)"/>
       <path id="DejaVuSans-69" d="M 603 3500 
L 1178 3500 
L 1178 0 
L 603 0 
L 603 3500 
z
M 603 4863 
L 1178 4863 
L 1178 4134 
L 603 4134 
L 603 4863 
z
" transform="scale(0.015625)"/>
       <path id="DejaVuSans-74" d="M 1172 4494 
L 1172 3500 
L 2356 3500 
L 2356 3053 
L 1172 3053 
L 1172 1153 
Q 1172 725 1289 603 
Q 1406 481 1766 481 
L 2356 481 
L 2356 0 
L 1766 0 
Q 1100 0 847 248 
Q 594 497 594 1153 
L 594 3053 
L 172 3053 
L 172 3500 
L 594 3500 
L 594 4494 
L 1172 4494 
z
" transform="scale(0.015625)"/>
       <path id="DejaVuSans-79" d="M 2059 -325 
Q 1816 -950 1584 -1140 
Q 1353 -1331 966 -1331 
L 506 -1331 
L 506 -850 
L 844 -850 
Q 1081 -850 1212 -737 
Q 1344 -625 1503 -206 
L 1606 56 
L 191 3500 
L 800 3500 
L 1894 763 
L 2988 3500 
L 3597 3500 
L 2059 -325 
z
" transform="scale(0.015625)"/>
      </defs>
      <use xlink:href="#DejaVuSans-64"/>
      <use xlink:href="#DejaVuSans-65" x="63.476562"/>
      <use xlink:href="#DejaVuSans-6e" x="125"/>
      <use xlink:href="#DejaVuSans-73" x="188.378906"/>
      <use xlink:href="#DejaVuSans-69" x="240.478516"/>
      <use xlink:href="#DejaVuSans-74" x="268.261719"/>
      <use xlink:href="#DejaVuSans-79" x="307.470703"/>
     </g>
    </g>
   </g>
   <g id="patch_93">
    <path d="M 57.6 307.584 
L 57.6 41.472 
" style="fill: none; stroke: #000000; stroke-width: 0.8; stroke-linejoin: miter; stroke-linecap: square"/>
   </g>
   <g id="patch_94">
    <path d="M 414.72 307.584 
L 414.72 41.472 
" style="fill: none; stroke: #000000; stroke-width: 0.8; stroke-linejoin: miter; stroke-linecap: square"/>
   </g>
   <g id="patch_95">
    <path d="M 57.6 307.584 
L 414.72 307.584 
" style="fill: none; stroke: #000000; stroke-width: 0.8; stroke-linejoin: miter; stroke-linecap: square"/>
   </g>
   <g id="patch_96">
    <path d="M 57.6 41.472 
L 414.72 41.472 
" style="fill: none; stroke: #000000; stroke-width: 0.8; stroke-linejoin: miter; stroke-linecap: square"/>
   </g>
   <g id="text_20">
    <!-- wave8m_dir, N = 66804 -->
    <g transform="translate(163.497187 35.472) scale(0.12 -0.12)">
     <defs>
      <path id="DejaVuSans-77" d="M 269 3500 
L 844 3500 
L 1563 769 
L 2278 3500 
L 2956 3500 
L 3675 769 
L 4391 3500 
L 4966 3500 
L 4050 0 
L 3372 0 
L 2619 2869 
L 1863 0 
L 1184 0 
L 269 3500 
z
" transform="scale(0.015625)"/>
      <path id="DejaVuSans-38" d="M 2034 2216 
Q 1584 2216 1326 1975 
Q 1069 1734 1069 1313 
Q 1069 891 1326 650 
Q 1584 409 2034 409 
Q 2484 409 2743 651 
Q 3003 894 3003 1313 
Q 3003 1734 2745 1975 
Q 2488 2216 2034 2216 
z
M 1403 2484 
Q 997 2584 770 2862 
Q 544 3141 544 3541 
Q 544 4100 942 4425 
Q 1341 4750 2034 4750 
Q 2731 4750 3128 4425 
Q 3525 4100 3525 3541 
Q 3525 3141 3298 2862 
Q 3072 2584 2669 2484 
Q 3125 2378 3379 2068 
Q 3634 1759 3634 1313 
Q 3634 634 3220 271 
Q 2806 -91 2034 -91 
Q 1263 -91 848 271 
Q 434 634 434 1313 
Q 434 1759 690 2068 
Q 947 2378 1403 2484 
z
M 1172 3481 
Q 1172 3119 1398 2916 
Q 1625 2713 2034 2713 
Q 2441 2713 2670 2916 
Q 2900 3119 2900 3481 
Q 2900 3844 2670 4047 
Q 2441 4250 2034 4250 
Q 1625 4250 1398 4047 
Q 1172 3844 1172 3481 
z
" transform="scale(0.015625)"/>
      <path id="DejaVuSans-6d" d="M 3328 2828 
Q 3544 3216 3844 3400 
Q 4144 3584 4550 3584 
Q 5097 3584 5394 3201 
Q 5691 2819 5691 2113 
L 5691 0 
L 5113 0 
L 5113 2094 
Q 5113 2597 4934 2840 
Q 4756 3084 4391 3084 
Q 3944 3084 3684 2787 
Q 3425 2491 3425 1978 
L 3425 0 
L 2847 0 
L 2847 2094 
Q 2847 2600 2669 2842 
Q 2491 3084 2119 3084 
Q 1678 3084 1418 2786 
Q 1159 2488 1159 1978 
L 1159 0 
L 581 0 
L 581 3500 
L 1159 3500 
L 1159 2956 
Q 1356 3278 1631 3431 
Q 1906 3584 2284 3584 
Q 2666 3584 2933 3390 
Q 3200 3197 3328 2828 
z
" transform="scale(0.015625)"/>
      <path id="DejaVuSans-5f" d="M 3263 -1063 
L 3263 -1509 
L -63 -1509 
L -63 -1063 
L 3263 -1063 
z
" transform="scale(0.015625)"/>
      <path id="DejaVuSans-72" d="M 2631 2963 
Q 2534 3019 2420 3045 
Q 2306 3072 2169 3072 
Q 1681 3072 1420 2755 
Q 1159 2438 1159 1844 
L 1159 0 
L 581 0 
L 581 3500 
L 1159 3500 
L 1159 2956 
Q 1341 3275 1631 3429 
Q 1922 3584 2338 3584 
Q 2397 3584 2469 3576 
Q 2541 3569 2628 3553 
L 2631 2963 
z
" transform="scale(0.015625)"/>
      <path id="DejaVuSans-2c" d="M 750 794 
L 1409 794 
L 1409 256 
L 897 -744 
L 494 -744 
L 750 256 
L 750 794 
z
" transform="scale(0.015625)"/>
      <path id="DejaVuSans-20" transform="scale(0.015625)"/>
      <path id="DejaVuSans-4e" d="M 628 4666 
L 1478 4666 
L 3547 763 
L 3547 4666 
L 4159 4666 
L 4159 0 
L 3309 0 
L 1241 3903 
L 1241 0 
L 628 0 
L 628 4666 
z
" transform="scale(0.015625)"/>
      <path id="DejaVuSans-3d" d="M 678 2906 
L 4684 2906 
L 4684 2381 
L 678 2381 
L 678 2906 
z
M 678 1631 
L 4684 1631 
L 4684 1100 
L 678 1100 
L 678 1631 
z
" transform="scale(0.015625)"/>
      <path id="DejaVuSans-36" d="M 2113 2584 
Q 1688 2584 1439 2293 
Q 1191 2003 1191 1497 
Q 1191 994 1439 701 
Q 1688 409 2113 409 
Q 2538 409 2786 701 
Q 3034 994 3034 1497 
Q 3034 2003 2786 2293 
Q 2538 2584 2113 2584 
z
M 3366 4563 
L 3366 3988 
Q 3128 4100 2886 4159 
Q 2644 4219 2406 4219 
Q 1781 4219 1451 3797 
Q 1122 3375 1075 2522 
Q 1259 2794 1537 2939 
Q 1816 3084 2150 3084 
Q 2853 3084 3261 2657 
Q 3669 2231 3669 1497 
Q 3669 778 3244 343 
Q 2819 -91 2113 -91 
Q 1303 -91 875 529 
Q 447 1150 447 2328 
Q 447 3434 972 4092 
Q 1497 4750 2381 4750 
Q 2619 4750 2861 4703 
Q 3103 4656 3366 4563 
z
" transform="scale(0.015625)"/>
      <path id="DejaVuSans-34" d="M 2419 4116 
L 825 1625 
L 2419 1625 
L 2419 4116 
z
M 2253 4666 
L 3047 4666 
L 3047 1625 
L 3713 1625 
L 3713 1100 
L 3047 1100 
L 3047 0 
L 2419 0 
L 2419 1100 
L 313 1100 
L 313 1709 
L 2253 4666 
z
" transform="scale(0.015625)"/>
     </defs>
     <use xlink:href="#DejaVuSans-77"/>
     <use xlink:href="#DejaVuSans-61" x="81.787109"/>
     <use xlink:href="#DejaVuSans-76" x="143.066406"/>
     <use xlink:href="#DejaVuSans-65" x="202.246094"/>
     <use xlink:href="#DejaVuSans-38" x="263.769531"/>
     <use xlink:href="#DejaVuSans-6d" x="327.392578"/>
     <use xlink:href="#DejaVuSans-5f" x="424.804688"/>
     <use xlink:href="#DejaVuSans-64" x="474.804688"/>
     <use xlink:href="#DejaVuSans-69" x="538.28125"/>
     <use xlink:href="#DejaVuSans-72" x="566.064453"/>
     <use xlink:href="#DejaVuSans-2c" x="607.177734"/>
     <use xlink:href="#DejaVuSans-20" x="638.964844"/>
     <use xlink:href="#DejaVuSans-4e" x="670.751953"/>
     <use xlink:href="#DejaVuSans-20" x="745.556641"/>
     <use xlink:href="#DejaVuSans-3d" x="777.34375"/>
     <use xlink:href="#DejaVuSans-20" x="861.132812"/>
     <use xlink:href="#DejaVuSans-36" x="892.919922"/>
     <use xlink:href="#DejaVuSans-36" x="956.542969"/>
     <use xlink:href="#DejaVuSans-38" x="1020.166016"/>
     <use xlink:href="#DejaVuSans-30" x="1083.789062"/>
     <use xlink:href="#DejaVuSans-34" x="1147.412109"/>
    </g>
   </g>
  </g>
 </g>
 <defs>
  <clipPath id="p08fa14171b">
   <rect x="57.6" y="41.472" width="357.12" height="266.112"/>
  </clipPath>
 </defs>
</svg>
