<?xml version="1.0" encoding="utf-8" standalone="no"?>
<!DOCTYPE svg PUBLIC "-//W3C//DTD SVG 1.1//EN"
  "http://www.w3.org/Graphics/SVG/1.1/DTD/svg11.dtd">
<svg xmlns:xlink="http://www.w3.org/1999/xlink" width="460.8pt" height="345.6pt" viewBox="0 0 460.8 345.6" xmlns="http://www.w3.org/2000/svg" version="1.1">
 <metadata>
  <rdf:RDF xmlns:dc="http://purl.org/dc/elements/1.1/" xmlns:cc="http://creativecommons.org/ns#" xmlns:rdf="http://www.w3.org/1999/02/22-rdf-syntax-ns#">
   <cc:Work>
    <dc:type rdf:resource="http://purl.org/dc/dcmitype/StillImage"/>
    <dc:date>2024-06-19T20:44:07.690430</dc:date>
    <dc:format>image/svg+xml</dc:format>
    <dc:creator>
     <cc:Agent>
      <dc:title>Matplotlib v3.8.0, https://matplotlib.org/</dc:title>
     </cc:Agent>
    </dc:creator>
   </cc:Work>
  </rdf:RDF>
 </metadata>
 <defs>
  <style type="text/css">*{stroke-linejoin: round; stroke-linecap: butt}</style>
 </defs>
 <g id="figure_1">
  <g id="patch_1">
   <path d="M 0 345.6 
L 460.8 345.6 
L 460.8 0 
L 0 0 
z
" style="fill: #ffffff"/>
  </g>
  <g id="axes_1">
   <g id="patch_2">
    <path d="M 57.6 307.584 
L 414.72 307.584 
L 414.72 41.472 
L 57.6 41.472 
z
" style="fill: #ffffff"/>
   </g>
   <g id="patch_3">
    <path d="M 73.832727 307.584 
L 75.456 307.584 
L 75.456 306.462584 
L 73.832727 306.462584 
z
" clip-path="url(#pd061d7980c)" style="fill: #1f77b4"/>
   </g>
   <g id="patch_4">
    <path d="M 75.456 307.584 
L 77.079273 307.584 
L 77.079273 304.359929 
L 75.456 304.359929 
z
" clip-path="url(#pd061d7980c)" style="fill: #1f77b4"/>
   </g>
   <g id="patch_5">
    <path d="M 77.079273 307.584 
L 78.702545 307.584 
L 78.702545 292.444885 
L 77.079273 292.444885 
z
" clip-path="url(#pd061d7980c)" style="fill: #1f77b4"/>
   </g>
   <g id="patch_6">
    <path d="M 78.702545 307.584 
L 80.325818 307.584 
L 80.325818 279.408425 
L 78.702545 279.408425 
z
" clip-path="url(#pd061d7980c)" style="fill: #1f77b4"/>
   </g>
   <g id="patch_7">
    <path d="M 80.325818 307.584 
L 81.949091 307.584 
L 81.949091 278.70754 
L 80.325818 278.70754 
z
" clip-path="url(#pd061d7980c)" style="fill: #1f77b4"/>
   </g>
   <g id="patch_8">
    <path d="M 81.949091 307.584 
L 83.572364 307.584 
L 83.572364 284.174442 
L 81.949091 284.174442 
z
" clip-path="url(#pd061d7980c)" style="fill: #1f77b4"/>
   </g>
   <g id="patch_9">
    <path d="M 83.572364 307.584 
L 85.195636 307.584 
L 85.195636 288.660106 
L 83.572364 288.660106 
z
" clip-path="url(#pd061d7980c)" style="fill: #1f77b4"/>
   </g>
   <g id="patch_10">
    <path d="M 85.195636 307.584 
L 86.818909 307.584 
L 86.818909 287.398513 
L 85.195636 287.398513 
z
" clip-path="url(#pd061d7980c)" style="fill: #1f77b4"/>
   </g>
   <g id="patch_11">
    <path d="M 86.818909 307.584 
L 88.442182 307.584 
L 88.442182 278.70754 
L 86.818909 278.70754 
z
" clip-path="url(#pd061d7980c)" style="fill: #1f77b4"/>
   </g>
   <g id="patch_12">
    <path d="M 88.442182 307.584 
L 90.065455 307.584 
L 90.065455 288.800283 
L 88.442182 288.800283 
z
" clip-path="url(#pd061d7980c)" style="fill: #1f77b4"/>
   </g>
   <g id="patch_13">
    <path d="M 90.065455 307.584 
L 91.688727 307.584 
L 91.688727 279.408425 
L 90.065455 279.408425 
z
" clip-path="url(#pd061d7980c)" style="fill: #1f77b4"/>
   </g>
   <g id="patch_14">
    <path d="M 91.688727 307.584 
L 93.312 307.584 
L 93.312 278.987894 
L 91.688727 278.987894 
z
" clip-path="url(#pd061d7980c)" style="fill: #1f77b4"/>
   </g>
   <g id="patch_15">
    <path d="M 93.312 307.584 
L 94.935273 307.584 
L 94.935273 278.70754 
L 93.312 278.70754 
z
" clip-path="url(#pd061d7980c)" style="fill: #1f77b4"/>
   </g>
   <g id="patch_16">
    <path d="M 94.935273 307.584 
L 96.558545 307.584 
L 96.558545 270.29692 
L 94.935273 270.29692 
z
" clip-path="url(#pd061d7980c)" style="fill: #1f77b4"/>
   </g>
   <g id="patch_17">
    <path d="M 96.558545 307.584 
L 98.181818 307.584 
L 98.181818 270.997805 
L 96.558545 270.997805 
z
" clip-path="url(#pd061d7980c)" style="fill: #1f77b4"/>
   </g>
   <g id="patch_18">
    <path d="M 98.181818 307.584 
L 99.805091 307.584 
L 99.805091 276.184354 
L 98.181818 276.184354 
z
" clip-path="url(#pd061d7980c)" style="fill: #1f77b4"/>
   </g>
   <g id="patch_19">
    <path d="M 99.805091 307.584 
L 101.428364 307.584 
L 101.428364 254.877451 
L 99.805091 254.877451 
z
" clip-path="url(#pd061d7980c)" style="fill: #1f77b4"/>
   </g>
   <g id="patch_20">
    <path d="M 101.428364 307.584 
L 103.051636 307.584 
L 103.051636 278.427186 
L 101.428364 278.427186 
z
" clip-path="url(#pd061d7980c)" style="fill: #1f77b4"/>
   </g>
   <g id="patch_21">
    <path d="M 103.051636 307.584 
L 104.674909 307.584 
L 104.674909 242.261522 
L 103.051636 242.261522 
z
" clip-path="url(#pd061d7980c)" style="fill: #1f77b4"/>
   </g>
   <g id="patch_22">
    <path d="M 104.674909 307.584 
L 106.298182 307.584 
L 106.298182 271.979044 
L 104.674909 271.979044 
z
" clip-path="url(#pd061d7980c)" style="fill: #1f77b4"/>
   </g>
   <g id="patch_23">
    <path d="M 106.298182 307.584 
L 107.921455 307.584 
L 107.921455 245.765947 
L 106.298182 245.765947 
z
" clip-path="url(#pd061d7980c)" style="fill: #1f77b4"/>
   </g>
   <g id="patch_24">
    <path d="M 107.921455 307.584 
L 109.544727 307.584 
L 109.544727 231.18754 
L 107.921455 231.18754 
z
" clip-path="url(#pd061d7980c)" style="fill: #1f77b4"/>
   </g>
   <g id="patch_25">
    <path d="M 109.544727 307.584 
L 111.168 307.584 
L 111.168 267.773735 
L 109.544727 267.773735 
z
" clip-path="url(#pd061d7980c)" style="fill: #1f77b4"/>
   </g>
   <g id="patch_26">
    <path d="M 111.168 307.584 
L 112.791273 307.584 
L 112.791273 223.898336 
L 111.168 223.898336 
z
" clip-path="url(#pd061d7980c)" style="fill: #1f77b4"/>
   </g>
   <g id="patch_27">
    <path d="M 112.791273 307.584 
L 114.414545 307.584 
L 114.414545 223.758159 
L 112.791273 223.758159 
z
" clip-path="url(#pd061d7980c)" style="fill: #1f77b4"/>
   </g>
   <g id="patch_28">
    <path d="M 114.414545 307.584 
L 116.037818 307.584 
L 116.037818 262.166655 
L 114.414545 262.166655 
z
" clip-path="url(#pd061d7980c)" style="fill: #1f77b4"/>
   </g>
   <g id="patch_29">
    <path d="M 116.037818 307.584 
L 117.661091 307.584 
L 117.661091 213.104708 
L 116.037818 213.104708 
z
" clip-path="url(#pd061d7980c)" style="fill: #1f77b4"/>
   </g>
   <g id="patch_30">
    <path d="M 117.661091 307.584 
L 119.284364 307.584 
L 119.284364 205.955681 
L 117.661091 205.955681 
z
" clip-path="url(#pd061d7980c)" style="fill: #1f77b4"/>
   </g>
   <g id="patch_31">
    <path d="M 119.284364 307.584 
L 120.907636 307.584 
L 120.907636 249.550726 
L 119.284364 249.550726 
z
" clip-path="url(#pd061d7980c)" style="fill: #1f77b4"/>
   </g>
   <g id="patch_32">
    <path d="M 120.907636 307.584 
L 122.530909 307.584 
L 122.530909 228.384 
L 120.907636 228.384 
z
" clip-path="url(#pd061d7980c)" style="fill: #1f77b4"/>
   </g>
   <g id="patch_33">
    <path d="M 122.530909 307.584 
L 124.154182 307.584 
L 124.154182 194.180814 
L 122.530909 194.180814 
z
" clip-path="url(#pd061d7980c)" style="fill: #1f77b4"/>
   </g>
   <g id="patch_34">
    <path d="M 124.154182 307.584 
L 125.777455 307.584 
L 125.777455 212.123469 
L 124.154182 212.123469 
z
" clip-path="url(#pd061d7980c)" style="fill: #1f77b4"/>
   </g>
   <g id="patch_35">
    <path d="M 125.777455 307.584 
L 127.400727 307.584 
L 127.400727 248.849841 
L 125.777455 248.849841 
z
" clip-path="url(#pd061d7980c)" style="fill: #1f77b4"/>
   </g>
   <g id="patch_36">
    <path d="M 127.400727 307.584 
L 129.024 307.584 
L 129.024 224.879575 
L 127.400727 224.879575 
z
" clip-path="url(#pd061d7980c)" style="fill: #1f77b4"/>
   </g>
   <g id="patch_37">
    <path d="M 129.024 307.584 
L 130.647273 307.584 
L 130.647273 150.58577 
L 129.024 150.58577 
z
" clip-path="url(#pd061d7980c)" style="fill: #1f77b4"/>
   </g>
   <g id="patch_38">
    <path d="M 130.647273 307.584 
L 132.270545 307.584 
L 132.270545 209.179752 
L 130.647273 209.179752 
z
" clip-path="url(#pd061d7980c)" style="fill: #1f77b4"/>
   </g>
   <g id="patch_39">
    <path d="M 132.270545 307.584 
L 133.893818 307.584 
L 133.893818 244.364177 
L 132.270545 244.364177 
z
" clip-path="url(#pd061d7980c)" style="fill: #1f77b4"/>
   </g>
   <g id="patch_40">
    <path d="M 133.893818 307.584 
L 135.517091 307.584 
L 135.517091 243.943646 
L 133.893818 243.943646 
z
" clip-path="url(#pd061d7980c)" style="fill: #1f77b4"/>
   </g>
   <g id="patch_41">
    <path d="M 135.517091 307.584 
L 137.140364 307.584 
L 137.140364 195.442407 
L 135.517091 195.442407 
z
" clip-path="url(#pd061d7980c)" style="fill: #1f77b4"/>
   </g>
   <g id="patch_42">
    <path d="M 137.140364 307.584 
L 138.763636 307.584 
L 138.763636 170.210549 
L 137.140364 170.210549 
z
" clip-path="url(#pd061d7980c)" style="fill: #1f77b4"/>
   </g>
   <g id="patch_43">
    <path d="M 138.763636 307.584 
L 140.386909 307.584 
L 140.386909 196.704 
L 138.763636 196.704 
z
" clip-path="url(#pd061d7980c)" style="fill: #1f77b4"/>
   </g>
   <g id="patch_44">
    <path d="M 140.386909 307.584 
L 142.010182 307.584 
L 142.010182 252.494442 
L 140.386909 252.494442 
z
" clip-path="url(#pd061d7980c)" style="fill: #1f77b4"/>
   </g>
   <g id="patch_45">
    <path d="M 142.010182 307.584 
L 143.633455 307.584 
L 143.633455 238.61692 
L 142.010182 238.61692 
z
" clip-path="url(#pd061d7980c)" style="fill: #1f77b4"/>
   </g>
   <g id="patch_46">
    <path d="M 143.633455 307.584 
L 145.256727 307.584 
L 145.256727 194.601345 
L 143.633455 194.601345 
z
" clip-path="url(#pd061d7980c)" style="fill: #1f77b4"/>
   </g>
   <g id="patch_47">
    <path d="M 145.256727 307.584 
L 146.88 307.584 
L 146.88 156.333027 
L 145.256727 156.333027 
z
" clip-path="url(#pd061d7980c)" style="fill: #1f77b4"/>
   </g>
   <g id="patch_48">
    <path d="M 146.88 307.584 
L 148.503273 307.584 
L 148.503273 186.190726 
L 146.88 186.190726 
z
" clip-path="url(#pd061d7980c)" style="fill: #1f77b4"/>
   </g>
   <g id="patch_49">
    <path d="M 148.503273 307.584 
L 150.126545 307.584 
L 150.126545 214.226124 
L 148.503273 214.226124 
z
" clip-path="url(#pd061d7980c)" style="fill: #1f77b4"/>
   </g>
   <g id="patch_50">
    <path d="M 150.126545 307.584 
L 151.749818 307.584 
L 151.749818 248.849841 
L 150.126545 248.849841 
z
" clip-path="url(#pd061d7980c)" style="fill: #1f77b4"/>
   </g>
   <g id="patch_51">
    <path d="M 151.749818 307.584 
L 153.373091 307.584 
L 153.373091 224.459044 
L 151.749818 224.459044 
z
" clip-path="url(#pd061d7980c)" style="fill: #1f77b4"/>
   </g>
   <g id="patch_52">
    <path d="M 153.373091 307.584 
L 154.996364 307.584 
L 154.996364 181.845239 
L 153.373091 181.845239 
z
" clip-path="url(#pd061d7980c)" style="fill: #1f77b4"/>
   </g>
   <g id="patch_53">
    <path d="M 154.996364 307.584 
L 156.619636 307.584 
L 156.619636 128.157451 
L 154.996364 128.157451 
z
" clip-path="url(#pd061d7980c)" style="fill: #1f77b4"/>
   </g>
   <g id="patch_54">
    <path d="M 156.619636 307.584 
L 158.242909 307.584 
L 158.242909 123.952142 
L 156.619636 123.952142 
z
" clip-path="url(#pd061d7980c)" style="fill: #1f77b4"/>
   </g>
   <g id="patch_55">
    <path d="M 158.242909 307.584 
L 159.866182 307.584 
L 159.866182 171.612319 
L 158.242909 171.612319 
z
" clip-path="url(#pd061d7980c)" style="fill: #1f77b4"/>
   </g>
   <g id="patch_56">
    <path d="M 159.866182 307.584 
L 161.489455 307.584 
L 161.489455 224.17869 
L 159.866182 224.17869 
z
" clip-path="url(#pd061d7980c)" style="fill: #1f77b4"/>
   </g>
   <g id="patch_57">
    <path d="M 161.489455 307.584 
L 163.112727 307.584 
L 163.112727 198.946832 
L 161.489455 198.946832 
z
" clip-path="url(#pd061d7980c)" style="fill: #1f77b4"/>
   </g>
   <g id="patch_58">
    <path d="M 163.112727 307.584 
L 164.736 307.584 
L 164.736 169.930195 
L 163.112727 169.930195 
z
" clip-path="url(#pd061d7980c)" style="fill: #1f77b4"/>
   </g>
   <g id="patch_59">
    <path d="M 164.736 307.584 
L 166.359273 307.584 
L 166.359273 112.597805 
L 164.736 112.597805 
z
" clip-path="url(#pd061d7980c)" style="fill: #1f77b4"/>
   </g>
   <g id="patch_60">
    <path d="M 166.359273 307.584 
L 167.982545 307.584 
L 167.982545 54.844885 
L 166.359273 54.844885 
z
" clip-path="url(#pd061d7980c)" style="fill: #1f77b4"/>
   </g>
   <g id="patch_61">
    <path d="M 167.982545 307.584 
L 169.605818 307.584 
L 169.605818 66.759929 
L 167.982545 66.759929 
z
" clip-path="url(#pd061d7980c)" style="fill: #1f77b4"/>
   </g>
   <g id="patch_62">
    <path d="M 169.605818 307.584 
L 171.229091 307.584 
L 171.229091 136.568071 
L 169.605818 136.568071 
z
" clip-path="url(#pd061d7980c)" style="fill: #1f77b4"/>
   </g>
   <g id="patch_63">
    <path d="M 171.229091 307.584 
L 172.852364 307.584 
L 172.852364 208.899398 
L 171.229091 208.899398 
z
" clip-path="url(#pd061d7980c)" style="fill: #1f77b4"/>
   </g>
   <g id="patch_64">
    <path d="M 172.852364 307.584 
L 174.475636 307.584 
L 174.475636 219.132319 
L 172.852364 219.132319 
z
" clip-path="url(#pd061d7980c)" style="fill: #1f77b4"/>
   </g>
   <g id="patch_65">
    <path d="M 174.475636 307.584 
L 176.098909 307.584 
L 176.098909 220.534088 
L 174.475636 220.534088 
z
" clip-path="url(#pd061d7980c)" style="fill: #1f77b4"/>
   </g>
   <g id="patch_66">
    <path d="M 176.098909 307.584 
L 177.722182 307.584 
L 177.722182 160.538336 
L 176.098909 160.538336 
z
" clip-path="url(#pd061d7980c)" style="fill: #1f77b4"/>
   </g>
   <g id="patch_67">
    <path d="M 177.722182 307.584 
L 179.345455 307.584 
L 179.345455 148.623292 
L 177.722182 148.623292 
z
" clip-path="url(#pd061d7980c)" style="fill: #1f77b4"/>
   </g>
   <g id="patch_68">
    <path d="M 179.345455 307.584 
L 180.968727 307.584 
L 180.968727 123.251257 
L 179.345455 123.251257 
z
" clip-path="url(#pd061d7980c)" style="fill: #1f77b4"/>
   </g>
   <g id="patch_69">
    <path d="M 180.968727 307.584 
L 182.592 307.584 
L 182.592 54.144 
L 180.968727 54.144 
z
" clip-path="url(#pd061d7980c)" style="fill: #1f77b4"/>
   </g>
   <g id="patch_70">
    <path d="M 182.592 307.584 
L 184.215273 307.584 
L 184.215273 147.78223 
L 182.592 147.78223 
z
" clip-path="url(#pd061d7980c)" style="fill: #1f77b4"/>
   </g>
   <g id="patch_71">
    <path d="M 184.215273 307.584 
L 185.838545 307.584 
L 185.838545 189.835327 
L 184.215273 189.835327 
z
" clip-path="url(#pd061d7980c)" style="fill: #1f77b4"/>
   </g>
   <g id="patch_72">
    <path d="M 185.838545 307.584 
L 187.461818 307.584 
L 187.461818 240.719575 
L 185.838545 240.719575 
z
" clip-path="url(#pd061d7980c)" style="fill: #1f77b4"/>
   </g>
   <g id="patch_73">
    <path d="M 187.461818 307.584 
L 189.085091 307.584 
L 189.085091 240.999929 
L 187.461818 240.999929 
z
" clip-path="url(#pd061d7980c)" style="fill: #1f77b4"/>
   </g>
   <g id="patch_74">
    <path d="M 189.085091 307.584 
L 190.708364 307.584 
L 190.708364 248.148956 
L 189.085091 248.148956 
z
" clip-path="url(#pd061d7980c)" style="fill: #1f77b4"/>
   </g>
   <g id="patch_75">
    <path d="M 190.708364 307.584 
L 192.331636 307.584 
L 192.331636 215.627894 
L 190.708364 215.627894 
z
" clip-path="url(#pd061d7980c)" style="fill: #1f77b4"/>
   </g>
   <g id="patch_76">
    <path d="M 192.331636 307.584 
L 193.954909 307.584 
L 193.954909 225.860814 
L 192.331636 225.860814 
z
" clip-path="url(#pd061d7980c)" style="fill: #1f77b4"/>
   </g>
   <g id="patch_77">
    <path d="M 193.954909 307.584 
L 195.578182 307.584 
L 195.578182 162.781168 
L 193.954909 162.781168 
z
" clip-path="url(#pd061d7980c)" style="fill: #1f77b4"/>
   </g>
   <g id="patch_78">
    <path d="M 195.578182 307.584 
L 197.201455 307.584 
L 197.201455 184.228248 
L 195.578182 184.228248 
z
" clip-path="url(#pd061d7980c)" style="fill: #1f77b4"/>
   </g>
   <g id="patch_79">
    <path d="M 197.201455 307.584 
L 198.824727 307.584 
L 198.824727 129.979752 
L 197.201455 129.979752 
z
" clip-path="url(#pd061d7980c)" style="fill: #1f77b4"/>
   </g>
   <g id="patch_80">
    <path d="M 198.824727 307.584 
L 200.448 307.584 
L 200.448 194.601345 
L 198.824727 194.601345 
z
" clip-path="url(#pd061d7980c)" style="fill: #1f77b4"/>
   </g>
   <g id="patch_81">
    <path d="M 200.448 307.584 
L 202.071273 307.584 
L 202.071273 220.954619 
L 200.448 220.954619 
z
" clip-path="url(#pd061d7980c)" style="fill: #1f77b4"/>
   </g>
   <g id="patch_82">
    <path d="M 202.071273 307.584 
L 203.694545 307.584 
L 203.694545 219.973381 
L 202.071273 219.973381 
z
" clip-path="url(#pd061d7980c)" style="fill: #1f77b4"/>
   </g>
   <g id="patch_83">
    <path d="M 203.694545 307.584 
L 205.317818 307.584 
L 205.317818 250.952496 
L 203.694545 250.952496 
z
" clip-path="url(#pd061d7980c)" style="fill: #1f77b4"/>
   </g>
   <g id="patch_84">
    <path d="M 205.317818 307.584 
L 206.941091 307.584 
L 206.941091 266.932673 
L 205.317818 266.932673 
z
" clip-path="url(#pd061d7980c)" style="fill: #1f77b4"/>
   </g>
   <g id="patch_85">
    <path d="M 206.941091 307.584 
L 208.564364 307.584 
L 208.564364 273.941522 
L 206.941091 273.941522 
z
" clip-path="url(#pd061d7980c)" style="fill: #1f77b4"/>
   </g>
   <g id="patch_86">
    <path d="M 208.564364 307.584 
L 210.187636 307.584 
L 210.187636 260.764885 
L 208.564364 260.764885 
z
" clip-path="url(#pd061d7980c)" style="fill: #1f77b4"/>
   </g>
   <g id="patch_87">
    <path d="M 210.187636 307.584 
L 211.810909 307.584 
L 211.810909 246.466832 
L 210.187636 246.466832 
z
" clip-path="url(#pd061d7980c)" style="fill: #1f77b4"/>
   </g>
   <g id="patch_88">
    <path d="M 211.810909 307.584 
L 213.434182 307.584 
L 213.434182 230.626832 
L 211.810909 230.626832 
z
" clip-path="url(#pd061d7980c)" style="fill: #1f77b4"/>
   </g>
   <g id="patch_89">
    <path d="M 213.434182 307.584 
L 215.057455 307.584 
L 215.057455 215.768071 
L 213.434182 215.768071 
z
" clip-path="url(#pd061d7980c)" style="fill: #1f77b4"/>
   </g>
   <g id="patch_90">
    <path d="M 215.057455 307.584 
L 216.680727 307.584 
L 216.680727 236.934796 
L 215.057455 236.934796 
z
" clip-path="url(#pd061d7980c)" style="fill: #1f77b4"/>
   </g>
   <g id="patch_91">
    <path d="M 216.680727 307.584 
L 218.304 307.584 
L 218.304 180.022938 
L 216.680727 180.022938 
z
" clip-path="url(#pd061d7980c)" style="fill: #1f77b4"/>
   </g>
   <g id="patch_92">
    <path d="M 218.304 307.584 
L 219.927273 307.584 
L 219.927273 196.704 
L 218.304 196.704 
z
" clip-path="url(#pd061d7980c)" style="fill: #1f77b4"/>
   </g>
   <g id="patch_93">
    <path d="M 219.927273 307.584 
L 221.550545 307.584 
L 221.550545 209.319929 
L 219.927273 209.319929 
z
" clip-path="url(#pd061d7980c)" style="fill: #1f77b4"/>
   </g>
   <g id="patch_94">
    <path d="M 221.550545 307.584 
L 223.173818 307.584 
L 223.173818 255.157805 
L 221.550545 255.157805 
z
" clip-path="url(#pd061d7980c)" style="fill: #1f77b4"/>
   </g>
   <g id="patch_95">
    <path d="M 223.173818 307.584 
L 224.797091 307.584 
L 224.797091 249.971257 
L 223.173818 249.971257 
z
" clip-path="url(#pd061d7980c)" style="fill: #1f77b4"/>
   </g>
   <g id="patch_96">
    <path d="M 224.797091 307.584 
L 226.420364 307.584 
L 226.420364 281.651257 
L 224.797091 281.651257 
z
" clip-path="url(#pd061d7980c)" style="fill: #1f77b4"/>
   </g>
   <g id="patch_97">
    <path d="M 226.420364 307.584 
L 228.043636 307.584 
L 228.043636 276.464708 
L 226.420364 276.464708 
z
" clip-path="url(#pd061d7980c)" style="fill: #1f77b4"/>
   </g>
   <g id="patch_98">
    <path d="M 228.043636 307.584 
L 229.666909 307.584 
L 229.666909 286.977982 
L 228.043636 286.977982 
z
" clip-path="url(#pd061d7980c)" style="fill: #1f77b4"/>
   </g>
   <g id="patch_99">
    <path d="M 229.666909 307.584 
L 231.290182 307.584 
L 231.290182 286.837805 
L 229.666909 286.837805 
z
" clip-path="url(#pd061d7980c)" style="fill: #1f77b4"/>
   </g>
   <g id="patch_100">
    <path d="M 231.290182 307.584 
L 232.913455 307.584 
L 232.913455 295.94931 
L 231.290182 295.94931 
z
" clip-path="url(#pd061d7980c)" style="fill: #1f77b4"/>
   </g>
   <g id="patch_101">
    <path d="M 232.913455 307.584 
L 234.536727 307.584 
L 234.536727 271.69869 
L 232.913455 271.69869 
z
" clip-path="url(#pd061d7980c)" style="fill: #1f77b4"/>
   </g>
   <g id="patch_102">
    <path d="M 234.536727 307.584 
L 236.16 307.584 
L 236.16 283.333381 
L 234.536727 283.333381 
z
" clip-path="url(#pd061d7980c)" style="fill: #1f77b4"/>
   </g>
   <g id="patch_103">
    <path d="M 236.16 307.584 
L 237.783273 307.584 
L 237.783273 276.464708 
L 236.16 276.464708 
z
" clip-path="url(#pd061d7980c)" style="fill: #1f77b4"/>
   </g>
   <g id="patch_104">
    <path d="M 237.783273 307.584 
L 239.406545 307.584 
L 239.406545 267.07285 
L 237.783273 267.07285 
z
" clip-path="url(#pd061d7980c)" style="fill: #1f77b4"/>
   </g>
   <g id="patch_105">
    <path d="M 239.406545 307.584 
L 241.029818 307.584 
L 241.029818 233.290195 
L 239.406545 233.290195 
z
" clip-path="url(#pd061d7980c)" style="fill: #1f77b4"/>
   </g>
   <g id="patch_106">
    <path d="M 241.029818 307.584 
L 242.653091 307.584 
L 242.653091 253.335504 
L 241.029818 253.335504 
z
" clip-path="url(#pd061d7980c)" style="fill: #1f77b4"/>
   </g>
   <g id="patch_107">
    <path d="M 242.653091 307.584 
L 244.276364 307.584 
L 244.276364 234.972319 
L 242.653091 234.972319 
z
" clip-path="url(#pd061d7980c)" style="fill: #1f77b4"/>
   </g>
   <g id="patch_108">
    <path d="M 244.276364 307.584 
L 245.899636 307.584 
L 245.899636 234.551788 
L 244.276364 234.551788 
z
" clip-path="url(#pd061d7980c)" style="fill: #1f77b4"/>
   </g>
   <g id="patch_109">
    <path d="M 245.899636 307.584 
L 247.522909 307.584 
L 247.522909 236.934796 
L 245.899636 236.934796 
z
" clip-path="url(#pd061d7980c)" style="fill: #1f77b4"/>
   </g>
   <g id="patch_110">
    <path d="M 247.522909 307.584 
L 249.146182 307.584 
L 249.146182 251.092673 
L 247.522909 251.092673 
z
" clip-path="url(#pd061d7980c)" style="fill: #1f77b4"/>
   </g>
   <g id="patch_111">
    <path d="M 249.146182 307.584 
L 250.769455 307.584 
L 250.769455 260.344354 
L 249.146182 260.344354 
z
" clip-path="url(#pd061d7980c)" style="fill: #1f77b4"/>
   </g>
   <g id="patch_112">
    <path d="M 250.769455 307.584 
L 252.392727 307.584 
L 252.392727 275.904 
L 250.769455 275.904 
z
" clip-path="url(#pd061d7980c)" style="fill: #1f77b4"/>
   </g>
   <g id="patch_113">
    <path d="M 252.392727 307.584 
L 254.016 307.584 
L 254.016 285.576212 
L 252.392727 285.576212 
z
" clip-path="url(#pd061d7980c)" style="fill: #1f77b4"/>
   </g>
   <g id="patch_114">
    <path d="M 254.016 307.584 
L 255.639273 307.584 
L 255.639273 287.118159 
L 254.016 287.118159 
z
" clip-path="url(#pd061d7980c)" style="fill: #1f77b4"/>
   </g>
   <g id="patch_115">
    <path d="M 255.639273 307.584 
L 257.262545 307.584 
L 257.262545 290.622584 
L 255.639273 290.622584 
z
" clip-path="url(#pd061d7980c)" style="fill: #1f77b4"/>
   </g>
   <g id="patch_116">
    <path d="M 257.262545 307.584 
L 258.885818 307.584 
L 258.885818 294.687717 
L 257.262545 294.687717 
z
" clip-path="url(#pd061d7980c)" style="fill: #1f77b4"/>
   </g>
   <g id="patch_117">
    <path d="M 258.885818 307.584 
L 260.509091 307.584 
L 260.509091 295.668956 
L 258.885818 295.668956 
z
" clip-path="url(#pd061d7980c)" style="fill: #1f77b4"/>
   </g>
   <g id="patch_118">
    <path d="M 260.509091 307.584 
L 262.132364 307.584 
L 262.132364 297.911788 
L 260.509091 297.911788 
z
" clip-path="url(#pd061d7980c)" style="fill: #1f77b4"/>
   </g>
   <g id="patch_119">
    <path d="M 262.132364 307.584 
L 263.755636 307.584 
L 263.755636 304.219752 
L 262.132364 304.219752 
z
" clip-path="url(#pd061d7980c)" style="fill: #1f77b4"/>
   </g>
   <g id="patch_120">
    <path d="M 263.755636 307.584 
L 265.378909 307.584 
L 265.378909 293.706478 
L 263.755636 293.706478 
z
" clip-path="url(#pd061d7980c)" style="fill: #1f77b4"/>
   </g>
   <g id="patch_121">
    <path d="M 265.378909 307.584 
L 267.002182 307.584 
L 267.002182 290.622584 
L 265.378909 290.622584 
z
" clip-path="url(#pd061d7980c)" style="fill: #1f77b4"/>
   </g>
   <g id="patch_122">
    <path d="M 267.002182 307.584 
L 268.625455 307.584 
L 268.625455 287.53869 
L 267.002182 287.53869 
z
" clip-path="url(#pd061d7980c)" style="fill: #1f77b4"/>
   </g>
   <g id="patch_123">
    <path d="M 268.625455 307.584 
L 270.248727 307.584 
L 270.248727 281.51108 
L 268.625455 281.51108 
z
" clip-path="url(#pd061d7980c)" style="fill: #1f77b4"/>
   </g>
   <g id="patch_124">
    <path d="M 270.248727 307.584 
L 271.872 307.584 
L 271.872 295.248425 
L 270.248727 295.248425 
z
" clip-path="url(#pd061d7980c)" style="fill: #1f77b4"/>
   </g>
   <g id="patch_125">
    <path d="M 271.872 307.584 
L 273.495273 307.584 
L 273.495273 277.30577 
L 271.872 277.30577 
z
" clip-path="url(#pd061d7980c)" style="fill: #1f77b4"/>
   </g>
   <g id="patch_126">
    <path d="M 273.495273 307.584 
L 275.118545 307.584 
L 275.118545 268.054088 
L 273.495273 268.054088 
z
" clip-path="url(#pd061d7980c)" style="fill: #1f77b4"/>
   </g>
   <g id="patch_127">
    <path d="M 275.118545 307.584 
L 276.741818 307.584 
L 276.741818 291.603823 
L 275.118545 291.603823 
z
" clip-path="url(#pd061d7980c)" style="fill: #1f77b4"/>
   </g>
   <g id="patch_128">
    <path d="M 276.741818 307.584 
L 278.365091 307.584 
L 278.365091 266.371965 
L 276.741818 266.371965 
z
" clip-path="url(#pd061d7980c)" style="fill: #1f77b4"/>
   </g>
   <g id="patch_129">
    <path d="M 278.365091 307.584 
L 279.988364 307.584 
L 279.988364 288.94046 
L 278.365091 288.94046 
z
" clip-path="url(#pd061d7980c)" style="fill: #1f77b4"/>
   </g>
   <g id="patch_130">
    <path d="M 279.988364 307.584 
L 281.611636 307.584 
L 281.611636 272.679929 
L 279.988364 272.679929 
z
" clip-path="url(#pd061d7980c)" style="fill: #1f77b4"/>
   </g>
   <g id="patch_131">
    <path d="M 281.611636 307.584 
L 283.234909 307.584 
L 283.234909 283.613735 
L 281.611636 283.613735 
z
" clip-path="url(#pd061d7980c)" style="fill: #1f77b4"/>
   </g>
   <g id="patch_132">
    <path d="M 283.234909 307.584 
L 284.858182 307.584 
L 284.858182 299.453735 
L 283.234909 299.453735 
z
" clip-path="url(#pd061d7980c)" style="fill: #1f77b4"/>
   </g>
   <g id="patch_133">
    <path d="M 284.858182 307.584 
L 286.481455 307.584 
L 286.481455 298.051965 
L 284.858182 298.051965 
z
" clip-path="url(#pd061d7980c)" style="fill: #1f77b4"/>
   </g>
   <g id="patch_134">
    <path d="M 286.481455 307.584 
L 288.104727 307.584 
L 288.104727 304.219752 
L 286.481455 304.219752 
z
" clip-path="url(#pd061d7980c)" style="fill: #1f77b4"/>
   </g>
   <g id="patch_135">
    <path d="M 288.104727 307.584 
L 289.728 307.584 
L 289.728 302.397451 
L 288.104727 302.397451 
z
" clip-path="url(#pd061d7980c)" style="fill: #1f77b4"/>
   </g>
   <g id="patch_136">
    <path d="M 289.728 307.584 
L 291.351273 307.584 
L 291.351273 305.341168 
L 289.728 305.341168 
z
" clip-path="url(#pd061d7980c)" style="fill: #1f77b4"/>
   </g>
   <g id="patch_137">
    <path d="M 291.351273 307.584 
L 292.974545 307.584 
L 292.974545 304.640283 
L 291.351273 304.640283 
z
" clip-path="url(#pd061d7980c)" style="fill: #1f77b4"/>
   </g>
   <g id="patch_138">
    <path d="M 292.974545 307.584 
L 294.597818 307.584 
L 294.597818 306.322407 
L 292.974545 306.322407 
z
" clip-path="url(#pd061d7980c)" style="fill: #1f77b4"/>
   </g>
   <g id="patch_139">
    <path d="M 294.597818 307.584 
L 296.221091 307.584 
L 296.221091 306.602761 
L 294.597818 306.602761 
z
" clip-path="url(#pd061d7980c)" style="fill: #1f77b4"/>
   </g>
   <g id="patch_140">
    <path d="M 296.221091 307.584 
L 297.844364 307.584 
L 297.844364 305.481345 
L 296.221091 305.481345 
z
" clip-path="url(#pd061d7980c)" style="fill: #1f77b4"/>
   </g>
   <g id="patch_141">
    <path d="M 297.844364 307.584 
L 299.467636 307.584 
L 299.467636 306.883115 
L 297.844364 306.883115 
z
" clip-path="url(#pd061d7980c)" style="fill: #1f77b4"/>
   </g>
   <g id="patch_142">
    <path d="M 299.467636 307.584 
L 301.090909 307.584 
L 301.090909 306.602761 
L 299.467636 306.602761 
z
" clip-path="url(#pd061d7980c)" style="fill: #1f77b4"/>
   </g>
   <g id="patch_143">
    <path d="M 301.090909 307.584 
L 302.714182 307.584 
L 302.714182 306.883115 
L 301.090909 306.883115 
z
" clip-path="url(#pd061d7980c)" style="fill: #1f77b4"/>
   </g>
   <g id="patch_144">
    <path d="M 302.714182 307.584 
L 304.337455 307.584 
L 304.337455 307.023292 
L 302.714182 307.023292 
z
" clip-path="url(#pd061d7980c)" style="fill: #1f77b4"/>
   </g>
   <g id="patch_145">
    <path d="M 304.337455 307.584 
L 305.960727 307.584 
L 305.960727 306.462584 
L 304.337455 306.462584 
z
" clip-path="url(#pd061d7980c)" style="fill: #1f77b4"/>
   </g>
   <g id="patch_146">
    <path d="M 305.960727 307.584 
L 307.584 307.584 
L 307.584 304.500106 
L 305.960727 304.500106 
z
" clip-path="url(#pd061d7980c)" style="fill: #1f77b4"/>
   </g>
   <g id="patch_147">
    <path d="M 307.584 307.584 
L 309.207273 307.584 
L 309.207273 306.462584 
L 307.584 306.462584 
z
" clip-path="url(#pd061d7980c)" style="fill: #1f77b4"/>
   </g>
   <g id="patch_148">
    <path d="M 309.207273 307.584 
L 310.830545 307.584 
L 310.830545 306.602761 
L 309.207273 306.602761 
z
" clip-path="url(#pd061d7980c)" style="fill: #1f77b4"/>
   </g>
   <g id="patch_149">
    <path d="M 310.830545 307.584 
L 312.453818 307.584 
L 312.453818 304.219752 
L 310.830545 304.219752 
z
" clip-path="url(#pd061d7980c)" style="fill: #1f77b4"/>
   </g>
   <g id="patch_150">
    <path d="M 312.453818 307.584 
L 314.077091 307.584 
L 314.077091 305.341168 
L 312.453818 305.341168 
z
" clip-path="url(#pd061d7980c)" style="fill: #1f77b4"/>
   </g>
   <g id="patch_151">
    <path d="M 314.077091 307.584 
L 315.700364 307.584 
L 315.700364 306.322407 
L 314.077091 306.322407 
z
" clip-path="url(#pd061d7980c)" style="fill: #1f77b4"/>
   </g>
   <g id="patch_152">
    <path d="M 315.700364 307.584 
L 317.323636 307.584 
L 317.323636 305.901876 
L 315.700364 305.901876 
z
" clip-path="url(#pd061d7980c)" style="fill: #1f77b4"/>
   </g>
   <g id="patch_153">
    <path d="M 317.323636 307.584 
L 318.946909 307.584 
L 318.946909 305.761699 
L 317.323636 305.761699 
z
" clip-path="url(#pd061d7980c)" style="fill: #1f77b4"/>
   </g>
   <g id="patch_154">
    <path d="M 318.946909 307.584 
L 320.570182 307.584 
L 320.570182 303.37869 
L 318.946909 303.37869 
z
" clip-path="url(#pd061d7980c)" style="fill: #1f77b4"/>
   </g>
   <g id="patch_155">
    <path d="M 320.570182 307.584 
L 322.193455 307.584 
L 322.193455 304.500106 
L 320.570182 304.500106 
z
" clip-path="url(#pd061d7980c)" style="fill: #1f77b4"/>
   </g>
   <g id="patch_156">
    <path d="M 322.193455 307.584 
L 323.816727 307.584 
L 323.816727 305.341168 
L 322.193455 305.341168 
z
" clip-path="url(#pd061d7980c)" style="fill: #1f77b4"/>
   </g>
   <g id="patch_157">
    <path d="M 323.816727 307.584 
L 325.44 307.584 
L 325.44 304.359929 
L 323.816727 304.359929 
z
" clip-path="url(#pd061d7980c)" style="fill: #1f77b4"/>
   </g>
   <g id="patch_158">
    <path d="M 325.44 307.584 
L 327.063273 307.584 
L 327.063273 302.537628 
L 325.44 302.537628 
z
" clip-path="url(#pd061d7980c)" style="fill: #1f77b4"/>
   </g>
   <g id="patch_159">
    <path d="M 327.063273 307.584 
L 328.686545 307.584 
L 328.686545 304.359929 
L 327.063273 304.359929 
z
" clip-path="url(#pd061d7980c)" style="fill: #1f77b4"/>
   </g>
   <g id="patch_160">
    <path d="M 328.686545 307.584 
L 330.309818 307.584 
L 330.309818 302.958159 
L 328.686545 302.958159 
z
" clip-path="url(#pd061d7980c)" style="fill: #1f77b4"/>
   </g>
   <g id="patch_161">
    <path d="M 330.309818 307.584 
L 331.933091 307.584 
L 331.933091 306.322407 
L 330.309818 306.322407 
z
" clip-path="url(#pd061d7980c)" style="fill: #1f77b4"/>
   </g>
   <g id="patch_162">
    <path d="M 331.933091 307.584 
L 333.556364 307.584 
L 333.556364 306.322407 
L 331.933091 306.322407 
z
" clip-path="url(#pd061d7980c)" style="fill: #1f77b4"/>
   </g>
   <g id="patch_163">
    <path d="M 333.556364 307.584 
L 335.179636 307.584 
L 335.179636 306.602761 
L 333.556364 306.602761 
z
" clip-path="url(#pd061d7980c)" style="fill: #1f77b4"/>
   </g>
   <g id="patch_164">
    <path d="M 335.179636 307.584 
L 336.802909 307.584 
L 336.802909 307.303646 
L 335.179636 307.303646 
z
" clip-path="url(#pd061d7980c)" style="fill: #1f77b4"/>
   </g>
   <g id="patch_165">
    <path d="M 336.802909 307.584 
L 338.426182 307.584 
L 338.426182 307.443823 
L 336.802909 307.443823 
z
" clip-path="url(#pd061d7980c)" style="fill: #1f77b4"/>
   </g>
   <g id="patch_166">
    <path d="M 338.426182 307.584 
L 340.049455 307.584 
L 340.049455 307.443823 
L 338.426182 307.443823 
z
" clip-path="url(#pd061d7980c)" style="fill: #1f77b4"/>
   </g>
   <g id="patch_167">
    <path d="M 340.049455 307.584 
L 341.672727 307.584 
L 341.672727 307.303646 
L 340.049455 307.303646 
z
" clip-path="url(#pd061d7980c)" style="fill: #1f77b4"/>
   </g>
   <g id="patch_168">
    <path d="M 341.672727 307.584 
L 343.296 307.584 
L 343.296 307.443823 
L 341.672727 307.443823 
z
" clip-path="url(#pd061d7980c)" style="fill: #1f77b4"/>
   </g>
   <g id="patch_169">
    <path d="M 343.296 307.584 
L 344.919273 307.584 
L 344.919273 307.443823 
L 343.296 307.443823 
z
" clip-path="url(#pd061d7980c)" style="fill: #1f77b4"/>
   </g>
   <g id="patch_170">
    <path d="M 344.919273 307.584 
L 346.542545 307.584 
L 346.542545 307.584 
L 344.919273 307.584 
z
" clip-path="url(#pd061d7980c)" style="fill: #1f77b4"/>
   </g>
   <g id="patch_171">
    <path d="M 346.542545 307.584 
L 348.165818 307.584 
L 348.165818 307.443823 
L 346.542545 307.443823 
z
" clip-path="url(#pd061d7980c)" style="fill: #1f77b4"/>
   </g>
   <g id="patch_172">
    <path d="M 348.165818 307.584 
L 349.789091 307.584 
L 349.789091 307.443823 
L 348.165818 307.443823 
z
" clip-path="url(#pd061d7980c)" style="fill: #1f77b4"/>
   </g>
   <g id="patch_173">
    <path d="M 349.789091 307.584 
L 351.412364 307.584 
L 351.412364 307.584 
L 349.789091 307.584 
z
" clip-path="url(#pd061d7980c)" style="fill: #1f77b4"/>
   </g>
   <g id="patch_174">
    <path d="M 351.412364 307.584 
L 353.035636 307.584 
L 353.035636 307.443823 
L 351.412364 307.443823 
z
" clip-path="url(#pd061d7980c)" style="fill: #1f77b4"/>
   </g>
   <g id="patch_175">
    <path d="M 353.035636 307.584 
L 354.658909 307.584 
L 354.658909 307.584 
L 353.035636 307.584 
z
" clip-path="url(#pd061d7980c)" style="fill: #1f77b4"/>
   </g>
   <g id="patch_176">
    <path d="M 354.658909 307.584 
L 356.282182 307.584 
L 356.282182 307.584 
L 354.658909 307.584 
z
" clip-path="url(#pd061d7980c)" style="fill: #1f77b4"/>
   </g>
   <g id="patch_177">
    <path d="M 356.282182 307.584 
L 357.905455 307.584 
L 357.905455 307.584 
L 356.282182 307.584 
z
" clip-path="url(#pd061d7980c)" style="fill: #1f77b4"/>
   </g>
   <g id="patch_178">
    <path d="M 357.905455 307.584 
L 359.528727 307.584 
L 359.528727 307.584 
L 357.905455 307.584 
z
" clip-path="url(#pd061d7980c)" style="fill: #1f77b4"/>
   </g>
   <g id="patch_179">
    <path d="M 359.528727 307.584 
L 361.152 307.584 
L 361.152 307.584 
L 359.528727 307.584 
z
" clip-path="url(#pd061d7980c)" style="fill: #1f77b4"/>
   </g>
   <g id="patch_180">
    <path d="M 361.152 307.584 
L 362.775273 307.584 
L 362.775273 307.584 
L 361.152 307.584 
z
" clip-path="url(#pd061d7980c)" style="fill: #1f77b4"/>
   </g>
   <g id="patch_181">
    <path d="M 362.775273 307.584 
L 364.398545 307.584 
L 364.398545 307.584 
L 362.775273 307.584 
z
" clip-path="url(#pd061d7980c)" style="fill: #1f77b4"/>
   </g>
   <g id="patch_182">
    <path d="M 364.398545 307.584 
L 366.021818 307.584 
L 366.021818 307.584 
L 364.398545 307.584 
z
" clip-path="url(#pd061d7980c)" style="fill: #1f77b4"/>
   </g>
   <g id="patch_183">
    <path d="M 366.021818 307.584 
L 367.645091 307.584 
L 367.645091 307.584 
L 366.021818 307.584 
z
" clip-path="url(#pd061d7980c)" style="fill: #1f77b4"/>
   </g>
   <g id="patch_184">
    <path d="M 367.645091 307.584 
L 369.268364 307.584 
L 369.268364 307.584 
L 367.645091 307.584 
z
" clip-path="url(#pd061d7980c)" style="fill: #1f77b4"/>
   </g>
   <g id="patch_185">
    <path d="M 369.268364 307.584 
L 370.891636 307.584 
L 370.891636 307.584 
L 369.268364 307.584 
z
" clip-path="url(#pd061d7980c)" style="fill: #1f77b4"/>
   </g>
   <g id="patch_186">
    <path d="M 370.891636 307.584 
L 372.514909 307.584 
L 372.514909 307.584 
L 370.891636 307.584 
z
" clip-path="url(#pd061d7980c)" style="fill: #1f77b4"/>
   </g>
   <g id="patch_187">
    <path d="M 372.514909 307.584 
L 374.138182 307.584 
L 374.138182 307.584 
L 372.514909 307.584 
z
" clip-path="url(#pd061d7980c)" style="fill: #1f77b4"/>
   </g>
   <g id="patch_188">
    <path d="M 374.138182 307.584 
L 375.761455 307.584 
L 375.761455 307.584 
L 374.138182 307.584 
z
" clip-path="url(#pd061d7980c)" style="fill: #1f77b4"/>
   </g>
   <g id="patch_189">
    <path d="M 375.761455 307.584 
L 377.384727 307.584 
L 377.384727 307.584 
L 375.761455 307.584 
z
" clip-path="url(#pd061d7980c)" style="fill: #1f77b4"/>
   </g>
   <g id="patch_190">
    <path d="M 377.384727 307.584 
L 379.008 307.584 
L 379.008 307.584 
L 377.384727 307.584 
z
" clip-path="url(#pd061d7980c)" style="fill: #1f77b4"/>
   </g>
   <g id="patch_191">
    <path d="M 379.008 307.584 
L 380.631273 307.584 
L 380.631273 307.584 
L 379.008 307.584 
z
" clip-path="url(#pd061d7980c)" style="fill: #1f77b4"/>
   </g>
   <g id="patch_192">
    <path d="M 380.631273 307.584 
L 382.254545 307.584 
L 382.254545 307.584 
L 380.631273 307.584 
z
" clip-path="url(#pd061d7980c)" style="fill: #1f77b4"/>
   </g>
   <g id="patch_193">
    <path d="M 382.254545 307.584 
L 383.877818 307.584 
L 383.877818 307.584 
L 382.254545 307.584 
z
" clip-path="url(#pd061d7980c)" style="fill: #1f77b4"/>
   </g>
   <g id="patch_194">
    <path d="M 383.877818 307.584 
L 385.501091 307.584 
L 385.501091 307.584 
L 383.877818 307.584 
z
" clip-path="url(#pd061d7980c)" style="fill: #1f77b4"/>
   </g>
   <g id="patch_195">
    <path d="M 385.501091 307.584 
L 387.124364 307.584 
L 387.124364 307.584 
L 385.501091 307.584 
z
" clip-path="url(#pd061d7980c)" style="fill: #1f77b4"/>
   </g>
   <g id="patch_196">
    <path d="M 387.124364 307.584 
L 388.747636 307.584 
L 388.747636 307.584 
L 387.124364 307.584 
z
" clip-path="url(#pd061d7980c)" style="fill: #1f77b4"/>
   </g>
   <g id="patch_197">
    <path d="M 388.747636 307.584 
L 390.370909 307.584 
L 390.370909 307.584 
L 388.747636 307.584 
z
" clip-path="url(#pd061d7980c)" style="fill: #1f77b4"/>
   </g>
   <g id="patch_198">
    <path d="M 390.370909 307.584 
L 391.994182 307.584 
L 391.994182 307.584 
L 390.370909 307.584 
z
" clip-path="url(#pd061d7980c)" style="fill: #1f77b4"/>
   </g>
   <g id="patch_199">
    <path d="M 391.994182 307.584 
L 393.617455 307.584 
L 393.617455 307.584 
L 391.994182 307.584 
z
" clip-path="url(#pd061d7980c)" style="fill: #1f77b4"/>
   </g>
   <g id="patch_200">
    <path d="M 393.617455 307.584 
L 395.240727 307.584 
L 395.240727 307.584 
L 393.617455 307.584 
z
" clip-path="url(#pd061d7980c)" style="fill: #1f77b4"/>
   </g>
   <g id="patch_201">
    <path d="M 395.240727 307.584 
L 396.864 307.584 
L 396.864 307.584 
L 395.240727 307.584 
z
" clip-path="url(#pd061d7980c)" style="fill: #1f77b4"/>
   </g>
   <g id="patch_202">
    <path d="M 396.864 307.584 
L 398.487273 307.584 
L 398.487273 307.584 
L 396.864 307.584 
z
" clip-path="url(#pd061d7980c)" style="fill: #1f77b4"/>
   </g>
   <g id="matplotlib.axis_1">
    <g id="xtick_1">
     <g id="line2d_1">
      <defs>
       <path id="m1e03e85b22" d="M 0 0 
L 0 3.5 
" style="stroke: #000000; stroke-width: 0.8"/>
      </defs>
      <g>
       <use xlink:href="#m1e03e85b22" x="62.905074" y="307.584" style="stroke: #000000; stroke-width: 0.8"/>
      </g>
     </g>
     <g id="text_1">
      <!-- 2.5 -->
      <g transform="translate(54.953511 322.182437) scale(0.1 -0.1)">
       <defs>
        <path id="DejaVuSans-32" d="M 1228 531 
L 3431 531 
L 3431 0 
L 469 0 
L 469 531 
Q 828 903 1448 1529 
Q 2069 2156 2228 2338 
Q 2531 2678 2651 2914 
Q 2772 3150 2772 3378 
Q 2772 3750 2511 3984 
Q 2250 4219 1831 4219 
Q 1534 4219 1204 4116 
Q 875 4013 500 3803 
L 500 4441 
Q 881 4594 1212 4672 
Q 1544 4750 1819 4750 
Q 2544 4750 2975 4387 
Q 3406 4025 3406 3419 
Q 3406 3131 3298 2873 
Q 3191 2616 2906 2266 
Q 2828 2175 2409 1742 
Q 1991 1309 1228 531 
z
" transform="scale(0.015625)"/>
        <path id="DejaVuSans-2e" d="M 684 794 
L 1344 794 
L 1344 0 
L 684 0 
L 684 794 
z
" transform="scale(0.015625)"/>
        <path id="DejaVuSans-35" d="M 691 4666 
L 3169 4666 
L 3169 4134 
L 1269 4134 
L 1269 2991 
Q 1406 3038 1543 3061 
Q 1681 3084 1819 3084 
Q 2600 3084 3056 2656 
Q 3513 2228 3513 1497 
Q 3513 744 3044 326 
Q 2575 -91 1722 -91 
Q 1428 -91 1123 -41 
Q 819 9 494 109 
L 494 744 
Q 775 591 1075 516 
Q 1375 441 1709 441 
Q 2250 441 2565 725 
Q 2881 1009 2881 1497 
Q 2881 1984 2565 2268 
Q 2250 2553 1709 2553 
Q 1456 2553 1204 2497 
Q 953 2441 691 2322 
L 691 4666 
z
" transform="scale(0.015625)"/>
       </defs>
       <use xlink:href="#DejaVuSans-32"/>
       <use xlink:href="#DejaVuSans-2e" x="63.623047"/>
       <use xlink:href="#DejaVuSans-35" x="95.410156"/>
      </g>
     </g>
    </g>
    <g id="xtick_2">
     <g id="line2d_2">
      <g>
       <use xlink:href="#m1e03e85b22" x="103.486892" y="307.584" style="stroke: #000000; stroke-width: 0.8"/>
      </g>
     </g>
     <g id="text_2">
      <!-- 5.0 -->
      <g transform="translate(95.535329 322.182437) scale(0.1 -0.1)">
       <defs>
        <path id="DejaVuSans-30" d="M 2034 4250 
Q 1547 4250 1301 3770 
Q 1056 3291 1056 2328 
Q 1056 1369 1301 889 
Q 1547 409 2034 409 
Q 2525 409 2770 889 
Q 3016 1369 3016 2328 
Q 3016 3291 2770 3770 
Q 2525 4250 2034 4250 
z
M 2034 4750 
Q 2819 4750 3233 4129 
Q 3647 3509 3647 2328 
Q 3647 1150 3233 529 
Q 2819 -91 2034 -91 
Q 1250 -91 836 529 
Q 422 1150 422 2328 
Q 422 3509 836 4129 
Q 1250 4750 2034 4750 
z
" transform="scale(0.015625)"/>
       </defs>
       <use xlink:href="#DejaVuSans-35"/>
       <use xlink:href="#DejaVuSans-2e" x="63.623047"/>
       <use xlink:href="#DejaVuSans-30" x="95.410156"/>
      </g>
     </g>
    </g>
    <g id="xtick_3">
     <g id="line2d_3">
      <g>
       <use xlink:href="#m1e03e85b22" x="144.06871" y="307.584" style="stroke: #000000; stroke-width: 0.8"/>
      </g>
     </g>
     <g id="text_3">
      <!-- 7.5 -->
      <g transform="translate(136.117148 322.182437) scale(0.1 -0.1)">
       <defs>
        <path id="DejaVuSans-37" d="M 525 4666 
L 3525 4666 
L 3525 4397 
L 1831 0 
L 1172 0 
L 2766 4134 
L 525 4134 
L 525 4666 
z
" transform="scale(0.015625)"/>
       </defs>
       <use xlink:href="#DejaVuSans-37"/>
       <use xlink:href="#DejaVuSans-2e" x="63.623047"/>
       <use xlink:href="#DejaVuSans-35" x="95.410156"/>
      </g>
     </g>
    </g>
    <g id="xtick_4">
     <g id="line2d_4">
      <g>
       <use xlink:href="#m1e03e85b22" x="184.650528" y="307.584" style="stroke: #000000; stroke-width: 0.8"/>
      </g>
     </g>
     <g id="text_4">
      <!-- 10.0 -->
      <g transform="translate(173.517716 322.182437) scale(0.1 -0.1)">
       <defs>
        <path id="DejaVuSans-31" d="M 794 531 
L 1825 531 
L 1825 4091 
L 703 3866 
L 703 4441 
L 1819 4666 
L 2450 4666 
L 2450 531 
L 3481 531 
L 3481 0 
L 794 0 
L 794 531 
z
" transform="scale(0.015625)"/>
       </defs>
       <use xlink:href="#DejaVuSans-31"/>
       <use xlink:href="#DejaVuSans-30" x="63.623047"/>
       <use xlink:href="#DejaVuSans-2e" x="127.246094"/>
       <use xlink:href="#DejaVuSans-30" x="159.033203"/>
      </g>
     </g>
    </g>
    <g id="xtick_5">
     <g id="line2d_5">
      <g>
       <use xlink:href="#m1e03e85b22" x="225.232346" y="307.584" style="stroke: #000000; stroke-width: 0.8"/>
      </g>
     </g>
     <g id="text_5">
      <!-- 12.5 -->
      <g transform="translate(214.099534 322.182437) scale(0.1 -0.1)">
       <use xlink:href="#DejaVuSans-31"/>
       <use xlink:href="#DejaVuSans-32" x="63.623047"/>
       <use xlink:href="#DejaVuSans-2e" x="127.246094"/>
       <use xlink:href="#DejaVuSans-35" x="159.033203"/>
      </g>
     </g>
    </g>
    <g id="xtick_6">
     <g id="line2d_6">
      <g>
       <use xlink:href="#m1e03e85b22" x="265.814165" y="307.584" style="stroke: #000000; stroke-width: 0.8"/>
      </g>
     </g>
     <g id="text_6">
      <!-- 15.0 -->
      <g transform="translate(254.681352 322.182437) scale(0.1 -0.1)">
       <use xlink:href="#DejaVuSans-31"/>
       <use xlink:href="#DejaVuSans-35" x="63.623047"/>
       <use xlink:href="#DejaVuSans-2e" x="127.246094"/>
       <use xlink:href="#DejaVuSans-30" x="159.033203"/>
      </g>
     </g>
    </g>
    <g id="xtick_7">
     <g id="line2d_7">
      <g>
       <use xlink:href="#m1e03e85b22" x="306.395983" y="307.584" style="stroke: #000000; stroke-width: 0.8"/>
      </g>
     </g>
     <g id="text_7">
      <!-- 17.5 -->
      <g transform="translate(295.26317 322.182437) scale(0.1 -0.1)">
       <use xlink:href="#DejaVuSans-31"/>
       <use xlink:href="#DejaVuSans-37" x="63.623047"/>
       <use xlink:href="#DejaVuSans-2e" x="127.246094"/>
       <use xlink:href="#DejaVuSans-35" x="159.033203"/>
      </g>
     </g>
    </g>
    <g id="xtick_8">
     <g id="line2d_8">
      <g>
       <use xlink:href="#m1e03e85b22" x="346.977801" y="307.584" style="stroke: #000000; stroke-width: 0.8"/>
      </g>
     </g>
     <g id="text_8">
      <!-- 20.0 -->
      <g transform="translate(335.844989 322.182437) scale(0.1 -0.1)">
       <use xlink:href="#DejaVuSans-32"/>
       <use xlink:href="#DejaVuSans-30" x="63.623047"/>
       <use xlink:href="#DejaVuSans-2e" x="127.246094"/>
       <use xlink:href="#DejaVuSans-30" x="159.033203"/>
      </g>
     </g>
    </g>
    <g id="xtick_9">
     <g id="line2d_9">
      <g>
       <use xlink:href="#m1e03e85b22" x="387.559619" y="307.584" style="stroke: #000000; stroke-width: 0.8"/>
      </g>
     </g>
     <g id="text_9">
      <!-- 22.5 -->
      <g transform="translate(376.426807 322.182437) scale(0.1 -0.1)">
       <use xlink:href="#DejaVuSans-32"/>
       <use xlink:href="#DejaVuSans-32" x="63.623047"/>
       <use xlink:href="#DejaVuSans-2e" x="127.246094"/>
       <use xlink:href="#DejaVuSans-35" x="159.033203"/>
      </g>
     </g>
    </g>
    <g id="text_10">
     <!-- value -->
     <g transform="translate(222.502187 335.860562) scale(0.1 -0.1)">
      <defs>
       <path id="DejaVuSans-76" d="M 191 3500 
L 800 3500 
L 1894 563 
L 2988 3500 
L 3597 3500 
L 2284 0 
L 1503 0 
L 191 3500 
z
" transform="scale(0.015625)"/>
       <path id="DejaVuSans-61" d="M 2194 1759 
Q 1497 1759 1228 1600 
Q 959 1441 959 1056 
Q 959 750 1161 570 
Q 1363 391 1709 391 
Q 2188 391 2477 730 
Q 2766 1069 2766 1631 
L 2766 1759 
L 2194 1759 
z
M 3341 1997 
L 3341 0 
L 2766 0 
L 2766 531 
Q 2569 213 2275 61 
Q 1981 -91 1556 -91 
Q 1019 -91 701 211 
Q 384 513 384 1019 
Q 384 1609 779 1909 
Q 1175 2209 1959 2209 
L 2766 2209 
L 2766 2266 
Q 2766 2663 2505 2880 
Q 2244 3097 1772 3097 
Q 1472 3097 1187 3025 
Q 903 2953 641 2809 
L 641 3341 
Q 956 3463 1253 3523 
Q 1550 3584 1831 3584 
Q 2591 3584 2966 3190 
Q 3341 2797 3341 1997 
z
" transform="scale(0.015625)"/>
       <path id="DejaVuSans-6c" d="M 603 4863 
L 1178 4863 
L 1178 0 
L 603 0 
L 603 4863 
z
" transform="scale(0.015625)"/>
       <path id="DejaVuSans-75" d="M 544 1381 
L 544 3500 
L 1119 3500 
L 1119 1403 
Q 1119 906 1312 657 
Q 1506 409 1894 409 
Q 2359 409 2629 706 
Q 2900 1003 2900 1516 
L 2900 3500 
L 3475 3500 
L 3475 0 
L 2900 0 
L 2900 538 
Q 2691 219 2414 64 
Q 2138 -91 1772 -91 
Q 1169 -91 856 284 
Q 544 659 544 1381 
z
M 1991 3584 
L 1991 3584 
z
" transform="scale(0.015625)"/>
       <path id="DejaVuSans-65" d="M 3597 1894 
L 3597 1613 
L 953 1613 
Q 991 1019 1311 708 
Q 1631 397 2203 397 
Q 2534 397 2845 478 
Q 3156 559 3463 722 
L 3463 178 
Q 3153 47 2828 -22 
Q 2503 -91 2169 -91 
Q 1331 -91 842 396 
Q 353 884 353 1716 
Q 353 2575 817 3079 
Q 1281 3584 2069 3584 
Q 2775 3584 3186 3129 
Q 3597 2675 3597 1894 
z
M 3022 2063 
Q 3016 2534 2758 2815 
Q 2500 3097 2075 3097 
Q 1594 3097 1305 2825 
Q 1016 2553 972 2059 
L 3022 2063 
z
" transform="scale(0.015625)"/>
      </defs>
      <use xlink:href="#DejaVuSans-76"/>
      <use xlink:href="#DejaVuSans-61" x="59.179688"/>
      <use xlink:href="#DejaVuSans-6c" x="120.458984"/>
      <use xlink:href="#DejaVuSans-75" x="148.242188"/>
      <use xlink:href="#DejaVuSans-65" x="211.621094"/>
     </g>
    </g>
   </g>
   <g id="matplotlib.axis_2">
    <g id="ytick_1">
     <g id="line2d_10">
      <defs>
       <path id="m5f0b04c275" d="M 0 0 
L -3.5 0 
" style="stroke: #000000; stroke-width: 0.8"/>
      </defs>
      <g>
       <use xlink:href="#m5f0b04c275" x="57.6" y="307.584" style="stroke: #000000; stroke-width: 0.8"/>
      </g>
     </g>
     <g id="text_11">
      <!-- 0.00 -->
      <g transform="translate(28.334375 311.383219) scale(0.1 -0.1)">
       <use xlink:href="#DejaVuSans-30"/>
       <use xlink:href="#DejaVuSans-2e" x="63.623047"/>
       <use xlink:href="#DejaVuSans-30" x="95.410156"/>
       <use xlink:href="#DejaVuSans-30" x="159.033203"/>
      </g>
     </g>
    </g>
    <g id="ytick_2">
     <g id="line2d_11">
      <g>
       <use xlink:href="#m5f0b04c275" x="57.6" y="260.304404" style="stroke: #000000; stroke-width: 0.8"/>
      </g>
     </g>
     <g id="text_12">
      <!-- 0.05 -->
      <g transform="translate(28.334375 264.103622) scale(0.1 -0.1)">
       <use xlink:href="#DejaVuSans-30"/>
       <use xlink:href="#DejaVuSans-2e" x="63.623047"/>
       <use xlink:href="#DejaVuSans-30" x="95.410156"/>
       <use xlink:href="#DejaVuSans-35" x="159.033203"/>
      </g>
     </g>
    </g>
    <g id="ytick_3">
     <g id="line2d_12">
      <g>
       <use xlink:href="#m5f0b04c275" x="57.6" y="213.024807" style="stroke: #000000; stroke-width: 0.8"/>
      </g>
     </g>
     <g id="text_13">
      <!-- 0.10 -->
      <g transform="translate(28.334375 216.824026) scale(0.1 -0.1)">
       <use xlink:href="#DejaVuSans-30"/>
       <use xlink:href="#DejaVuSans-2e" x="63.623047"/>
       <use xlink:href="#DejaVuSans-31" x="95.410156"/>
       <use xlink:href="#DejaVuSans-30" x="159.033203"/>
      </g>
     </g>
    </g>
    <g id="ytick_4">
     <g id="line2d_13">
      <g>
       <use xlink:href="#m5f0b04c275" x="57.6" y="165.745211" style="stroke: #000000; stroke-width: 0.8"/>
      </g>
     </g>
     <g id="text_14">
      <!-- 0.15 -->
      <g transform="translate(28.334375 169.544429) scale(0.1 -0.1)">
       <use xlink:href="#DejaVuSans-30"/>
       <use xlink:href="#DejaVuSans-2e" x="63.623047"/>
       <use xlink:href="#DejaVuSans-31" x="95.410156"/>
       <use xlink:href="#DejaVuSans-35" x="159.033203"/>
      </g>
     </g>
    </g>
    <g id="ytick_5">
     <g id="line2d_14">
      <g>
       <use xlink:href="#m5f0b04c275" x="57.6" y="118.465614" style="stroke: #000000; stroke-width: 0.8"/>
      </g>
     </g>
     <g id="text_15">
      <!-- 0.20 -->
      <g transform="translate(28.334375 122.264833) scale(0.1 -0.1)">
       <use xlink:href="#DejaVuSans-30"/>
       <use xlink:href="#DejaVuSans-2e" x="63.623047"/>
       <use xlink:href="#DejaVuSans-32" x="95.410156"/>
       <use xlink:href="#DejaVuSans-30" x="159.033203"/>
      </g>
     </g>
    </g>
    <g id="ytick_6">
     <g id="line2d_15">
      <g>
       <use xlink:href="#m5f0b04c275" x="57.6" y="71.186018" style="stroke: #000000; stroke-width: 0.8"/>
      </g>
     </g>
     <g id="text_16">
      <!-- 0.25 -->
      <g transform="translate(28.334375 74.985236) scale(0.1 -0.1)">
       <use xlink:href="#DejaVuSans-30"/>
       <use xlink:href="#DejaVuSans-2e" x="63.623047"/>
       <use xlink:href="#DejaVuSans-32" x="95.410156"/>
       <use xlink:href="#DejaVuSans-35" x="159.033203"/>
      </g>
     </g>
    </g>
    <g id="text_17">
     <!-- density -->
     <g transform="translate(22.254687 192.860812) rotate(-90) scale(0.1 -0.1)">
      <defs>
       <path id="DejaVuSans-64" d="M 2906 2969 
L 2906 4863 
L 3481 4863 
L 3481 0 
L 2906 0 
L 2906 525 
Q 2725 213 2448 61 
Q 2172 -91 1784 -91 
Q 1150 -91 751 415 
Q 353 922 353 1747 
Q 353 2572 751 3078 
Q 1150 3584 1784 3584 
Q 2172 3584 2448 3432 
Q 2725 3281 2906 2969 
z
M 947 1747 
Q 947 1113 1208 752 
Q 1469 391 1925 391 
Q 2381 391 2643 752 
Q 2906 1113 2906 1747 
Q 2906 2381 2643 2742 
Q 2381 3103 1925 3103 
Q 1469 3103 1208 2742 
Q 947 2381 947 1747 
z
" transform="scale(0.015625)"/>
       <path id="DejaVuSans-6e" d="M 3513 2113 
L 3513 0 
L 2938 0 
L 2938 2094 
Q 2938 2591 2744 2837 
Q 2550 3084 2163 3084 
Q 1697 3084 1428 2787 
Q 1159 2491 1159 1978 
L 1159 0 
L 581 0 
L 581 3500 
L 1159 3500 
L 1159 2956 
Q 1366 3272 1645 3428 
Q 1925 3584 2291 3584 
Q 2894 3584 3203 3211 
Q 3513 2838 3513 2113 
z
" transform="scale(0.015625)"/>
       <path id="DejaVuSans-73" d="M 2834 3397 
L 2834 2853 
Q 2591 2978 2328 3040 
Q 2066 3103 1784 3103 
Q 1356 3103 1142 2972 
Q 928 2841 928 2578 
Q 928 2378 1081 2264 
Q 1234 2150 1697 2047 
L 1894 2003 
Q 2506 1872 2764 1633 
Q 3022 1394 3022 966 
Q 3022 478 2636 193 
Q 2250 -91 1575 -91 
Q 1294 -91 989 -36 
Q 684 19 347 128 
L 347 722 
Q 666 556 975 473 
Q 1284 391 1588 391 
Q 1994 391 2212 530 
Q 2431 669 2431 922 
Q 2431 1156 2273 1281 
Q 2116 1406 1581 1522 
L 1381 1569 
Q 847 1681 609 1914 
Q 372 2147 372 2553 
Q 372 3047 722 3315 
Q 1072 3584 1716 3584 
Q 2034 3584 2315 3537 
Q 2597 3491 2834 3397 
z
" transform="scale(0.015625)"/>
       <path id="DejaVuSans-69" d="M 603 3500 
L 1178 3500 
L 1178 0 
L 603 0 
L 603 3500 
z
M 603 4863 
L 1178 4863 
L 1178 4134 
L 603 4134 
L 603 4863 
z
" transform="scale(0.015625)"/>
       <path id="DejaVuSans-74" d="M 1172 4494 
L 1172 3500 
L 2356 3500 
L 2356 3053 
L 1172 3053 
L 1172 1153 
Q 1172 725 1289 603 
Q 1406 481 1766 481 
L 2356 481 
L 2356 0 
L 1766 0 
Q 1100 0 847 248 
Q 594 497 594 1153 
L 594 3053 
L 172 3053 
L 172 3500 
L 594 3500 
L 594 4494 
L 1172 4494 
z
" transform="scale(0.015625)"/>
       <path id="DejaVuSans-79" d="M 2059 -325 
Q 1816 -950 1584 -1140 
Q 1353 -1331 966 -1331 
L 506 -1331 
L 506 -850 
L 844 -850 
Q 1081 -850 1212 -737 
Q 1344 -625 1503 -206 
L 1606 56 
L 191 3500 
L 800 3500 
L 1894 763 
L 2988 3500 
L 3597 3500 
L 2059 -325 
z
" transform="scale(0.015625)"/>
      </defs>
      <use xlink:href="#DejaVuSans-64"/>
      <use xlink:href="#DejaVuSans-65" x="63.476562"/>
      <use xlink:href="#DejaVuSans-6e" x="125"/>
      <use xlink:href="#DejaVuSans-73" x="188.378906"/>
      <use xlink:href="#DejaVuSans-69" x="240.478516"/>
      <use xlink:href="#DejaVuSans-74" x="268.261719"/>
      <use xlink:href="#DejaVuSans-79" x="307.470703"/>
     </g>
    </g>
   </g>
   <g id="patch_203">
    <path d="M 57.6 307.584 
L 57.6 41.472 
" style="fill: none; stroke: #000000; stroke-width: 0.8; stroke-linejoin: miter; stroke-linecap: square"/>
   </g>
   <g id="patch_204">
    <path d="M 414.72 307.584 
L 414.72 41.472 
" style="fill: none; stroke: #000000; stroke-width: 0.8; stroke-linejoin: miter; stroke-linecap: square"/>
   </g>
   <g id="patch_205">
    <path d="M 57.6 307.584 
L 414.72 307.584 
" style="fill: none; stroke: #000000; stroke-width: 0.8; stroke-linejoin: miter; stroke-linecap: square"/>
   </g>
   <g id="patch_206">
    <path d="M 57.6 41.472 
L 414.72 41.472 
" style="fill: none; stroke: #000000; stroke-width: 0.8; stroke-linejoin: miter; stroke-linecap: square"/>
   </g>
   <g id="text_18">
    <!-- wave8m_Tp, N = 67471 -->
    <g transform="translate(163.965937 35.472) scale(0.12 -0.12)">
     <defs>
      <path id="DejaVuSans-77" d="M 269 3500 
L 844 3500 
L 1563 769 
L 2278 3500 
L 2956 3500 
L 3675 769 
L 4391 3500 
L 4966 3500 
L 4050 0 
L 3372 0 
L 2619 2869 
L 1863 0 
L 1184 0 
L 269 3500 
z
" transform="scale(0.015625)"/>
      <path id="DejaVuSans-38" d="M 2034 2216 
Q 1584 2216 1326 1975 
Q 1069 1734 1069 1313 
Q 1069 891 1326 650 
Q 1584 409 2034 409 
Q 2484 409 2743 651 
Q 3003 894 3003 1313 
Q 3003 1734 2745 1975 
Q 2488 2216 2034 2216 
z
M 1403 2484 
Q 997 2584 770 2862 
Q 544 3141 544 3541 
Q 544 4100 942 4425 
Q 1341 4750 2034 4750 
Q 2731 4750 3128 4425 
Q 3525 4100 3525 3541 
Q 3525 3141 3298 2862 
Q 3072 2584 2669 2484 
Q 3125 2378 3379 2068 
Q 3634 1759 3634 1313 
Q 3634 634 3220 271 
Q 2806 -91 2034 -91 
Q 1263 -91 848 271 
Q 434 634 434 1313 
Q 434 1759 690 2068 
Q 947 2378 1403 2484 
z
M 1172 3481 
Q 1172 3119 1398 2916 
Q 1625 2713 2034 2713 
Q 2441 2713 2670 2916 
Q 2900 3119 2900 3481 
Q 2900 3844 2670 4047 
Q 2441 4250 2034 4250 
Q 1625 4250 1398 4047 
Q 1172 3844 1172 3481 
z
" transform="scale(0.015625)"/>
      <path id="DejaVuSans-6d" d="M 3328 2828 
Q 3544 3216 3844 3400 
Q 4144 3584 4550 3584 
Q 5097 3584 5394 3201 
Q 5691 2819 5691 2113 
L 5691 0 
L 5113 0 
L 5113 2094 
Q 5113 2597 4934 2840 
Q 4756 3084 4391 3084 
Q 3944 3084 3684 2787 
Q 3425 2491 3425 1978 
L 3425 0 
L 2847 0 
L 2847 2094 
Q 2847 2600 2669 2842 
Q 2491 3084 2119 3084 
Q 1678 3084 1418 2786 
Q 1159 2488 1159 1978 
L 1159 0 
L 581 0 
L 581 3500 
L 1159 3500 
L 1159 2956 
Q 1356 3278 1631 3431 
Q 1906 3584 2284 3584 
Q 2666 3584 2933 3390 
Q 3200 3197 3328 2828 
z
" transform="scale(0.015625)"/>
      <path id="DejaVuSans-5f" d="M 3263 -1063 
L 3263 -1509 
L -63 -1509 
L -63 -1063 
L 3263 -1063 
z
" transform="scale(0.015625)"/>
      <path id="DejaVuSans-54" d="M -19 4666 
L 3928 4666 
L 3928 4134 
L 2272 4134 
L 2272 0 
L 1638 0 
L 1638 4134 
L -19 4134 
L -19 4666 
z
" transform="scale(0.015625)"/>
      <path id="DejaVuSans-70" d="M 1159 525 
L 1159 -1331 
L 581 -1331 
L 581 3500 
L 1159 3500 
L 1159 2969 
Q 1341 3281 1617 3432 
Q 1894 3584 2278 3584 
Q 2916 3584 3314 3078 
Q 3713 2572 3713 1747 
Q 3713 922 3314 415 
Q 2916 -91 2278 -91 
Q 1894 -91 1617 61 
Q 1341 213 1159 525 
z
M 3116 1747 
Q 3116 2381 2855 2742 
Q 2594 3103 2138 3103 
Q 1681 3103 1420 2742 
Q 1159 2381 1159 1747 
Q 1159 1113 1420 752 
Q 1681 391 2138 391 
Q 2594 391 2855 752 
Q 3116 1113 3116 1747 
z
" transform="scale(0.015625)"/>
      <path id="DejaVuSans-2c" d="M 750 794 
L 1409 794 
L 1409 256 
L 897 -744 
L 494 -744 
L 750 256 
L 750 794 
z
" transform="scale(0.015625)"/>
      <path id="DejaVuSans-20" transform="scale(0.015625)"/>
      <path id="DejaVuSans-4e" d="M 628 4666 
L 1478 4666 
L 3547 763 
L 3547 4666 
L 4159 4666 
L 4159 0 
L 3309 0 
L 1241 3903 
L 1241 0 
L 628 0 
L 628 4666 
z
" transform="scale(0.015625)"/>
      <path id="DejaVuSans-3d" d="M 678 2906 
L 4684 2906 
L 4684 2381 
L 678 2381 
L 678 2906 
z
M 678 1631 
L 4684 1631 
L 4684 1100 
L 678 1100 
L 678 1631 
z
" transform="scale(0.015625)"/>
      <path id="DejaVuSans-36" d="M 2113 2584 
Q 1688 2584 1439 2293 
Q 1191 2003 1191 1497 
Q 1191 994 1439 701 
Q 1688 409 2113 409 
Q 2538 409 2786 701 
Q 3034 994 3034 1497 
Q 3034 2003 2786 2293 
Q 2538 2584 2113 2584 
z
M 3366 4563 
L 3366 3988 
Q 3128 4100 2886 4159 
Q 2644 4219 2406 4219 
Q 1781 4219 1451 3797 
Q 1122 3375 1075 2522 
Q 1259 2794 1537 2939 
Q 1816 3084 2150 3084 
Q 2853 3084 3261 2657 
Q 3669 2231 3669 1497 
Q 3669 778 3244 343 
Q 2819 -91 2113 -91 
Q 1303 -91 875 529 
Q 447 1150 447 2328 
Q 447 3434 972 4092 
Q 1497 4750 2381 4750 
Q 2619 4750 2861 4703 
Q 3103 4656 3366 4563 
z
" transform="scale(0.015625)"/>
      <path id="DejaVuSans-34" d="M 2419 4116 
L 825 1625 
L 2419 1625 
L 2419 4116 
z
M 2253 4666 
L 3047 4666 
L 3047 1625 
L 3713 1625 
L 3713 1100 
L 3047 1100 
L 3047 0 
L 2419 0 
L 2419 1100 
L 313 1100 
L 313 1709 
L 2253 4666 
z
" transform="scale(0.015625)"/>
     </defs>
     <use xlink:href="#DejaVuSans-77"/>
     <use xlink:href="#DejaVuSans-61" x="81.787109"/>
     <use xlink:href="#DejaVuSans-76" x="143.066406"/>
     <use xlink:href="#DejaVuSans-65" x="202.246094"/>
     <use xlink:href="#DejaVuSans-38" x="263.769531"/>
     <use xlink:href="#DejaVuSans-6d" x="327.392578"/>
     <use xlink:href="#DejaVuSans-5f" x="424.804688"/>
     <use xlink:href="#DejaVuSans-54" x="474.804688"/>
     <use xlink:href="#DejaVuSans-70" x="535.888672"/>
     <use xlink:href="#DejaVuSans-2c" x="599.365234"/>
     <use xlink:href="#DejaVuSans-20" x="631.152344"/>
     <use xlink:href="#DejaVuSans-4e" x="662.939453"/>
     <use xlink:href="#DejaVuSans-20" x="737.744141"/>
     <use xlink:href="#DejaVuSans-3d" x="769.53125"/>
     <use xlink:href="#DejaVuSans-20" x="853.320312"/>
     <use xlink:href="#DejaVuSans-36" x="885.107422"/>
     <use xlink:href="#DejaVuSans-37" x="948.730469"/>
     <use xlink:href="#DejaVuSans-34" x="1012.353516"/>
     <use xlink:href="#DejaVuSans-37" x="1075.976562"/>
     <use xlink:href="#DejaVuSans-31" x="1139.599609"/>
    </g>
   </g>
  </g>
 </g>
 <defs>
  <clipPath id="pd061d7980c">
   <rect x="57.6" y="41.472" width="357.12" height="266.112"/>
  </clipPath>
 </defs>
</svg>
