<?xml version="1.0" encoding="utf-8" standalone="no"?>
<!DOCTYPE svg PUBLIC "-//W3C//DTD SVG 1.1//EN"
  "http://www.w3.org/Graphics/SVG/1.1/DTD/svg11.dtd">
<svg xmlns:xlink="http://www.w3.org/1999/xlink" width="460.8pt" height="345.6pt" viewBox="0 0 460.8 345.6" xmlns="http://www.w3.org/2000/svg" version="1.1">
 <metadata>
  <rdf:RDF xmlns:dc="http://purl.org/dc/elements/1.1/" xmlns:cc="http://creativecommons.org/ns#" xmlns:rdf="http://www.w3.org/1999/02/22-rdf-syntax-ns#">
   <cc:Work>
    <dc:type rdf:resource="http://purl.org/dc/dcmitype/StillImage"/>
    <dc:date>2024-06-19T20:44:08.149031</dc:date>
    <dc:format>image/svg+xml</dc:format>
    <dc:creator>
     <cc:Agent>
      <dc:title>Matplotlib v3.8.0, https://matplotlib.org/</dc:title>
     </cc:Agent>
    </dc:creator>
   </cc:Work>
  </rdf:RDF>
 </metadata>
 <defs>
  <style type="text/css">*{stroke-linejoin: round; stroke-linecap: butt}</style>
 </defs>
 <g id="figure_1">
  <g id="patch_1">
   <path d="M 0 345.6 
L 460.8 345.6 
L 460.8 0 
L 0 0 
z
" style="fill: #ffffff"/>
  </g>
  <g id="axes_1">
   <g id="patch_2">
    <path d="M 57.6 307.584 
L 414.72 307.584 
L 414.72 41.472 
L 57.6 41.472 
z
" style="fill: #ffffff"/>
   </g>
   <g id="patch_3">
    <path d="M 73.832727 307.584 
L 75.439928 307.584 
L 75.439928 302.07767 
L 73.832727 302.07767 
z
" clip-path="url(#p6c65123dfb)" style="fill: #1f77b4"/>
   </g>
   <g id="patch_4">
    <path d="M 75.439928 307.584 
L 77.047129 307.584 
L 77.047129 303.937917 
L 75.439928 303.937917 
z
" clip-path="url(#p6c65123dfb)" style="fill: #1f77b4"/>
   </g>
   <g id="patch_5">
    <path d="M 77.047129 307.584 
L 78.654329 307.584 
L 78.654329 304.384376 
L 77.047129 304.384376 
z
" clip-path="url(#p6c65123dfb)" style="fill: #1f77b4"/>
   </g>
   <g id="patch_6">
    <path d="M 78.654329 307.584 
L 80.26153 307.584 
L 80.26153 305.649344 
L 78.654329 305.649344 
z
" clip-path="url(#p6c65123dfb)" style="fill: #1f77b4"/>
   </g>
   <g id="patch_7">
    <path d="M 80.26153 307.584 
L 81.868731 307.584 
L 81.868731 305.054065 
L 80.26153 305.054065 
z
" clip-path="url(#p6c65123dfb)" style="fill: #1f77b4"/>
   </g>
   <g id="patch_8">
    <path d="M 81.868731 307.584 
L 83.475932 307.584 
L 83.475932 305.500524 
L 81.868731 305.500524 
z
" clip-path="url(#p6c65123dfb)" style="fill: #1f77b4"/>
   </g>
   <g id="patch_9">
    <path d="M 83.475932 307.584 
L 85.083132 307.584 
L 85.083132 304.905245 
L 83.475932 304.905245 
z
" clip-path="url(#p6c65123dfb)" style="fill: #1f77b4"/>
   </g>
   <g id="patch_10">
    <path d="M 85.083132 307.584 
L 86.690333 307.584 
L 86.690333 302.598539 
L 85.083132 302.598539 
z
" clip-path="url(#p6c65123dfb)" style="fill: #1f77b4"/>
   </g>
   <g id="patch_11">
    <path d="M 86.690333 307.584 
L 88.297534 307.584 
L 88.297534 303.044998 
L 86.690333 303.044998 
z
" clip-path="url(#p6c65123dfb)" style="fill: #1f77b4"/>
   </g>
   <g id="patch_12">
    <path d="M 88.297534 307.584 
L 89.904734 307.584 
L 89.904734 300.961522 
L 88.297534 300.961522 
z
" clip-path="url(#p6c65123dfb)" style="fill: #1f77b4"/>
   </g>
   <g id="patch_13">
    <path d="M 89.904734 307.584 
L 91.511935 307.584 
L 91.511935 300.812702 
L 89.904734 300.812702 
z
" clip-path="url(#p6c65123dfb)" style="fill: #1f77b4"/>
   </g>
   <g id="patch_14">
    <path d="M 91.511935 307.584 
L 93.119136 307.584 
L 93.119136 299.026866 
L 91.511935 299.026866 
z
" clip-path="url(#p6c65123dfb)" style="fill: #1f77b4"/>
   </g>
   <g id="patch_15">
    <path d="M 93.119136 307.584 
L 94.726337 307.584 
L 94.726337 295.901651 
L 93.119136 295.901651 
z
" clip-path="url(#p6c65123dfb)" style="fill: #1f77b4"/>
   </g>
   <g id="patch_16">
    <path d="M 94.726337 307.584 
L 96.333537 307.584 
L 96.333537 293.446126 
L 94.726337 293.446126 
z
" clip-path="url(#p6c65123dfb)" style="fill: #1f77b4"/>
   </g>
   <g id="patch_17">
    <path d="M 96.333537 307.584 
L 97.940738 307.584 
L 97.940738 288.758304 
L 96.333537 288.758304 
z
" clip-path="url(#p6c65123dfb)" style="fill: #1f77b4"/>
   </g>
   <g id="patch_18">
    <path d="M 97.940738 307.584 
L 99.547939 307.584 
L 99.547939 286.153959 
L 97.940738 286.153959 
z
" clip-path="url(#p6c65123dfb)" style="fill: #1f77b4"/>
   </g>
   <g id="patch_19">
    <path d="M 99.547939 307.584 
L 101.15514 307.584 
L 101.15514 291.437059 
L 99.547939 291.437059 
z
" clip-path="url(#p6c65123dfb)" style="fill: #1f77b4"/>
   </g>
   <g id="patch_20">
    <path d="M 101.15514 307.584 
L 102.76234 307.584 
L 102.76234 284.591352 
L 101.15514 284.591352 
z
" clip-path="url(#p6c65123dfb)" style="fill: #1f77b4"/>
   </g>
   <g id="patch_21">
    <path d="M 102.76234 307.584 
L 104.369541 307.584 
L 104.369541 276.480676 
L 102.76234 276.480676 
z
" clip-path="url(#p6c65123dfb)" style="fill: #1f77b4"/>
   </g>
   <g id="patch_22">
    <path d="M 104.369541 307.584 
L 105.976742 307.584 
L 105.976742 281.466137 
L 104.369541 281.466137 
z
" clip-path="url(#p6c65123dfb)" style="fill: #1f77b4"/>
   </g>
   <g id="patch_23">
    <path d="M 105.976742 307.584 
L 107.583942 307.584 
L 107.583942 281.466137 
L 105.976742 281.466137 
z
" clip-path="url(#p6c65123dfb)" style="fill: #1f77b4"/>
   </g>
   <g id="patch_24">
    <path d="M 107.583942 307.584 
L 109.191143 307.584 
L 109.191143 261.598703 
L 107.583942 261.598703 
z
" clip-path="url(#p6c65123dfb)" style="fill: #1f77b4"/>
   </g>
   <g id="patch_25">
    <path d="M 109.191143 307.584 
L 110.798344 307.584 
L 110.798344 284.368122 
L 109.191143 284.368122 
z
" clip-path="url(#p6c65123dfb)" style="fill: #1f77b4"/>
   </g>
   <g id="patch_26">
    <path d="M 110.798344 307.584 
L 112.405545 307.584 
L 112.405545 255.497095 
L 110.798344 255.497095 
z
" clip-path="url(#p6c65123dfb)" style="fill: #1f77b4"/>
   </g>
   <g id="patch_27">
    <path d="M 112.405545 307.584 
L 114.012745 307.584 
L 114.012745 276.629496 
L 112.405545 276.629496 
z
" clip-path="url(#p6c65123dfb)" style="fill: #1f77b4"/>
   </g>
   <g id="patch_28">
    <path d="M 114.012745 307.584 
L 115.619946 307.584 
L 115.619946 244.037975 
L 114.012745 244.037975 
z
" clip-path="url(#p6c65123dfb)" style="fill: #1f77b4"/>
   </g>
   <g id="patch_29">
    <path d="M 115.619946 307.584 
L 117.227147 307.584 
L 117.227147 276.257447 
L 115.619946 276.257447 
z
" clip-path="url(#p6c65123dfb)" style="fill: #1f77b4"/>
   </g>
   <g id="patch_30">
    <path d="M 117.227147 307.584 
L 118.834347 307.584 
L 118.834347 227.891035 
L 117.227147 227.891035 
z
" clip-path="url(#p6c65123dfb)" style="fill: #1f77b4"/>
   </g>
   <g id="patch_31">
    <path d="M 118.834347 307.584 
L 120.441548 307.584 
L 120.441548 263.53336 
L 118.834347 263.53336 
z
" clip-path="url(#p6c65123dfb)" style="fill: #1f77b4"/>
   </g>
   <g id="patch_32">
    <path d="M 120.441548 307.584 
L 122.048749 307.584 
L 122.048749 238.680465 
L 120.441548 238.680465 
z
" clip-path="url(#p6c65123dfb)" style="fill: #1f77b4"/>
   </g>
   <g id="patch_33">
    <path d="M 122.048749 307.584 
L 123.65595 307.584 
L 123.65595 219.25949 
L 122.048749 219.25949 
z
" clip-path="url(#p6c65123dfb)" style="fill: #1f77b4"/>
   </g>
   <g id="patch_34">
    <path d="M 123.65595 307.584 
L 125.26315 307.584 
L 125.26315 260.333736 
L 123.65595 260.333736 
z
" clip-path="url(#p6c65123dfb)" style="fill: #1f77b4"/>
   </g>
   <g id="patch_35">
    <path d="M 125.26315 307.584 
L 126.870351 307.584 
L 126.870351 180.864 
L 125.26315 180.864 
z
" clip-path="url(#p6c65123dfb)" style="fill: #1f77b4"/>
   </g>
   <g id="patch_36">
    <path d="M 126.870351 307.584 
L 128.477552 307.584 
L 128.477552 226.774887 
L 126.870351 226.774887 
z
" clip-path="url(#p6c65123dfb)" style="fill: #1f77b4"/>
   </g>
   <g id="patch_37">
    <path d="M 128.477552 307.584 
L 130.084752 307.584 
L 130.084752 243.517106 
L 128.477552 243.517106 
z
" clip-path="url(#p6c65123dfb)" style="fill: #1f77b4"/>
   </g>
   <g id="patch_38">
    <path d="M 130.084752 307.584 
L 131.691953 307.584 
L 131.691953 154.374088 
L 130.084752 154.374088 
z
" clip-path="url(#p6c65123dfb)" style="fill: #1f77b4"/>
   </g>
   <g id="patch_39">
    <path d="M 131.691953 307.584 
L 133.299154 307.584 
L 133.299154 216.506325 
L 131.691953 216.506325 
z
" clip-path="url(#p6c65123dfb)" style="fill: #1f77b4"/>
   </g>
   <g id="patch_40">
    <path d="M 133.299154 307.584 
L 134.906355 307.584 
L 134.906355 242.475368 
L 133.299154 242.475368 
z
" clip-path="url(#p6c65123dfb)" style="fill: #1f77b4"/>
   </g>
   <g id="patch_41">
    <path d="M 134.906355 307.584 
L 136.513555 307.584 
L 136.513555 152.141792 
L 134.906355 152.141792 
z
" clip-path="url(#p6c65123dfb)" style="fill: #1f77b4"/>
   </g>
   <g id="patch_42">
    <path d="M 136.513555 307.584 
L 138.120756 307.584 
L 138.120756 183.691575 
L 136.513555 183.691575 
z
" clip-path="url(#p6c65123dfb)" style="fill: #1f77b4"/>
   </g>
   <g id="patch_43">
    <path d="M 138.120756 307.584 
L 139.727957 307.584 
L 139.727957 244.112385 
L 138.120756 244.112385 
z
" clip-path="url(#p6c65123dfb)" style="fill: #1f77b4"/>
   </g>
   <g id="patch_44">
    <path d="M 139.727957 307.584 
L 141.335158 307.584 
L 141.335158 204.898386 
L 139.727957 204.898386 
z
" clip-path="url(#p6c65123dfb)" style="fill: #1f77b4"/>
   </g>
   <g id="patch_45">
    <path d="M 141.335158 307.584 
L 142.942358 307.584 
L 142.942358 124.163683 
L 141.335158 124.163683 
z
" clip-path="url(#p6c65123dfb)" style="fill: #1f77b4"/>
   </g>
   <g id="patch_46">
    <path d="M 142.942358 307.584 
L 144.549559 307.584 
L 144.549559 210.925585 
L 142.942358 210.925585 
z
" clip-path="url(#p6c65123dfb)" style="fill: #1f77b4"/>
   </g>
   <g id="patch_47">
    <path d="M 144.549559 307.584 
L 146.15676 307.584 
L 146.15676 237.489907 
L 144.549559 237.489907 
z
" clip-path="url(#p6c65123dfb)" style="fill: #1f77b4"/>
   </g>
   <g id="patch_48">
    <path d="M 146.15676 307.584 
L 147.76396 307.584 
L 147.76396 205.196026 
L 146.15676 205.196026 
z
" clip-path="url(#p6c65123dfb)" style="fill: #1f77b4"/>
   </g>
   <g id="patch_49">
    <path d="M 147.76396 307.584 
L 149.371161 307.584 
L 149.371161 135.027523 
L 147.76396 135.027523 
z
" clip-path="url(#p6c65123dfb)" style="fill: #1f77b4"/>
   </g>
   <g id="patch_50">
    <path d="M 149.371161 307.584 
L 150.978362 307.584 
L 150.978362 168.363143 
L 149.371161 168.363143 
z
" clip-path="url(#p6c65123dfb)" style="fill: #1f77b4"/>
   </g>
   <g id="patch_51">
    <path d="M 150.978362 307.584 
L 152.585563 307.584 
L 152.585563 236.07612 
L 150.978362 236.07612 
z
" clip-path="url(#p6c65123dfb)" style="fill: #1f77b4"/>
   </g>
   <g id="patch_52">
    <path d="M 152.585563 307.584 
L 154.192763 307.584 
L 154.192763 242.326548 
L 152.585563 242.326548 
z
" clip-path="url(#p6c65123dfb)" style="fill: #1f77b4"/>
   </g>
   <g id="patch_53">
    <path d="M 154.192763 307.584 
L 155.799964 307.584 
L 155.799964 182.054558 
L 154.192763 182.054558 
z
" clip-path="url(#p6c65123dfb)" style="fill: #1f77b4"/>
   </g>
   <g id="patch_54">
    <path d="M 155.799964 307.584 
L 157.407165 307.584 
L 157.407165 139.268885 
L 155.799964 139.268885 
z
" clip-path="url(#p6c65123dfb)" style="fill: #1f77b4"/>
   </g>
   <g id="patch_55">
    <path d="M 157.407165 307.584 
L 159.014365 307.584 
L 159.014365 180.566361 
L 157.407165 180.566361 
z
" clip-path="url(#p6c65123dfb)" style="fill: #1f77b4"/>
   </g>
   <g id="patch_56">
    <path d="M 159.014365 307.584 
L 160.621566 307.584 
L 160.621566 246.79114 
L 159.014365 246.79114 
z
" clip-path="url(#p6c65123dfb)" style="fill: #1f77b4"/>
   </g>
   <g id="patch_57">
    <path d="M 160.621566 307.584 
L 162.228767 307.584 
L 162.228767 244.930894 
L 160.621566 244.930894 
z
" clip-path="url(#p6c65123dfb)" style="fill: #1f77b4"/>
   </g>
   <g id="patch_58">
    <path d="M 162.228767 307.584 
L 163.835968 307.584 
L 163.835968 195.597153 
L 162.228767 195.597153 
z
" clip-path="url(#p6c65123dfb)" style="fill: #1f77b4"/>
   </g>
   <g id="patch_59">
    <path d="M 163.835968 307.584 
L 165.443168 307.584 
L 165.443168 140.980312 
L 163.835968 140.980312 
z
" clip-path="url(#p6c65123dfb)" style="fill: #1f77b4"/>
   </g>
   <g id="patch_60">
    <path d="M 165.443168 307.584 
L 167.050369 307.584 
L 167.050369 134.432244 
L 165.443168 134.432244 
z
" clip-path="url(#p6c65123dfb)" style="fill: #1f77b4"/>
   </g>
   <g id="patch_61">
    <path d="M 167.050369 307.584 
L 168.65757 307.584 
L 168.65757 202.145221 
L 167.050369 202.145221 
z
" clip-path="url(#p6c65123dfb)" style="fill: #1f77b4"/>
   </g>
   <g id="patch_62">
    <path d="M 168.65757 307.584 
L 170.26477 307.584 
L 170.26477 228.114264 
L 168.65757 228.114264 
z
" clip-path="url(#p6c65123dfb)" style="fill: #1f77b4"/>
   </g>
   <g id="patch_63">
    <path d="M 170.26477 307.584 
L 171.871971 307.584 
L 171.871971 222.756754 
L 170.26477 222.756754 
z
" clip-path="url(#p6c65123dfb)" style="fill: #1f77b4"/>
   </g>
   <g id="patch_64">
    <path d="M 171.871971 307.584 
L 173.479172 307.584 
L 173.479172 179.152573 
L 171.871971 179.152573 
z
" clip-path="url(#p6c65123dfb)" style="fill: #1f77b4"/>
   </g>
   <g id="patch_65">
    <path d="M 173.479172 307.584 
L 175.086373 307.584 
L 175.086373 124.312503 
L 173.479172 124.312503 
z
" clip-path="url(#p6c65123dfb)" style="fill: #1f77b4"/>
   </g>
   <g id="patch_66">
    <path d="M 175.086373 307.584 
L 176.693573 307.584 
L 176.693573 124.982191 
L 175.086373 124.982191 
z
" clip-path="url(#p6c65123dfb)" style="fill: #1f77b4"/>
   </g>
   <g id="patch_67">
    <path d="M 176.693573 307.584 
L 178.300774 307.584 
L 178.300774 125.354241 
L 176.693573 125.354241 
z
" clip-path="url(#p6c65123dfb)" style="fill: #1f77b4"/>
   </g>
   <g id="patch_68">
    <path d="M 178.300774 307.584 
L 179.907975 307.584 
L 179.907975 201.847582 
L 178.300774 201.847582 
z
" clip-path="url(#p6c65123dfb)" style="fill: #1f77b4"/>
   </g>
   <g id="patch_69">
    <path d="M 179.907975 307.584 
L 181.515176 307.584 
L 181.515176 220.598868 
L 179.907975 220.598868 
z
" clip-path="url(#p6c65123dfb)" style="fill: #1f77b4"/>
   </g>
   <g id="patch_70">
    <path d="M 181.515176 307.584 
L 183.122376 307.584 
L 183.122376 179.747852 
L 181.515176 179.747852 
z
" clip-path="url(#p6c65123dfb)" style="fill: #1f77b4"/>
   </g>
   <g id="patch_71">
    <path d="M 183.122376 307.584 
L 184.729577 307.584 
L 184.729577 116.350647 
L 183.122376 116.350647 
z
" clip-path="url(#p6c65123dfb)" style="fill: #1f77b4"/>
   </g>
   <g id="patch_72">
    <path d="M 184.729577 307.584 
L 186.336778 307.584 
L 186.336778 59.055051 
L 184.729577 59.055051 
z
" clip-path="url(#p6c65123dfb)" style="fill: #1f77b4"/>
   </g>
   <g id="patch_73">
    <path d="M 186.336778 307.584 
L 187.943978 307.584 
L 187.943978 110.695497 
L 186.336778 110.695497 
z
" clip-path="url(#p6c65123dfb)" style="fill: #1f77b4"/>
   </g>
   <g id="patch_74">
    <path d="M 187.943978 307.584 
L 189.551179 307.584 
L 189.551179 184.584493 
L 187.943978 184.584493 
z
" clip-path="url(#p6c65123dfb)" style="fill: #1f77b4"/>
   </g>
   <g id="patch_75">
    <path d="M 189.551179 307.584 
L 191.15838 307.584 
L 191.15838 233.992644 
L 189.551179 233.992644 
z
" clip-path="url(#p6c65123dfb)" style="fill: #1f77b4"/>
   </g>
   <g id="patch_76">
    <path d="M 191.15838 307.584 
L 192.765581 307.584 
L 192.765581 269.337329 
L 191.15838 269.337329 
z
" clip-path="url(#p6c65123dfb)" style="fill: #1f77b4"/>
   </g>
   <g id="patch_77">
    <path d="M 192.765581 307.584 
L 194.372781 307.584 
L 194.372781 265.840066 
L 192.765581 265.840066 
z
" clip-path="url(#p6c65123dfb)" style="fill: #1f77b4"/>
   </g>
   <g id="patch_78">
    <path d="M 194.372781 307.584 
L 195.979982 307.584 
L 195.979982 168.809602 
L 194.372781 168.809602 
z
" clip-path="url(#p6c65123dfb)" style="fill: #1f77b4"/>
   </g>
   <g id="patch_79">
    <path d="M 195.979982 307.584 
L 197.587183 307.584 
L 197.587183 103.031281 
L 195.979982 103.031281 
z
" clip-path="url(#p6c65123dfb)" style="fill: #1f77b4"/>
   </g>
   <g id="patch_80">
    <path d="M 197.587183 307.584 
L 199.194383 307.584 
L 199.194383 54.144 
L 197.587183 54.144 
z
" clip-path="url(#p6c65123dfb)" style="fill: #1f77b4"/>
   </g>
   <g id="patch_81">
    <path d="M 199.194383 307.584 
L 200.801584 307.584 
L 200.801584 143.584658 
L 199.194383 143.584658 
z
" clip-path="url(#p6c65123dfb)" style="fill: #1f77b4"/>
   </g>
   <g id="patch_82">
    <path d="M 200.801584 307.584 
L 202.408785 307.584 
L 202.408785 211.074405 
L 200.801584 211.074405 
z
" clip-path="url(#p6c65123dfb)" style="fill: #1f77b4"/>
   </g>
   <g id="patch_83">
    <path d="M 202.408785 307.584 
L 204.015986 307.584 
L 204.015986 277.596824 
L 202.408785 277.596824 
z
" clip-path="url(#p6c65123dfb)" style="fill: #1f77b4"/>
   </g>
   <g id="patch_84">
    <path d="M 204.015986 307.584 
L 205.623186 307.584 
L 205.623186 277.150365 
L 204.015986 277.150365 
z
" clip-path="url(#p6c65123dfb)" style="fill: #1f77b4"/>
   </g>
   <g id="patch_85">
    <path d="M 205.623186 307.584 
L 207.230387 307.584 
L 207.230387 213.97639 
L 205.623186 213.97639 
z
" clip-path="url(#p6c65123dfb)" style="fill: #1f77b4"/>
   </g>
   <g id="patch_86">
    <path d="M 207.230387 307.584 
L 208.837588 307.584 
L 208.837588 128.479455 
L 207.230387 128.479455 
z
" clip-path="url(#p6c65123dfb)" style="fill: #1f77b4"/>
   </g>
   <g id="patch_87">
    <path d="M 208.837588 307.584 
L 210.444788 307.584 
L 210.444788 82.047699 
L 208.837588 82.047699 
z
" clip-path="url(#p6c65123dfb)" style="fill: #1f77b4"/>
   </g>
   <g id="patch_88">
    <path d="M 210.444788 307.584 
L 212.051989 307.584 
L 212.051989 213.381111 
L 210.444788 213.381111 
z
" clip-path="url(#p6c65123dfb)" style="fill: #1f77b4"/>
   </g>
   <g id="patch_89">
    <path d="M 212.051989 307.584 
L 213.65919 307.584 
L 213.65919 244.633254 
L 212.051989 244.633254 
z
" clip-path="url(#p6c65123dfb)" style="fill: #1f77b4"/>
   </g>
   <g id="patch_90">
    <path d="M 213.65919 307.584 
L 215.266391 307.584 
L 215.266391 280.12676 
L 213.65919 280.12676 
z
" clip-path="url(#p6c65123dfb)" style="fill: #1f77b4"/>
   </g>
   <g id="patch_91">
    <path d="M 215.266391 307.584 
L 216.873591 307.584 
L 216.873591 254.901816 
L 215.266391 254.901816 
z
" clip-path="url(#p6c65123dfb)" style="fill: #1f77b4"/>
   </g>
   <g id="patch_92">
    <path d="M 216.873591 307.584 
L 218.480792 307.584 
L 218.480792 228.560723 
L 216.873591 228.560723 
z
" clip-path="url(#p6c65123dfb)" style="fill: #1f77b4"/>
   </g>
   <g id="patch_93">
    <path d="M 218.480792 307.584 
L 220.087993 307.584 
L 220.087993 164.19619 
L 218.480792 164.19619 
z
" clip-path="url(#p6c65123dfb)" style="fill: #1f77b4"/>
   </g>
   <g id="patch_94">
    <path d="M 220.087993 307.584 
L 221.695194 307.584 
L 221.695194 165.833207 
L 220.087993 165.833207 
z
" clip-path="url(#p6c65123dfb)" style="fill: #1f77b4"/>
   </g>
   <g id="patch_95">
    <path d="M 221.695194 307.584 
L 223.302394 307.584 
L 223.302394 212.860242 
L 221.695194 212.860242 
z
" clip-path="url(#p6c65123dfb)" style="fill: #1f77b4"/>
   </g>
   <g id="patch_96">
    <path d="M 223.302394 307.584 
L 224.909595 307.584 
L 224.909595 271.718445 
L 223.302394 271.718445 
z
" clip-path="url(#p6c65123dfb)" style="fill: #1f77b4"/>
   </g>
   <g id="patch_97">
    <path d="M 224.909595 307.584 
L 226.516796 307.584 
L 226.516796 274.918069 
L 224.909595 274.918069 
z
" clip-path="url(#p6c65123dfb)" style="fill: #1f77b4"/>
   </g>
   <g id="patch_98">
    <path d="M 226.516796 307.584 
L 228.123996 307.584 
L 228.123996 250.511634 
L 226.516796 250.511634 
z
" clip-path="url(#p6c65123dfb)" style="fill: #1f77b4"/>
   </g>
   <g id="patch_99">
    <path d="M 228.123996 307.584 
L 229.731197 307.584 
L 229.731197 204.972796 
L 228.123996 204.972796 
z
" clip-path="url(#p6c65123dfb)" style="fill: #1f77b4"/>
   </g>
   <g id="patch_100">
    <path d="M 229.731197 307.584 
L 231.338398 307.584 
L 231.338398 173.125374 
L 229.731197 173.125374 
z
" clip-path="url(#p6c65123dfb)" style="fill: #1f77b4"/>
   </g>
   <g id="patch_101">
    <path d="M 231.338398 307.584 
L 232.945599 307.584 
L 232.945599 250.809273 
L 231.338398 250.809273 
z
" clip-path="url(#p6c65123dfb)" style="fill: #1f77b4"/>
   </g>
   <g id="patch_102">
    <path d="M 232.945599 307.584 
L 234.552799 307.584 
L 234.552799 254.306537 
L 232.945599 254.306537 
z
" clip-path="url(#p6c65123dfb)" style="fill: #1f77b4"/>
   </g>
   <g id="patch_103">
    <path d="M 234.552799 307.584 
L 236.16 307.584 
L 236.16 279.233841 
L 234.552799 279.233841 
z
" clip-path="url(#p6c65123dfb)" style="fill: #1f77b4"/>
   </g>
   <g id="patch_104">
    <path d="M 236.16 307.584 
L 237.767201 307.584 
L 237.767201 274.3972 
L 236.16 274.3972 
z
" clip-path="url(#p6c65123dfb)" style="fill: #1f77b4"/>
   </g>
   <g id="patch_105">
    <path d="M 237.767201 307.584 
L 239.374401 307.584 
L 239.374401 275.290119 
L 237.767201 275.290119 
z
" clip-path="url(#p6c65123dfb)" style="fill: #1f77b4"/>
   </g>
   <g id="patch_106">
    <path d="M 239.374401 307.584 
L 240.981602 307.584 
L 240.981602 221.342967 
L 239.374401 221.342967 
z
" clip-path="url(#p6c65123dfb)" style="fill: #1f77b4"/>
   </g>
   <g id="patch_107">
    <path d="M 240.981602 307.584 
L 242.588803 307.584 
L 242.588803 188.677036 
L 240.981602 188.677036 
z
" clip-path="url(#p6c65123dfb)" style="fill: #1f77b4"/>
   </g>
   <g id="patch_108">
    <path d="M 242.588803 307.584 
L 244.196004 307.584 
L 244.196004 244.707664 
L 242.588803 244.707664 
z
" clip-path="url(#p6c65123dfb)" style="fill: #1f77b4"/>
   </g>
   <g id="patch_109">
    <path d="M 244.196004 307.584 
L 245.803204 307.584 
L 245.803204 246.86555 
L 244.196004 246.86555 
z
" clip-path="url(#p6c65123dfb)" style="fill: #1f77b4"/>
   </g>
   <g id="patch_110">
    <path d="M 245.803204 307.584 
L 247.410405 307.584 
L 247.410405 285.930729 
L 245.803204 285.930729 
z
" clip-path="url(#p6c65123dfb)" style="fill: #1f77b4"/>
   </g>
   <g id="patch_111">
    <path d="M 247.410405 307.584 
L 249.017606 307.584 
L 249.017606 291.809109 
L 247.410405 291.809109 
z
" clip-path="url(#p6c65123dfb)" style="fill: #1f77b4"/>
   </g>
   <g id="patch_112">
    <path d="M 249.017606 307.584 
L 250.624806 307.584 
L 250.624806 283.326384 
L 249.017606 283.326384 
z
" clip-path="url(#p6c65123dfb)" style="fill: #1f77b4"/>
   </g>
   <g id="patch_113">
    <path d="M 250.624806 307.584 
L 252.232007 307.584 
L 252.232007 281.317318 
L 250.624806 281.317318 
z
" clip-path="url(#p6c65123dfb)" style="fill: #1f77b4"/>
   </g>
   <g id="patch_114">
    <path d="M 252.232007 307.584 
L 253.839208 307.584 
L 253.839208 269.858198 
L 252.232007 269.858198 
z
" clip-path="url(#p6c65123dfb)" style="fill: #1f77b4"/>
   </g>
   <g id="patch_115">
    <path d="M 253.839208 307.584 
L 255.446409 307.584 
L 255.446409 217.548063 
L 253.839208 217.548063 
z
" clip-path="url(#p6c65123dfb)" style="fill: #1f77b4"/>
   </g>
   <g id="patch_116">
    <path d="M 255.446409 307.584 
L 257.053609 307.584 
L 257.053609 240.763941 
L 255.446409 240.763941 
z
" clip-path="url(#p6c65123dfb)" style="fill: #1f77b4"/>
   </g>
   <g id="patch_117">
    <path d="M 257.053609 307.584 
L 258.66081 307.584 
L 258.66081 260.184916 
L 257.053609 260.184916 
z
" clip-path="url(#p6c65123dfb)" style="fill: #1f77b4"/>
   </g>
   <g id="patch_118">
    <path d="M 258.66081 307.584 
L 260.268011 307.584 
L 260.268011 277.448005 
L 258.66081 277.448005 
z
" clip-path="url(#p6c65123dfb)" style="fill: #1f77b4"/>
   </g>
   <g id="patch_119">
    <path d="M 260.268011 307.584 
L 261.875212 307.584 
L 261.875212 277.820054 
L 260.268011 277.820054 
z
" clip-path="url(#p6c65123dfb)" style="fill: #1f77b4"/>
   </g>
   <g id="patch_120">
    <path d="M 261.875212 307.584 
L 263.482412 307.584 
L 263.482412 295.529602 
L 261.875212 295.529602 
z
" clip-path="url(#p6c65123dfb)" style="fill: #1f77b4"/>
   </g>
   <g id="patch_121">
    <path d="M 263.482412 307.584 
L 265.089613 307.584 
L 265.089613 290.097682 
L 263.482412 290.097682 
z
" clip-path="url(#p6c65123dfb)" style="fill: #1f77b4"/>
   </g>
   <g id="patch_122">
    <path d="M 265.089613 307.584 
L 266.696814 307.584 
L 266.696814 281.019678 
L 265.089613 281.019678 
z
" clip-path="url(#p6c65123dfb)" style="fill: #1f77b4"/>
   </g>
   <g id="patch_123">
    <path d="M 266.696814 307.584 
L 268.304014 307.584 
L 268.304014 272.313724 
L 266.696814 272.313724 
z
" clip-path="url(#p6c65123dfb)" style="fill: #1f77b4"/>
   </g>
   <g id="patch_124">
    <path d="M 268.304014 307.584 
L 269.911215 307.584 
L 269.911215 255.794734 
L 268.304014 255.794734 
z
" clip-path="url(#p6c65123dfb)" style="fill: #1f77b4"/>
   </g>
   <g id="patch_125">
    <path d="M 269.911215 307.584 
L 271.518416 307.584 
L 271.518416 244.261205 
L 269.911215 244.261205 
z
" clip-path="url(#p6c65123dfb)" style="fill: #1f77b4"/>
   </g>
   <g id="patch_126">
    <path d="M 271.518416 307.584 
L 273.125617 307.584 
L 273.125617 262.789261 
L 271.518416 262.789261 
z
" clip-path="url(#p6c65123dfb)" style="fill: #1f77b4"/>
   </g>
   <g id="patch_127">
    <path d="M 273.125617 307.584 
L 274.732817 307.584 
L 274.732817 279.97794 
L 273.125617 279.97794 
z
" clip-path="url(#p6c65123dfb)" style="fill: #1f77b4"/>
   </g>
   <g id="patch_128">
    <path d="M 274.732817 307.584 
L 276.340018 307.584 
L 276.340018 291.21383 
L 274.732817 291.21383 
z
" clip-path="url(#p6c65123dfb)" style="fill: #1f77b4"/>
   </g>
   <g id="patch_129">
    <path d="M 276.340018 307.584 
L 277.947219 307.584 
L 277.947219 301.92885 
L 276.340018 301.92885 
z
" clip-path="url(#p6c65123dfb)" style="fill: #1f77b4"/>
   </g>
   <g id="patch_130">
    <path d="M 277.947219 307.584 
L 279.554419 307.584 
L 279.554419 298.505996 
L 277.947219 298.505996 
z
" clip-path="url(#p6c65123dfb)" style="fill: #1f77b4"/>
   </g>
   <g id="patch_131">
    <path d="M 279.554419 307.584 
L 281.16162 307.584 
L 281.16162 297.687488 
L 279.554419 297.687488 
z
" clip-path="url(#p6c65123dfb)" style="fill: #1f77b4"/>
   </g>
   <g id="patch_132">
    <path d="M 281.16162 307.584 
L 282.768821 307.584 
L 282.768821 293.222896 
L 281.16162 293.222896 
z
" clip-path="url(#p6c65123dfb)" style="fill: #1f77b4"/>
   </g>
   <g id="patch_133">
    <path d="M 282.768821 307.584 
L 284.376022 307.584 
L 284.376022 285.63309 
L 282.768821 285.63309 
z
" clip-path="url(#p6c65123dfb)" style="fill: #1f77b4"/>
   </g>
   <g id="patch_134">
    <path d="M 284.376022 307.584 
L 285.983222 307.584 
L 285.983222 291.957928 
L 284.376022 291.957928 
z
" clip-path="url(#p6c65123dfb)" style="fill: #1f77b4"/>
   </g>
   <g id="patch_135">
    <path d="M 285.983222 307.584 
L 287.590423 307.584 
L 287.590423 271.495216 
L 285.983222 271.495216 
z
" clip-path="url(#p6c65123dfb)" style="fill: #1f77b4"/>
   </g>
   <g id="patch_136">
    <path d="M 287.590423 307.584 
L 289.197624 307.584 
L 289.197624 267.849132 
L 287.590423 267.849132 
z
" clip-path="url(#p6c65123dfb)" style="fill: #1f77b4"/>
   </g>
   <g id="patch_137">
    <path d="M 289.197624 307.584 
L 290.804824 307.584 
L 290.804824 292.478797 
L 289.197624 292.478797 
z
" clip-path="url(#p6c65123dfb)" style="fill: #1f77b4"/>
   </g>
   <g id="patch_138">
    <path d="M 290.804824 307.584 
L 292.412025 307.584 
L 292.412025 287.790976 
L 290.804824 287.790976 
z
" clip-path="url(#p6c65123dfb)" style="fill: #1f77b4"/>
   </g>
   <g id="patch_139">
    <path d="M 292.412025 307.584 
L 294.019226 307.584 
L 294.019226 296.57134 
L 292.412025 296.57134 
z
" clip-path="url(#p6c65123dfb)" style="fill: #1f77b4"/>
   </g>
   <g id="patch_140">
    <path d="M 294.019226 307.584 
L 295.626427 307.584 
L 295.626427 304.086736 
L 294.019226 304.086736 
z
" clip-path="url(#p6c65123dfb)" style="fill: #1f77b4"/>
   </g>
   <g id="patch_141">
    <path d="M 295.626427 307.584 
L 297.233627 307.584 
L 297.233627 302.15208 
L 295.626427 302.15208 
z
" clip-path="url(#p6c65123dfb)" style="fill: #1f77b4"/>
   </g>
   <g id="patch_142">
    <path d="M 297.233627 307.584 
L 298.840828 307.584 
L 298.840828 304.607605 
L 297.233627 304.607605 
z
" clip-path="url(#p6c65123dfb)" style="fill: #1f77b4"/>
   </g>
   <g id="patch_143">
    <path d="M 298.840828 307.584 
L 300.448029 307.584 
L 300.448029 303.491457 
L 298.840828 303.491457 
z
" clip-path="url(#p6c65123dfb)" style="fill: #1f77b4"/>
   </g>
   <g id="patch_144">
    <path d="M 300.448029 307.584 
L 302.05523 307.584 
L 302.05523 299.175685 
L 300.448029 299.175685 
z
" clip-path="url(#p6c65123dfb)" style="fill: #1f77b4"/>
   </g>
   <g id="patch_145">
    <path d="M 302.05523 307.584 
L 303.66243 307.584 
L 303.66243 302.672949 
L 302.05523 302.672949 
z
" clip-path="url(#p6c65123dfb)" style="fill: #1f77b4"/>
   </g>
   <g id="patch_146">
    <path d="M 303.66243 307.584 
L 305.269631 307.584 
L 305.269631 293.594945 
L 303.66243 293.594945 
z
" clip-path="url(#p6c65123dfb)" style="fill: #1f77b4"/>
   </g>
   <g id="patch_147">
    <path d="M 305.269631 307.584 
L 306.876832 307.584 
L 306.876832 298.505996 
L 305.269631 298.505996 
z
" clip-path="url(#p6c65123dfb)" style="fill: #1f77b4"/>
   </g>
   <g id="patch_148">
    <path d="M 306.876832 307.584 
L 308.484032 307.584 
L 308.484032 289.800042 
L 306.876832 289.800042 
z
" clip-path="url(#p6c65123dfb)" style="fill: #1f77b4"/>
   </g>
   <g id="patch_149">
    <path d="M 308.484032 307.584 
L 310.091233 307.584 
L 310.091233 297.613078 
L 308.484032 297.613078 
z
" clip-path="url(#p6c65123dfb)" style="fill: #1f77b4"/>
   </g>
   <g id="patch_150">
    <path d="M 310.091233 307.584 
L 311.698434 307.584 
L 311.698434 302.22649 
L 310.091233 302.22649 
z
" clip-path="url(#p6c65123dfb)" style="fill: #1f77b4"/>
   </g>
   <g id="patch_151">
    <path d="M 311.698434 307.584 
L 313.305635 307.584 
L 313.305635 302.15208 
L 311.698434 302.15208 
z
" clip-path="url(#p6c65123dfb)" style="fill: #1f77b4"/>
   </g>
   <g id="patch_152">
    <path d="M 313.305635 307.584 
L 314.912835 307.584 
L 314.912835 305.872573 
L 313.305635 305.872573 
z
" clip-path="url(#p6c65123dfb)" style="fill: #1f77b4"/>
   </g>
   <g id="patch_153">
    <path d="M 314.912835 307.584 
L 316.520036 307.584 
L 316.520036 305.500524 
L 314.912835 305.500524 
z
" clip-path="url(#p6c65123dfb)" style="fill: #1f77b4"/>
   </g>
   <g id="patch_154">
    <path d="M 316.520036 307.584 
L 318.127237 307.584 
L 318.127237 306.914311 
L 316.520036 306.914311 
z
" clip-path="url(#p6c65123dfb)" style="fill: #1f77b4"/>
   </g>
   <g id="patch_155">
    <path d="M 318.127237 307.584 
L 319.734437 307.584 
L 319.734437 307.137541 
L 318.127237 307.137541 
z
" clip-path="url(#p6c65123dfb)" style="fill: #1f77b4"/>
   </g>
   <g id="patch_156">
    <path d="M 319.734437 307.584 
L 321.341638 307.584 
L 321.341638 306.691082 
L 319.734437 306.691082 
z
" clip-path="url(#p6c65123dfb)" style="fill: #1f77b4"/>
   </g>
   <g id="patch_157">
    <path d="M 321.341638 307.584 
L 322.948839 307.584 
L 322.948839 306.691082 
L 321.341638 306.691082 
z
" clip-path="url(#p6c65123dfb)" style="fill: #1f77b4"/>
   </g>
   <g id="patch_158">
    <path d="M 322.948839 307.584 
L 324.55604 307.584 
L 324.55604 306.616672 
L 322.948839 306.616672 
z
" clip-path="url(#p6c65123dfb)" style="fill: #1f77b4"/>
   </g>
   <g id="patch_159">
    <path d="M 324.55604 307.584 
L 326.16324 307.584 
L 326.16324 304.905245 
L 324.55604 304.905245 
z
" clip-path="url(#p6c65123dfb)" style="fill: #1f77b4"/>
   </g>
   <g id="patch_160">
    <path d="M 326.16324 307.584 
L 327.770441 307.584 
L 327.770441 306.765491 
L 326.16324 306.765491 
z
" clip-path="url(#p6c65123dfb)" style="fill: #1f77b4"/>
   </g>
   <g id="patch_161">
    <path d="M 327.770441 307.584 
L 329.377642 307.584 
L 329.377642 305.202884 
L 327.770441 305.202884 
z
" clip-path="url(#p6c65123dfb)" style="fill: #1f77b4"/>
   </g>
   <g id="patch_162">
    <path d="M 329.377642 307.584 
L 330.984842 307.584 
L 330.984842 305.574934 
L 329.377642 305.574934 
z
" clip-path="url(#p6c65123dfb)" style="fill: #1f77b4"/>
   </g>
   <g id="patch_163">
    <path d="M 330.984842 307.584 
L 332.592043 307.584 
L 332.592043 302.449719 
L 330.984842 302.449719 
z
" clip-path="url(#p6c65123dfb)" style="fill: #1f77b4"/>
   </g>
   <g id="patch_164">
    <path d="M 332.592043 307.584 
L 334.199244 307.584 
L 334.199244 306.021393 
L 332.592043 306.021393 
z
" clip-path="url(#p6c65123dfb)" style="fill: #1f77b4"/>
   </g>
   <g id="patch_165">
    <path d="M 334.199244 307.584 
L 335.806445 307.584 
L 335.806445 306.319032 
L 334.199244 306.319032 
z
" clip-path="url(#p6c65123dfb)" style="fill: #1f77b4"/>
   </g>
   <g id="patch_166">
    <path d="M 335.806445 307.584 
L 337.413645 307.584 
L 337.413645 306.988721 
L 335.806445 306.988721 
z
" clip-path="url(#p6c65123dfb)" style="fill: #1f77b4"/>
   </g>
   <g id="patch_167">
    <path d="M 337.413645 307.584 
L 339.020846 307.584 
L 339.020846 306.542262 
L 337.413645 306.542262 
z
" clip-path="url(#p6c65123dfb)" style="fill: #1f77b4"/>
   </g>
   <g id="patch_168">
    <path d="M 339.020846 307.584 
L 340.628047 307.584 
L 340.628047 307.063131 
L 339.020846 307.063131 
z
" clip-path="url(#p6c65123dfb)" style="fill: #1f77b4"/>
   </g>
   <g id="patch_169">
    <path d="M 340.628047 307.584 
L 342.235248 307.584 
L 342.235248 306.839901 
L 340.628047 306.839901 
z
" clip-path="url(#p6c65123dfb)" style="fill: #1f77b4"/>
   </g>
   <g id="patch_170">
    <path d="M 342.235248 307.584 
L 343.842448 307.584 
L 343.842448 307.36077 
L 342.235248 307.36077 
z
" clip-path="url(#p6c65123dfb)" style="fill: #1f77b4"/>
   </g>
   <g id="patch_171">
    <path d="M 343.842448 307.584 
L 345.449649 307.584 
L 345.449649 307.50959 
L 343.842448 307.50959 
z
" clip-path="url(#p6c65123dfb)" style="fill: #1f77b4"/>
   </g>
   <g id="patch_172">
    <path d="M 345.449649 307.584 
L 347.05685 307.584 
L 347.05685 307.50959 
L 345.449649 307.50959 
z
" clip-path="url(#p6c65123dfb)" style="fill: #1f77b4"/>
   </g>
   <g id="patch_173">
    <path d="M 347.05685 307.584 
L 348.66405 307.584 
L 348.66405 307.43518 
L 347.05685 307.43518 
z
" clip-path="url(#p6c65123dfb)" style="fill: #1f77b4"/>
   </g>
   <g id="patch_174">
    <path d="M 348.66405 307.584 
L 350.271251 307.584 
L 350.271251 307.584 
L 348.66405 307.584 
z
" clip-path="url(#p6c65123dfb)" style="fill: #1f77b4"/>
   </g>
   <g id="patch_175">
    <path d="M 350.271251 307.584 
L 351.878452 307.584 
L 351.878452 307.584 
L 350.271251 307.584 
z
" clip-path="url(#p6c65123dfb)" style="fill: #1f77b4"/>
   </g>
   <g id="patch_176">
    <path d="M 351.878452 307.584 
L 353.485653 307.584 
L 353.485653 307.211951 
L 351.878452 307.211951 
z
" clip-path="url(#p6c65123dfb)" style="fill: #1f77b4"/>
   </g>
   <g id="patch_177">
    <path d="M 353.485653 307.584 
L 355.092853 307.584 
L 355.092853 307.43518 
L 353.485653 307.43518 
z
" clip-path="url(#p6c65123dfb)" style="fill: #1f77b4"/>
   </g>
   <g id="patch_178">
    <path d="M 355.092853 307.584 
L 356.700054 307.584 
L 356.700054 307.584 
L 355.092853 307.584 
z
" clip-path="url(#p6c65123dfb)" style="fill: #1f77b4"/>
   </g>
   <g id="patch_179">
    <path d="M 356.700054 307.584 
L 358.307255 307.584 
L 358.307255 307.286361 
L 356.700054 307.286361 
z
" clip-path="url(#p6c65123dfb)" style="fill: #1f77b4"/>
   </g>
   <g id="patch_180">
    <path d="M 358.307255 307.584 
L 359.914455 307.584 
L 359.914455 307.211951 
L 358.307255 307.211951 
z
" clip-path="url(#p6c65123dfb)" style="fill: #1f77b4"/>
   </g>
   <g id="patch_181">
    <path d="M 359.914455 307.584 
L 361.521656 307.584 
L 361.521656 306.988721 
L 359.914455 306.988721 
z
" clip-path="url(#p6c65123dfb)" style="fill: #1f77b4"/>
   </g>
   <g id="patch_182">
    <path d="M 361.521656 307.584 
L 363.128857 307.584 
L 363.128857 305.054065 
L 361.521656 305.054065 
z
" clip-path="url(#p6c65123dfb)" style="fill: #1f77b4"/>
   </g>
   <g id="patch_183">
    <path d="M 363.128857 307.584 
L 364.736058 307.584 
L 364.736058 307.584 
L 363.128857 307.584 
z
" clip-path="url(#p6c65123dfb)" style="fill: #1f77b4"/>
   </g>
   <g id="patch_184">
    <path d="M 364.736058 307.584 
L 366.343258 307.584 
L 366.343258 307.286361 
L 364.736058 307.286361 
z
" clip-path="url(#p6c65123dfb)" style="fill: #1f77b4"/>
   </g>
   <g id="patch_185">
    <path d="M 366.343258 307.584 
L 367.950459 307.584 
L 367.950459 307.50959 
L 366.343258 307.50959 
z
" clip-path="url(#p6c65123dfb)" style="fill: #1f77b4"/>
   </g>
   <g id="patch_186">
    <path d="M 367.950459 307.584 
L 369.55766 307.584 
L 369.55766 307.43518 
L 367.950459 307.43518 
z
" clip-path="url(#p6c65123dfb)" style="fill: #1f77b4"/>
   </g>
   <g id="patch_187">
    <path d="M 369.55766 307.584 
L 371.16486 307.584 
L 371.16486 307.584 
L 369.55766 307.584 
z
" clip-path="url(#p6c65123dfb)" style="fill: #1f77b4"/>
   </g>
   <g id="patch_188">
    <path d="M 371.16486 307.584 
L 372.772061 307.584 
L 372.772061 307.50959 
L 371.16486 307.50959 
z
" clip-path="url(#p6c65123dfb)" style="fill: #1f77b4"/>
   </g>
   <g id="patch_189">
    <path d="M 372.772061 307.584 
L 374.379262 307.584 
L 374.379262 307.584 
L 372.772061 307.584 
z
" clip-path="url(#p6c65123dfb)" style="fill: #1f77b4"/>
   </g>
   <g id="patch_190">
    <path d="M 374.379262 307.584 
L 375.986463 307.584 
L 375.986463 307.584 
L 374.379262 307.584 
z
" clip-path="url(#p6c65123dfb)" style="fill: #1f77b4"/>
   </g>
   <g id="patch_191">
    <path d="M 375.986463 307.584 
L 377.593663 307.584 
L 377.593663 307.584 
L 375.986463 307.584 
z
" clip-path="url(#p6c65123dfb)" style="fill: #1f77b4"/>
   </g>
   <g id="patch_192">
    <path d="M 377.593663 307.584 
L 379.200864 307.584 
L 379.200864 307.584 
L 377.593663 307.584 
z
" clip-path="url(#p6c65123dfb)" style="fill: #1f77b4"/>
   </g>
   <g id="patch_193">
    <path d="M 379.200864 307.584 
L 380.808065 307.584 
L 380.808065 307.50959 
L 379.200864 307.50959 
z
" clip-path="url(#p6c65123dfb)" style="fill: #1f77b4"/>
   </g>
   <g id="patch_194">
    <path d="M 380.808065 307.584 
L 382.415266 307.584 
L 382.415266 307.584 
L 380.808065 307.584 
z
" clip-path="url(#p6c65123dfb)" style="fill: #1f77b4"/>
   </g>
   <g id="patch_195">
    <path d="M 382.415266 307.584 
L 384.022466 307.584 
L 384.022466 307.584 
L 382.415266 307.584 
z
" clip-path="url(#p6c65123dfb)" style="fill: #1f77b4"/>
   </g>
   <g id="patch_196">
    <path d="M 384.022466 307.584 
L 385.629667 307.584 
L 385.629667 307.584 
L 384.022466 307.584 
z
" clip-path="url(#p6c65123dfb)" style="fill: #1f77b4"/>
   </g>
   <g id="patch_197">
    <path d="M 385.629667 307.584 
L 387.236868 307.584 
L 387.236868 307.584 
L 385.629667 307.584 
z
" clip-path="url(#p6c65123dfb)" style="fill: #1f77b4"/>
   </g>
   <g id="patch_198">
    <path d="M 387.236868 307.584 
L 388.844068 307.584 
L 388.844068 307.584 
L 387.236868 307.584 
z
" clip-path="url(#p6c65123dfb)" style="fill: #1f77b4"/>
   </g>
   <g id="patch_199">
    <path d="M 388.844068 307.584 
L 390.451269 307.584 
L 390.451269 307.584 
L 388.844068 307.584 
z
" clip-path="url(#p6c65123dfb)" style="fill: #1f77b4"/>
   </g>
   <g id="patch_200">
    <path d="M 390.451269 307.584 
L 392.05847 307.584 
L 392.05847 307.584 
L 390.451269 307.584 
z
" clip-path="url(#p6c65123dfb)" style="fill: #1f77b4"/>
   </g>
   <g id="patch_201">
    <path d="M 392.05847 307.584 
L 393.665671 307.584 
L 393.665671 307.584 
L 392.05847 307.584 
z
" clip-path="url(#p6c65123dfb)" style="fill: #1f77b4"/>
   </g>
   <g id="patch_202">
    <path d="M 393.665671 307.584 
L 395.272871 307.584 
L 395.272871 307.584 
L 393.665671 307.584 
z
" clip-path="url(#p6c65123dfb)" style="fill: #1f77b4"/>
   </g>
   <g id="patch_203">
    <path d="M 395.272871 307.584 
L 396.880072 307.584 
L 396.880072 307.584 
L 395.272871 307.584 
z
" clip-path="url(#p6c65123dfb)" style="fill: #1f77b4"/>
   </g>
   <g id="patch_204">
    <path d="M 396.880072 307.584 
L 398.487273 307.584 
L 398.487273 307.584 
L 396.880072 307.584 
z
" clip-path="url(#p6c65123dfb)" style="fill: #1f77b4"/>
   </g>
   <g id="matplotlib.axis_1">
    <g id="xtick_1">
     <g id="line2d_1">
      <defs>
       <path id="mf3b4ed09bf" d="M 0 0 
L 0 3.5 
" style="stroke: #000000; stroke-width: 0.8"/>
      </defs>
      <g>
       <use xlink:href="#mf3b4ed09bf" x="81.868731" y="307.584" style="stroke: #000000; stroke-width: 0.8"/>
      </g>
     </g>
     <g id="text_1">
      <!-- 2.5 -->
      <g transform="translate(73.917168 322.182437) scale(0.1 -0.1)">
       <defs>
        <path id="DejaVuSans-32" d="M 1228 531 
L 3431 531 
L 3431 0 
L 469 0 
L 469 531 
Q 828 903 1448 1529 
Q 2069 2156 2228 2338 
Q 2531 2678 2651 2914 
Q 2772 3150 2772 3378 
Q 2772 3750 2511 3984 
Q 2250 4219 1831 4219 
Q 1534 4219 1204 4116 
Q 875 4013 500 3803 
L 500 4441 
Q 881 4594 1212 4672 
Q 1544 4750 1819 4750 
Q 2544 4750 2975 4387 
Q 3406 4025 3406 3419 
Q 3406 3131 3298 2873 
Q 3191 2616 2906 2266 
Q 2828 2175 2409 1742 
Q 1991 1309 1228 531 
z
" transform="scale(0.015625)"/>
        <path id="DejaVuSans-2e" d="M 684 794 
L 1344 794 
L 1344 0 
L 684 0 
L 684 794 
z
" transform="scale(0.015625)"/>
        <path id="DejaVuSans-35" d="M 691 4666 
L 3169 4666 
L 3169 4134 
L 1269 4134 
L 1269 2991 
Q 1406 3038 1543 3061 
Q 1681 3084 1819 3084 
Q 2600 3084 3056 2656 
Q 3513 2228 3513 1497 
Q 3513 744 3044 326 
Q 2575 -91 1722 -91 
Q 1428 -91 1123 -41 
Q 819 9 494 109 
L 494 744 
Q 775 591 1075 516 
Q 1375 441 1709 441 
Q 2250 441 2565 725 
Q 2881 1009 2881 1497 
Q 2881 1984 2565 2268 
Q 2250 2553 1709 2553 
Q 1456 2553 1204 2497 
Q 953 2441 691 2322 
L 691 4666 
z
" transform="scale(0.015625)"/>
       </defs>
       <use xlink:href="#DejaVuSans-32"/>
       <use xlink:href="#DejaVuSans-2e" x="63.623047"/>
       <use xlink:href="#DejaVuSans-35" x="95.410156"/>
      </g>
     </g>
    </g>
    <g id="xtick_2">
     <g id="line2d_2">
      <g>
       <use xlink:href="#mf3b4ed09bf" x="122.048749" y="307.584" style="stroke: #000000; stroke-width: 0.8"/>
      </g>
     </g>
     <g id="text_2">
      <!-- 5.0 -->
      <g transform="translate(114.097186 322.182437) scale(0.1 -0.1)">
       <defs>
        <path id="DejaVuSans-30" d="M 2034 4250 
Q 1547 4250 1301 3770 
Q 1056 3291 1056 2328 
Q 1056 1369 1301 889 
Q 1547 409 2034 409 
Q 2525 409 2770 889 
Q 3016 1369 3016 2328 
Q 3016 3291 2770 3770 
Q 2525 4250 2034 4250 
z
M 2034 4750 
Q 2819 4750 3233 4129 
Q 3647 3509 3647 2328 
Q 3647 1150 3233 529 
Q 2819 -91 2034 -91 
Q 1250 -91 836 529 
Q 422 1150 422 2328 
Q 422 3509 836 4129 
Q 1250 4750 2034 4750 
z
" transform="scale(0.015625)"/>
       </defs>
       <use xlink:href="#DejaVuSans-35"/>
       <use xlink:href="#DejaVuSans-2e" x="63.623047"/>
       <use xlink:href="#DejaVuSans-30" x="95.410156"/>
      </g>
     </g>
    </g>
    <g id="xtick_3">
     <g id="line2d_3">
      <g>
       <use xlink:href="#mf3b4ed09bf" x="162.228767" y="307.584" style="stroke: #000000; stroke-width: 0.8"/>
      </g>
     </g>
     <g id="text_3">
      <!-- 7.5 -->
      <g transform="translate(154.277204 322.182437) scale(0.1 -0.1)">
       <defs>
        <path id="DejaVuSans-37" d="M 525 4666 
L 3525 4666 
L 3525 4397 
L 1831 0 
L 1172 0 
L 2766 4134 
L 525 4134 
L 525 4666 
z
" transform="scale(0.015625)"/>
       </defs>
       <use xlink:href="#DejaVuSans-37"/>
       <use xlink:href="#DejaVuSans-2e" x="63.623047"/>
       <use xlink:href="#DejaVuSans-35" x="95.410156"/>
      </g>
     </g>
    </g>
    <g id="xtick_4">
     <g id="line2d_4">
      <g>
       <use xlink:href="#mf3b4ed09bf" x="202.408785" y="307.584" style="stroke: #000000; stroke-width: 0.8"/>
      </g>
     </g>
     <g id="text_4">
      <!-- 10.0 -->
      <g transform="translate(191.275972 322.182437) scale(0.1 -0.1)">
       <defs>
        <path id="DejaVuSans-31" d="M 794 531 
L 1825 531 
L 1825 4091 
L 703 3866 
L 703 4441 
L 1819 4666 
L 2450 4666 
L 2450 531 
L 3481 531 
L 3481 0 
L 794 0 
L 794 531 
z
" transform="scale(0.015625)"/>
       </defs>
       <use xlink:href="#DejaVuSans-31"/>
       <use xlink:href="#DejaVuSans-30" x="63.623047"/>
       <use xlink:href="#DejaVuSans-2e" x="127.246094"/>
       <use xlink:href="#DejaVuSans-30" x="159.033203"/>
      </g>
     </g>
    </g>
    <g id="xtick_5">
     <g id="line2d_5">
      <g>
       <use xlink:href="#mf3b4ed09bf" x="242.588803" y="307.584" style="stroke: #000000; stroke-width: 0.8"/>
      </g>
     </g>
     <g id="text_5">
      <!-- 12.5 -->
      <g transform="translate(231.45599 322.182437) scale(0.1 -0.1)">
       <use xlink:href="#DejaVuSans-31"/>
       <use xlink:href="#DejaVuSans-32" x="63.623047"/>
       <use xlink:href="#DejaVuSans-2e" x="127.246094"/>
       <use xlink:href="#DejaVuSans-35" x="159.033203"/>
      </g>
     </g>
    </g>
    <g id="xtick_6">
     <g id="line2d_6">
      <g>
       <use xlink:href="#mf3b4ed09bf" x="282.768821" y="307.584" style="stroke: #000000; stroke-width: 0.8"/>
      </g>
     </g>
     <g id="text_6">
      <!-- 15.0 -->
      <g transform="translate(271.636008 322.182437) scale(0.1 -0.1)">
       <use xlink:href="#DejaVuSans-31"/>
       <use xlink:href="#DejaVuSans-35" x="63.623047"/>
       <use xlink:href="#DejaVuSans-2e" x="127.246094"/>
       <use xlink:href="#DejaVuSans-30" x="159.033203"/>
      </g>
     </g>
    </g>
    <g id="xtick_7">
     <g id="line2d_7">
      <g>
       <use xlink:href="#mf3b4ed09bf" x="322.948839" y="307.584" style="stroke: #000000; stroke-width: 0.8"/>
      </g>
     </g>
     <g id="text_7">
      <!-- 17.5 -->
      <g transform="translate(311.816026 322.182437) scale(0.1 -0.1)">
       <use xlink:href="#DejaVuSans-31"/>
       <use xlink:href="#DejaVuSans-37" x="63.623047"/>
       <use xlink:href="#DejaVuSans-2e" x="127.246094"/>
       <use xlink:href="#DejaVuSans-35" x="159.033203"/>
      </g>
     </g>
    </g>
    <g id="xtick_8">
     <g id="line2d_8">
      <g>
       <use xlink:href="#mf3b4ed09bf" x="363.128857" y="307.584" style="stroke: #000000; stroke-width: 0.8"/>
      </g>
     </g>
     <g id="text_8">
      <!-- 20.0 -->
      <g transform="translate(351.996044 322.182437) scale(0.1 -0.1)">
       <use xlink:href="#DejaVuSans-32"/>
       <use xlink:href="#DejaVuSans-30" x="63.623047"/>
       <use xlink:href="#DejaVuSans-2e" x="127.246094"/>
       <use xlink:href="#DejaVuSans-30" x="159.033203"/>
      </g>
     </g>
    </g>
    <g id="xtick_9">
     <g id="line2d_9">
      <g>
       <use xlink:href="#mf3b4ed09bf" x="403.308875" y="307.584" style="stroke: #000000; stroke-width: 0.8"/>
      </g>
     </g>
     <g id="text_9">
      <!-- 22.5 -->
      <g transform="translate(392.176062 322.182437) scale(0.1 -0.1)">
       <use xlink:href="#DejaVuSans-32"/>
       <use xlink:href="#DejaVuSans-32" x="63.623047"/>
       <use xlink:href="#DejaVuSans-2e" x="127.246094"/>
       <use xlink:href="#DejaVuSans-35" x="159.033203"/>
      </g>
     </g>
    </g>
    <g id="text_10">
     <!-- value -->
     <g transform="translate(222.502187 335.860562) scale(0.1 -0.1)">
      <defs>
       <path id="DejaVuSans-76" d="M 191 3500 
L 800 3500 
L 1894 563 
L 2988 3500 
L 3597 3500 
L 2284 0 
L 1503 0 
L 191 3500 
z
" transform="scale(0.015625)"/>
       <path id="DejaVuSans-61" d="M 2194 1759 
Q 1497 1759 1228 1600 
Q 959 1441 959 1056 
Q 959 750 1161 570 
Q 1363 391 1709 391 
Q 2188 391 2477 730 
Q 2766 1069 2766 1631 
L 2766 1759 
L 2194 1759 
z
M 3341 1997 
L 3341 0 
L 2766 0 
L 2766 531 
Q 2569 213 2275 61 
Q 1981 -91 1556 -91 
Q 1019 -91 701 211 
Q 384 513 384 1019 
Q 384 1609 779 1909 
Q 1175 2209 1959 2209 
L 2766 2209 
L 2766 2266 
Q 2766 2663 2505 2880 
Q 2244 3097 1772 3097 
Q 1472 3097 1187 3025 
Q 903 2953 641 2809 
L 641 3341 
Q 956 3463 1253 3523 
Q 1550 3584 1831 3584 
Q 2591 3584 2966 3190 
Q 3341 2797 3341 1997 
z
" transform="scale(0.015625)"/>
       <path id="DejaVuSans-6c" d="M 603 4863 
L 1178 4863 
L 1178 0 
L 603 0 
L 603 4863 
z
" transform="scale(0.015625)"/>
       <path id="DejaVuSans-75" d="M 544 1381 
L 544 3500 
L 1119 3500 
L 1119 1403 
Q 1119 906 1312 657 
Q 1506 409 1894 409 
Q 2359 409 2629 706 
Q 2900 1003 2900 1516 
L 2900 3500 
L 3475 3500 
L 3475 0 
L 2900 0 
L 2900 538 
Q 2691 219 2414 64 
Q 2138 -91 1772 -91 
Q 1169 -91 856 284 
Q 544 659 544 1381 
z
M 1991 3584 
L 1991 3584 
z
" transform="scale(0.015625)"/>
       <path id="DejaVuSans-65" d="M 3597 1894 
L 3597 1613 
L 953 1613 
Q 991 1019 1311 708 
Q 1631 397 2203 397 
Q 2534 397 2845 478 
Q 3156 559 3463 722 
L 3463 178 
Q 3153 47 2828 -22 
Q 2503 -91 2169 -91 
Q 1331 -91 842 396 
Q 353 884 353 1716 
Q 353 2575 817 3079 
Q 1281 3584 2069 3584 
Q 2775 3584 3186 3129 
Q 3597 2675 3597 1894 
z
M 3022 2063 
Q 3016 2534 2758 2815 
Q 2500 3097 2075 3097 
Q 1594 3097 1305 2825 
Q 1016 2553 972 2059 
L 3022 2063 
z
" transform="scale(0.015625)"/>
      </defs>
      <use xlink:href="#DejaVuSans-76"/>
      <use xlink:href="#DejaVuSans-61" x="59.179688"/>
      <use xlink:href="#DejaVuSans-6c" x="120.458984"/>
      <use xlink:href="#DejaVuSans-75" x="148.242188"/>
      <use xlink:href="#DejaVuSans-65" x="211.621094"/>
     </g>
    </g>
   </g>
   <g id="matplotlib.axis_2">
    <g id="ytick_1">
     <g id="line2d_10">
      <defs>
       <path id="m853a947ac8" d="M 0 0 
L -3.5 0 
" style="stroke: #000000; stroke-width: 0.8"/>
      </defs>
      <g>
       <use xlink:href="#m853a947ac8" x="57.6" y="307.584" style="stroke: #000000; stroke-width: 0.8"/>
      </g>
     </g>
     <g id="text_11">
      <!-- 0.00 -->
      <g transform="translate(28.334375 311.383219) scale(0.1 -0.1)">
       <use xlink:href="#DejaVuSans-30"/>
       <use xlink:href="#DejaVuSans-2e" x="63.623047"/>
       <use xlink:href="#DejaVuSans-30" x="95.410156"/>
       <use xlink:href="#DejaVuSans-30" x="159.033203"/>
      </g>
     </g>
    </g>
    <g id="ytick_2">
     <g id="line2d_11">
      <g>
       <use xlink:href="#m853a947ac8" x="57.6" y="257.912439" style="stroke: #000000; stroke-width: 0.8"/>
      </g>
     </g>
     <g id="text_12">
      <!-- 0.05 -->
      <g transform="translate(28.334375 261.711658) scale(0.1 -0.1)">
       <use xlink:href="#DejaVuSans-30"/>
       <use xlink:href="#DejaVuSans-2e" x="63.623047"/>
       <use xlink:href="#DejaVuSans-30" x="95.410156"/>
       <use xlink:href="#DejaVuSans-35" x="159.033203"/>
      </g>
     </g>
    </g>
    <g id="ytick_3">
     <g id="line2d_12">
      <g>
       <use xlink:href="#m853a947ac8" x="57.6" y="208.240878" style="stroke: #000000; stroke-width: 0.8"/>
      </g>
     </g>
     <g id="text_13">
      <!-- 0.10 -->
      <g transform="translate(28.334375 212.040096) scale(0.1 -0.1)">
       <use xlink:href="#DejaVuSans-30"/>
       <use xlink:href="#DejaVuSans-2e" x="63.623047"/>
       <use xlink:href="#DejaVuSans-31" x="95.410156"/>
       <use xlink:href="#DejaVuSans-30" x="159.033203"/>
      </g>
     </g>
    </g>
    <g id="ytick_4">
     <g id="line2d_13">
      <g>
       <use xlink:href="#m853a947ac8" x="57.6" y="158.569316" style="stroke: #000000; stroke-width: 0.8"/>
      </g>
     </g>
     <g id="text_14">
      <!-- 0.15 -->
      <g transform="translate(28.334375 162.368535) scale(0.1 -0.1)">
       <use xlink:href="#DejaVuSans-30"/>
       <use xlink:href="#DejaVuSans-2e" x="63.623047"/>
       <use xlink:href="#DejaVuSans-31" x="95.410156"/>
       <use xlink:href="#DejaVuSans-35" x="159.033203"/>
      </g>
     </g>
    </g>
    <g id="ytick_5">
     <g id="line2d_14">
      <g>
       <use xlink:href="#m853a947ac8" x="57.6" y="108.897755" style="stroke: #000000; stroke-width: 0.8"/>
      </g>
     </g>
     <g id="text_15">
      <!-- 0.20 -->
      <g transform="translate(28.334375 112.696974) scale(0.1 -0.1)">
       <use xlink:href="#DejaVuSans-30"/>
       <use xlink:href="#DejaVuSans-2e" x="63.623047"/>
       <use xlink:href="#DejaVuSans-32" x="95.410156"/>
       <use xlink:href="#DejaVuSans-30" x="159.033203"/>
      </g>
     </g>
    </g>
    <g id="ytick_6">
     <g id="line2d_15">
      <g>
       <use xlink:href="#m853a947ac8" x="57.6" y="59.226194" style="stroke: #000000; stroke-width: 0.8"/>
      </g>
     </g>
     <g id="text_16">
      <!-- 0.25 -->
      <g transform="translate(28.334375 63.025413) scale(0.1 -0.1)">
       <use xlink:href="#DejaVuSans-30"/>
       <use xlink:href="#DejaVuSans-2e" x="63.623047"/>
       <use xlink:href="#DejaVuSans-32" x="95.410156"/>
       <use xlink:href="#DejaVuSans-35" x="159.033203"/>
      </g>
     </g>
    </g>
    <g id="text_17">
     <!-- density -->
     <g transform="translate(22.254687 192.860812) rotate(-90) scale(0.1 -0.1)">
      <defs>
       <path id="DejaVuSans-64" d="M 2906 2969 
L 2906 4863 
L 3481 4863 
L 3481 0 
L 2906 0 
L 2906 525 
Q 2725 213 2448 61 
Q 2172 -91 1784 -91 
Q 1150 -91 751 415 
Q 353 922 353 1747 
Q 353 2572 751 3078 
Q 1150 3584 1784 3584 
Q 2172 3584 2448 3432 
Q 2725 3281 2906 2969 
z
M 947 1747 
Q 947 1113 1208 752 
Q 1469 391 1925 391 
Q 2381 391 2643 752 
Q 2906 1113 2906 1747 
Q 2906 2381 2643 2742 
Q 2381 3103 1925 3103 
Q 1469 3103 1208 2742 
Q 947 2381 947 1747 
z
" transform="scale(0.015625)"/>
       <path id="DejaVuSans-6e" d="M 3513 2113 
L 3513 0 
L 2938 0 
L 2938 2094 
Q 2938 2591 2744 2837 
Q 2550 3084 2163 3084 
Q 1697 3084 1428 2787 
Q 1159 2491 1159 1978 
L 1159 0 
L 581 0 
L 581 3500 
L 1159 3500 
L 1159 2956 
Q 1366 3272 1645 3428 
Q 1925 3584 2291 3584 
Q 2894 3584 3203 3211 
Q 3513 2838 3513 2113 
z
" transform="scale(0.015625)"/>
       <path id="DejaVuSans-73" d="M 2834 3397 
L 2834 2853 
Q 2591 2978 2328 3040 
Q 2066 3103 1784 3103 
Q 1356 3103 1142 2972 
Q 928 2841 928 2578 
Q 928 2378 1081 2264 
Q 1234 2150 1697 2047 
L 1894 2003 
Q 2506 1872 2764 1633 
Q 3022 1394 3022 966 
Q 3022 478 2636 193 
Q 2250 -91 1575 -91 
Q 1294 -91 989 -36 
Q 684 19 347 128 
L 347 722 
Q 666 556 975 473 
Q 1284 391 1588 391 
Q 1994 391 2212 530 
Q 2431 669 2431 922 
Q 2431 1156 2273 1281 
Q 2116 1406 1581 1522 
L 1381 1569 
Q 847 1681 609 1914 
Q 372 2147 372 2553 
Q 372 3047 722 3315 
Q 1072 3584 1716 3584 
Q 2034 3584 2315 3537 
Q 2597 3491 2834 3397 
z
" transform="scale(0.015625)"/>
       <path id="DejaVuSans-69" d="M 603 3500 
L 1178 3500 
L 1178 0 
L 603 0 
L 603 3500 
z
M 603 4863 
L 1178 4863 
L 1178 4134 
L 603 4134 
L 603 4863 
z
" transform="scale(0.015625)"/>
       <path id="DejaVuSans-74" d="M 1172 4494 
L 1172 3500 
L 2356 3500 
L 2356 3053 
L 1172 3053 
L 1172 1153 
Q 1172 725 1289 603 
Q 1406 481 1766 481 
L 2356 481 
L 2356 0 
L 1766 0 
Q 1100 0 847 248 
Q 594 497 594 1153 
L 594 3053 
L 172 3053 
L 172 3500 
L 594 3500 
L 594 4494 
L 1172 4494 
z
" transform="scale(0.015625)"/>
       <path id="DejaVuSans-79" d="M 2059 -325 
Q 1816 -950 1584 -1140 
Q 1353 -1331 966 -1331 
L 506 -1331 
L 506 -850 
L 844 -850 
Q 1081 -850 1212 -737 
Q 1344 -625 1503 -206 
L 1606 56 
L 191 3500 
L 800 3500 
L 1894 763 
L 2988 3500 
L 3597 3500 
L 2059 -325 
z
" transform="scale(0.015625)"/>
      </defs>
      <use xlink:href="#DejaVuSans-64"/>
      <use xlink:href="#DejaVuSans-65" x="63.476562"/>
      <use xlink:href="#DejaVuSans-6e" x="125"/>
      <use xlink:href="#DejaVuSans-73" x="188.378906"/>
      <use xlink:href="#DejaVuSans-69" x="240.478516"/>
      <use xlink:href="#DejaVuSans-74" x="268.261719"/>
      <use xlink:href="#DejaVuSans-79" x="307.470703"/>
     </g>
    </g>
   </g>
   <g id="patch_205">
    <path d="M 57.6 307.584 
L 57.6 41.472 
" style="fill: none; stroke: #000000; stroke-width: 0.8; stroke-linejoin: miter; stroke-linecap: square"/>
   </g>
   <g id="patch_206">
    <path d="M 414.72 307.584 
L 414.72 41.472 
" style="fill: none; stroke: #000000; stroke-width: 0.8; stroke-linejoin: miter; stroke-linecap: square"/>
   </g>
   <g id="patch_207">
    <path d="M 57.6 307.584 
L 414.72 307.584 
" style="fill: none; stroke: #000000; stroke-width: 0.8; stroke-linejoin: miter; stroke-linecap: square"/>
   </g>
   <g id="patch_208">
    <path d="M 57.6 41.472 
L 414.72 41.472 
" style="fill: none; stroke: #000000; stroke-width: 0.8; stroke-linejoin: miter; stroke-linecap: square"/>
   </g>
   <g id="text_18">
    <!-- wave17m_Tp, N = 133509 -->
    <g transform="translate(156.330938 35.472) scale(0.12 -0.12)">
     <defs>
      <path id="DejaVuSans-77" d="M 269 3500 
L 844 3500 
L 1563 769 
L 2278 3500 
L 2956 3500 
L 3675 769 
L 4391 3500 
L 4966 3500 
L 4050 0 
L 3372 0 
L 2619 2869 
L 1863 0 
L 1184 0 
L 269 3500 
z
" transform="scale(0.015625)"/>
      <path id="DejaVuSans-6d" d="M 3328 2828 
Q 3544 3216 3844 3400 
Q 4144 3584 4550 3584 
Q 5097 3584 5394 3201 
Q 5691 2819 5691 2113 
L 5691 0 
L 5113 0 
L 5113 2094 
Q 5113 2597 4934 2840 
Q 4756 3084 4391 3084 
Q 3944 3084 3684 2787 
Q 3425 2491 3425 1978 
L 3425 0 
L 2847 0 
L 2847 2094 
Q 2847 2600 2669 2842 
Q 2491 3084 2119 3084 
Q 1678 3084 1418 2786 
Q 1159 2488 1159 1978 
L 1159 0 
L 581 0 
L 581 3500 
L 1159 3500 
L 1159 2956 
Q 1356 3278 1631 3431 
Q 1906 3584 2284 3584 
Q 2666 3584 2933 3390 
Q 3200 3197 3328 2828 
z
" transform="scale(0.015625)"/>
      <path id="DejaVuSans-5f" d="M 3263 -1063 
L 3263 -1509 
L -63 -1509 
L -63 -1063 
L 3263 -1063 
z
" transform="scale(0.015625)"/>
      <path id="DejaVuSans-54" d="M -19 4666 
L 3928 4666 
L 3928 4134 
L 2272 4134 
L 2272 0 
L 1638 0 
L 1638 4134 
L -19 4134 
L -19 4666 
z
" transform="scale(0.015625)"/>
      <path id="DejaVuSans-70" d="M 1159 525 
L 1159 -1331 
L 581 -1331 
L 581 3500 
L 1159 3500 
L 1159 2969 
Q 1341 3281 1617 3432 
Q 1894 3584 2278 3584 
Q 2916 3584 3314 3078 
Q 3713 2572 3713 1747 
Q 3713 922 3314 415 
Q 2916 -91 2278 -91 
Q 1894 -91 1617 61 
Q 1341 213 1159 525 
z
M 3116 1747 
Q 3116 2381 2855 2742 
Q 2594 3103 2138 3103 
Q 1681 3103 1420 2742 
Q 1159 2381 1159 1747 
Q 1159 1113 1420 752 
Q 1681 391 2138 391 
Q 2594 391 2855 752 
Q 3116 1113 3116 1747 
z
" transform="scale(0.015625)"/>
      <path id="DejaVuSans-2c" d="M 750 794 
L 1409 794 
L 1409 256 
L 897 -744 
L 494 -744 
L 750 256 
L 750 794 
z
" transform="scale(0.015625)"/>
      <path id="DejaVuSans-20" transform="scale(0.015625)"/>
      <path id="DejaVuSans-4e" d="M 628 4666 
L 1478 4666 
L 3547 763 
L 3547 4666 
L 4159 4666 
L 4159 0 
L 3309 0 
L 1241 3903 
L 1241 0 
L 628 0 
L 628 4666 
z
" transform="scale(0.015625)"/>
      <path id="DejaVuSans-3d" d="M 678 2906 
L 4684 2906 
L 4684 2381 
L 678 2381 
L 678 2906 
z
M 678 1631 
L 4684 1631 
L 4684 1100 
L 678 1100 
L 678 1631 
z
" transform="scale(0.015625)"/>
      <path id="DejaVuSans-33" d="M 2597 2516 
Q 3050 2419 3304 2112 
Q 3559 1806 3559 1356 
Q 3559 666 3084 287 
Q 2609 -91 1734 -91 
Q 1441 -91 1130 -33 
Q 819 25 488 141 
L 488 750 
Q 750 597 1062 519 
Q 1375 441 1716 441 
Q 2309 441 2620 675 
Q 2931 909 2931 1356 
Q 2931 1769 2642 2001 
Q 2353 2234 1838 2234 
L 1294 2234 
L 1294 2753 
L 1863 2753 
Q 2328 2753 2575 2939 
Q 2822 3125 2822 3475 
Q 2822 3834 2567 4026 
Q 2313 4219 1838 4219 
Q 1578 4219 1281 4162 
Q 984 4106 628 3988 
L 628 4550 
Q 988 4650 1302 4700 
Q 1616 4750 1894 4750 
Q 2613 4750 3031 4423 
Q 3450 4097 3450 3541 
Q 3450 3153 3228 2886 
Q 3006 2619 2597 2516 
z
" transform="scale(0.015625)"/>
      <path id="DejaVuSans-39" d="M 703 97 
L 703 672 
Q 941 559 1184 500 
Q 1428 441 1663 441 
Q 2288 441 2617 861 
Q 2947 1281 2994 2138 
Q 2813 1869 2534 1725 
Q 2256 1581 1919 1581 
Q 1219 1581 811 2004 
Q 403 2428 403 3163 
Q 403 3881 828 4315 
Q 1253 4750 1959 4750 
Q 2769 4750 3195 4129 
Q 3622 3509 3622 2328 
Q 3622 1225 3098 567 
Q 2575 -91 1691 -91 
Q 1453 -91 1209 -44 
Q 966 3 703 97 
z
M 1959 2075 
Q 2384 2075 2632 2365 
Q 2881 2656 2881 3163 
Q 2881 3666 2632 3958 
Q 2384 4250 1959 4250 
Q 1534 4250 1286 3958 
Q 1038 3666 1038 3163 
Q 1038 2656 1286 2365 
Q 1534 2075 1959 2075 
z
" transform="scale(0.015625)"/>
     </defs>
     <use xlink:href="#DejaVuSans-77"/>
     <use xlink:href="#DejaVuSans-61" x="81.787109"/>
     <use xlink:href="#DejaVuSans-76" x="143.066406"/>
     <use xlink:href="#DejaVuSans-65" x="202.246094"/>
     <use xlink:href="#DejaVuSans-31" x="263.769531"/>
     <use xlink:href="#DejaVuSans-37" x="327.392578"/>
     <use xlink:href="#DejaVuSans-6d" x="391.015625"/>
     <use xlink:href="#DejaVuSans-5f" x="488.427734"/>
     <use xlink:href="#DejaVuSans-54" x="538.427734"/>
     <use xlink:href="#DejaVuSans-70" x="599.511719"/>
     <use xlink:href="#DejaVuSans-2c" x="662.988281"/>
     <use xlink:href="#DejaVuSans-20" x="694.775391"/>
     <use xlink:href="#DejaVuSans-4e" x="726.5625"/>
     <use xlink:href="#DejaVuSans-20" x="801.367188"/>
     <use xlink:href="#DejaVuSans-3d" x="833.154297"/>
     <use xlink:href="#DejaVuSans-20" x="916.943359"/>
     <use xlink:href="#DejaVuSans-31" x="948.730469"/>
     <use xlink:href="#DejaVuSans-33" x="1012.353516"/>
     <use xlink:href="#DejaVuSans-33" x="1075.976562"/>
     <use xlink:href="#DejaVuSans-35" x="1139.599609"/>
     <use xlink:href="#DejaVuSans-30" x="1203.222656"/>
     <use xlink:href="#DejaVuSans-39" x="1266.845703"/>
    </g>
   </g>
  </g>
 </g>
 <defs>
  <clipPath id="p6c65123dfb">
   <rect x="57.6" y="41.472" width="357.12" height="266.112"/>
  </clipPath>
 </defs>
</svg>
