<?xml version="1.0" encoding="utf-8" standalone="no"?>
<!DOCTYPE svg PUBLIC "-//W3C//DTD SVG 1.1//EN"
  "http://www.w3.org/Graphics/SVG/1.1/DTD/svg11.dtd">
<svg xmlns:xlink="http://www.w3.org/1999/xlink" width="460.8pt" height="345.6pt" viewBox="0 0 460.8 345.6" xmlns="http://www.w3.org/2000/svg" version="1.1">
 <metadata>
  <rdf:RDF xmlns:dc="http://purl.org/dc/elements/1.1/" xmlns:cc="http://creativecommons.org/ns#" xmlns:rdf="http://www.w3.org/1999/02/22-rdf-syntax-ns#">
   <cc:Work>
    <dc:type rdf:resource="http://purl.org/dc/dcmitype/StillImage"/>
    <dc:date>2024-06-21T11:09:39.270905</dc:date>
    <dc:format>image/svg+xml</dc:format>
    <dc:creator>
     <cc:Agent>
      <dc:title>Matplotlib v3.8.0, https://matplotlib.org/</dc:title>
     </cc:Agent>
    </dc:creator>
   </cc:Work>
  </rdf:RDF>
 </metadata>
 <defs>
  <style type="text/css">*{stroke-linejoin: round; stroke-linecap: butt}</style>
 </defs>
 <g id="figure_1">
  <g id="patch_1">
   <path d="M 0 345.6 
L 460.8 345.6 
L 460.8 0 
L 0 0 
z
" style="fill: #ffffff"/>
  </g>
  <g id="axes_1">
   <g id="patch_2">
    <path d="M 57.6 307.584 
L 414.72 307.584 
L 414.72 41.472 
L 57.6 41.472 
z
" style="fill: #ffffff"/>
   </g>
   <g id="patch_3">
    <path d="M 73.832727 307.584 
L 78.219951 307.584 
L 78.219951 284.240842 
L 73.832727 284.240842 
z
" clip-path="url(#p4ebf05d738)" style="fill: #1f77b4"/>
   </g>
   <g id="patch_4">
    <path d="M 78.219951 307.584 
L 82.607174 307.584 
L 82.607174 287.575579 
L 78.219951 287.575579 
z
" clip-path="url(#p4ebf05d738)" style="fill: #1f77b4"/>
   </g>
   <g id="patch_5">
    <path d="M 82.607174 307.584 
L 86.994398 307.584 
L 86.994398 250.893474 
L 82.607174 250.893474 
z
" clip-path="url(#p4ebf05d738)" style="fill: #1f77b4"/>
   </g>
   <g id="patch_6">
    <path d="M 86.994398 307.584 
L 91.381622 307.584 
L 91.381622 240.889263 
L 86.994398 240.889263 
z
" clip-path="url(#p4ebf05d738)" style="fill: #1f77b4"/>
   </g>
   <g id="patch_7">
    <path d="M 91.381622 307.584 
L 95.768845 307.584 
L 95.768845 204.207158 
L 91.381622 204.207158 
z
" clip-path="url(#p4ebf05d738)" style="fill: #1f77b4"/>
   </g>
   <g id="patch_8">
    <path d="M 95.768845 307.584 
L 100.156069 307.584 
L 100.156069 110.834526 
L 95.768845 110.834526 
z
" clip-path="url(#p4ebf05d738)" style="fill: #1f77b4"/>
   </g>
   <g id="patch_9">
    <path d="M 100.156069 307.584 
L 104.543292 307.584 
L 104.543292 90.826105 
L 100.156069 90.826105 
z
" clip-path="url(#p4ebf05d738)" style="fill: #1f77b4"/>
   </g>
   <g id="patch_10">
    <path d="M 104.543292 307.584 
L 108.930516 307.584 
L 108.930516 64.148211 
L 104.543292 64.148211 
z
" clip-path="url(#p4ebf05d738)" style="fill: #1f77b4"/>
   </g>
   <g id="patch_11">
    <path d="M 108.930516 307.584 
L 113.31774 307.584 
L 113.31774 64.148211 
L 108.930516 64.148211 
z
" clip-path="url(#p4ebf05d738)" style="fill: #1f77b4"/>
   </g>
   <g id="patch_12">
    <path d="M 113.31774 307.584 
L 117.704963 307.584 
L 117.704963 70.817684 
L 113.31774 70.817684 
z
" clip-path="url(#p4ebf05d738)" style="fill: #1f77b4"/>
   </g>
   <g id="patch_13">
    <path d="M 117.704963 307.584 
L 122.092187 307.584 
L 122.092187 70.817684 
L 117.704963 70.817684 
z
" clip-path="url(#p4ebf05d738)" style="fill: #1f77b4"/>
   </g>
   <g id="patch_14">
    <path d="M 122.092187 307.584 
L 126.47941 307.584 
L 126.47941 54.144 
L 122.092187 54.144 
z
" clip-path="url(#p4ebf05d738)" style="fill: #1f77b4"/>
   </g>
   <g id="patch_15">
    <path d="M 126.47941 307.584 
L 130.866634 307.584 
L 130.866634 137.512421 
L 126.47941 137.512421 
z
" clip-path="url(#p4ebf05d738)" style="fill: #1f77b4"/>
   </g>
   <g id="patch_16">
    <path d="M 130.866634 307.584 
L 135.253857 307.584 
L 135.253857 80.821895 
L 130.866634 80.821895 
z
" clip-path="url(#p4ebf05d738)" style="fill: #1f77b4"/>
   </g>
   <g id="patch_17">
    <path d="M 135.253857 307.584 
L 139.641081 307.584 
L 139.641081 154.186105 
L 135.253857 154.186105 
z
" clip-path="url(#p4ebf05d738)" style="fill: #1f77b4"/>
   </g>
   <g id="patch_18">
    <path d="M 139.641081 307.584 
L 144.028305 307.584 
L 144.028305 184.198737 
L 139.641081 184.198737 
z
" clip-path="url(#p4ebf05d738)" style="fill: #1f77b4"/>
   </g>
   <g id="patch_19">
    <path d="M 144.028305 307.584 
L 148.415528 307.584 
L 148.415528 184.198737 
L 144.028305 184.198737 
z
" clip-path="url(#p4ebf05d738)" style="fill: #1f77b4"/>
   </g>
   <g id="patch_20">
    <path d="M 148.415528 307.584 
L 152.802752 307.584 
L 152.802752 184.198737 
L 148.415528 184.198737 
z
" clip-path="url(#p4ebf05d738)" style="fill: #1f77b4"/>
   </g>
   <g id="patch_21">
    <path d="M 152.802752 307.584 
L 157.189975 307.584 
L 157.189975 210.876632 
L 152.802752 210.876632 
z
" clip-path="url(#p4ebf05d738)" style="fill: #1f77b4"/>
   </g>
   <g id="patch_22">
    <path d="M 157.189975 307.584 
L 161.577199 307.584 
L 161.577199 197.537684 
L 157.189975 197.537684 
z
" clip-path="url(#p4ebf05d738)" style="fill: #1f77b4"/>
   </g>
   <g id="patch_23">
    <path d="M 161.577199 307.584 
L 165.964423 307.584 
L 165.964423 234.219789 
L 161.577199 234.219789 
z
" clip-path="url(#p4ebf05d738)" style="fill: #1f77b4"/>
   </g>
   <g id="patch_24">
    <path d="M 165.964423 307.584 
L 170.351646 307.584 
L 170.351646 224.215579 
L 165.964423 224.215579 
z
" clip-path="url(#p4ebf05d738)" style="fill: #1f77b4"/>
   </g>
   <g id="patch_25">
    <path d="M 170.351646 307.584 
L 174.73887 307.584 
L 174.73887 217.546105 
L 170.351646 217.546105 
z
" clip-path="url(#p4ebf05d738)" style="fill: #1f77b4"/>
   </g>
   <g id="patch_26">
    <path d="M 174.73887 307.584 
L 179.126093 307.584 
L 179.126093 247.558737 
L 174.73887 247.558737 
z
" clip-path="url(#p4ebf05d738)" style="fill: #1f77b4"/>
   </g>
   <g id="patch_27">
    <path d="M 179.126093 307.584 
L 183.513317 307.584 
L 183.513317 264.232421 
L 179.126093 264.232421 
z
" clip-path="url(#p4ebf05d738)" style="fill: #1f77b4"/>
   </g>
   <g id="patch_28">
    <path d="M 183.513317 307.584 
L 187.900541 307.584 
L 187.900541 254.228211 
L 183.513317 254.228211 
z
" clip-path="url(#p4ebf05d738)" style="fill: #1f77b4"/>
   </g>
   <g id="patch_29">
    <path d="M 187.900541 307.584 
L 192.287764 307.584 
L 192.287764 260.897684 
L 187.900541 260.897684 
z
" clip-path="url(#p4ebf05d738)" style="fill: #1f77b4"/>
   </g>
   <g id="patch_30">
    <path d="M 192.287764 307.584 
L 196.674988 307.584 
L 196.674988 280.906105 
L 192.287764 280.906105 
z
" clip-path="url(#p4ebf05d738)" style="fill: #1f77b4"/>
   </g>
   <g id="patch_31">
    <path d="M 196.674988 307.584 
L 201.062211 307.584 
L 201.062211 274.236632 
L 196.674988 274.236632 
z
" clip-path="url(#p4ebf05d738)" style="fill: #1f77b4"/>
   </g>
   <g id="patch_32">
    <path d="M 201.062211 307.584 
L 205.449435 307.584 
L 205.449435 267.567158 
L 201.062211 267.567158 
z
" clip-path="url(#p4ebf05d738)" style="fill: #1f77b4"/>
   </g>
   <g id="patch_33">
    <path d="M 205.449435 307.584 
L 209.836658 307.584 
L 209.836658 280.906105 
L 205.449435 280.906105 
z
" clip-path="url(#p4ebf05d738)" style="fill: #1f77b4"/>
   </g>
   <g id="patch_34">
    <path d="M 209.836658 307.584 
L 214.223882 307.584 
L 214.223882 277.571368 
L 209.836658 277.571368 
z
" clip-path="url(#p4ebf05d738)" style="fill: #1f77b4"/>
   </g>
   <g id="patch_35">
    <path d="M 214.223882 307.584 
L 218.611106 307.584 
L 218.611106 287.575579 
L 214.223882 287.575579 
z
" clip-path="url(#p4ebf05d738)" style="fill: #1f77b4"/>
   </g>
   <g id="patch_36">
    <path d="M 218.611106 307.584 
L 222.998329 307.584 
L 222.998329 290.910316 
L 218.611106 290.910316 
z
" clip-path="url(#p4ebf05d738)" style="fill: #1f77b4"/>
   </g>
   <g id="patch_37">
    <path d="M 222.998329 307.584 
L 227.385553 307.584 
L 227.385553 284.240842 
L 222.998329 284.240842 
z
" clip-path="url(#p4ebf05d738)" style="fill: #1f77b4"/>
   </g>
   <g id="patch_38">
    <path d="M 227.385553 307.584 
L 231.772776 307.584 
L 231.772776 274.236632 
L 227.385553 274.236632 
z
" clip-path="url(#p4ebf05d738)" style="fill: #1f77b4"/>
   </g>
   <g id="patch_39">
    <path d="M 231.772776 307.584 
L 236.16 307.584 
L 236.16 274.236632 
L 231.772776 274.236632 
z
" clip-path="url(#p4ebf05d738)" style="fill: #1f77b4"/>
   </g>
   <g id="patch_40">
    <path d="M 236.16 307.584 
L 240.547224 307.584 
L 240.547224 284.240842 
L 236.16 284.240842 
z
" clip-path="url(#p4ebf05d738)" style="fill: #1f77b4"/>
   </g>
   <g id="patch_41">
    <path d="M 240.547224 307.584 
L 244.934447 307.584 
L 244.934447 304.249263 
L 240.547224 304.249263 
z
" clip-path="url(#p4ebf05d738)" style="fill: #1f77b4"/>
   </g>
   <g id="patch_42">
    <path d="M 244.934447 307.584 
L 249.321671 307.584 
L 249.321671 300.914526 
L 244.934447 300.914526 
z
" clip-path="url(#p4ebf05d738)" style="fill: #1f77b4"/>
   </g>
   <g id="patch_43">
    <path d="M 249.321671 307.584 
L 253.708894 307.584 
L 253.708894 300.914526 
L 249.321671 300.914526 
z
" clip-path="url(#p4ebf05d738)" style="fill: #1f77b4"/>
   </g>
   <g id="patch_44">
    <path d="M 253.708894 307.584 
L 258.096118 307.584 
L 258.096118 300.914526 
L 253.708894 300.914526 
z
" clip-path="url(#p4ebf05d738)" style="fill: #1f77b4"/>
   </g>
   <g id="patch_45">
    <path d="M 258.096118 307.584 
L 262.483342 307.584 
L 262.483342 290.910316 
L 258.096118 290.910316 
z
" clip-path="url(#p4ebf05d738)" style="fill: #1f77b4"/>
   </g>
   <g id="patch_46">
    <path d="M 262.483342 307.584 
L 266.870565 307.584 
L 266.870565 300.914526 
L 262.483342 300.914526 
z
" clip-path="url(#p4ebf05d738)" style="fill: #1f77b4"/>
   </g>
   <g id="patch_47">
    <path d="M 266.870565 307.584 
L 271.257789 307.584 
L 271.257789 297.579789 
L 266.870565 297.579789 
z
" clip-path="url(#p4ebf05d738)" style="fill: #1f77b4"/>
   </g>
   <g id="patch_48">
    <path d="M 271.257789 307.584 
L 275.645012 307.584 
L 275.645012 297.579789 
L 271.257789 297.579789 
z
" clip-path="url(#p4ebf05d738)" style="fill: #1f77b4"/>
   </g>
   <g id="patch_49">
    <path d="M 275.645012 307.584 
L 280.032236 307.584 
L 280.032236 300.914526 
L 275.645012 300.914526 
z
" clip-path="url(#p4ebf05d738)" style="fill: #1f77b4"/>
   </g>
   <g id="patch_50">
    <path d="M 280.032236 307.584 
L 284.419459 307.584 
L 284.419459 300.914526 
L 280.032236 300.914526 
z
" clip-path="url(#p4ebf05d738)" style="fill: #1f77b4"/>
   </g>
   <g id="patch_51">
    <path d="M 284.419459 307.584 
L 288.806683 307.584 
L 288.806683 300.914526 
L 284.419459 300.914526 
z
" clip-path="url(#p4ebf05d738)" style="fill: #1f77b4"/>
   </g>
   <g id="patch_52">
    <path d="M 288.806683 307.584 
L 293.193907 307.584 
L 293.193907 300.914526 
L 288.806683 300.914526 
z
" clip-path="url(#p4ebf05d738)" style="fill: #1f77b4"/>
   </g>
   <g id="patch_53">
    <path d="M 293.193907 307.584 
L 297.58113 307.584 
L 297.58113 297.579789 
L 293.193907 297.579789 
z
" clip-path="url(#p4ebf05d738)" style="fill: #1f77b4"/>
   </g>
   <g id="patch_54">
    <path d="M 297.58113 307.584 
L 301.968354 307.584 
L 301.968354 300.914526 
L 297.58113 300.914526 
z
" clip-path="url(#p4ebf05d738)" style="fill: #1f77b4"/>
   </g>
   <g id="patch_55">
    <path d="M 301.968354 307.584 
L 306.355577 307.584 
L 306.355577 300.914526 
L 301.968354 300.914526 
z
" clip-path="url(#p4ebf05d738)" style="fill: #1f77b4"/>
   </g>
   <g id="patch_56">
    <path d="M 306.355577 307.584 
L 310.742801 307.584 
L 310.742801 307.584 
L 306.355577 307.584 
z
" clip-path="url(#p4ebf05d738)" style="fill: #1f77b4"/>
   </g>
   <g id="patch_57">
    <path d="M 310.742801 307.584 
L 315.130025 307.584 
L 315.130025 304.249263 
L 310.742801 304.249263 
z
" clip-path="url(#p4ebf05d738)" style="fill: #1f77b4"/>
   </g>
   <g id="patch_58">
    <path d="M 315.130025 307.584 
L 319.517248 307.584 
L 319.517248 297.579789 
L 315.130025 297.579789 
z
" clip-path="url(#p4ebf05d738)" style="fill: #1f77b4"/>
   </g>
   <g id="patch_59">
    <path d="M 319.517248 307.584 
L 323.904472 307.584 
L 323.904472 304.249263 
L 319.517248 304.249263 
z
" clip-path="url(#p4ebf05d738)" style="fill: #1f77b4"/>
   </g>
   <g id="patch_60">
    <path d="M 323.904472 307.584 
L 328.291695 307.584 
L 328.291695 307.584 
L 323.904472 307.584 
z
" clip-path="url(#p4ebf05d738)" style="fill: #1f77b4"/>
   </g>
   <g id="patch_61">
    <path d="M 328.291695 307.584 
L 332.678919 307.584 
L 332.678919 307.584 
L 328.291695 307.584 
z
" clip-path="url(#p4ebf05d738)" style="fill: #1f77b4"/>
   </g>
   <g id="patch_62">
    <path d="M 332.678919 307.584 
L 337.066143 307.584 
L 337.066143 307.584 
L 332.678919 307.584 
z
" clip-path="url(#p4ebf05d738)" style="fill: #1f77b4"/>
   </g>
   <g id="patch_63">
    <path d="M 337.066143 307.584 
L 341.453366 307.584 
L 341.453366 307.584 
L 337.066143 307.584 
z
" clip-path="url(#p4ebf05d738)" style="fill: #1f77b4"/>
   </g>
   <g id="patch_64">
    <path d="M 341.453366 307.584 
L 345.84059 307.584 
L 345.84059 307.584 
L 341.453366 307.584 
z
" clip-path="url(#p4ebf05d738)" style="fill: #1f77b4"/>
   </g>
   <g id="patch_65">
    <path d="M 345.84059 307.584 
L 350.227813 307.584 
L 350.227813 307.584 
L 345.84059 307.584 
z
" clip-path="url(#p4ebf05d738)" style="fill: #1f77b4"/>
   </g>
   <g id="patch_66">
    <path d="M 350.227813 307.584 
L 354.615037 307.584 
L 354.615037 307.584 
L 350.227813 307.584 
z
" clip-path="url(#p4ebf05d738)" style="fill: #1f77b4"/>
   </g>
   <g id="patch_67">
    <path d="M 354.615037 307.584 
L 359.00226 307.584 
L 359.00226 307.584 
L 354.615037 307.584 
z
" clip-path="url(#p4ebf05d738)" style="fill: #1f77b4"/>
   </g>
   <g id="patch_68">
    <path d="M 359.00226 307.584 
L 363.389484 307.584 
L 363.389484 307.584 
L 359.00226 307.584 
z
" clip-path="url(#p4ebf05d738)" style="fill: #1f77b4"/>
   </g>
   <g id="patch_69">
    <path d="M 363.389484 307.584 
L 367.776708 307.584 
L 367.776708 307.584 
L 363.389484 307.584 
z
" clip-path="url(#p4ebf05d738)" style="fill: #1f77b4"/>
   </g>
   <g id="patch_70">
    <path d="M 367.776708 307.584 
L 372.163931 307.584 
L 372.163931 307.584 
L 367.776708 307.584 
z
" clip-path="url(#p4ebf05d738)" style="fill: #1f77b4"/>
   </g>
   <g id="patch_71">
    <path d="M 372.163931 307.584 
L 376.551155 307.584 
L 376.551155 307.584 
L 372.163931 307.584 
z
" clip-path="url(#p4ebf05d738)" style="fill: #1f77b4"/>
   </g>
   <g id="patch_72">
    <path d="M 376.551155 307.584 
L 380.938378 307.584 
L 380.938378 307.584 
L 376.551155 307.584 
z
" clip-path="url(#p4ebf05d738)" style="fill: #1f77b4"/>
   </g>
   <g id="patch_73">
    <path d="M 380.938378 307.584 
L 385.325602 307.584 
L 385.325602 307.584 
L 380.938378 307.584 
z
" clip-path="url(#p4ebf05d738)" style="fill: #1f77b4"/>
   </g>
   <g id="patch_74">
    <path d="M 385.325602 307.584 
L 389.712826 307.584 
L 389.712826 307.584 
L 385.325602 307.584 
z
" clip-path="url(#p4ebf05d738)" style="fill: #1f77b4"/>
   </g>
   <g id="patch_75">
    <path d="M 389.712826 307.584 
L 394.100049 307.584 
L 394.100049 307.584 
L 389.712826 307.584 
z
" clip-path="url(#p4ebf05d738)" style="fill: #1f77b4"/>
   </g>
   <g id="patch_76">
    <path d="M 394.100049 307.584 
L 398.487273 307.584 
L 398.487273 307.584 
L 394.100049 307.584 
z
" clip-path="url(#p4ebf05d738)" style="fill: #1f77b4"/>
   </g>
   <g id="matplotlib.axis_1">
    <g id="xtick_1">
     <g id="line2d_1">
      <defs>
       <path id="m3485e12953" d="M 0 0 
L 0 3.5 
" style="stroke: #000000; stroke-width: 0.8"/>
      </defs>
      <g>
       <use xlink:href="#m3485e12953" x="96.207764" y="307.584" style="stroke: #000000; stroke-width: 0.8"/>
      </g>
     </g>
     <g id="text_1">
      <!-- −1 -->
      <g transform="translate(88.83667 322.182437) scale(0.1 -0.1)">
       <defs>
        <path id="DejaVuSans-2212" d="M 678 2272 
L 4684 2272 
L 4684 1741 
L 678 1741 
L 678 2272 
z
" transform="scale(0.015625)"/>
        <path id="DejaVuSans-31" d="M 794 531 
L 1825 531 
L 1825 4091 
L 703 3866 
L 703 4441 
L 1819 4666 
L 2450 4666 
L 2450 531 
L 3481 531 
L 3481 0 
L 794 0 
L 794 531 
z
" transform="scale(0.015625)"/>
       </defs>
       <use xlink:href="#DejaVuSans-2212"/>
       <use xlink:href="#DejaVuSans-31" x="83.789062"/>
      </g>
     </g>
    </g>
    <g id="xtick_2">
     <g id="line2d_2">
      <g>
       <use xlink:href="#m3485e12953" x="140.08" y="307.584" style="stroke: #000000; stroke-width: 0.8"/>
      </g>
     </g>
     <g id="text_2">
      <!-- 0 -->
      <g transform="translate(136.89875 322.182437) scale(0.1 -0.1)">
       <defs>
        <path id="DejaVuSans-30" d="M 2034 4250 
Q 1547 4250 1301 3770 
Q 1056 3291 1056 2328 
Q 1056 1369 1301 889 
Q 1547 409 2034 409 
Q 2525 409 2770 889 
Q 3016 1369 3016 2328 
Q 3016 3291 2770 3770 
Q 2525 4250 2034 4250 
z
M 2034 4750 
Q 2819 4750 3233 4129 
Q 3647 3509 3647 2328 
Q 3647 1150 3233 529 
Q 2819 -91 2034 -91 
Q 1250 -91 836 529 
Q 422 1150 422 2328 
Q 422 3509 836 4129 
Q 1250 4750 2034 4750 
z
" transform="scale(0.015625)"/>
       </defs>
       <use xlink:href="#DejaVuSans-30"/>
      </g>
     </g>
    </g>
    <g id="xtick_3">
     <g id="line2d_3">
      <g>
       <use xlink:href="#m3485e12953" x="183.952236" y="307.584" style="stroke: #000000; stroke-width: 0.8"/>
      </g>
     </g>
     <g id="text_3">
      <!-- 1 -->
      <g transform="translate(180.770986 322.182437) scale(0.1 -0.1)">
       <use xlink:href="#DejaVuSans-31"/>
      </g>
     </g>
    </g>
    <g id="xtick_4">
     <g id="line2d_4">
      <g>
       <use xlink:href="#m3485e12953" x="227.824472" y="307.584" style="stroke: #000000; stroke-width: 0.8"/>
      </g>
     </g>
     <g id="text_4">
      <!-- 2 -->
      <g transform="translate(224.643222 322.182437) scale(0.1 -0.1)">
       <defs>
        <path id="DejaVuSans-32" d="M 1228 531 
L 3431 531 
L 3431 0 
L 469 0 
L 469 531 
Q 828 903 1448 1529 
Q 2069 2156 2228 2338 
Q 2531 2678 2651 2914 
Q 2772 3150 2772 3378 
Q 2772 3750 2511 3984 
Q 2250 4219 1831 4219 
Q 1534 4219 1204 4116 
Q 875 4013 500 3803 
L 500 4441 
Q 881 4594 1212 4672 
Q 1544 4750 1819 4750 
Q 2544 4750 2975 4387 
Q 3406 4025 3406 3419 
Q 3406 3131 3298 2873 
Q 3191 2616 2906 2266 
Q 2828 2175 2409 1742 
Q 1991 1309 1228 531 
z
" transform="scale(0.015625)"/>
       </defs>
       <use xlink:href="#DejaVuSans-32"/>
      </g>
     </g>
    </g>
    <g id="xtick_5">
     <g id="line2d_5">
      <g>
       <use xlink:href="#m3485e12953" x="271.696708" y="307.584" style="stroke: #000000; stroke-width: 0.8"/>
      </g>
     </g>
     <g id="text_5">
      <!-- 3 -->
      <g transform="translate(268.515458 322.182437) scale(0.1 -0.1)">
       <defs>
        <path id="DejaVuSans-33" d="M 2597 2516 
Q 3050 2419 3304 2112 
Q 3559 1806 3559 1356 
Q 3559 666 3084 287 
Q 2609 -91 1734 -91 
Q 1441 -91 1130 -33 
Q 819 25 488 141 
L 488 750 
Q 750 597 1062 519 
Q 1375 441 1716 441 
Q 2309 441 2620 675 
Q 2931 909 2931 1356 
Q 2931 1769 2642 2001 
Q 2353 2234 1838 2234 
L 1294 2234 
L 1294 2753 
L 1863 2753 
Q 2328 2753 2575 2939 
Q 2822 3125 2822 3475 
Q 2822 3834 2567 4026 
Q 2313 4219 1838 4219 
Q 1578 4219 1281 4162 
Q 984 4106 628 3988 
L 628 4550 
Q 988 4650 1302 4700 
Q 1616 4750 1894 4750 
Q 2613 4750 3031 4423 
Q 3450 4097 3450 3541 
Q 3450 3153 3228 2886 
Q 3006 2619 2597 2516 
z
" transform="scale(0.015625)"/>
       </defs>
       <use xlink:href="#DejaVuSans-33"/>
      </g>
     </g>
    </g>
    <g id="xtick_6">
     <g id="line2d_6">
      <g>
       <use xlink:href="#m3485e12953" x="315.568944" y="307.584" style="stroke: #000000; stroke-width: 0.8"/>
      </g>
     </g>
     <g id="text_6">
      <!-- 4 -->
      <g transform="translate(312.387694 322.182437) scale(0.1 -0.1)">
       <defs>
        <path id="DejaVuSans-34" d="M 2419 4116 
L 825 1625 
L 2419 1625 
L 2419 4116 
z
M 2253 4666 
L 3047 4666 
L 3047 1625 
L 3713 1625 
L 3713 1100 
L 3047 1100 
L 3047 0 
L 2419 0 
L 2419 1100 
L 313 1100 
L 313 1709 
L 2253 4666 
z
" transform="scale(0.015625)"/>
       </defs>
       <use xlink:href="#DejaVuSans-34"/>
      </g>
     </g>
    </g>
    <g id="xtick_7">
     <g id="line2d_7">
      <g>
       <use xlink:href="#m3485e12953" x="359.441179" y="307.584" style="stroke: #000000; stroke-width: 0.8"/>
      </g>
     </g>
     <g id="text_7">
      <!-- 5 -->
      <g transform="translate(356.259929 322.182437) scale(0.1 -0.1)">
       <defs>
        <path id="DejaVuSans-35" d="M 691 4666 
L 3169 4666 
L 3169 4134 
L 1269 4134 
L 1269 2991 
Q 1406 3038 1543 3061 
Q 1681 3084 1819 3084 
Q 2600 3084 3056 2656 
Q 3513 2228 3513 1497 
Q 3513 744 3044 326 
Q 2575 -91 1722 -91 
Q 1428 -91 1123 -41 
Q 819 9 494 109 
L 494 744 
Q 775 591 1075 516 
Q 1375 441 1709 441 
Q 2250 441 2565 725 
Q 2881 1009 2881 1497 
Q 2881 1984 2565 2268 
Q 2250 2553 1709 2553 
Q 1456 2553 1204 2497 
Q 953 2441 691 2322 
L 691 4666 
z
" transform="scale(0.015625)"/>
       </defs>
       <use xlink:href="#DejaVuSans-35"/>
      </g>
     </g>
    </g>
    <g id="xtick_8">
     <g id="line2d_8">
      <g>
       <use xlink:href="#m3485e12953" x="403.313415" y="307.584" style="stroke: #000000; stroke-width: 0.8"/>
      </g>
     </g>
     <g id="text_8">
      <!-- 6 -->
      <g transform="translate(400.132165 322.182437) scale(0.1 -0.1)">
       <defs>
        <path id="DejaVuSans-36" d="M 2113 2584 
Q 1688 2584 1439 2293 
Q 1191 2003 1191 1497 
Q 1191 994 1439 701 
Q 1688 409 2113 409 
Q 2538 409 2786 701 
Q 3034 994 3034 1497 
Q 3034 2003 2786 2293 
Q 2538 2584 2113 2584 
z
M 3366 4563 
L 3366 3988 
Q 3128 4100 2886 4159 
Q 2644 4219 2406 4219 
Q 1781 4219 1451 3797 
Q 1122 3375 1075 2522 
Q 1259 2794 1537 2939 
Q 1816 3084 2150 3084 
Q 2853 3084 3261 2657 
Q 3669 2231 3669 1497 
Q 3669 778 3244 343 
Q 2819 -91 2113 -91 
Q 1303 -91 875 529 
Q 447 1150 447 2328 
Q 447 3434 972 4092 
Q 1497 4750 2381 4750 
Q 2619 4750 2861 4703 
Q 3103 4656 3366 4563 
z
" transform="scale(0.015625)"/>
       </defs>
       <use xlink:href="#DejaVuSans-36"/>
      </g>
     </g>
    </g>
    <g id="text_9">
     <!-- value -->
     <g transform="translate(222.502187 335.860562) scale(0.1 -0.1)">
      <defs>
       <path id="DejaVuSans-76" d="M 191 3500 
L 800 3500 
L 1894 563 
L 2988 3500 
L 3597 3500 
L 2284 0 
L 1503 0 
L 191 3500 
z
" transform="scale(0.015625)"/>
       <path id="DejaVuSans-61" d="M 2194 1759 
Q 1497 1759 1228 1600 
Q 959 1441 959 1056 
Q 959 750 1161 570 
Q 1363 391 1709 391 
Q 2188 391 2477 730 
Q 2766 1069 2766 1631 
L 2766 1759 
L 2194 1759 
z
M 3341 1997 
L 3341 0 
L 2766 0 
L 2766 531 
Q 2569 213 2275 61 
Q 1981 -91 1556 -91 
Q 1019 -91 701 211 
Q 384 513 384 1019 
Q 384 1609 779 1909 
Q 1175 2209 1959 2209 
L 2766 2209 
L 2766 2266 
Q 2766 2663 2505 2880 
Q 2244 3097 1772 3097 
Q 1472 3097 1187 3025 
Q 903 2953 641 2809 
L 641 3341 
Q 956 3463 1253 3523 
Q 1550 3584 1831 3584 
Q 2591 3584 2966 3190 
Q 3341 2797 3341 1997 
z
" transform="scale(0.015625)"/>
       <path id="DejaVuSans-6c" d="M 603 4863 
L 1178 4863 
L 1178 0 
L 603 0 
L 603 4863 
z
" transform="scale(0.015625)"/>
       <path id="DejaVuSans-75" d="M 544 1381 
L 544 3500 
L 1119 3500 
L 1119 1403 
Q 1119 906 1312 657 
Q 1506 409 1894 409 
Q 2359 409 2629 706 
Q 2900 1003 2900 1516 
L 2900 3500 
L 3475 3500 
L 3475 0 
L 2900 0 
L 2900 538 
Q 2691 219 2414 64 
Q 2138 -91 1772 -91 
Q 1169 -91 856 284 
Q 544 659 544 1381 
z
M 1991 3584 
L 1991 3584 
z
" transform="scale(0.015625)"/>
       <path id="DejaVuSans-65" d="M 3597 1894 
L 3597 1613 
L 953 1613 
Q 991 1019 1311 708 
Q 1631 397 2203 397 
Q 2534 397 2845 478 
Q 3156 559 3463 722 
L 3463 178 
Q 3153 47 2828 -22 
Q 2503 -91 2169 -91 
Q 1331 -91 842 396 
Q 353 884 353 1716 
Q 353 2575 817 3079 
Q 1281 3584 2069 3584 
Q 2775 3584 3186 3129 
Q 3597 2675 3597 1894 
z
M 3022 2063 
Q 3016 2534 2758 2815 
Q 2500 3097 2075 3097 
Q 1594 3097 1305 2825 
Q 1016 2553 972 2059 
L 3022 2063 
z
" transform="scale(0.015625)"/>
      </defs>
      <use xlink:href="#DejaVuSans-76"/>
      <use xlink:href="#DejaVuSans-61" x="59.179688"/>
      <use xlink:href="#DejaVuSans-6c" x="120.458984"/>
      <use xlink:href="#DejaVuSans-75" x="148.242188"/>
      <use xlink:href="#DejaVuSans-65" x="211.621094"/>
     </g>
    </g>
   </g>
   <g id="matplotlib.axis_2">
    <g id="ytick_1">
     <g id="line2d_9">
      <defs>
       <path id="m28579a67db" d="M 0 0 
L -3.5 0 
" style="stroke: #000000; stroke-width: 0.8"/>
      </defs>
      <g>
       <use xlink:href="#m28579a67db" x="57.6" y="307.584" style="stroke: #000000; stroke-width: 0.8"/>
      </g>
     </g>
     <g id="text_10">
      <!-- 0.0 -->
      <g transform="translate(34.696875 311.383219) scale(0.1 -0.1)">
       <defs>
        <path id="DejaVuSans-2e" d="M 684 794 
L 1344 794 
L 1344 0 
L 684 0 
L 684 794 
z
" transform="scale(0.015625)"/>
       </defs>
       <use xlink:href="#DejaVuSans-30"/>
       <use xlink:href="#DejaVuSans-2e" x="63.623047"/>
       <use xlink:href="#DejaVuSans-30" x="95.410156"/>
      </g>
     </g>
    </g>
    <g id="ytick_2">
     <g id="line2d_10">
      <g>
       <use xlink:href="#m28579a67db" x="57.6" y="268.434189" style="stroke: #000000; stroke-width: 0.8"/>
      </g>
     </g>
     <g id="text_11">
      <!-- 0.1 -->
      <g transform="translate(34.696875 272.233408) scale(0.1 -0.1)">
       <use xlink:href="#DejaVuSans-30"/>
       <use xlink:href="#DejaVuSans-2e" x="63.623047"/>
       <use xlink:href="#DejaVuSans-31" x="95.410156"/>
      </g>
     </g>
    </g>
    <g id="ytick_3">
     <g id="line2d_11">
      <g>
       <use xlink:href="#m28579a67db" x="57.6" y="229.284379" style="stroke: #000000; stroke-width: 0.8"/>
      </g>
     </g>
     <g id="text_12">
      <!-- 0.2 -->
      <g transform="translate(34.696875 233.083598) scale(0.1 -0.1)">
       <use xlink:href="#DejaVuSans-30"/>
       <use xlink:href="#DejaVuSans-2e" x="63.623047"/>
       <use xlink:href="#DejaVuSans-32" x="95.410156"/>
      </g>
     </g>
    </g>
    <g id="ytick_4">
     <g id="line2d_12">
      <g>
       <use xlink:href="#m28579a67db" x="57.6" y="190.134568" style="stroke: #000000; stroke-width: 0.8"/>
      </g>
     </g>
     <g id="text_13">
      <!-- 0.3 -->
      <g transform="translate(34.696875 193.933787) scale(0.1 -0.1)">
       <use xlink:href="#DejaVuSans-30"/>
       <use xlink:href="#DejaVuSans-2e" x="63.623047"/>
       <use xlink:href="#DejaVuSans-33" x="95.410156"/>
      </g>
     </g>
    </g>
    <g id="ytick_5">
     <g id="line2d_13">
      <g>
       <use xlink:href="#m28579a67db" x="57.6" y="150.984758" style="stroke: #000000; stroke-width: 0.8"/>
      </g>
     </g>
     <g id="text_14">
      <!-- 0.4 -->
      <g transform="translate(34.696875 154.783977) scale(0.1 -0.1)">
       <use xlink:href="#DejaVuSans-30"/>
       <use xlink:href="#DejaVuSans-2e" x="63.623047"/>
       <use xlink:href="#DejaVuSans-34" x="95.410156"/>
      </g>
     </g>
    </g>
    <g id="ytick_6">
     <g id="line2d_14">
      <g>
       <use xlink:href="#m28579a67db" x="57.6" y="111.834947" style="stroke: #000000; stroke-width: 0.8"/>
      </g>
     </g>
     <g id="text_15">
      <!-- 0.5 -->
      <g transform="translate(34.696875 115.634166) scale(0.1 -0.1)">
       <use xlink:href="#DejaVuSans-30"/>
       <use xlink:href="#DejaVuSans-2e" x="63.623047"/>
       <use xlink:href="#DejaVuSans-35" x="95.410156"/>
      </g>
     </g>
    </g>
    <g id="ytick_7">
     <g id="line2d_15">
      <g>
       <use xlink:href="#m28579a67db" x="57.6" y="72.685137" style="stroke: #000000; stroke-width: 0.8"/>
      </g>
     </g>
     <g id="text_16">
      <!-- 0.6 -->
      <g transform="translate(34.696875 76.484356) scale(0.1 -0.1)">
       <use xlink:href="#DejaVuSans-30"/>
       <use xlink:href="#DejaVuSans-2e" x="63.623047"/>
       <use xlink:href="#DejaVuSans-36" x="95.410156"/>
      </g>
     </g>
    </g>
    <g id="text_17">
     <!-- density -->
     <g transform="translate(28.617187 192.860812) rotate(-90) scale(0.1 -0.1)">
      <defs>
       <path id="DejaVuSans-64" d="M 2906 2969 
L 2906 4863 
L 3481 4863 
L 3481 0 
L 2906 0 
L 2906 525 
Q 2725 213 2448 61 
Q 2172 -91 1784 -91 
Q 1150 -91 751 415 
Q 353 922 353 1747 
Q 353 2572 751 3078 
Q 1150 3584 1784 3584 
Q 2172 3584 2448 3432 
Q 2725 3281 2906 2969 
z
M 947 1747 
Q 947 1113 1208 752 
Q 1469 391 1925 391 
Q 2381 391 2643 752 
Q 2906 1113 2906 1747 
Q 2906 2381 2643 2742 
Q 2381 3103 1925 3103 
Q 1469 3103 1208 2742 
Q 947 2381 947 1747 
z
" transform="scale(0.015625)"/>
       <path id="DejaVuSans-6e" d="M 3513 2113 
L 3513 0 
L 2938 0 
L 2938 2094 
Q 2938 2591 2744 2837 
Q 2550 3084 2163 3084 
Q 1697 3084 1428 2787 
Q 1159 2491 1159 1978 
L 1159 0 
L 581 0 
L 581 3500 
L 1159 3500 
L 1159 2956 
Q 1366 3272 1645 3428 
Q 1925 3584 2291 3584 
Q 2894 3584 3203 3211 
Q 3513 2838 3513 2113 
z
" transform="scale(0.015625)"/>
       <path id="DejaVuSans-73" d="M 2834 3397 
L 2834 2853 
Q 2591 2978 2328 3040 
Q 2066 3103 1784 3103 
Q 1356 3103 1142 2972 
Q 928 2841 928 2578 
Q 928 2378 1081 2264 
Q 1234 2150 1697 2047 
L 1894 2003 
Q 2506 1872 2764 1633 
Q 3022 1394 3022 966 
Q 3022 478 2636 193 
Q 2250 -91 1575 -91 
Q 1294 -91 989 -36 
Q 684 19 347 128 
L 347 722 
Q 666 556 975 473 
Q 1284 391 1588 391 
Q 1994 391 2212 530 
Q 2431 669 2431 922 
Q 2431 1156 2273 1281 
Q 2116 1406 1581 1522 
L 1381 1569 
Q 847 1681 609 1914 
Q 372 2147 372 2553 
Q 372 3047 722 3315 
Q 1072 3584 1716 3584 
Q 2034 3584 2315 3537 
Q 2597 3491 2834 3397 
z
" transform="scale(0.015625)"/>
       <path id="DejaVuSans-69" d="M 603 3500 
L 1178 3500 
L 1178 0 
L 603 0 
L 603 3500 
z
M 603 4863 
L 1178 4863 
L 1178 4134 
L 603 4134 
L 603 4863 
z
" transform="scale(0.015625)"/>
       <path id="DejaVuSans-74" d="M 1172 4494 
L 1172 3500 
L 2356 3500 
L 2356 3053 
L 1172 3053 
L 1172 1153 
Q 1172 725 1289 603 
Q 1406 481 1766 481 
L 2356 481 
L 2356 0 
L 1766 0 
Q 1100 0 847 248 
Q 594 497 594 1153 
L 594 3053 
L 172 3053 
L 172 3500 
L 594 3500 
L 594 4494 
L 1172 4494 
z
" transform="scale(0.015625)"/>
       <path id="DejaVuSans-79" d="M 2059 -325 
Q 1816 -950 1584 -1140 
Q 1353 -1331 966 -1331 
L 506 -1331 
L 506 -850 
L 844 -850 
Q 1081 -850 1212 -737 
Q 1344 -625 1503 -206 
L 1606 56 
L 191 3500 
L 800 3500 
L 1894 763 
L 2988 3500 
L 3597 3500 
L 2059 -325 
z
" transform="scale(0.015625)"/>
      </defs>
      <use xlink:href="#DejaVuSans-64"/>
      <use xlink:href="#DejaVuSans-65" x="63.476562"/>
      <use xlink:href="#DejaVuSans-6e" x="125"/>
      <use xlink:href="#DejaVuSans-73" x="188.378906"/>
      <use xlink:href="#DejaVuSans-69" x="240.478516"/>
      <use xlink:href="#DejaVuSans-74" x="268.261719"/>
      <use xlink:href="#DejaVuSans-79" x="307.470703"/>
     </g>
    </g>
   </g>
   <g id="patch_77">
    <path d="M 57.6 307.584 
L 57.6 41.472 
" style="fill: none; stroke: #000000; stroke-width: 0.8; stroke-linejoin: miter; stroke-linecap: square"/>
   </g>
   <g id="patch_78">
    <path d="M 414.72 307.584 
L 414.72 41.472 
" style="fill: none; stroke: #000000; stroke-width: 0.8; stroke-linejoin: miter; stroke-linecap: square"/>
   </g>
   <g id="patch_79">
    <path d="M 57.6 307.584 
L 414.72 307.584 
" style="fill: none; stroke: #000000; stroke-width: 0.8; stroke-linejoin: miter; stroke-linecap: square"/>
   </g>
   <g id="patch_80">
    <path d="M 57.6 41.472 
L 414.72 41.472 
" style="fill: none; stroke: #000000; stroke-width: 0.8; stroke-linejoin: miter; stroke-linecap: square"/>
   </g>
   <g id="text_18">
    <!-- Normalized HsIG(x=100m), mean = 0.31, stdv = 0.15 -->
    <g transform="translate(73.72875 35.472) scale(0.12 -0.12)">
     <defs>
      <path id="DejaVuSans-4e" d="M 628 4666 
L 1478 4666 
L 3547 763 
L 3547 4666 
L 4159 4666 
L 4159 0 
L 3309 0 
L 1241 3903 
L 1241 0 
L 628 0 
L 628 4666 
z
" transform="scale(0.015625)"/>
      <path id="DejaVuSans-6f" d="M 1959 3097 
Q 1497 3097 1228 2736 
Q 959 2375 959 1747 
Q 959 1119 1226 758 
Q 1494 397 1959 397 
Q 2419 397 2687 759 
Q 2956 1122 2956 1747 
Q 2956 2369 2687 2733 
Q 2419 3097 1959 3097 
z
M 1959 3584 
Q 2709 3584 3137 3096 
Q 3566 2609 3566 1747 
Q 3566 888 3137 398 
Q 2709 -91 1959 -91 
Q 1206 -91 779 398 
Q 353 888 353 1747 
Q 353 2609 779 3096 
Q 1206 3584 1959 3584 
z
" transform="scale(0.015625)"/>
      <path id="DejaVuSans-72" d="M 2631 2963 
Q 2534 3019 2420 3045 
Q 2306 3072 2169 3072 
Q 1681 3072 1420 2755 
Q 1159 2438 1159 1844 
L 1159 0 
L 581 0 
L 581 3500 
L 1159 3500 
L 1159 2956 
Q 1341 3275 1631 3429 
Q 1922 3584 2338 3584 
Q 2397 3584 2469 3576 
Q 2541 3569 2628 3553 
L 2631 2963 
z
" transform="scale(0.015625)"/>
      <path id="DejaVuSans-6d" d="M 3328 2828 
Q 3544 3216 3844 3400 
Q 4144 3584 4550 3584 
Q 5097 3584 5394 3201 
Q 5691 2819 5691 2113 
L 5691 0 
L 5113 0 
L 5113 2094 
Q 5113 2597 4934 2840 
Q 4756 3084 4391 3084 
Q 3944 3084 3684 2787 
Q 3425 2491 3425 1978 
L 3425 0 
L 2847 0 
L 2847 2094 
Q 2847 2600 2669 2842 
Q 2491 3084 2119 3084 
Q 1678 3084 1418 2786 
Q 1159 2488 1159 1978 
L 1159 0 
L 581 0 
L 581 3500 
L 1159 3500 
L 1159 2956 
Q 1356 3278 1631 3431 
Q 1906 3584 2284 3584 
Q 2666 3584 2933 3390 
Q 3200 3197 3328 2828 
z
" transform="scale(0.015625)"/>
      <path id="DejaVuSans-7a" d="M 353 3500 
L 3084 3500 
L 3084 2975 
L 922 459 
L 3084 459 
L 3084 0 
L 275 0 
L 275 525 
L 2438 3041 
L 353 3041 
L 353 3500 
z
" transform="scale(0.015625)"/>
      <path id="DejaVuSans-20" transform="scale(0.015625)"/>
      <path id="DejaVuSans-48" d="M 628 4666 
L 1259 4666 
L 1259 2753 
L 3553 2753 
L 3553 4666 
L 4184 4666 
L 4184 0 
L 3553 0 
L 3553 2222 
L 1259 2222 
L 1259 0 
L 628 0 
L 628 4666 
z
" transform="scale(0.015625)"/>
      <path id="DejaVuSans-49" d="M 628 4666 
L 1259 4666 
L 1259 0 
L 628 0 
L 628 4666 
z
" transform="scale(0.015625)"/>
      <path id="DejaVuSans-47" d="M 3809 666 
L 3809 1919 
L 2778 1919 
L 2778 2438 
L 4434 2438 
L 4434 434 
Q 4069 175 3628 42 
Q 3188 -91 2688 -91 
Q 1594 -91 976 548 
Q 359 1188 359 2328 
Q 359 3472 976 4111 
Q 1594 4750 2688 4750 
Q 3144 4750 3555 4637 
Q 3966 4525 4313 4306 
L 4313 3634 
Q 3963 3931 3569 4081 
Q 3175 4231 2741 4231 
Q 1884 4231 1454 3753 
Q 1025 3275 1025 2328 
Q 1025 1384 1454 906 
Q 1884 428 2741 428 
Q 3075 428 3337 486 
Q 3600 544 3809 666 
z
" transform="scale(0.015625)"/>
      <path id="DejaVuSans-28" d="M 1984 4856 
Q 1566 4138 1362 3434 
Q 1159 2731 1159 2009 
Q 1159 1288 1364 580 
Q 1569 -128 1984 -844 
L 1484 -844 
Q 1016 -109 783 600 
Q 550 1309 550 2009 
Q 550 2706 781 3412 
Q 1013 4119 1484 4856 
L 1984 4856 
z
" transform="scale(0.015625)"/>
      <path id="DejaVuSans-78" d="M 3513 3500 
L 2247 1797 
L 3578 0 
L 2900 0 
L 1881 1375 
L 863 0 
L 184 0 
L 1544 1831 
L 300 3500 
L 978 3500 
L 1906 2253 
L 2834 3500 
L 3513 3500 
z
" transform="scale(0.015625)"/>
      <path id="DejaVuSans-3d" d="M 678 2906 
L 4684 2906 
L 4684 2381 
L 678 2381 
L 678 2906 
z
M 678 1631 
L 4684 1631 
L 4684 1100 
L 678 1100 
L 678 1631 
z
" transform="scale(0.015625)"/>
      <path id="DejaVuSans-29" d="M 513 4856 
L 1013 4856 
Q 1481 4119 1714 3412 
Q 1947 2706 1947 2009 
Q 1947 1309 1714 600 
Q 1481 -109 1013 -844 
L 513 -844 
Q 928 -128 1133 580 
Q 1338 1288 1338 2009 
Q 1338 2731 1133 3434 
Q 928 4138 513 4856 
z
" transform="scale(0.015625)"/>
      <path id="DejaVuSans-2c" d="M 750 794 
L 1409 794 
L 1409 256 
L 897 -744 
L 494 -744 
L 750 256 
L 750 794 
z
" transform="scale(0.015625)"/>
     </defs>
     <use xlink:href="#DejaVuSans-4e"/>
     <use xlink:href="#DejaVuSans-6f" x="74.804688"/>
     <use xlink:href="#DejaVuSans-72" x="135.986328"/>
     <use xlink:href="#DejaVuSans-6d" x="175.349609"/>
     <use xlink:href="#DejaVuSans-61" x="272.761719"/>
     <use xlink:href="#DejaVuSans-6c" x="334.041016"/>
     <use xlink:href="#DejaVuSans-69" x="361.824219"/>
     <use xlink:href="#DejaVuSans-7a" x="389.607422"/>
     <use xlink:href="#DejaVuSans-65" x="442.097656"/>
     <use xlink:href="#DejaVuSans-64" x="503.621094"/>
     <use xlink:href="#DejaVuSans-20" x="567.097656"/>
     <use xlink:href="#DejaVuSans-48" x="598.884766"/>
     <use xlink:href="#DejaVuSans-73" x="674.080078"/>
     <use xlink:href="#DejaVuSans-49" x="726.179688"/>
     <use xlink:href="#DejaVuSans-47" x="755.671875"/>
     <use xlink:href="#DejaVuSans-28" x="833.162109"/>
     <use xlink:href="#DejaVuSans-78" x="872.175781"/>
     <use xlink:href="#DejaVuSans-3d" x="931.355469"/>
     <use xlink:href="#DejaVuSans-31" x="1015.144531"/>
     <use xlink:href="#DejaVuSans-30" x="1078.767578"/>
     <use xlink:href="#DejaVuSans-30" x="1142.390625"/>
     <use xlink:href="#DejaVuSans-6d" x="1206.013672"/>
     <use xlink:href="#DejaVuSans-29" x="1303.425781"/>
     <use xlink:href="#DejaVuSans-2c" x="1342.439453"/>
     <use xlink:href="#DejaVuSans-20" x="1374.226562"/>
     <use xlink:href="#DejaVuSans-6d" x="1406.013672"/>
     <use xlink:href="#DejaVuSans-65" x="1503.425781"/>
     <use xlink:href="#DejaVuSans-61" x="1564.949219"/>
     <use xlink:href="#DejaVuSans-6e" x="1626.228516"/>
     <use xlink:href="#DejaVuSans-20" x="1689.607422"/>
     <use xlink:href="#DejaVuSans-3d" x="1721.394531"/>
     <use xlink:href="#DejaVuSans-20" x="1805.183594"/>
     <use xlink:href="#DejaVuSans-30" x="1836.970703"/>
     <use xlink:href="#DejaVuSans-2e" x="1900.59375"/>
     <use xlink:href="#DejaVuSans-33" x="1932.380859"/>
     <use xlink:href="#DejaVuSans-31" x="1996.003906"/>
     <use xlink:href="#DejaVuSans-2c" x="2059.626953"/>
     <use xlink:href="#DejaVuSans-20" x="2091.414062"/>
     <use xlink:href="#DejaVuSans-73" x="2123.201172"/>
     <use xlink:href="#DejaVuSans-74" x="2175.300781"/>
     <use xlink:href="#DejaVuSans-64" x="2214.509766"/>
     <use xlink:href="#DejaVuSans-76" x="2277.986328"/>
     <use xlink:href="#DejaVuSans-20" x="2337.166016"/>
     <use xlink:href="#DejaVuSans-3d" x="2368.953125"/>
     <use xlink:href="#DejaVuSans-20" x="2452.742188"/>
     <use xlink:href="#DejaVuSans-30" x="2484.529297"/>
     <use xlink:href="#DejaVuSans-2e" x="2548.152344"/>
     <use xlink:href="#DejaVuSans-31" x="2579.939453"/>
     <use xlink:href="#DejaVuSans-35" x="2643.5625"/>
    </g>
   </g>
  </g>
 </g>
 <defs>
  <clipPath id="p4ebf05d738">
   <rect x="57.6" y="41.472" width="357.12" height="266.112"/>
  </clipPath>
 </defs>
</svg>
